<?xml version="1.0" encoding="UTF-8" standalone="no"?>
<!-- Created with Inkscape (http://www.inkscape.org/) -->

<svg
   width="210mm"
   height="297mm"
   viewBox="0 0 210 297"
   version="1.1"
   id="svg5"
   inkscape:version="1.2.1 (1:1.2.1+202210291244+9c6d41e410)"
   sodipodi:docname="logo.svg"
   inkscape:export-filename="logo.png"
   inkscape:export-xdpi="2149.866"
   inkscape:export-ydpi="2149.866"
   xmlns:inkscape="http://www.inkscape.org/namespaces/inkscape"
   xmlns:sodipodi="http://sodipodi.sourceforge.net/DTD/sodipodi-0.dtd"
   xmlns="http://www.w3.org/2000/svg"
   xmlns:svg="http://www.w3.org/2000/svg">
  <sodipodi:namedview
     id="namedview7"
     pagecolor="#ffffff"
     bordercolor="#999999"
     borderopacity="1"
     inkscape:showpageshadow="0"
     inkscape:pageopacity="0"
     inkscape:pagecheckerboard="0"
     inkscape:deskcolor="#d1d1d1"
     inkscape:document-units="mm"
     showgrid="false"
     inkscape:zoom="4"
     inkscape:cx="252.375"
     inkscape:cy="508"
     inkscape:window-width="1600"
     inkscape:window-height="871"
     inkscape:window-x="1920"
     inkscape:window-y="180"
     inkscape:window-maximized="1"
     inkscape:current-layer="layer1" />
  <defs
     id="defs2" />
  <g
     inkscape:label="Calque 1"
     inkscape:groupmode="layer"
     id="layer1">
    <path
       id="rect1138"
       style="fill:none;stroke:#000000;stroke-width:0.7;stroke-linecap:round;stroke-linejoin:round;stroke-dasharray:none"
       d="m 54.971263,125.686 -1.108037,6.28399 3.141995,0.55402 0.389204,-2.20728 a 0.9656546,0.9656546 0 0 1 -0.756089,-1.11294 0.9656546,0.9656546 0 0 1 1.091139,-0.78723 l 0.383783,-2.17654 z" />
    <path
       id="rect1138-6"
       style="fill:none;stroke:#000000;stroke-width:0.7;stroke-linecap:round;stroke-linejoin:round;stroke-dasharray:none"
       d="m 60.727895,126.24002 0.383683,2.17597 a 0.9656546,0.9656546 0 0 1 1.09124,0.7878 0.9656546,0.9656546 0 0 1 -0.75609,1.11294 l 0.389204,2.20728 3.141996,-0.55402 -1.108037,-6.28399 z" />
    <path
       id="path1311"
       style="fill:none;stroke:#000000;stroke-width:0.7;stroke-linecap:round;stroke-linejoin:round;stroke-dasharray:none"
       d="m 62.298892,125.96301 -0.569418,-2.94232 c -0.197571,-1.1205 -1.171117,-1.9374 -2.308895,-1.9374 -1.137779,0 -2.111325,0.8169 -2.308897,1.9374 l -0.569422,2.94232"
       sodipodi:nodetypes="ccscc" />
  </g>
</svg>
