M48
; DRILL file {KiCad 6.0.11-2627ca5db0~126~ubuntu22.04.1} date lun. 06 nov. 2023 21:32:42
; FORMAT={-:-/ absolute / inch / decimal}
; #@! TF.CreationDate,2023-11-06T21:32:42+01:00
; #@! TF.GenerationSoftware,Kicad,Pcbnew,6.0.11-2627ca5db0~126~ubuntu22.04.1
; #@! TF.FileFunction,NonPlated,1,2,NPTH
FMAT,2
INCH
; #@! TA.AperFunction,NonPlated,NPTH,ComponentDrill
T1C0.0670
; #@! TA.AperFunction,NonPlated,NPTH,ComponentDrill
T2C0.1200
; #@! TA.AperFunction,NonPlated,NPTH,ComponentDrill
T3C0.1570
%
G90
G05
T1
X1.1125Y-11.3133
X1.1125Y-12.0633
X1.2063Y-15.0633
X1.3Y-12.8133
X1.3938Y-13.5633
X1.5125Y-11.3133
X1.5125Y-12.0633
X1.5813Y-14.3133
X1.6062Y-15.0633
X1.7Y-12.8133
X1.7937Y-13.5633
X1.8625Y-11.3133
X1.8625Y-12.0633
X1.9812Y-14.3133
X2.1437Y-15.0633
X2.2375Y-12.8133
X2.2625Y-11.3133
X2.2625Y-12.0633
X2.425Y-13.5633
X2.5437Y-15.0633
X2.6125Y-11.3133
X2.6125Y-12.0633
X2.6375Y-12.8133
X2.8Y-14.3133
X2.825Y-13.5633
X2.9875Y-12.8133
X3.0125Y-11.3133
X3.0125Y-12.0633
X3.0812Y-15.0633
X3.175Y-13.5633
X3.2Y-14.3133
X3.3625Y-11.3133
X3.3625Y-12.0633
X3.3875Y-12.8133
X3.4812Y-15.0633
X3.55Y-14.3133
X3.575Y-13.5633
X3.7375Y-12.8133
X3.7625Y-11.3133
X3.7625Y-12.0633
X3.925Y-13.5633
X3.95Y-14.3133
X4.1125Y-11.3133
X4.1125Y-12.0633
X4.1375Y-12.8133
X4.3Y-14.3133
X4.325Y-13.5633
X4.4875Y-12.8133
X4.5125Y-11.3133
X4.5125Y-12.0633
X4.675Y-13.5633
X4.7Y-14.3133
X4.7687Y-15.0633
X4.8625Y-11.3133
X4.8625Y-12.0633
X4.8875Y-12.8133
X5.05Y-14.3133
X5.075Y-13.5633
X5.1688Y-15.0633
X5.2375Y-12.8133
X5.2625Y-11.3133
X5.2625Y-12.0633
X5.425Y-13.5633
X5.45Y-14.3133
X5.6375Y-12.8133
X5.8Y-14.3133
X5.825Y-13.5633
X6.2Y-14.3133
X6.6438Y-11.3125
X6.6438Y-12.0625
X7.0188Y-12.8125
X7.0438Y-11.3125
X7.0438Y-12.0625
X7.2063Y-13.5625
X7.3938Y-11.3125
X7.3938Y-12.0625
X7.4188Y-12.8125
X7.5813Y-14.3125
X7.6063Y-13.5625
X7.7688Y-12.8125
X7.7938Y-11.3125
X7.7938Y-12.0625
X7.9563Y-13.5625
X7.9813Y-14.3125
X8.05Y-15.0625
X8.1438Y-11.3125
X8.1438Y-12.0625
X8.1688Y-12.8125
X8.3313Y-14.3125
X8.3563Y-13.5625
X8.45Y-15.0625
X8.5188Y-12.8125
X8.5438Y-11.3125
X8.5438Y-12.0625
X8.7063Y-13.5625
X8.7313Y-14.3125
X8.8938Y-11.3125
X8.8938Y-12.0625
X8.9188Y-12.8125
X9.0813Y-14.3125
X9.1063Y-13.5625
X9.2688Y-12.8125
X9.2938Y-11.3125
X9.2938Y-12.0625
X9.4563Y-13.5625
X9.4813Y-14.3125
X9.6438Y-11.3125
X9.6438Y-12.0625
X9.6688Y-12.8125
X9.8313Y-14.3125
X9.8313Y-15.0625
X9.8563Y-13.5625
X10.0188Y-12.8125
X10.0438Y-11.3125
X10.0438Y-12.0625
X10.2063Y-13.5625
X10.2313Y-14.3125
X10.2313Y-15.0625
X10.3938Y-11.3125
X10.3938Y-12.0625
X10.4188Y-12.8125
X10.5813Y-14.3125
X10.6063Y-13.5625
X10.7688Y-12.8125
X10.7938Y-11.3125
X10.7938Y-12.0625
X10.9563Y-13.5625
X10.9563Y-15.0625
X10.9813Y-14.3125
X11.1438Y-11.3125
X11.1438Y-12.0625
X11.1688Y-12.8125
X11.3563Y-13.5625
X11.3563Y-15.0625
X11.5188Y-12.8125
X11.5438Y-11.3125
X11.5438Y-12.0625
X11.6125Y-14.3125
X11.8938Y-15.0625
X11.9188Y-12.8125
X12.0125Y-14.3125
X12.175Y-13.5658
X12.2688Y-12.0625
X12.2938Y-15.0625
X12.4563Y-12.8125
X12.575Y-13.5658
X12.6438Y-14.3125
X12.6438Y-15.0625
X12.6688Y-12.0625
X12.8563Y-12.8125
X13.0438Y-14.3125
X13.0438Y-15.0625
X13.3938Y-11.3125
X13.3938Y-12.0625
X13.3938Y-12.8125
X13.3938Y-13.5625
X13.3938Y-14.3125
X13.3938Y-15.0625
X13.7938Y-11.3125
X13.7938Y-12.0625
X13.7938Y-12.8125
X13.7938Y-13.5625
X13.7938Y-14.3125
X13.7938Y-15.0625
X14.1438Y-11.3125
X14.1438Y-12.0625
X14.1438Y-12.8125
X14.1438Y-13.5625
X14.1438Y-14.3125
X14.1438Y-15.0625
X14.5438Y-11.3125
X14.5438Y-12.0625
X14.5438Y-12.8125
X14.5438Y-13.5625
X14.5438Y-14.3125
X14.5438Y-15.0625
X14.8938Y-11.3125
X14.8938Y-12.0625
X14.8938Y-12.8125
X14.8938Y-13.5625
X14.8938Y-14.3125
X14.8938Y-15.0625
X15.2938Y-11.3125
X15.2938Y-12.0625
X15.2938Y-12.8125
X15.2938Y-13.5625
X15.2938Y-14.3125
X15.2938Y-15.0625
X15.6438Y-11.3125
X15.6438Y-12.0625
X15.859Y-12.9875
X15.859Y-13.3875
X15.859Y-14.4875
X15.859Y-14.8875
X16.0438Y-11.3125
X16.0438Y-12.0625
T2
X1.3113Y-14.5883
X2.2512Y-14.5883
X4.1813Y-15.3383
X5.7674Y-15.3383
X7.4626Y-15.3375
X9.0487Y-15.3375
X11.905Y-13.8408
X11.9988Y-12.3375
X12.845Y-13.8408
X12.9388Y-12.3375
X16.134Y-12.7175
X16.134Y-13.6575
X16.134Y-14.2175
X16.134Y-15.1575
T3
X1.3113Y-13.9882
X1.3125Y-11.3133
X1.3125Y-12.0633
X1.4062Y-15.0633
X1.5Y-12.8133
X1.5938Y-13.5633
X1.7812Y-14.3133
X2.0625Y-11.3133
X2.0625Y-12.0633
X2.2512Y-13.9882
X2.3438Y-15.0633
X2.4375Y-12.8133
X2.625Y-13.5633
X2.8125Y-11.3133
X2.8125Y-12.0633
X3.0Y-14.3133
X3.1875Y-12.8133
X3.2812Y-15.0633
X3.375Y-13.5633
X3.5625Y-11.3133
X3.5625Y-12.0633
X3.75Y-14.3133
X3.9375Y-12.8133
X4.125Y-13.5633
X4.1813Y-14.7382
X4.3125Y-11.3133
X4.3125Y-12.0633
X4.5Y-14.3133
X4.6875Y-12.8133
X4.875Y-13.5633
X4.9688Y-15.0633
X5.0625Y-11.3133
X5.0625Y-12.0633
X5.25Y-14.3133
X5.4375Y-12.8133
X5.625Y-13.5633
X5.7674Y-14.7382
X6.0Y-14.3133
X6.8438Y-11.3125
X6.8438Y-12.0625
X7.2188Y-12.8125
X7.4063Y-13.5625
X7.4626Y-14.7375
X7.5938Y-11.3125
X7.5938Y-12.0625
X7.7813Y-14.3125
X7.9688Y-12.8125
X8.1563Y-13.5625
X8.25Y-15.0625
X8.3438Y-11.3125
X8.3438Y-12.0625
X8.5313Y-14.3125
X8.7188Y-12.8125
X8.9063Y-13.5625
X9.0487Y-14.7375
X9.0938Y-11.3125
X9.0938Y-12.0625
X9.2813Y-14.3125
X9.4688Y-12.8125
X9.6563Y-13.5625
X9.8438Y-11.3125
X9.8438Y-12.0625
X10.0313Y-14.3125
X10.0313Y-15.0625
X10.2188Y-12.8125
X10.4063Y-13.5625
X10.5938Y-11.3125
X10.5938Y-12.0625
X10.7813Y-14.3125
X10.9688Y-12.8125
X11.1563Y-13.5625
X11.1563Y-15.0625
X11.3438Y-11.3125
X11.3438Y-12.0625
X11.7188Y-12.8125
X11.8125Y-14.3125
X11.905Y-13.2408
X11.9988Y-11.7375
X12.0938Y-15.0625
X12.375Y-13.5658
X12.4688Y-12.0625
X12.6563Y-12.8125
X12.8438Y-14.3125
X12.8438Y-15.0625
X12.845Y-13.2408
X12.9388Y-11.7375
X13.5938Y-11.3125
X13.5938Y-12.0625
X13.5938Y-12.8125
X13.5938Y-13.5625
X13.5938Y-14.3125
X13.5938Y-15.0625
X14.3438Y-11.3125
X14.3438Y-12.0625
X14.3438Y-12.8125
X14.3438Y-13.5625
X14.3438Y-14.3125
X14.3438Y-15.0625
X15.0938Y-11.3125
X15.0938Y-12.0625
X15.0938Y-12.8125
X15.0938Y-13.5625
X15.0938Y-14.3125
X15.0938Y-15.0625
X15.534Y-12.7175
X15.534Y-13.6575
X15.534Y-14.2175
X15.534Y-15.1575
X15.8438Y-11.3125
X15.8438Y-12.0625
X15.859Y-13.1875
X15.859Y-14.6875
T0
M30
