%TF.GenerationSoftware,KiCad,Pcbnew,6.0.11-2627ca5db0~126~ubuntu22.04.1*%
%TF.CreationDate,2023-11-06T21:31:54+01:00*%
%TF.ProjectId,pcb,7063622e-6b69-4636-9164-5f7063625858,rev?*%
%TF.SameCoordinates,Original*%
%TF.FileFunction,Legend,Bot*%
%TF.FilePolarity,Positive*%
%FSLAX46Y46*%
G04 Gerber Fmt 4.6, Leading zero omitted, Abs format (unit mm)*
G04 Created by KiCad (PCBNEW 6.0.11-2627ca5db0~126~ubuntu22.04.1) date 2023-11-06 21:31:54*
%MOMM*%
%LPD*%
G01*
G04 APERTURE LIST*
%ADD10C,0.150000*%
%ADD11C,0.120000*%
G04 APERTURE END LIST*
D10*
%TO.C,D37*%
X210383680Y-279754464D02*
X209383680Y-279754464D01*
X209383680Y-279992559D01*
X209431300Y-280135416D01*
X209526538Y-280230654D01*
X209621776Y-280278273D01*
X209812252Y-280325892D01*
X209955109Y-280325892D01*
X210145585Y-280278273D01*
X210240823Y-280230654D01*
X210336061Y-280135416D01*
X210383680Y-279992559D01*
X210383680Y-279754464D01*
X209383680Y-280659226D02*
X209383680Y-281278273D01*
X209764633Y-280944940D01*
X209764633Y-281087797D01*
X209812252Y-281183035D01*
X209859871Y-281230654D01*
X209955109Y-281278273D01*
X210193204Y-281278273D01*
X210288442Y-281230654D01*
X210336061Y-281183035D01*
X210383680Y-281087797D01*
X210383680Y-280802083D01*
X210336061Y-280706845D01*
X210288442Y-280659226D01*
X209383680Y-281611607D02*
X209383680Y-282278273D01*
X210383680Y-281849702D01*
%TO.C,D15*%
X79414880Y-317873214D02*
X78414880Y-317873214D01*
X78414880Y-318111309D01*
X78462500Y-318254166D01*
X78557738Y-318349404D01*
X78652976Y-318397023D01*
X78843452Y-318444642D01*
X78986309Y-318444642D01*
X79176785Y-318397023D01*
X79272023Y-318349404D01*
X79367261Y-318254166D01*
X79414880Y-318111309D01*
X79414880Y-317873214D01*
X79414880Y-319397023D02*
X79414880Y-318825595D01*
X79414880Y-319111309D02*
X78414880Y-319111309D01*
X78557738Y-319016071D01*
X78652976Y-318920833D01*
X78700595Y-318825595D01*
X78414880Y-320301785D02*
X78414880Y-319825595D01*
X78891071Y-319777976D01*
X78843452Y-319825595D01*
X78795833Y-319920833D01*
X78795833Y-320158928D01*
X78843452Y-320254166D01*
X78891071Y-320301785D01*
X78986309Y-320349404D01*
X79224404Y-320349404D01*
X79319642Y-320301785D01*
X79367261Y-320254166D01*
X79414880Y-320158928D01*
X79414880Y-319920833D01*
X79367261Y-319825595D01*
X79319642Y-319777976D01*
%TO.C,D84*%
X272296180Y-355954464D02*
X271296180Y-355954464D01*
X271296180Y-356192559D01*
X271343800Y-356335416D01*
X271439038Y-356430654D01*
X271534276Y-356478273D01*
X271724752Y-356525892D01*
X271867609Y-356525892D01*
X272058085Y-356478273D01*
X272153323Y-356430654D01*
X272248561Y-356335416D01*
X272296180Y-356192559D01*
X272296180Y-355954464D01*
X271724752Y-357097321D02*
X271677133Y-357002083D01*
X271629514Y-356954464D01*
X271534276Y-356906845D01*
X271486657Y-356906845D01*
X271391419Y-356954464D01*
X271343800Y-357002083D01*
X271296180Y-357097321D01*
X271296180Y-357287797D01*
X271343800Y-357383035D01*
X271391419Y-357430654D01*
X271486657Y-357478273D01*
X271534276Y-357478273D01*
X271629514Y-357430654D01*
X271677133Y-357383035D01*
X271724752Y-357287797D01*
X271724752Y-357097321D01*
X271772371Y-357002083D01*
X271819990Y-356954464D01*
X271915228Y-356906845D01*
X272105704Y-356906845D01*
X272200942Y-356954464D01*
X272248561Y-357002083D01*
X272296180Y-357097321D01*
X272296180Y-357287797D01*
X272248561Y-357383035D01*
X272200942Y-357430654D01*
X272105704Y-357478273D01*
X271915228Y-357478273D01*
X271819990Y-357430654D01*
X271772371Y-357383035D01*
X271724752Y-357287797D01*
X271629514Y-358335416D02*
X272296180Y-358335416D01*
X271248561Y-358097321D02*
X271962847Y-357859226D01*
X271962847Y-358478273D01*
%TO.C,D81*%
X215146180Y-355954464D02*
X214146180Y-355954464D01*
X214146180Y-356192559D01*
X214193800Y-356335416D01*
X214289038Y-356430654D01*
X214384276Y-356478273D01*
X214574752Y-356525892D01*
X214717609Y-356525892D01*
X214908085Y-356478273D01*
X215003323Y-356430654D01*
X215098561Y-356335416D01*
X215146180Y-356192559D01*
X215146180Y-355954464D01*
X214574752Y-357097321D02*
X214527133Y-357002083D01*
X214479514Y-356954464D01*
X214384276Y-356906845D01*
X214336657Y-356906845D01*
X214241419Y-356954464D01*
X214193800Y-357002083D01*
X214146180Y-357097321D01*
X214146180Y-357287797D01*
X214193800Y-357383035D01*
X214241419Y-357430654D01*
X214336657Y-357478273D01*
X214384276Y-357478273D01*
X214479514Y-357430654D01*
X214527133Y-357383035D01*
X214574752Y-357287797D01*
X214574752Y-357097321D01*
X214622371Y-357002083D01*
X214669990Y-356954464D01*
X214765228Y-356906845D01*
X214955704Y-356906845D01*
X215050942Y-356954464D01*
X215098561Y-357002083D01*
X215146180Y-357097321D01*
X215146180Y-357287797D01*
X215098561Y-357383035D01*
X215050942Y-357430654D01*
X214955704Y-357478273D01*
X214765228Y-357478273D01*
X214669990Y-357430654D01*
X214622371Y-357383035D01*
X214574752Y-357287797D01*
X215146180Y-358430654D02*
X215146180Y-357859226D01*
X215146180Y-358144940D02*
X214146180Y-358144940D01*
X214289038Y-358049702D01*
X214384276Y-357954464D01*
X214431895Y-357859226D01*
%TO.C,D83*%
X253246180Y-355954464D02*
X252246180Y-355954464D01*
X252246180Y-356192559D01*
X252293800Y-356335416D01*
X252389038Y-356430654D01*
X252484276Y-356478273D01*
X252674752Y-356525892D01*
X252817609Y-356525892D01*
X253008085Y-356478273D01*
X253103323Y-356430654D01*
X253198561Y-356335416D01*
X253246180Y-356192559D01*
X253246180Y-355954464D01*
X252674752Y-357097321D02*
X252627133Y-357002083D01*
X252579514Y-356954464D01*
X252484276Y-356906845D01*
X252436657Y-356906845D01*
X252341419Y-356954464D01*
X252293800Y-357002083D01*
X252246180Y-357097321D01*
X252246180Y-357287797D01*
X252293800Y-357383035D01*
X252341419Y-357430654D01*
X252436657Y-357478273D01*
X252484276Y-357478273D01*
X252579514Y-357430654D01*
X252627133Y-357383035D01*
X252674752Y-357287797D01*
X252674752Y-357097321D01*
X252722371Y-357002083D01*
X252769990Y-356954464D01*
X252865228Y-356906845D01*
X253055704Y-356906845D01*
X253150942Y-356954464D01*
X253198561Y-357002083D01*
X253246180Y-357097321D01*
X253246180Y-357287797D01*
X253198561Y-357383035D01*
X253150942Y-357430654D01*
X253055704Y-357478273D01*
X252865228Y-357478273D01*
X252769990Y-357430654D01*
X252722371Y-357383035D01*
X252674752Y-357287797D01*
X252246180Y-357811607D02*
X252246180Y-358430654D01*
X252627133Y-358097321D01*
X252627133Y-358240178D01*
X252674752Y-358335416D01*
X252722371Y-358383035D01*
X252817609Y-358430654D01*
X253055704Y-358430654D01*
X253150942Y-358383035D01*
X253198561Y-358335416D01*
X253246180Y-358240178D01*
X253246180Y-357954464D01*
X253198561Y-357859226D01*
X253150942Y-357811607D01*
%TO.C,D44*%
X381833680Y-279754464D02*
X380833680Y-279754464D01*
X380833680Y-279992559D01*
X380881300Y-280135416D01*
X380976538Y-280230654D01*
X381071776Y-280278273D01*
X381262252Y-280325892D01*
X381405109Y-280325892D01*
X381595585Y-280278273D01*
X381690823Y-280230654D01*
X381786061Y-280135416D01*
X381833680Y-279992559D01*
X381833680Y-279754464D01*
X381167014Y-281183035D02*
X381833680Y-281183035D01*
X380786061Y-280944940D02*
X381500347Y-280706845D01*
X381500347Y-281325892D01*
X381167014Y-282135416D02*
X381833680Y-282135416D01*
X380786061Y-281897321D02*
X381500347Y-281659226D01*
X381500347Y-282278273D01*
%TO.C,D35*%
X172283680Y-279754464D02*
X171283680Y-279754464D01*
X171283680Y-279992559D01*
X171331300Y-280135416D01*
X171426538Y-280230654D01*
X171521776Y-280278273D01*
X171712252Y-280325892D01*
X171855109Y-280325892D01*
X172045585Y-280278273D01*
X172140823Y-280230654D01*
X172236061Y-280135416D01*
X172283680Y-279992559D01*
X172283680Y-279754464D01*
X171283680Y-280659226D02*
X171283680Y-281278273D01*
X171664633Y-280944940D01*
X171664633Y-281087797D01*
X171712252Y-281183035D01*
X171759871Y-281230654D01*
X171855109Y-281278273D01*
X172093204Y-281278273D01*
X172188442Y-281230654D01*
X172236061Y-281183035D01*
X172283680Y-281087797D01*
X172283680Y-280802083D01*
X172236061Y-280706845D01*
X172188442Y-280659226D01*
X171283680Y-282183035D02*
X171283680Y-281706845D01*
X171759871Y-281659226D01*
X171712252Y-281706845D01*
X171664633Y-281802083D01*
X171664633Y-282040178D01*
X171712252Y-282135416D01*
X171759871Y-282183035D01*
X171855109Y-282230654D01*
X172093204Y-282230654D01*
X172188442Y-282183035D01*
X172236061Y-282135416D01*
X172283680Y-282040178D01*
X172283680Y-281802083D01*
X172236061Y-281706845D01*
X172188442Y-281659226D01*
%TO.C,D95*%
X343733680Y-375004464D02*
X342733680Y-375004464D01*
X342733680Y-375242559D01*
X342781300Y-375385416D01*
X342876538Y-375480654D01*
X342971776Y-375528273D01*
X343162252Y-375575892D01*
X343305109Y-375575892D01*
X343495585Y-375528273D01*
X343590823Y-375480654D01*
X343686061Y-375385416D01*
X343733680Y-375242559D01*
X343733680Y-375004464D01*
X343733680Y-376052083D02*
X343733680Y-376242559D01*
X343686061Y-376337797D01*
X343638442Y-376385416D01*
X343495585Y-376480654D01*
X343305109Y-376528273D01*
X342924157Y-376528273D01*
X342828919Y-376480654D01*
X342781300Y-376433035D01*
X342733680Y-376337797D01*
X342733680Y-376147321D01*
X342781300Y-376052083D01*
X342828919Y-376004464D01*
X342924157Y-375956845D01*
X343162252Y-375956845D01*
X343257490Y-376004464D01*
X343305109Y-376052083D01*
X343352728Y-376147321D01*
X343352728Y-376337797D01*
X343305109Y-376433035D01*
X343257490Y-376480654D01*
X343162252Y-376528273D01*
X342733680Y-377433035D02*
X342733680Y-376956845D01*
X343209871Y-376909226D01*
X343162252Y-376956845D01*
X343114633Y-377052083D01*
X343114633Y-377290178D01*
X343162252Y-377385416D01*
X343209871Y-377433035D01*
X343305109Y-377480654D01*
X343543204Y-377480654D01*
X343638442Y-377433035D01*
X343686061Y-377385416D01*
X343733680Y-377290178D01*
X343733680Y-377052083D01*
X343686061Y-376956845D01*
X343638442Y-376909226D01*
%TO.C,D88*%
X362783680Y-355954464D02*
X361783680Y-355954464D01*
X361783680Y-356192559D01*
X361831300Y-356335416D01*
X361926538Y-356430654D01*
X362021776Y-356478273D01*
X362212252Y-356525892D01*
X362355109Y-356525892D01*
X362545585Y-356478273D01*
X362640823Y-356430654D01*
X362736061Y-356335416D01*
X362783680Y-356192559D01*
X362783680Y-355954464D01*
X362212252Y-357097321D02*
X362164633Y-357002083D01*
X362117014Y-356954464D01*
X362021776Y-356906845D01*
X361974157Y-356906845D01*
X361878919Y-356954464D01*
X361831300Y-357002083D01*
X361783680Y-357097321D01*
X361783680Y-357287797D01*
X361831300Y-357383035D01*
X361878919Y-357430654D01*
X361974157Y-357478273D01*
X362021776Y-357478273D01*
X362117014Y-357430654D01*
X362164633Y-357383035D01*
X362212252Y-357287797D01*
X362212252Y-357097321D01*
X362259871Y-357002083D01*
X362307490Y-356954464D01*
X362402728Y-356906845D01*
X362593204Y-356906845D01*
X362688442Y-356954464D01*
X362736061Y-357002083D01*
X362783680Y-357097321D01*
X362783680Y-357287797D01*
X362736061Y-357383035D01*
X362688442Y-357430654D01*
X362593204Y-357478273D01*
X362402728Y-357478273D01*
X362307490Y-357430654D01*
X362259871Y-357383035D01*
X362212252Y-357287797D01*
X362212252Y-358049702D02*
X362164633Y-357954464D01*
X362117014Y-357906845D01*
X362021776Y-357859226D01*
X361974157Y-357859226D01*
X361878919Y-357906845D01*
X361831300Y-357954464D01*
X361783680Y-358049702D01*
X361783680Y-358240178D01*
X361831300Y-358335416D01*
X361878919Y-358383035D01*
X361974157Y-358430654D01*
X362021776Y-358430654D01*
X362117014Y-358383035D01*
X362164633Y-358335416D01*
X362212252Y-358240178D01*
X362212252Y-358049702D01*
X362259871Y-357954464D01*
X362307490Y-357906845D01*
X362402728Y-357859226D01*
X362593204Y-357859226D01*
X362688442Y-357906845D01*
X362736061Y-357954464D01*
X362783680Y-358049702D01*
X362783680Y-358240178D01*
X362736061Y-358335416D01*
X362688442Y-358383035D01*
X362593204Y-358430654D01*
X362402728Y-358430654D01*
X362307490Y-358383035D01*
X362259871Y-358335416D01*
X362212252Y-358240178D01*
%TO.C,D28*%
X112752380Y-355973214D02*
X111752380Y-355973214D01*
X111752380Y-356211309D01*
X111800000Y-356354166D01*
X111895238Y-356449404D01*
X111990476Y-356497023D01*
X112180952Y-356544642D01*
X112323809Y-356544642D01*
X112514285Y-356497023D01*
X112609523Y-356449404D01*
X112704761Y-356354166D01*
X112752380Y-356211309D01*
X112752380Y-355973214D01*
X111847619Y-356925595D02*
X111800000Y-356973214D01*
X111752380Y-357068452D01*
X111752380Y-357306547D01*
X111800000Y-357401785D01*
X111847619Y-357449404D01*
X111942857Y-357497023D01*
X112038095Y-357497023D01*
X112180952Y-357449404D01*
X112752380Y-356877976D01*
X112752380Y-357497023D01*
X112180952Y-358068452D02*
X112133333Y-357973214D01*
X112085714Y-357925595D01*
X111990476Y-357877976D01*
X111942857Y-357877976D01*
X111847619Y-357925595D01*
X111800000Y-357973214D01*
X111752380Y-358068452D01*
X111752380Y-358258928D01*
X111800000Y-358354166D01*
X111847619Y-358401785D01*
X111942857Y-358449404D01*
X111990476Y-358449404D01*
X112085714Y-358401785D01*
X112133333Y-358354166D01*
X112180952Y-358258928D01*
X112180952Y-358068452D01*
X112228571Y-357973214D01*
X112276190Y-357925595D01*
X112371428Y-357877976D01*
X112561904Y-357877976D01*
X112657142Y-357925595D01*
X112704761Y-357973214D01*
X112752380Y-358068452D01*
X112752380Y-358258928D01*
X112704761Y-358354166D01*
X112657142Y-358401785D01*
X112561904Y-358449404D01*
X112371428Y-358449404D01*
X112276190Y-358401785D01*
X112228571Y-358354166D01*
X112180952Y-358258928D01*
%TO.C,D70*%
X205621180Y-336904464D02*
X204621180Y-336904464D01*
X204621180Y-337142559D01*
X204668800Y-337285416D01*
X204764038Y-337380654D01*
X204859276Y-337428273D01*
X205049752Y-337475892D01*
X205192609Y-337475892D01*
X205383085Y-337428273D01*
X205478323Y-337380654D01*
X205573561Y-337285416D01*
X205621180Y-337142559D01*
X205621180Y-336904464D01*
X204621180Y-337809226D02*
X204621180Y-338475892D01*
X205621180Y-338047321D01*
X204621180Y-339047321D02*
X204621180Y-339142559D01*
X204668800Y-339237797D01*
X204716419Y-339285416D01*
X204811657Y-339333035D01*
X205002133Y-339380654D01*
X205240228Y-339380654D01*
X205430704Y-339333035D01*
X205525942Y-339285416D01*
X205573561Y-339237797D01*
X205621180Y-339142559D01*
X205621180Y-339047321D01*
X205573561Y-338952083D01*
X205525942Y-338904464D01*
X205430704Y-338856845D01*
X205240228Y-338809226D01*
X205002133Y-338809226D01*
X204811657Y-338856845D01*
X204716419Y-338904464D01*
X204668800Y-338952083D01*
X204621180Y-339047321D01*
%TO.C,D41*%
X286583680Y-279754464D02*
X285583680Y-279754464D01*
X285583680Y-279992559D01*
X285631300Y-280135416D01*
X285726538Y-280230654D01*
X285821776Y-280278273D01*
X286012252Y-280325892D01*
X286155109Y-280325892D01*
X286345585Y-280278273D01*
X286440823Y-280230654D01*
X286536061Y-280135416D01*
X286583680Y-279992559D01*
X286583680Y-279754464D01*
X285917014Y-281183035D02*
X286583680Y-281183035D01*
X285536061Y-280944940D02*
X286250347Y-280706845D01*
X286250347Y-281325892D01*
X286583680Y-282230654D02*
X286583680Y-281659226D01*
X286583680Y-281944940D02*
X285583680Y-281944940D01*
X285726538Y-281849702D01*
X285821776Y-281754464D01*
X285869395Y-281659226D01*
%TO.C,D24*%
X141327380Y-336923214D02*
X140327380Y-336923214D01*
X140327380Y-337161309D01*
X140375000Y-337304166D01*
X140470238Y-337399404D01*
X140565476Y-337447023D01*
X140755952Y-337494642D01*
X140898809Y-337494642D01*
X141089285Y-337447023D01*
X141184523Y-337399404D01*
X141279761Y-337304166D01*
X141327380Y-337161309D01*
X141327380Y-336923214D01*
X140422619Y-337875595D02*
X140375000Y-337923214D01*
X140327380Y-338018452D01*
X140327380Y-338256547D01*
X140375000Y-338351785D01*
X140422619Y-338399404D01*
X140517857Y-338447023D01*
X140613095Y-338447023D01*
X140755952Y-338399404D01*
X141327380Y-337827976D01*
X141327380Y-338447023D01*
X140660714Y-339304166D02*
X141327380Y-339304166D01*
X140279761Y-339066071D02*
X140994047Y-338827976D01*
X140994047Y-339447023D01*
%TO.C,D34*%
X124658630Y-375023214D02*
X123658630Y-375023214D01*
X123658630Y-375261309D01*
X123706250Y-375404166D01*
X123801488Y-375499404D01*
X123896726Y-375547023D01*
X124087202Y-375594642D01*
X124230059Y-375594642D01*
X124420535Y-375547023D01*
X124515773Y-375499404D01*
X124611011Y-375404166D01*
X124658630Y-375261309D01*
X124658630Y-375023214D01*
X123658630Y-375927976D02*
X123658630Y-376547023D01*
X124039583Y-376213690D01*
X124039583Y-376356547D01*
X124087202Y-376451785D01*
X124134821Y-376499404D01*
X124230059Y-376547023D01*
X124468154Y-376547023D01*
X124563392Y-376499404D01*
X124611011Y-376451785D01*
X124658630Y-376356547D01*
X124658630Y-376070833D01*
X124611011Y-375975595D01*
X124563392Y-375927976D01*
X123991964Y-377404166D02*
X124658630Y-377404166D01*
X123611011Y-377166071D02*
X124325297Y-376927976D01*
X124325297Y-377547023D01*
%TO.C,D77*%
X362783680Y-336904464D02*
X361783680Y-336904464D01*
X361783680Y-337142559D01*
X361831300Y-337285416D01*
X361926538Y-337380654D01*
X362021776Y-337428273D01*
X362212252Y-337475892D01*
X362355109Y-337475892D01*
X362545585Y-337428273D01*
X362640823Y-337380654D01*
X362736061Y-337285416D01*
X362783680Y-337142559D01*
X362783680Y-336904464D01*
X361783680Y-337809226D02*
X361783680Y-338475892D01*
X362783680Y-338047321D01*
X361783680Y-338761607D02*
X361783680Y-339428273D01*
X362783680Y-338999702D01*
%TO.C,D86*%
X324683680Y-355954464D02*
X323683680Y-355954464D01*
X323683680Y-356192559D01*
X323731300Y-356335416D01*
X323826538Y-356430654D01*
X323921776Y-356478273D01*
X324112252Y-356525892D01*
X324255109Y-356525892D01*
X324445585Y-356478273D01*
X324540823Y-356430654D01*
X324636061Y-356335416D01*
X324683680Y-356192559D01*
X324683680Y-355954464D01*
X324112252Y-357097321D02*
X324064633Y-357002083D01*
X324017014Y-356954464D01*
X323921776Y-356906845D01*
X323874157Y-356906845D01*
X323778919Y-356954464D01*
X323731300Y-357002083D01*
X323683680Y-357097321D01*
X323683680Y-357287797D01*
X323731300Y-357383035D01*
X323778919Y-357430654D01*
X323874157Y-357478273D01*
X323921776Y-357478273D01*
X324017014Y-357430654D01*
X324064633Y-357383035D01*
X324112252Y-357287797D01*
X324112252Y-357097321D01*
X324159871Y-357002083D01*
X324207490Y-356954464D01*
X324302728Y-356906845D01*
X324493204Y-356906845D01*
X324588442Y-356954464D01*
X324636061Y-357002083D01*
X324683680Y-357097321D01*
X324683680Y-357287797D01*
X324636061Y-357383035D01*
X324588442Y-357430654D01*
X324493204Y-357478273D01*
X324302728Y-357478273D01*
X324207490Y-357430654D01*
X324159871Y-357383035D01*
X324112252Y-357287797D01*
X323683680Y-358335416D02*
X323683680Y-358144940D01*
X323731300Y-358049702D01*
X323778919Y-358002083D01*
X323921776Y-357906845D01*
X324112252Y-357859226D01*
X324493204Y-357859226D01*
X324588442Y-357906845D01*
X324636061Y-357954464D01*
X324683680Y-358049702D01*
X324683680Y-358240178D01*
X324636061Y-358335416D01*
X324588442Y-358383035D01*
X324493204Y-358430654D01*
X324255109Y-358430654D01*
X324159871Y-358383035D01*
X324112252Y-358335416D01*
X324064633Y-358240178D01*
X324064633Y-358049702D01*
X324112252Y-357954464D01*
X324159871Y-357906845D01*
X324255109Y-357859226D01*
%TO.C,D46*%
X172283680Y-298804464D02*
X171283680Y-298804464D01*
X171283680Y-299042559D01*
X171331300Y-299185416D01*
X171426538Y-299280654D01*
X171521776Y-299328273D01*
X171712252Y-299375892D01*
X171855109Y-299375892D01*
X172045585Y-299328273D01*
X172140823Y-299280654D01*
X172236061Y-299185416D01*
X172283680Y-299042559D01*
X172283680Y-298804464D01*
X171617014Y-300233035D02*
X172283680Y-300233035D01*
X171236061Y-299994940D02*
X171950347Y-299756845D01*
X171950347Y-300375892D01*
X171283680Y-301185416D02*
X171283680Y-300994940D01*
X171331300Y-300899702D01*
X171378919Y-300852083D01*
X171521776Y-300756845D01*
X171712252Y-300709226D01*
X172093204Y-300709226D01*
X172188442Y-300756845D01*
X172236061Y-300804464D01*
X172283680Y-300899702D01*
X172283680Y-301090178D01*
X172236061Y-301185416D01*
X172188442Y-301233035D01*
X172093204Y-301280654D01*
X171855109Y-301280654D01*
X171759871Y-301233035D01*
X171712252Y-301185416D01*
X171664633Y-301090178D01*
X171664633Y-300899702D01*
X171712252Y-300804464D01*
X171759871Y-300756845D01*
X171855109Y-300709226D01*
%TO.C,D21*%
X84177380Y-336923214D02*
X83177380Y-336923214D01*
X83177380Y-337161309D01*
X83225000Y-337304166D01*
X83320238Y-337399404D01*
X83415476Y-337447023D01*
X83605952Y-337494642D01*
X83748809Y-337494642D01*
X83939285Y-337447023D01*
X84034523Y-337399404D01*
X84129761Y-337304166D01*
X84177380Y-337161309D01*
X84177380Y-336923214D01*
X83272619Y-337875595D02*
X83225000Y-337923214D01*
X83177380Y-338018452D01*
X83177380Y-338256547D01*
X83225000Y-338351785D01*
X83272619Y-338399404D01*
X83367857Y-338447023D01*
X83463095Y-338447023D01*
X83605952Y-338399404D01*
X84177380Y-337827976D01*
X84177380Y-338447023D01*
X84177380Y-339399404D02*
X84177380Y-338827976D01*
X84177380Y-339113690D02*
X83177380Y-339113690D01*
X83320238Y-339018452D01*
X83415476Y-338923214D01*
X83463095Y-338827976D01*
%TO.C,D94*%
X324683680Y-375004464D02*
X323683680Y-375004464D01*
X323683680Y-375242559D01*
X323731300Y-375385416D01*
X323826538Y-375480654D01*
X323921776Y-375528273D01*
X324112252Y-375575892D01*
X324255109Y-375575892D01*
X324445585Y-375528273D01*
X324540823Y-375480654D01*
X324636061Y-375385416D01*
X324683680Y-375242559D01*
X324683680Y-375004464D01*
X324683680Y-376052083D02*
X324683680Y-376242559D01*
X324636061Y-376337797D01*
X324588442Y-376385416D01*
X324445585Y-376480654D01*
X324255109Y-376528273D01*
X323874157Y-376528273D01*
X323778919Y-376480654D01*
X323731300Y-376433035D01*
X323683680Y-376337797D01*
X323683680Y-376147321D01*
X323731300Y-376052083D01*
X323778919Y-376004464D01*
X323874157Y-375956845D01*
X324112252Y-375956845D01*
X324207490Y-376004464D01*
X324255109Y-376052083D01*
X324302728Y-376147321D01*
X324302728Y-376337797D01*
X324255109Y-376433035D01*
X324207490Y-376480654D01*
X324112252Y-376528273D01*
X324017014Y-377385416D02*
X324683680Y-377385416D01*
X323636061Y-377147321D02*
X324350347Y-376909226D01*
X324350347Y-377528273D01*
%TO.C,D87*%
X343733680Y-355954464D02*
X342733680Y-355954464D01*
X342733680Y-356192559D01*
X342781300Y-356335416D01*
X342876538Y-356430654D01*
X342971776Y-356478273D01*
X343162252Y-356525892D01*
X343305109Y-356525892D01*
X343495585Y-356478273D01*
X343590823Y-356430654D01*
X343686061Y-356335416D01*
X343733680Y-356192559D01*
X343733680Y-355954464D01*
X343162252Y-357097321D02*
X343114633Y-357002083D01*
X343067014Y-356954464D01*
X342971776Y-356906845D01*
X342924157Y-356906845D01*
X342828919Y-356954464D01*
X342781300Y-357002083D01*
X342733680Y-357097321D01*
X342733680Y-357287797D01*
X342781300Y-357383035D01*
X342828919Y-357430654D01*
X342924157Y-357478273D01*
X342971776Y-357478273D01*
X343067014Y-357430654D01*
X343114633Y-357383035D01*
X343162252Y-357287797D01*
X343162252Y-357097321D01*
X343209871Y-357002083D01*
X343257490Y-356954464D01*
X343352728Y-356906845D01*
X343543204Y-356906845D01*
X343638442Y-356954464D01*
X343686061Y-357002083D01*
X343733680Y-357097321D01*
X343733680Y-357287797D01*
X343686061Y-357383035D01*
X343638442Y-357430654D01*
X343543204Y-357478273D01*
X343352728Y-357478273D01*
X343257490Y-357430654D01*
X343209871Y-357383035D01*
X343162252Y-357287797D01*
X342733680Y-357811607D02*
X342733680Y-358478273D01*
X343733680Y-358049702D01*
%TO.C,D32*%
X57983630Y-375023214D02*
X56983630Y-375023214D01*
X56983630Y-375261309D01*
X57031250Y-375404166D01*
X57126488Y-375499404D01*
X57221726Y-375547023D01*
X57412202Y-375594642D01*
X57555059Y-375594642D01*
X57745535Y-375547023D01*
X57840773Y-375499404D01*
X57936011Y-375404166D01*
X57983630Y-375261309D01*
X57983630Y-375023214D01*
X56983630Y-375927976D02*
X56983630Y-376547023D01*
X57364583Y-376213690D01*
X57364583Y-376356547D01*
X57412202Y-376451785D01*
X57459821Y-376499404D01*
X57555059Y-376547023D01*
X57793154Y-376547023D01*
X57888392Y-376499404D01*
X57936011Y-376451785D01*
X57983630Y-376356547D01*
X57983630Y-376070833D01*
X57936011Y-375975595D01*
X57888392Y-375927976D01*
X57078869Y-376927976D02*
X57031250Y-376975595D01*
X56983630Y-377070833D01*
X56983630Y-377308928D01*
X57031250Y-377404166D01*
X57078869Y-377451785D01*
X57174107Y-377499404D01*
X57269345Y-377499404D01*
X57412202Y-377451785D01*
X57983630Y-376880357D01*
X57983630Y-377499404D01*
%TO.C,D12*%
X127039880Y-298823214D02*
X126039880Y-298823214D01*
X126039880Y-299061309D01*
X126087500Y-299204166D01*
X126182738Y-299299404D01*
X126277976Y-299347023D01*
X126468452Y-299394642D01*
X126611309Y-299394642D01*
X126801785Y-299347023D01*
X126897023Y-299299404D01*
X126992261Y-299204166D01*
X127039880Y-299061309D01*
X127039880Y-298823214D01*
X127039880Y-300347023D02*
X127039880Y-299775595D01*
X127039880Y-300061309D02*
X126039880Y-300061309D01*
X126182738Y-299966071D01*
X126277976Y-299870833D01*
X126325595Y-299775595D01*
X126135119Y-300727976D02*
X126087500Y-300775595D01*
X126039880Y-300870833D01*
X126039880Y-301108928D01*
X126087500Y-301204166D01*
X126135119Y-301251785D01*
X126230357Y-301299404D01*
X126325595Y-301299404D01*
X126468452Y-301251785D01*
X127039880Y-300680357D01*
X127039880Y-301299404D01*
%TO.C,D72*%
X243721180Y-336904464D02*
X242721180Y-336904464D01*
X242721180Y-337142559D01*
X242768800Y-337285416D01*
X242864038Y-337380654D01*
X242959276Y-337428273D01*
X243149752Y-337475892D01*
X243292609Y-337475892D01*
X243483085Y-337428273D01*
X243578323Y-337380654D01*
X243673561Y-337285416D01*
X243721180Y-337142559D01*
X243721180Y-336904464D01*
X242721180Y-337809226D02*
X242721180Y-338475892D01*
X243721180Y-338047321D01*
X242816419Y-338809226D02*
X242768800Y-338856845D01*
X242721180Y-338952083D01*
X242721180Y-339190178D01*
X242768800Y-339285416D01*
X242816419Y-339333035D01*
X242911657Y-339380654D01*
X243006895Y-339380654D01*
X243149752Y-339333035D01*
X243721180Y-338761607D01*
X243721180Y-339380654D01*
%TO.C,D6*%
X127039880Y-280249404D02*
X126039880Y-280249404D01*
X126039880Y-280487500D01*
X126087500Y-280630357D01*
X126182738Y-280725595D01*
X126277976Y-280773214D01*
X126468452Y-280820833D01*
X126611309Y-280820833D01*
X126801785Y-280773214D01*
X126897023Y-280725595D01*
X126992261Y-280630357D01*
X127039880Y-280487500D01*
X127039880Y-280249404D01*
X126039880Y-281677976D02*
X126039880Y-281487500D01*
X126087500Y-281392261D01*
X126135119Y-281344642D01*
X126277976Y-281249404D01*
X126468452Y-281201785D01*
X126849404Y-281201785D01*
X126944642Y-281249404D01*
X126992261Y-281297023D01*
X127039880Y-281392261D01*
X127039880Y-281582738D01*
X126992261Y-281677976D01*
X126944642Y-281725595D01*
X126849404Y-281773214D01*
X126611309Y-281773214D01*
X126516071Y-281725595D01*
X126468452Y-281677976D01*
X126420833Y-281582738D01*
X126420833Y-281392261D01*
X126468452Y-281297023D01*
X126516071Y-281249404D01*
X126611309Y-281201785D01*
%TO.C,D13*%
X36552380Y-317873214D02*
X35552380Y-317873214D01*
X35552380Y-318111309D01*
X35600000Y-318254166D01*
X35695238Y-318349404D01*
X35790476Y-318397023D01*
X35980952Y-318444642D01*
X36123809Y-318444642D01*
X36314285Y-318397023D01*
X36409523Y-318349404D01*
X36504761Y-318254166D01*
X36552380Y-318111309D01*
X36552380Y-317873214D01*
X36552380Y-319397023D02*
X36552380Y-318825595D01*
X36552380Y-319111309D02*
X35552380Y-319111309D01*
X35695238Y-319016071D01*
X35790476Y-318920833D01*
X35838095Y-318825595D01*
X35552380Y-319730357D02*
X35552380Y-320349404D01*
X35933333Y-320016071D01*
X35933333Y-320158928D01*
X35980952Y-320254166D01*
X36028571Y-320301785D01*
X36123809Y-320349404D01*
X36361904Y-320349404D01*
X36457142Y-320301785D01*
X36504761Y-320254166D01*
X36552380Y-320158928D01*
X36552380Y-319873214D01*
X36504761Y-319777976D01*
X36457142Y-319730357D01*
%TO.C,D80*%
X196096180Y-355954464D02*
X195096180Y-355954464D01*
X195096180Y-356192559D01*
X195143800Y-356335416D01*
X195239038Y-356430654D01*
X195334276Y-356478273D01*
X195524752Y-356525892D01*
X195667609Y-356525892D01*
X195858085Y-356478273D01*
X195953323Y-356430654D01*
X196048561Y-356335416D01*
X196096180Y-356192559D01*
X196096180Y-355954464D01*
X195524752Y-357097321D02*
X195477133Y-357002083D01*
X195429514Y-356954464D01*
X195334276Y-356906845D01*
X195286657Y-356906845D01*
X195191419Y-356954464D01*
X195143800Y-357002083D01*
X195096180Y-357097321D01*
X195096180Y-357287797D01*
X195143800Y-357383035D01*
X195191419Y-357430654D01*
X195286657Y-357478273D01*
X195334276Y-357478273D01*
X195429514Y-357430654D01*
X195477133Y-357383035D01*
X195524752Y-357287797D01*
X195524752Y-357097321D01*
X195572371Y-357002083D01*
X195619990Y-356954464D01*
X195715228Y-356906845D01*
X195905704Y-356906845D01*
X196000942Y-356954464D01*
X196048561Y-357002083D01*
X196096180Y-357097321D01*
X196096180Y-357287797D01*
X196048561Y-357383035D01*
X196000942Y-357430654D01*
X195905704Y-357478273D01*
X195715228Y-357478273D01*
X195619990Y-357430654D01*
X195572371Y-357383035D01*
X195524752Y-357287797D01*
X195096180Y-358097321D02*
X195096180Y-358192559D01*
X195143800Y-358287797D01*
X195191419Y-358335416D01*
X195286657Y-358383035D01*
X195477133Y-358430654D01*
X195715228Y-358430654D01*
X195905704Y-358383035D01*
X196000942Y-358335416D01*
X196048561Y-358287797D01*
X196096180Y-358192559D01*
X196096180Y-358097321D01*
X196048561Y-358002083D01*
X196000942Y-357954464D01*
X195905704Y-357906845D01*
X195715228Y-357859226D01*
X195477133Y-357859226D01*
X195286657Y-357906845D01*
X195191419Y-357954464D01*
X195143800Y-358002083D01*
X195096180Y-358097321D01*
%TO.C,D91*%
X253214930Y-374979464D02*
X252214930Y-374979464D01*
X252214930Y-375217559D01*
X252262550Y-375360416D01*
X252357788Y-375455654D01*
X252453026Y-375503273D01*
X252643502Y-375550892D01*
X252786359Y-375550892D01*
X252976835Y-375503273D01*
X253072073Y-375455654D01*
X253167311Y-375360416D01*
X253214930Y-375217559D01*
X253214930Y-374979464D01*
X253214930Y-376027083D02*
X253214930Y-376217559D01*
X253167311Y-376312797D01*
X253119692Y-376360416D01*
X252976835Y-376455654D01*
X252786359Y-376503273D01*
X252405407Y-376503273D01*
X252310169Y-376455654D01*
X252262550Y-376408035D01*
X252214930Y-376312797D01*
X252214930Y-376122321D01*
X252262550Y-376027083D01*
X252310169Y-375979464D01*
X252405407Y-375931845D01*
X252643502Y-375931845D01*
X252738740Y-375979464D01*
X252786359Y-376027083D01*
X252833978Y-376122321D01*
X252833978Y-376312797D01*
X252786359Y-376408035D01*
X252738740Y-376455654D01*
X252643502Y-376503273D01*
X253214930Y-377455654D02*
X253214930Y-376884226D01*
X253214930Y-377169940D02*
X252214930Y-377169940D01*
X252357788Y-377074702D01*
X252453026Y-376979464D01*
X252500645Y-376884226D01*
%TO.C,D25*%
X43696130Y-355973214D02*
X42696130Y-355973214D01*
X42696130Y-356211309D01*
X42743750Y-356354166D01*
X42838988Y-356449404D01*
X42934226Y-356497023D01*
X43124702Y-356544642D01*
X43267559Y-356544642D01*
X43458035Y-356497023D01*
X43553273Y-356449404D01*
X43648511Y-356354166D01*
X43696130Y-356211309D01*
X43696130Y-355973214D01*
X42791369Y-356925595D02*
X42743750Y-356973214D01*
X42696130Y-357068452D01*
X42696130Y-357306547D01*
X42743750Y-357401785D01*
X42791369Y-357449404D01*
X42886607Y-357497023D01*
X42981845Y-357497023D01*
X43124702Y-357449404D01*
X43696130Y-356877976D01*
X43696130Y-357497023D01*
X42696130Y-358401785D02*
X42696130Y-357925595D01*
X43172321Y-357877976D01*
X43124702Y-357925595D01*
X43077083Y-358020833D01*
X43077083Y-358258928D01*
X43124702Y-358354166D01*
X43172321Y-358401785D01*
X43267559Y-358449404D01*
X43505654Y-358449404D01*
X43600892Y-358401785D01*
X43648511Y-358354166D01*
X43696130Y-358258928D01*
X43696130Y-358020833D01*
X43648511Y-357925595D01*
X43600892Y-357877976D01*
%TO.C,D55*%
X362783680Y-298804464D02*
X361783680Y-298804464D01*
X361783680Y-299042559D01*
X361831300Y-299185416D01*
X361926538Y-299280654D01*
X362021776Y-299328273D01*
X362212252Y-299375892D01*
X362355109Y-299375892D01*
X362545585Y-299328273D01*
X362640823Y-299280654D01*
X362736061Y-299185416D01*
X362783680Y-299042559D01*
X362783680Y-298804464D01*
X361783680Y-300280654D02*
X361783680Y-299804464D01*
X362259871Y-299756845D01*
X362212252Y-299804464D01*
X362164633Y-299899702D01*
X362164633Y-300137797D01*
X362212252Y-300233035D01*
X362259871Y-300280654D01*
X362355109Y-300328273D01*
X362593204Y-300328273D01*
X362688442Y-300280654D01*
X362736061Y-300233035D01*
X362783680Y-300137797D01*
X362783680Y-299899702D01*
X362736061Y-299804464D01*
X362688442Y-299756845D01*
X361783680Y-301233035D02*
X361783680Y-300756845D01*
X362259871Y-300709226D01*
X362212252Y-300756845D01*
X362164633Y-300852083D01*
X362164633Y-301090178D01*
X362212252Y-301185416D01*
X362259871Y-301233035D01*
X362355109Y-301280654D01*
X362593204Y-301280654D01*
X362688442Y-301233035D01*
X362736061Y-301185416D01*
X362783680Y-301090178D01*
X362783680Y-300852083D01*
X362736061Y-300756845D01*
X362688442Y-300709226D01*
%TO.C,D39*%
X248483680Y-279754464D02*
X247483680Y-279754464D01*
X247483680Y-279992559D01*
X247531300Y-280135416D01*
X247626538Y-280230654D01*
X247721776Y-280278273D01*
X247912252Y-280325892D01*
X248055109Y-280325892D01*
X248245585Y-280278273D01*
X248340823Y-280230654D01*
X248436061Y-280135416D01*
X248483680Y-279992559D01*
X248483680Y-279754464D01*
X247483680Y-280659226D02*
X247483680Y-281278273D01*
X247864633Y-280944940D01*
X247864633Y-281087797D01*
X247912252Y-281183035D01*
X247959871Y-281230654D01*
X248055109Y-281278273D01*
X248293204Y-281278273D01*
X248388442Y-281230654D01*
X248436061Y-281183035D01*
X248483680Y-281087797D01*
X248483680Y-280802083D01*
X248436061Y-280706845D01*
X248388442Y-280659226D01*
X248483680Y-281754464D02*
X248483680Y-281944940D01*
X248436061Y-282040178D01*
X248388442Y-282087797D01*
X248245585Y-282183035D01*
X248055109Y-282230654D01*
X247674157Y-282230654D01*
X247578919Y-282183035D01*
X247531300Y-282135416D01*
X247483680Y-282040178D01*
X247483680Y-281849702D01*
X247531300Y-281754464D01*
X247578919Y-281706845D01*
X247674157Y-281659226D01*
X247912252Y-281659226D01*
X248007490Y-281706845D01*
X248055109Y-281754464D01*
X248102728Y-281849702D01*
X248102728Y-282040178D01*
X248055109Y-282135416D01*
X248007490Y-282183035D01*
X247912252Y-282230654D01*
%TO.C,D48*%
X210383680Y-298804464D02*
X209383680Y-298804464D01*
X209383680Y-299042559D01*
X209431300Y-299185416D01*
X209526538Y-299280654D01*
X209621776Y-299328273D01*
X209812252Y-299375892D01*
X209955109Y-299375892D01*
X210145585Y-299328273D01*
X210240823Y-299280654D01*
X210336061Y-299185416D01*
X210383680Y-299042559D01*
X210383680Y-298804464D01*
X209717014Y-300233035D02*
X210383680Y-300233035D01*
X209336061Y-299994940D02*
X210050347Y-299756845D01*
X210050347Y-300375892D01*
X209812252Y-300899702D02*
X209764633Y-300804464D01*
X209717014Y-300756845D01*
X209621776Y-300709226D01*
X209574157Y-300709226D01*
X209478919Y-300756845D01*
X209431300Y-300804464D01*
X209383680Y-300899702D01*
X209383680Y-301090178D01*
X209431300Y-301185416D01*
X209478919Y-301233035D01*
X209574157Y-301280654D01*
X209621776Y-301280654D01*
X209717014Y-301233035D01*
X209764633Y-301185416D01*
X209812252Y-301090178D01*
X209812252Y-300899702D01*
X209859871Y-300804464D01*
X209907490Y-300756845D01*
X210002728Y-300709226D01*
X210193204Y-300709226D01*
X210288442Y-300756845D01*
X210336061Y-300804464D01*
X210383680Y-300899702D01*
X210383680Y-301090178D01*
X210336061Y-301185416D01*
X210288442Y-301233035D01*
X210193204Y-301280654D01*
X210002728Y-301280654D01*
X209907490Y-301233035D01*
X209859871Y-301185416D01*
X209812252Y-301090178D01*
%TO.C,D42*%
X343733680Y-279754464D02*
X342733680Y-279754464D01*
X342733680Y-279992559D01*
X342781300Y-280135416D01*
X342876538Y-280230654D01*
X342971776Y-280278273D01*
X343162252Y-280325892D01*
X343305109Y-280325892D01*
X343495585Y-280278273D01*
X343590823Y-280230654D01*
X343686061Y-280135416D01*
X343733680Y-279992559D01*
X343733680Y-279754464D01*
X343067014Y-281183035D02*
X343733680Y-281183035D01*
X342686061Y-280944940D02*
X343400347Y-280706845D01*
X343400347Y-281325892D01*
X342828919Y-281659226D02*
X342781300Y-281706845D01*
X342733680Y-281802083D01*
X342733680Y-282040178D01*
X342781300Y-282135416D01*
X342828919Y-282183035D01*
X342924157Y-282230654D01*
X343019395Y-282230654D01*
X343162252Y-282183035D01*
X343733680Y-281611607D01*
X343733680Y-282230654D01*
%TO.C,D27*%
X93702380Y-355973214D02*
X92702380Y-355973214D01*
X92702380Y-356211309D01*
X92750000Y-356354166D01*
X92845238Y-356449404D01*
X92940476Y-356497023D01*
X93130952Y-356544642D01*
X93273809Y-356544642D01*
X93464285Y-356497023D01*
X93559523Y-356449404D01*
X93654761Y-356354166D01*
X93702380Y-356211309D01*
X93702380Y-355973214D01*
X92797619Y-356925595D02*
X92750000Y-356973214D01*
X92702380Y-357068452D01*
X92702380Y-357306547D01*
X92750000Y-357401785D01*
X92797619Y-357449404D01*
X92892857Y-357497023D01*
X92988095Y-357497023D01*
X93130952Y-357449404D01*
X93702380Y-356877976D01*
X93702380Y-357497023D01*
X92702380Y-357830357D02*
X92702380Y-358497023D01*
X93702380Y-358068452D01*
%TO.C,D9*%
X69889880Y-299299404D02*
X68889880Y-299299404D01*
X68889880Y-299537500D01*
X68937500Y-299680357D01*
X69032738Y-299775595D01*
X69127976Y-299823214D01*
X69318452Y-299870833D01*
X69461309Y-299870833D01*
X69651785Y-299823214D01*
X69747023Y-299775595D01*
X69842261Y-299680357D01*
X69889880Y-299537500D01*
X69889880Y-299299404D01*
X69889880Y-300347023D02*
X69889880Y-300537500D01*
X69842261Y-300632738D01*
X69794642Y-300680357D01*
X69651785Y-300775595D01*
X69461309Y-300823214D01*
X69080357Y-300823214D01*
X68985119Y-300775595D01*
X68937500Y-300727976D01*
X68889880Y-300632738D01*
X68889880Y-300442261D01*
X68937500Y-300347023D01*
X68985119Y-300299404D01*
X69080357Y-300251785D01*
X69318452Y-300251785D01*
X69413690Y-300299404D01*
X69461309Y-300347023D01*
X69508928Y-300442261D01*
X69508928Y-300632738D01*
X69461309Y-300727976D01*
X69413690Y-300775595D01*
X69318452Y-300823214D01*
%TO.C,D67*%
X362783680Y-317854464D02*
X361783680Y-317854464D01*
X361783680Y-318092559D01*
X361831300Y-318235416D01*
X361926538Y-318330654D01*
X362021776Y-318378273D01*
X362212252Y-318425892D01*
X362355109Y-318425892D01*
X362545585Y-318378273D01*
X362640823Y-318330654D01*
X362736061Y-318235416D01*
X362783680Y-318092559D01*
X362783680Y-317854464D01*
X361783680Y-319283035D02*
X361783680Y-319092559D01*
X361831300Y-318997321D01*
X361878919Y-318949702D01*
X362021776Y-318854464D01*
X362212252Y-318806845D01*
X362593204Y-318806845D01*
X362688442Y-318854464D01*
X362736061Y-318902083D01*
X362783680Y-318997321D01*
X362783680Y-319187797D01*
X362736061Y-319283035D01*
X362688442Y-319330654D01*
X362593204Y-319378273D01*
X362355109Y-319378273D01*
X362259871Y-319330654D01*
X362212252Y-319283035D01*
X362164633Y-319187797D01*
X362164633Y-318997321D01*
X362212252Y-318902083D01*
X362259871Y-318854464D01*
X362355109Y-318806845D01*
X361783680Y-319711607D02*
X361783680Y-320378273D01*
X362783680Y-319949702D01*
%TO.C,D89*%
X381833680Y-355954464D02*
X380833680Y-355954464D01*
X380833680Y-356192559D01*
X380881300Y-356335416D01*
X380976538Y-356430654D01*
X381071776Y-356478273D01*
X381262252Y-356525892D01*
X381405109Y-356525892D01*
X381595585Y-356478273D01*
X381690823Y-356430654D01*
X381786061Y-356335416D01*
X381833680Y-356192559D01*
X381833680Y-355954464D01*
X381262252Y-357097321D02*
X381214633Y-357002083D01*
X381167014Y-356954464D01*
X381071776Y-356906845D01*
X381024157Y-356906845D01*
X380928919Y-356954464D01*
X380881300Y-357002083D01*
X380833680Y-357097321D01*
X380833680Y-357287797D01*
X380881300Y-357383035D01*
X380928919Y-357430654D01*
X381024157Y-357478273D01*
X381071776Y-357478273D01*
X381167014Y-357430654D01*
X381214633Y-357383035D01*
X381262252Y-357287797D01*
X381262252Y-357097321D01*
X381309871Y-357002083D01*
X381357490Y-356954464D01*
X381452728Y-356906845D01*
X381643204Y-356906845D01*
X381738442Y-356954464D01*
X381786061Y-357002083D01*
X381833680Y-357097321D01*
X381833680Y-357287797D01*
X381786061Y-357383035D01*
X381738442Y-357430654D01*
X381643204Y-357478273D01*
X381452728Y-357478273D01*
X381357490Y-357430654D01*
X381309871Y-357383035D01*
X381262252Y-357287797D01*
X381833680Y-357954464D02*
X381833680Y-358144940D01*
X381786061Y-358240178D01*
X381738442Y-358287797D01*
X381595585Y-358383035D01*
X381405109Y-358430654D01*
X381024157Y-358430654D01*
X380928919Y-358383035D01*
X380881300Y-358335416D01*
X380833680Y-358240178D01*
X380833680Y-358049702D01*
X380881300Y-357954464D01*
X380928919Y-357906845D01*
X381024157Y-357859226D01*
X381262252Y-357859226D01*
X381357490Y-357906845D01*
X381405109Y-357954464D01*
X381452728Y-358049702D01*
X381452728Y-358240178D01*
X381405109Y-358335416D01*
X381357490Y-358383035D01*
X381262252Y-358430654D01*
%TO.C,D43*%
X362783680Y-279754464D02*
X361783680Y-279754464D01*
X361783680Y-279992559D01*
X361831300Y-280135416D01*
X361926538Y-280230654D01*
X362021776Y-280278273D01*
X362212252Y-280325892D01*
X362355109Y-280325892D01*
X362545585Y-280278273D01*
X362640823Y-280230654D01*
X362736061Y-280135416D01*
X362783680Y-279992559D01*
X362783680Y-279754464D01*
X362117014Y-281183035D02*
X362783680Y-281183035D01*
X361736061Y-280944940D02*
X362450347Y-280706845D01*
X362450347Y-281325892D01*
X361783680Y-281611607D02*
X361783680Y-282230654D01*
X362164633Y-281897321D01*
X362164633Y-282040178D01*
X362212252Y-282135416D01*
X362259871Y-282183035D01*
X362355109Y-282230654D01*
X362593204Y-282230654D01*
X362688442Y-282183035D01*
X362736061Y-282135416D01*
X362783680Y-282040178D01*
X362783680Y-281754464D01*
X362736061Y-281659226D01*
X362688442Y-281611607D01*
%TO.C,D85*%
X298489930Y-355954464D02*
X297489930Y-355954464D01*
X297489930Y-356192559D01*
X297537550Y-356335416D01*
X297632788Y-356430654D01*
X297728026Y-356478273D01*
X297918502Y-356525892D01*
X298061359Y-356525892D01*
X298251835Y-356478273D01*
X298347073Y-356430654D01*
X298442311Y-356335416D01*
X298489930Y-356192559D01*
X298489930Y-355954464D01*
X297918502Y-357097321D02*
X297870883Y-357002083D01*
X297823264Y-356954464D01*
X297728026Y-356906845D01*
X297680407Y-356906845D01*
X297585169Y-356954464D01*
X297537550Y-357002083D01*
X297489930Y-357097321D01*
X297489930Y-357287797D01*
X297537550Y-357383035D01*
X297585169Y-357430654D01*
X297680407Y-357478273D01*
X297728026Y-357478273D01*
X297823264Y-357430654D01*
X297870883Y-357383035D01*
X297918502Y-357287797D01*
X297918502Y-357097321D01*
X297966121Y-357002083D01*
X298013740Y-356954464D01*
X298108978Y-356906845D01*
X298299454Y-356906845D01*
X298394692Y-356954464D01*
X298442311Y-357002083D01*
X298489930Y-357097321D01*
X298489930Y-357287797D01*
X298442311Y-357383035D01*
X298394692Y-357430654D01*
X298299454Y-357478273D01*
X298108978Y-357478273D01*
X298013740Y-357430654D01*
X297966121Y-357383035D01*
X297918502Y-357287797D01*
X297489930Y-358383035D02*
X297489930Y-357906845D01*
X297966121Y-357859226D01*
X297918502Y-357906845D01*
X297870883Y-358002083D01*
X297870883Y-358240178D01*
X297918502Y-358335416D01*
X297966121Y-358383035D01*
X298061359Y-358430654D01*
X298299454Y-358430654D01*
X298394692Y-358383035D01*
X298442311Y-358335416D01*
X298489930Y-358240178D01*
X298489930Y-358002083D01*
X298442311Y-357906845D01*
X298394692Y-357859226D01*
%TO.C,D50*%
X248483680Y-298804464D02*
X247483680Y-298804464D01*
X247483680Y-299042559D01*
X247531300Y-299185416D01*
X247626538Y-299280654D01*
X247721776Y-299328273D01*
X247912252Y-299375892D01*
X248055109Y-299375892D01*
X248245585Y-299328273D01*
X248340823Y-299280654D01*
X248436061Y-299185416D01*
X248483680Y-299042559D01*
X248483680Y-298804464D01*
X247483680Y-300280654D02*
X247483680Y-299804464D01*
X247959871Y-299756845D01*
X247912252Y-299804464D01*
X247864633Y-299899702D01*
X247864633Y-300137797D01*
X247912252Y-300233035D01*
X247959871Y-300280654D01*
X248055109Y-300328273D01*
X248293204Y-300328273D01*
X248388442Y-300280654D01*
X248436061Y-300233035D01*
X248483680Y-300137797D01*
X248483680Y-299899702D01*
X248436061Y-299804464D01*
X248388442Y-299756845D01*
X247483680Y-300947321D02*
X247483680Y-301042559D01*
X247531300Y-301137797D01*
X247578919Y-301185416D01*
X247674157Y-301233035D01*
X247864633Y-301280654D01*
X248102728Y-301280654D01*
X248293204Y-301233035D01*
X248388442Y-301185416D01*
X248436061Y-301137797D01*
X248483680Y-301042559D01*
X248483680Y-300947321D01*
X248436061Y-300852083D01*
X248388442Y-300804464D01*
X248293204Y-300756845D01*
X248102728Y-300709226D01*
X247864633Y-300709226D01*
X247674157Y-300756845D01*
X247578919Y-300804464D01*
X247531300Y-300852083D01*
X247483680Y-300947321D01*
%TO.C,D40*%
X267533680Y-279754464D02*
X266533680Y-279754464D01*
X266533680Y-279992559D01*
X266581300Y-280135416D01*
X266676538Y-280230654D01*
X266771776Y-280278273D01*
X266962252Y-280325892D01*
X267105109Y-280325892D01*
X267295585Y-280278273D01*
X267390823Y-280230654D01*
X267486061Y-280135416D01*
X267533680Y-279992559D01*
X267533680Y-279754464D01*
X266867014Y-281183035D02*
X267533680Y-281183035D01*
X266486061Y-280944940D02*
X267200347Y-280706845D01*
X267200347Y-281325892D01*
X266533680Y-281897321D02*
X266533680Y-281992559D01*
X266581300Y-282087797D01*
X266628919Y-282135416D01*
X266724157Y-282183035D01*
X266914633Y-282230654D01*
X267152728Y-282230654D01*
X267343204Y-282183035D01*
X267438442Y-282135416D01*
X267486061Y-282087797D01*
X267533680Y-281992559D01*
X267533680Y-281897321D01*
X267486061Y-281802083D01*
X267438442Y-281754464D01*
X267343204Y-281706845D01*
X267152728Y-281659226D01*
X266914633Y-281659226D01*
X266724157Y-281706845D01*
X266628919Y-281754464D01*
X266581300Y-281802083D01*
X266533680Y-281897321D01*
%TO.C,D92*%
X281821180Y-375004464D02*
X280821180Y-375004464D01*
X280821180Y-375242559D01*
X280868800Y-375385416D01*
X280964038Y-375480654D01*
X281059276Y-375528273D01*
X281249752Y-375575892D01*
X281392609Y-375575892D01*
X281583085Y-375528273D01*
X281678323Y-375480654D01*
X281773561Y-375385416D01*
X281821180Y-375242559D01*
X281821180Y-375004464D01*
X281821180Y-376052083D02*
X281821180Y-376242559D01*
X281773561Y-376337797D01*
X281725942Y-376385416D01*
X281583085Y-376480654D01*
X281392609Y-376528273D01*
X281011657Y-376528273D01*
X280916419Y-376480654D01*
X280868800Y-376433035D01*
X280821180Y-376337797D01*
X280821180Y-376147321D01*
X280868800Y-376052083D01*
X280916419Y-376004464D01*
X281011657Y-375956845D01*
X281249752Y-375956845D01*
X281344990Y-376004464D01*
X281392609Y-376052083D01*
X281440228Y-376147321D01*
X281440228Y-376337797D01*
X281392609Y-376433035D01*
X281344990Y-376480654D01*
X281249752Y-376528273D01*
X280916419Y-376909226D02*
X280868800Y-376956845D01*
X280821180Y-377052083D01*
X280821180Y-377290178D01*
X280868800Y-377385416D01*
X280916419Y-377433035D01*
X281011657Y-377480654D01*
X281106895Y-377480654D01*
X281249752Y-377433035D01*
X281821180Y-376861607D01*
X281821180Y-377480654D01*
%TO.C,D66*%
X343733680Y-317854464D02*
X342733680Y-317854464D01*
X342733680Y-318092559D01*
X342781300Y-318235416D01*
X342876538Y-318330654D01*
X342971776Y-318378273D01*
X343162252Y-318425892D01*
X343305109Y-318425892D01*
X343495585Y-318378273D01*
X343590823Y-318330654D01*
X343686061Y-318235416D01*
X343733680Y-318092559D01*
X343733680Y-317854464D01*
X342733680Y-319283035D02*
X342733680Y-319092559D01*
X342781300Y-318997321D01*
X342828919Y-318949702D01*
X342971776Y-318854464D01*
X343162252Y-318806845D01*
X343543204Y-318806845D01*
X343638442Y-318854464D01*
X343686061Y-318902083D01*
X343733680Y-318997321D01*
X343733680Y-319187797D01*
X343686061Y-319283035D01*
X343638442Y-319330654D01*
X343543204Y-319378273D01*
X343305109Y-319378273D01*
X343209871Y-319330654D01*
X343162252Y-319283035D01*
X343114633Y-319187797D01*
X343114633Y-318997321D01*
X343162252Y-318902083D01*
X343209871Y-318854464D01*
X343305109Y-318806845D01*
X342733680Y-320235416D02*
X342733680Y-320044940D01*
X342781300Y-319949702D01*
X342828919Y-319902083D01*
X342971776Y-319806845D01*
X343162252Y-319759226D01*
X343543204Y-319759226D01*
X343638442Y-319806845D01*
X343686061Y-319854464D01*
X343733680Y-319949702D01*
X343733680Y-320140178D01*
X343686061Y-320235416D01*
X343638442Y-320283035D01*
X343543204Y-320330654D01*
X343305109Y-320330654D01*
X343209871Y-320283035D01*
X343162252Y-320235416D01*
X343114633Y-320140178D01*
X343114633Y-319949702D01*
X343162252Y-319854464D01*
X343209871Y-319806845D01*
X343305109Y-319759226D01*
%TO.C,D2*%
X50839880Y-280249404D02*
X49839880Y-280249404D01*
X49839880Y-280487500D01*
X49887500Y-280630357D01*
X49982738Y-280725595D01*
X50077976Y-280773214D01*
X50268452Y-280820833D01*
X50411309Y-280820833D01*
X50601785Y-280773214D01*
X50697023Y-280725595D01*
X50792261Y-280630357D01*
X50839880Y-280487500D01*
X50839880Y-280249404D01*
X49935119Y-281201785D02*
X49887500Y-281249404D01*
X49839880Y-281344642D01*
X49839880Y-281582738D01*
X49887500Y-281677976D01*
X49935119Y-281725595D01*
X50030357Y-281773214D01*
X50125595Y-281773214D01*
X50268452Y-281725595D01*
X50839880Y-281154166D01*
X50839880Y-281773214D01*
%TO.C,D3*%
X69889880Y-280249404D02*
X68889880Y-280249404D01*
X68889880Y-280487500D01*
X68937500Y-280630357D01*
X69032738Y-280725595D01*
X69127976Y-280773214D01*
X69318452Y-280820833D01*
X69461309Y-280820833D01*
X69651785Y-280773214D01*
X69747023Y-280725595D01*
X69842261Y-280630357D01*
X69889880Y-280487500D01*
X69889880Y-280249404D01*
X68889880Y-281154166D02*
X68889880Y-281773214D01*
X69270833Y-281439880D01*
X69270833Y-281582738D01*
X69318452Y-281677976D01*
X69366071Y-281725595D01*
X69461309Y-281773214D01*
X69699404Y-281773214D01*
X69794642Y-281725595D01*
X69842261Y-281677976D01*
X69889880Y-281582738D01*
X69889880Y-281297023D01*
X69842261Y-281201785D01*
X69794642Y-281154166D01*
%TO.C,D45*%
X400883680Y-279754464D02*
X399883680Y-279754464D01*
X399883680Y-279992559D01*
X399931300Y-280135416D01*
X400026538Y-280230654D01*
X400121776Y-280278273D01*
X400312252Y-280325892D01*
X400455109Y-280325892D01*
X400645585Y-280278273D01*
X400740823Y-280230654D01*
X400836061Y-280135416D01*
X400883680Y-279992559D01*
X400883680Y-279754464D01*
X400217014Y-281183035D02*
X400883680Y-281183035D01*
X399836061Y-280944940D02*
X400550347Y-280706845D01*
X400550347Y-281325892D01*
X399883680Y-282183035D02*
X399883680Y-281706845D01*
X400359871Y-281659226D01*
X400312252Y-281706845D01*
X400264633Y-281802083D01*
X400264633Y-282040178D01*
X400312252Y-282135416D01*
X400359871Y-282183035D01*
X400455109Y-282230654D01*
X400693204Y-282230654D01*
X400788442Y-282183035D01*
X400836061Y-282135416D01*
X400883680Y-282040178D01*
X400883680Y-281802083D01*
X400836061Y-281706845D01*
X400788442Y-281659226D01*
%TO.C,D57*%
X400883680Y-298804464D02*
X399883680Y-298804464D01*
X399883680Y-299042559D01*
X399931300Y-299185416D01*
X400026538Y-299280654D01*
X400121776Y-299328273D01*
X400312252Y-299375892D01*
X400455109Y-299375892D01*
X400645585Y-299328273D01*
X400740823Y-299280654D01*
X400836061Y-299185416D01*
X400883680Y-299042559D01*
X400883680Y-298804464D01*
X399883680Y-300280654D02*
X399883680Y-299804464D01*
X400359871Y-299756845D01*
X400312252Y-299804464D01*
X400264633Y-299899702D01*
X400264633Y-300137797D01*
X400312252Y-300233035D01*
X400359871Y-300280654D01*
X400455109Y-300328273D01*
X400693204Y-300328273D01*
X400788442Y-300280654D01*
X400836061Y-300233035D01*
X400883680Y-300137797D01*
X400883680Y-299899702D01*
X400836061Y-299804464D01*
X400788442Y-299756845D01*
X399883680Y-300661607D02*
X399883680Y-301328273D01*
X400883680Y-300899702D01*
%TO.C,D38*%
X229433680Y-279754464D02*
X228433680Y-279754464D01*
X228433680Y-279992559D01*
X228481300Y-280135416D01*
X228576538Y-280230654D01*
X228671776Y-280278273D01*
X228862252Y-280325892D01*
X229005109Y-280325892D01*
X229195585Y-280278273D01*
X229290823Y-280230654D01*
X229386061Y-280135416D01*
X229433680Y-279992559D01*
X229433680Y-279754464D01*
X228433680Y-280659226D02*
X228433680Y-281278273D01*
X228814633Y-280944940D01*
X228814633Y-281087797D01*
X228862252Y-281183035D01*
X228909871Y-281230654D01*
X229005109Y-281278273D01*
X229243204Y-281278273D01*
X229338442Y-281230654D01*
X229386061Y-281183035D01*
X229433680Y-281087797D01*
X229433680Y-280802083D01*
X229386061Y-280706845D01*
X229338442Y-280659226D01*
X228862252Y-281849702D02*
X228814633Y-281754464D01*
X228767014Y-281706845D01*
X228671776Y-281659226D01*
X228624157Y-281659226D01*
X228528919Y-281706845D01*
X228481300Y-281754464D01*
X228433680Y-281849702D01*
X228433680Y-282040178D01*
X228481300Y-282135416D01*
X228528919Y-282183035D01*
X228624157Y-282230654D01*
X228671776Y-282230654D01*
X228767014Y-282183035D01*
X228814633Y-282135416D01*
X228862252Y-282040178D01*
X228862252Y-281849702D01*
X228909871Y-281754464D01*
X228957490Y-281706845D01*
X229052728Y-281659226D01*
X229243204Y-281659226D01*
X229338442Y-281706845D01*
X229386061Y-281754464D01*
X229433680Y-281849702D01*
X229433680Y-282040178D01*
X229386061Y-282135416D01*
X229338442Y-282183035D01*
X229243204Y-282230654D01*
X229052728Y-282230654D01*
X228957490Y-282183035D01*
X228909871Y-282135416D01*
X228862252Y-282040178D01*
%TO.C,D18*%
X136564880Y-317873214D02*
X135564880Y-317873214D01*
X135564880Y-318111309D01*
X135612500Y-318254166D01*
X135707738Y-318349404D01*
X135802976Y-318397023D01*
X135993452Y-318444642D01*
X136136309Y-318444642D01*
X136326785Y-318397023D01*
X136422023Y-318349404D01*
X136517261Y-318254166D01*
X136564880Y-318111309D01*
X136564880Y-317873214D01*
X136564880Y-319397023D02*
X136564880Y-318825595D01*
X136564880Y-319111309D02*
X135564880Y-319111309D01*
X135707738Y-319016071D01*
X135802976Y-318920833D01*
X135850595Y-318825595D01*
X135993452Y-319968452D02*
X135945833Y-319873214D01*
X135898214Y-319825595D01*
X135802976Y-319777976D01*
X135755357Y-319777976D01*
X135660119Y-319825595D01*
X135612500Y-319873214D01*
X135564880Y-319968452D01*
X135564880Y-320158928D01*
X135612500Y-320254166D01*
X135660119Y-320301785D01*
X135755357Y-320349404D01*
X135802976Y-320349404D01*
X135898214Y-320301785D01*
X135945833Y-320254166D01*
X135993452Y-320158928D01*
X135993452Y-319968452D01*
X136041071Y-319873214D01*
X136088690Y-319825595D01*
X136183928Y-319777976D01*
X136374404Y-319777976D01*
X136469642Y-319825595D01*
X136517261Y-319873214D01*
X136564880Y-319968452D01*
X136564880Y-320158928D01*
X136517261Y-320254166D01*
X136469642Y-320301785D01*
X136374404Y-320349404D01*
X136183928Y-320349404D01*
X136088690Y-320301785D01*
X136041071Y-320254166D01*
X135993452Y-320158928D01*
%TO.C,D96*%
X362783680Y-375004464D02*
X361783680Y-375004464D01*
X361783680Y-375242559D01*
X361831300Y-375385416D01*
X361926538Y-375480654D01*
X362021776Y-375528273D01*
X362212252Y-375575892D01*
X362355109Y-375575892D01*
X362545585Y-375528273D01*
X362640823Y-375480654D01*
X362736061Y-375385416D01*
X362783680Y-375242559D01*
X362783680Y-375004464D01*
X362783680Y-376052083D02*
X362783680Y-376242559D01*
X362736061Y-376337797D01*
X362688442Y-376385416D01*
X362545585Y-376480654D01*
X362355109Y-376528273D01*
X361974157Y-376528273D01*
X361878919Y-376480654D01*
X361831300Y-376433035D01*
X361783680Y-376337797D01*
X361783680Y-376147321D01*
X361831300Y-376052083D01*
X361878919Y-376004464D01*
X361974157Y-375956845D01*
X362212252Y-375956845D01*
X362307490Y-376004464D01*
X362355109Y-376052083D01*
X362402728Y-376147321D01*
X362402728Y-376337797D01*
X362355109Y-376433035D01*
X362307490Y-376480654D01*
X362212252Y-376528273D01*
X361783680Y-377385416D02*
X361783680Y-377194940D01*
X361831300Y-377099702D01*
X361878919Y-377052083D01*
X362021776Y-376956845D01*
X362212252Y-376909226D01*
X362593204Y-376909226D01*
X362688442Y-376956845D01*
X362736061Y-377004464D01*
X362783680Y-377099702D01*
X362783680Y-377290178D01*
X362736061Y-377385416D01*
X362688442Y-377433035D01*
X362593204Y-377480654D01*
X362355109Y-377480654D01*
X362259871Y-377433035D01*
X362212252Y-377385416D01*
X362164633Y-377290178D01*
X362164633Y-377099702D01*
X362212252Y-377004464D01*
X362259871Y-376956845D01*
X362355109Y-376909226D01*
%TO.C,D68*%
X381833680Y-317854464D02*
X380833680Y-317854464D01*
X380833680Y-318092559D01*
X380881300Y-318235416D01*
X380976538Y-318330654D01*
X381071776Y-318378273D01*
X381262252Y-318425892D01*
X381405109Y-318425892D01*
X381595585Y-318378273D01*
X381690823Y-318330654D01*
X381786061Y-318235416D01*
X381833680Y-318092559D01*
X381833680Y-317854464D01*
X380833680Y-319283035D02*
X380833680Y-319092559D01*
X380881300Y-318997321D01*
X380928919Y-318949702D01*
X381071776Y-318854464D01*
X381262252Y-318806845D01*
X381643204Y-318806845D01*
X381738442Y-318854464D01*
X381786061Y-318902083D01*
X381833680Y-318997321D01*
X381833680Y-319187797D01*
X381786061Y-319283035D01*
X381738442Y-319330654D01*
X381643204Y-319378273D01*
X381405109Y-319378273D01*
X381309871Y-319330654D01*
X381262252Y-319283035D01*
X381214633Y-319187797D01*
X381214633Y-318997321D01*
X381262252Y-318902083D01*
X381309871Y-318854464D01*
X381405109Y-318806845D01*
X381262252Y-319949702D02*
X381214633Y-319854464D01*
X381167014Y-319806845D01*
X381071776Y-319759226D01*
X381024157Y-319759226D01*
X380928919Y-319806845D01*
X380881300Y-319854464D01*
X380833680Y-319949702D01*
X380833680Y-320140178D01*
X380881300Y-320235416D01*
X380928919Y-320283035D01*
X381024157Y-320330654D01*
X381071776Y-320330654D01*
X381167014Y-320283035D01*
X381214633Y-320235416D01*
X381262252Y-320140178D01*
X381262252Y-319949702D01*
X381309871Y-319854464D01*
X381357490Y-319806845D01*
X381452728Y-319759226D01*
X381643204Y-319759226D01*
X381738442Y-319806845D01*
X381786061Y-319854464D01*
X381833680Y-319949702D01*
X381833680Y-320140178D01*
X381786061Y-320235416D01*
X381738442Y-320283035D01*
X381643204Y-320330654D01*
X381452728Y-320330654D01*
X381357490Y-320283035D01*
X381309871Y-320235416D01*
X381262252Y-320140178D01*
%TO.C,D22*%
X103227380Y-336923214D02*
X102227380Y-336923214D01*
X102227380Y-337161309D01*
X102275000Y-337304166D01*
X102370238Y-337399404D01*
X102465476Y-337447023D01*
X102655952Y-337494642D01*
X102798809Y-337494642D01*
X102989285Y-337447023D01*
X103084523Y-337399404D01*
X103179761Y-337304166D01*
X103227380Y-337161309D01*
X103227380Y-336923214D01*
X102322619Y-337875595D02*
X102275000Y-337923214D01*
X102227380Y-338018452D01*
X102227380Y-338256547D01*
X102275000Y-338351785D01*
X102322619Y-338399404D01*
X102417857Y-338447023D01*
X102513095Y-338447023D01*
X102655952Y-338399404D01*
X103227380Y-337827976D01*
X103227380Y-338447023D01*
X102322619Y-338827976D02*
X102275000Y-338875595D01*
X102227380Y-338970833D01*
X102227380Y-339208928D01*
X102275000Y-339304166D01*
X102322619Y-339351785D01*
X102417857Y-339399404D01*
X102513095Y-339399404D01*
X102655952Y-339351785D01*
X103227380Y-338780357D01*
X103227380Y-339399404D01*
%TO.C,D60*%
X219908680Y-317854464D02*
X218908680Y-317854464D01*
X218908680Y-318092559D01*
X218956300Y-318235416D01*
X219051538Y-318330654D01*
X219146776Y-318378273D01*
X219337252Y-318425892D01*
X219480109Y-318425892D01*
X219670585Y-318378273D01*
X219765823Y-318330654D01*
X219861061Y-318235416D01*
X219908680Y-318092559D01*
X219908680Y-317854464D01*
X218908680Y-319283035D02*
X218908680Y-319092559D01*
X218956300Y-318997321D01*
X219003919Y-318949702D01*
X219146776Y-318854464D01*
X219337252Y-318806845D01*
X219718204Y-318806845D01*
X219813442Y-318854464D01*
X219861061Y-318902083D01*
X219908680Y-318997321D01*
X219908680Y-319187797D01*
X219861061Y-319283035D01*
X219813442Y-319330654D01*
X219718204Y-319378273D01*
X219480109Y-319378273D01*
X219384871Y-319330654D01*
X219337252Y-319283035D01*
X219289633Y-319187797D01*
X219289633Y-318997321D01*
X219337252Y-318902083D01*
X219384871Y-318854464D01*
X219480109Y-318806845D01*
X218908680Y-319997321D02*
X218908680Y-320092559D01*
X218956300Y-320187797D01*
X219003919Y-320235416D01*
X219099157Y-320283035D01*
X219289633Y-320330654D01*
X219527728Y-320330654D01*
X219718204Y-320283035D01*
X219813442Y-320235416D01*
X219861061Y-320187797D01*
X219908680Y-320092559D01*
X219908680Y-319997321D01*
X219861061Y-319902083D01*
X219813442Y-319854464D01*
X219718204Y-319806845D01*
X219527728Y-319759226D01*
X219289633Y-319759226D01*
X219099157Y-319806845D01*
X219003919Y-319854464D01*
X218956300Y-319902083D01*
X218908680Y-319997321D01*
%TO.C,D51*%
X267533680Y-298804464D02*
X266533680Y-298804464D01*
X266533680Y-299042559D01*
X266581300Y-299185416D01*
X266676538Y-299280654D01*
X266771776Y-299328273D01*
X266962252Y-299375892D01*
X267105109Y-299375892D01*
X267295585Y-299328273D01*
X267390823Y-299280654D01*
X267486061Y-299185416D01*
X267533680Y-299042559D01*
X267533680Y-298804464D01*
X266533680Y-300280654D02*
X266533680Y-299804464D01*
X267009871Y-299756845D01*
X266962252Y-299804464D01*
X266914633Y-299899702D01*
X266914633Y-300137797D01*
X266962252Y-300233035D01*
X267009871Y-300280654D01*
X267105109Y-300328273D01*
X267343204Y-300328273D01*
X267438442Y-300280654D01*
X267486061Y-300233035D01*
X267533680Y-300137797D01*
X267533680Y-299899702D01*
X267486061Y-299804464D01*
X267438442Y-299756845D01*
X267533680Y-301280654D02*
X267533680Y-300709226D01*
X267533680Y-300994940D02*
X266533680Y-300994940D01*
X266676538Y-300899702D01*
X266771776Y-300804464D01*
X266819395Y-300709226D01*
%TO.C,D52*%
X286583680Y-298804464D02*
X285583680Y-298804464D01*
X285583680Y-299042559D01*
X285631300Y-299185416D01*
X285726538Y-299280654D01*
X285821776Y-299328273D01*
X286012252Y-299375892D01*
X286155109Y-299375892D01*
X286345585Y-299328273D01*
X286440823Y-299280654D01*
X286536061Y-299185416D01*
X286583680Y-299042559D01*
X286583680Y-298804464D01*
X285583680Y-300280654D02*
X285583680Y-299804464D01*
X286059871Y-299756845D01*
X286012252Y-299804464D01*
X285964633Y-299899702D01*
X285964633Y-300137797D01*
X286012252Y-300233035D01*
X286059871Y-300280654D01*
X286155109Y-300328273D01*
X286393204Y-300328273D01*
X286488442Y-300280654D01*
X286536061Y-300233035D01*
X286583680Y-300137797D01*
X286583680Y-299899702D01*
X286536061Y-299804464D01*
X286488442Y-299756845D01*
X285678919Y-300709226D02*
X285631300Y-300756845D01*
X285583680Y-300852083D01*
X285583680Y-301090178D01*
X285631300Y-301185416D01*
X285678919Y-301233035D01*
X285774157Y-301280654D01*
X285869395Y-301280654D01*
X286012252Y-301233035D01*
X286583680Y-300661607D01*
X286583680Y-301280654D01*
%TO.C,D8*%
X50839880Y-299299404D02*
X49839880Y-299299404D01*
X49839880Y-299537500D01*
X49887500Y-299680357D01*
X49982738Y-299775595D01*
X50077976Y-299823214D01*
X50268452Y-299870833D01*
X50411309Y-299870833D01*
X50601785Y-299823214D01*
X50697023Y-299775595D01*
X50792261Y-299680357D01*
X50839880Y-299537500D01*
X50839880Y-299299404D01*
X50268452Y-300442261D02*
X50220833Y-300347023D01*
X50173214Y-300299404D01*
X50077976Y-300251785D01*
X50030357Y-300251785D01*
X49935119Y-300299404D01*
X49887500Y-300347023D01*
X49839880Y-300442261D01*
X49839880Y-300632738D01*
X49887500Y-300727976D01*
X49935119Y-300775595D01*
X50030357Y-300823214D01*
X50077976Y-300823214D01*
X50173214Y-300775595D01*
X50220833Y-300727976D01*
X50268452Y-300632738D01*
X50268452Y-300442261D01*
X50316071Y-300347023D01*
X50363690Y-300299404D01*
X50458928Y-300251785D01*
X50649404Y-300251785D01*
X50744642Y-300299404D01*
X50792261Y-300347023D01*
X50839880Y-300442261D01*
X50839880Y-300632738D01*
X50792261Y-300727976D01*
X50744642Y-300775595D01*
X50649404Y-300823214D01*
X50458928Y-300823214D01*
X50363690Y-300775595D01*
X50316071Y-300727976D01*
X50268452Y-300632738D01*
%TO.C,D62*%
X258008680Y-317854464D02*
X257008680Y-317854464D01*
X257008680Y-318092559D01*
X257056300Y-318235416D01*
X257151538Y-318330654D01*
X257246776Y-318378273D01*
X257437252Y-318425892D01*
X257580109Y-318425892D01*
X257770585Y-318378273D01*
X257865823Y-318330654D01*
X257961061Y-318235416D01*
X258008680Y-318092559D01*
X258008680Y-317854464D01*
X257008680Y-319283035D02*
X257008680Y-319092559D01*
X257056300Y-318997321D01*
X257103919Y-318949702D01*
X257246776Y-318854464D01*
X257437252Y-318806845D01*
X257818204Y-318806845D01*
X257913442Y-318854464D01*
X257961061Y-318902083D01*
X258008680Y-318997321D01*
X258008680Y-319187797D01*
X257961061Y-319283035D01*
X257913442Y-319330654D01*
X257818204Y-319378273D01*
X257580109Y-319378273D01*
X257484871Y-319330654D01*
X257437252Y-319283035D01*
X257389633Y-319187797D01*
X257389633Y-318997321D01*
X257437252Y-318902083D01*
X257484871Y-318854464D01*
X257580109Y-318806845D01*
X257103919Y-319759226D02*
X257056300Y-319806845D01*
X257008680Y-319902083D01*
X257008680Y-320140178D01*
X257056300Y-320235416D01*
X257103919Y-320283035D01*
X257199157Y-320330654D01*
X257294395Y-320330654D01*
X257437252Y-320283035D01*
X258008680Y-319711607D01*
X258008680Y-320330654D01*
%TO.C,D23*%
X122277380Y-336923214D02*
X121277380Y-336923214D01*
X121277380Y-337161309D01*
X121325000Y-337304166D01*
X121420238Y-337399404D01*
X121515476Y-337447023D01*
X121705952Y-337494642D01*
X121848809Y-337494642D01*
X122039285Y-337447023D01*
X122134523Y-337399404D01*
X122229761Y-337304166D01*
X122277380Y-337161309D01*
X122277380Y-336923214D01*
X121372619Y-337875595D02*
X121325000Y-337923214D01*
X121277380Y-338018452D01*
X121277380Y-338256547D01*
X121325000Y-338351785D01*
X121372619Y-338399404D01*
X121467857Y-338447023D01*
X121563095Y-338447023D01*
X121705952Y-338399404D01*
X122277380Y-337827976D01*
X122277380Y-338447023D01*
X121277380Y-338780357D02*
X121277380Y-339399404D01*
X121658333Y-339066071D01*
X121658333Y-339208928D01*
X121705952Y-339304166D01*
X121753571Y-339351785D01*
X121848809Y-339399404D01*
X122086904Y-339399404D01*
X122182142Y-339351785D01*
X122229761Y-339304166D01*
X122277380Y-339208928D01*
X122277380Y-338923214D01*
X122229761Y-338827976D01*
X122182142Y-338780357D01*
%TO.C,D69*%
X186571180Y-336904464D02*
X185571180Y-336904464D01*
X185571180Y-337142559D01*
X185618800Y-337285416D01*
X185714038Y-337380654D01*
X185809276Y-337428273D01*
X185999752Y-337475892D01*
X186142609Y-337475892D01*
X186333085Y-337428273D01*
X186428323Y-337380654D01*
X186523561Y-337285416D01*
X186571180Y-337142559D01*
X186571180Y-336904464D01*
X185571180Y-338333035D02*
X185571180Y-338142559D01*
X185618800Y-338047321D01*
X185666419Y-337999702D01*
X185809276Y-337904464D01*
X185999752Y-337856845D01*
X186380704Y-337856845D01*
X186475942Y-337904464D01*
X186523561Y-337952083D01*
X186571180Y-338047321D01*
X186571180Y-338237797D01*
X186523561Y-338333035D01*
X186475942Y-338380654D01*
X186380704Y-338428273D01*
X186142609Y-338428273D01*
X186047371Y-338380654D01*
X185999752Y-338333035D01*
X185952133Y-338237797D01*
X185952133Y-338047321D01*
X185999752Y-337952083D01*
X186047371Y-337904464D01*
X186142609Y-337856845D01*
X186571180Y-338904464D02*
X186571180Y-339094940D01*
X186523561Y-339190178D01*
X186475942Y-339237797D01*
X186333085Y-339333035D01*
X186142609Y-339380654D01*
X185761657Y-339380654D01*
X185666419Y-339333035D01*
X185618800Y-339285416D01*
X185571180Y-339190178D01*
X185571180Y-338999702D01*
X185618800Y-338904464D01*
X185666419Y-338856845D01*
X185761657Y-338809226D01*
X185999752Y-338809226D01*
X186094990Y-338856845D01*
X186142609Y-338904464D01*
X186190228Y-338999702D01*
X186190228Y-339190178D01*
X186142609Y-339285416D01*
X186094990Y-339333035D01*
X185999752Y-339380654D01*
%TO.C,D11*%
X107989880Y-298823214D02*
X106989880Y-298823214D01*
X106989880Y-299061309D01*
X107037500Y-299204166D01*
X107132738Y-299299404D01*
X107227976Y-299347023D01*
X107418452Y-299394642D01*
X107561309Y-299394642D01*
X107751785Y-299347023D01*
X107847023Y-299299404D01*
X107942261Y-299204166D01*
X107989880Y-299061309D01*
X107989880Y-298823214D01*
X107989880Y-300347023D02*
X107989880Y-299775595D01*
X107989880Y-300061309D02*
X106989880Y-300061309D01*
X107132738Y-299966071D01*
X107227976Y-299870833D01*
X107275595Y-299775595D01*
X107989880Y-301299404D02*
X107989880Y-300727976D01*
X107989880Y-301013690D02*
X106989880Y-301013690D01*
X107132738Y-300918452D01*
X107227976Y-300823214D01*
X107275595Y-300727976D01*
%TO.C,D75*%
X315539335Y-338952380D02*
X315539335Y-337952380D01*
X315301240Y-337952380D01*
X315158383Y-338000000D01*
X315063145Y-338095238D01*
X315015526Y-338190476D01*
X314967907Y-338380952D01*
X314967907Y-338523809D01*
X315015526Y-338714285D01*
X315063145Y-338809523D01*
X315158383Y-338904761D01*
X315301240Y-338952380D01*
X315539335Y-338952380D01*
X314634573Y-337952380D02*
X313967907Y-337952380D01*
X314396478Y-338952380D01*
X313110764Y-337952380D02*
X313586954Y-337952380D01*
X313634573Y-338428571D01*
X313586954Y-338380952D01*
X313491716Y-338333333D01*
X313253621Y-338333333D01*
X313158383Y-338380952D01*
X313110764Y-338428571D01*
X313063145Y-338523809D01*
X313063145Y-338761904D01*
X313110764Y-338857142D01*
X313158383Y-338904761D01*
X313253621Y-338952380D01*
X313491716Y-338952380D01*
X313586954Y-338904761D01*
X313634573Y-338857142D01*
%TO.C,D93*%
X305633680Y-375004464D02*
X304633680Y-375004464D01*
X304633680Y-375242559D01*
X304681300Y-375385416D01*
X304776538Y-375480654D01*
X304871776Y-375528273D01*
X305062252Y-375575892D01*
X305205109Y-375575892D01*
X305395585Y-375528273D01*
X305490823Y-375480654D01*
X305586061Y-375385416D01*
X305633680Y-375242559D01*
X305633680Y-375004464D01*
X305633680Y-376052083D02*
X305633680Y-376242559D01*
X305586061Y-376337797D01*
X305538442Y-376385416D01*
X305395585Y-376480654D01*
X305205109Y-376528273D01*
X304824157Y-376528273D01*
X304728919Y-376480654D01*
X304681300Y-376433035D01*
X304633680Y-376337797D01*
X304633680Y-376147321D01*
X304681300Y-376052083D01*
X304728919Y-376004464D01*
X304824157Y-375956845D01*
X305062252Y-375956845D01*
X305157490Y-376004464D01*
X305205109Y-376052083D01*
X305252728Y-376147321D01*
X305252728Y-376337797D01*
X305205109Y-376433035D01*
X305157490Y-376480654D01*
X305062252Y-376528273D01*
X304633680Y-376861607D02*
X304633680Y-377480654D01*
X305014633Y-377147321D01*
X305014633Y-377290178D01*
X305062252Y-377385416D01*
X305109871Y-377433035D01*
X305205109Y-377480654D01*
X305443204Y-377480654D01*
X305538442Y-377433035D01*
X305586061Y-377385416D01*
X305633680Y-377290178D01*
X305633680Y-377004464D01*
X305586061Y-376909226D01*
X305538442Y-376861607D01*
%TO.C,D82*%
X234196180Y-355954464D02*
X233196180Y-355954464D01*
X233196180Y-356192559D01*
X233243800Y-356335416D01*
X233339038Y-356430654D01*
X233434276Y-356478273D01*
X233624752Y-356525892D01*
X233767609Y-356525892D01*
X233958085Y-356478273D01*
X234053323Y-356430654D01*
X234148561Y-356335416D01*
X234196180Y-356192559D01*
X234196180Y-355954464D01*
X233624752Y-357097321D02*
X233577133Y-357002083D01*
X233529514Y-356954464D01*
X233434276Y-356906845D01*
X233386657Y-356906845D01*
X233291419Y-356954464D01*
X233243800Y-357002083D01*
X233196180Y-357097321D01*
X233196180Y-357287797D01*
X233243800Y-357383035D01*
X233291419Y-357430654D01*
X233386657Y-357478273D01*
X233434276Y-357478273D01*
X233529514Y-357430654D01*
X233577133Y-357383035D01*
X233624752Y-357287797D01*
X233624752Y-357097321D01*
X233672371Y-357002083D01*
X233719990Y-356954464D01*
X233815228Y-356906845D01*
X234005704Y-356906845D01*
X234100942Y-356954464D01*
X234148561Y-357002083D01*
X234196180Y-357097321D01*
X234196180Y-357287797D01*
X234148561Y-357383035D01*
X234100942Y-357430654D01*
X234005704Y-357478273D01*
X233815228Y-357478273D01*
X233719990Y-357430654D01*
X233672371Y-357383035D01*
X233624752Y-357287797D01*
X233291419Y-357859226D02*
X233243800Y-357906845D01*
X233196180Y-358002083D01*
X233196180Y-358240178D01*
X233243800Y-358335416D01*
X233291419Y-358383035D01*
X233386657Y-358430654D01*
X233481895Y-358430654D01*
X233624752Y-358383035D01*
X234196180Y-357811607D01*
X234196180Y-358430654D01*
%TO.C,D58*%
X181808680Y-317854464D02*
X180808680Y-317854464D01*
X180808680Y-318092559D01*
X180856300Y-318235416D01*
X180951538Y-318330654D01*
X181046776Y-318378273D01*
X181237252Y-318425892D01*
X181380109Y-318425892D01*
X181570585Y-318378273D01*
X181665823Y-318330654D01*
X181761061Y-318235416D01*
X181808680Y-318092559D01*
X181808680Y-317854464D01*
X180808680Y-319330654D02*
X180808680Y-318854464D01*
X181284871Y-318806845D01*
X181237252Y-318854464D01*
X181189633Y-318949702D01*
X181189633Y-319187797D01*
X181237252Y-319283035D01*
X181284871Y-319330654D01*
X181380109Y-319378273D01*
X181618204Y-319378273D01*
X181713442Y-319330654D01*
X181761061Y-319283035D01*
X181808680Y-319187797D01*
X181808680Y-318949702D01*
X181761061Y-318854464D01*
X181713442Y-318806845D01*
X181237252Y-319949702D02*
X181189633Y-319854464D01*
X181142014Y-319806845D01*
X181046776Y-319759226D01*
X180999157Y-319759226D01*
X180903919Y-319806845D01*
X180856300Y-319854464D01*
X180808680Y-319949702D01*
X180808680Y-320140178D01*
X180856300Y-320235416D01*
X180903919Y-320283035D01*
X180999157Y-320330654D01*
X181046776Y-320330654D01*
X181142014Y-320283035D01*
X181189633Y-320235416D01*
X181237252Y-320140178D01*
X181237252Y-319949702D01*
X181284871Y-319854464D01*
X181332490Y-319806845D01*
X181427728Y-319759226D01*
X181618204Y-319759226D01*
X181713442Y-319806845D01*
X181761061Y-319854464D01*
X181808680Y-319949702D01*
X181808680Y-320140178D01*
X181761061Y-320235416D01*
X181713442Y-320283035D01*
X181618204Y-320330654D01*
X181427728Y-320330654D01*
X181332490Y-320283035D01*
X181284871Y-320235416D01*
X181237252Y-320140178D01*
%TO.C,D1*%
X31789880Y-280249404D02*
X30789880Y-280249404D01*
X30789880Y-280487500D01*
X30837500Y-280630357D01*
X30932738Y-280725595D01*
X31027976Y-280773214D01*
X31218452Y-280820833D01*
X31361309Y-280820833D01*
X31551785Y-280773214D01*
X31647023Y-280725595D01*
X31742261Y-280630357D01*
X31789880Y-280487500D01*
X31789880Y-280249404D01*
X31789880Y-281773214D02*
X31789880Y-281201785D01*
X31789880Y-281487500D02*
X30789880Y-281487500D01*
X30932738Y-281392261D01*
X31027976Y-281297023D01*
X31075595Y-281201785D01*
%TO.C,D30*%
X150852380Y-355973214D02*
X149852380Y-355973214D01*
X149852380Y-356211309D01*
X149900000Y-356354166D01*
X149995238Y-356449404D01*
X150090476Y-356497023D01*
X150280952Y-356544642D01*
X150423809Y-356544642D01*
X150614285Y-356497023D01*
X150709523Y-356449404D01*
X150804761Y-356354166D01*
X150852380Y-356211309D01*
X150852380Y-355973214D01*
X149852380Y-356877976D02*
X149852380Y-357497023D01*
X150233333Y-357163690D01*
X150233333Y-357306547D01*
X150280952Y-357401785D01*
X150328571Y-357449404D01*
X150423809Y-357497023D01*
X150661904Y-357497023D01*
X150757142Y-357449404D01*
X150804761Y-357401785D01*
X150852380Y-357306547D01*
X150852380Y-357020833D01*
X150804761Y-356925595D01*
X150757142Y-356877976D01*
X149852380Y-358116071D02*
X149852380Y-358211309D01*
X149900000Y-358306547D01*
X149947619Y-358354166D01*
X150042857Y-358401785D01*
X150233333Y-358449404D01*
X150471428Y-358449404D01*
X150661904Y-358401785D01*
X150757142Y-358354166D01*
X150804761Y-358306547D01*
X150852380Y-358211309D01*
X150852380Y-358116071D01*
X150804761Y-358020833D01*
X150757142Y-357973214D01*
X150661904Y-357925595D01*
X150471428Y-357877976D01*
X150233333Y-357877976D01*
X150042857Y-357925595D01*
X149947619Y-357973214D01*
X149900000Y-358020833D01*
X149852380Y-358116071D01*
%TO.C,D33*%
X81796130Y-375023214D02*
X80796130Y-375023214D01*
X80796130Y-375261309D01*
X80843750Y-375404166D01*
X80938988Y-375499404D01*
X81034226Y-375547023D01*
X81224702Y-375594642D01*
X81367559Y-375594642D01*
X81558035Y-375547023D01*
X81653273Y-375499404D01*
X81748511Y-375404166D01*
X81796130Y-375261309D01*
X81796130Y-375023214D01*
X80796130Y-375927976D02*
X80796130Y-376547023D01*
X81177083Y-376213690D01*
X81177083Y-376356547D01*
X81224702Y-376451785D01*
X81272321Y-376499404D01*
X81367559Y-376547023D01*
X81605654Y-376547023D01*
X81700892Y-376499404D01*
X81748511Y-376451785D01*
X81796130Y-376356547D01*
X81796130Y-376070833D01*
X81748511Y-375975595D01*
X81700892Y-375927976D01*
X80796130Y-376880357D02*
X80796130Y-377499404D01*
X81177083Y-377166071D01*
X81177083Y-377308928D01*
X81224702Y-377404166D01*
X81272321Y-377451785D01*
X81367559Y-377499404D01*
X81605654Y-377499404D01*
X81700892Y-377451785D01*
X81748511Y-377404166D01*
X81796130Y-377308928D01*
X81796130Y-377023214D01*
X81748511Y-376927976D01*
X81700892Y-376880357D01*
%TO.C,D54*%
X343733680Y-298804464D02*
X342733680Y-298804464D01*
X342733680Y-299042559D01*
X342781300Y-299185416D01*
X342876538Y-299280654D01*
X342971776Y-299328273D01*
X343162252Y-299375892D01*
X343305109Y-299375892D01*
X343495585Y-299328273D01*
X343590823Y-299280654D01*
X343686061Y-299185416D01*
X343733680Y-299042559D01*
X343733680Y-298804464D01*
X342733680Y-300280654D02*
X342733680Y-299804464D01*
X343209871Y-299756845D01*
X343162252Y-299804464D01*
X343114633Y-299899702D01*
X343114633Y-300137797D01*
X343162252Y-300233035D01*
X343209871Y-300280654D01*
X343305109Y-300328273D01*
X343543204Y-300328273D01*
X343638442Y-300280654D01*
X343686061Y-300233035D01*
X343733680Y-300137797D01*
X343733680Y-299899702D01*
X343686061Y-299804464D01*
X343638442Y-299756845D01*
X343067014Y-301185416D02*
X343733680Y-301185416D01*
X342686061Y-300947321D02*
X343400347Y-300709226D01*
X343400347Y-301328273D01*
%TO.C,D19*%
X38933630Y-336923214D02*
X37933630Y-336923214D01*
X37933630Y-337161309D01*
X37981250Y-337304166D01*
X38076488Y-337399404D01*
X38171726Y-337447023D01*
X38362202Y-337494642D01*
X38505059Y-337494642D01*
X38695535Y-337447023D01*
X38790773Y-337399404D01*
X38886011Y-337304166D01*
X38933630Y-337161309D01*
X38933630Y-336923214D01*
X38933630Y-338447023D02*
X38933630Y-337875595D01*
X38933630Y-338161309D02*
X37933630Y-338161309D01*
X38076488Y-338066071D01*
X38171726Y-337970833D01*
X38219345Y-337875595D01*
X38933630Y-338923214D02*
X38933630Y-339113690D01*
X38886011Y-339208928D01*
X38838392Y-339256547D01*
X38695535Y-339351785D01*
X38505059Y-339399404D01*
X38124107Y-339399404D01*
X38028869Y-339351785D01*
X37981250Y-339304166D01*
X37933630Y-339208928D01*
X37933630Y-339018452D01*
X37981250Y-338923214D01*
X38028869Y-338875595D01*
X38124107Y-338827976D01*
X38362202Y-338827976D01*
X38457440Y-338875595D01*
X38505059Y-338923214D01*
X38552678Y-339018452D01*
X38552678Y-339208928D01*
X38505059Y-339304166D01*
X38457440Y-339351785D01*
X38362202Y-339399404D01*
%TO.C,D65*%
X319921180Y-317854464D02*
X318921180Y-317854464D01*
X318921180Y-318092559D01*
X318968800Y-318235416D01*
X319064038Y-318330654D01*
X319159276Y-318378273D01*
X319349752Y-318425892D01*
X319492609Y-318425892D01*
X319683085Y-318378273D01*
X319778323Y-318330654D01*
X319873561Y-318235416D01*
X319921180Y-318092559D01*
X319921180Y-317854464D01*
X318921180Y-319283035D02*
X318921180Y-319092559D01*
X318968800Y-318997321D01*
X319016419Y-318949702D01*
X319159276Y-318854464D01*
X319349752Y-318806845D01*
X319730704Y-318806845D01*
X319825942Y-318854464D01*
X319873561Y-318902083D01*
X319921180Y-318997321D01*
X319921180Y-319187797D01*
X319873561Y-319283035D01*
X319825942Y-319330654D01*
X319730704Y-319378273D01*
X319492609Y-319378273D01*
X319397371Y-319330654D01*
X319349752Y-319283035D01*
X319302133Y-319187797D01*
X319302133Y-318997321D01*
X319349752Y-318902083D01*
X319397371Y-318854464D01*
X319492609Y-318806845D01*
X318921180Y-320283035D02*
X318921180Y-319806845D01*
X319397371Y-319759226D01*
X319349752Y-319806845D01*
X319302133Y-319902083D01*
X319302133Y-320140178D01*
X319349752Y-320235416D01*
X319397371Y-320283035D01*
X319492609Y-320330654D01*
X319730704Y-320330654D01*
X319825942Y-320283035D01*
X319873561Y-320235416D01*
X319921180Y-320140178D01*
X319921180Y-319902083D01*
X319873561Y-319806845D01*
X319825942Y-319759226D01*
%TO.C,D5*%
X107989880Y-280249404D02*
X106989880Y-280249404D01*
X106989880Y-280487500D01*
X107037500Y-280630357D01*
X107132738Y-280725595D01*
X107227976Y-280773214D01*
X107418452Y-280820833D01*
X107561309Y-280820833D01*
X107751785Y-280773214D01*
X107847023Y-280725595D01*
X107942261Y-280630357D01*
X107989880Y-280487500D01*
X107989880Y-280249404D01*
X106989880Y-281725595D02*
X106989880Y-281249404D01*
X107466071Y-281201785D01*
X107418452Y-281249404D01*
X107370833Y-281344642D01*
X107370833Y-281582738D01*
X107418452Y-281677976D01*
X107466071Y-281725595D01*
X107561309Y-281773214D01*
X107799404Y-281773214D01*
X107894642Y-281725595D01*
X107942261Y-281677976D01*
X107989880Y-281582738D01*
X107989880Y-281344642D01*
X107942261Y-281249404D01*
X107894642Y-281201785D01*
%TO.C,D64*%
X296108680Y-317854464D02*
X295108680Y-317854464D01*
X295108680Y-318092559D01*
X295156300Y-318235416D01*
X295251538Y-318330654D01*
X295346776Y-318378273D01*
X295537252Y-318425892D01*
X295680109Y-318425892D01*
X295870585Y-318378273D01*
X295965823Y-318330654D01*
X296061061Y-318235416D01*
X296108680Y-318092559D01*
X296108680Y-317854464D01*
X295108680Y-319283035D02*
X295108680Y-319092559D01*
X295156300Y-318997321D01*
X295203919Y-318949702D01*
X295346776Y-318854464D01*
X295537252Y-318806845D01*
X295918204Y-318806845D01*
X296013442Y-318854464D01*
X296061061Y-318902083D01*
X296108680Y-318997321D01*
X296108680Y-319187797D01*
X296061061Y-319283035D01*
X296013442Y-319330654D01*
X295918204Y-319378273D01*
X295680109Y-319378273D01*
X295584871Y-319330654D01*
X295537252Y-319283035D01*
X295489633Y-319187797D01*
X295489633Y-318997321D01*
X295537252Y-318902083D01*
X295584871Y-318854464D01*
X295680109Y-318806845D01*
X295442014Y-320235416D02*
X296108680Y-320235416D01*
X295061061Y-319997321D02*
X295775347Y-319759226D01*
X295775347Y-320378273D01*
%TO.C,D26*%
X74652380Y-355973214D02*
X73652380Y-355973214D01*
X73652380Y-356211309D01*
X73700000Y-356354166D01*
X73795238Y-356449404D01*
X73890476Y-356497023D01*
X74080952Y-356544642D01*
X74223809Y-356544642D01*
X74414285Y-356497023D01*
X74509523Y-356449404D01*
X74604761Y-356354166D01*
X74652380Y-356211309D01*
X74652380Y-355973214D01*
X73747619Y-356925595D02*
X73700000Y-356973214D01*
X73652380Y-357068452D01*
X73652380Y-357306547D01*
X73700000Y-357401785D01*
X73747619Y-357449404D01*
X73842857Y-357497023D01*
X73938095Y-357497023D01*
X74080952Y-357449404D01*
X74652380Y-356877976D01*
X74652380Y-357497023D01*
X73652380Y-358354166D02*
X73652380Y-358163690D01*
X73700000Y-358068452D01*
X73747619Y-358020833D01*
X73890476Y-357925595D01*
X74080952Y-357877976D01*
X74461904Y-357877976D01*
X74557142Y-357925595D01*
X74604761Y-357973214D01*
X74652380Y-358068452D01*
X74652380Y-358258928D01*
X74604761Y-358354166D01*
X74557142Y-358401785D01*
X74461904Y-358449404D01*
X74223809Y-358449404D01*
X74128571Y-358401785D01*
X74080952Y-358354166D01*
X74033333Y-358258928D01*
X74033333Y-358068452D01*
X74080952Y-357973214D01*
X74128571Y-357925595D01*
X74223809Y-357877976D01*
%TO.C,D29*%
X131802380Y-355973214D02*
X130802380Y-355973214D01*
X130802380Y-356211309D01*
X130850000Y-356354166D01*
X130945238Y-356449404D01*
X131040476Y-356497023D01*
X131230952Y-356544642D01*
X131373809Y-356544642D01*
X131564285Y-356497023D01*
X131659523Y-356449404D01*
X131754761Y-356354166D01*
X131802380Y-356211309D01*
X131802380Y-355973214D01*
X130897619Y-356925595D02*
X130850000Y-356973214D01*
X130802380Y-357068452D01*
X130802380Y-357306547D01*
X130850000Y-357401785D01*
X130897619Y-357449404D01*
X130992857Y-357497023D01*
X131088095Y-357497023D01*
X131230952Y-357449404D01*
X131802380Y-356877976D01*
X131802380Y-357497023D01*
X131802380Y-357973214D02*
X131802380Y-358163690D01*
X131754761Y-358258928D01*
X131707142Y-358306547D01*
X131564285Y-358401785D01*
X131373809Y-358449404D01*
X130992857Y-358449404D01*
X130897619Y-358401785D01*
X130850000Y-358354166D01*
X130802380Y-358258928D01*
X130802380Y-358068452D01*
X130850000Y-357973214D01*
X130897619Y-357925595D01*
X130992857Y-357877976D01*
X131230952Y-357877976D01*
X131326190Y-357925595D01*
X131373809Y-357973214D01*
X131421428Y-358068452D01*
X131421428Y-358258928D01*
X131373809Y-358354166D01*
X131326190Y-358401785D01*
X131230952Y-358449404D01*
%TO.C,D17*%
X117514880Y-317873214D02*
X116514880Y-317873214D01*
X116514880Y-318111309D01*
X116562500Y-318254166D01*
X116657738Y-318349404D01*
X116752976Y-318397023D01*
X116943452Y-318444642D01*
X117086309Y-318444642D01*
X117276785Y-318397023D01*
X117372023Y-318349404D01*
X117467261Y-318254166D01*
X117514880Y-318111309D01*
X117514880Y-317873214D01*
X117514880Y-319397023D02*
X117514880Y-318825595D01*
X117514880Y-319111309D02*
X116514880Y-319111309D01*
X116657738Y-319016071D01*
X116752976Y-318920833D01*
X116800595Y-318825595D01*
X116514880Y-319730357D02*
X116514880Y-320397023D01*
X117514880Y-319968452D01*
%TO.C,D10*%
X88939880Y-298823214D02*
X87939880Y-298823214D01*
X87939880Y-299061309D01*
X87987500Y-299204166D01*
X88082738Y-299299404D01*
X88177976Y-299347023D01*
X88368452Y-299394642D01*
X88511309Y-299394642D01*
X88701785Y-299347023D01*
X88797023Y-299299404D01*
X88892261Y-299204166D01*
X88939880Y-299061309D01*
X88939880Y-298823214D01*
X88939880Y-300347023D02*
X88939880Y-299775595D01*
X88939880Y-300061309D02*
X87939880Y-300061309D01*
X88082738Y-299966071D01*
X88177976Y-299870833D01*
X88225595Y-299775595D01*
X87939880Y-300966071D02*
X87939880Y-301061309D01*
X87987500Y-301156547D01*
X88035119Y-301204166D01*
X88130357Y-301251785D01*
X88320833Y-301299404D01*
X88558928Y-301299404D01*
X88749404Y-301251785D01*
X88844642Y-301204166D01*
X88892261Y-301156547D01*
X88939880Y-301061309D01*
X88939880Y-300966071D01*
X88892261Y-300870833D01*
X88844642Y-300823214D01*
X88749404Y-300775595D01*
X88558928Y-300727976D01*
X88320833Y-300727976D01*
X88130357Y-300775595D01*
X88035119Y-300823214D01*
X87987500Y-300870833D01*
X87939880Y-300966071D01*
%TO.C,D7*%
X31789880Y-299299404D02*
X30789880Y-299299404D01*
X30789880Y-299537500D01*
X30837500Y-299680357D01*
X30932738Y-299775595D01*
X31027976Y-299823214D01*
X31218452Y-299870833D01*
X31361309Y-299870833D01*
X31551785Y-299823214D01*
X31647023Y-299775595D01*
X31742261Y-299680357D01*
X31789880Y-299537500D01*
X31789880Y-299299404D01*
X30789880Y-300204166D02*
X30789880Y-300870833D01*
X31789880Y-300442261D01*
%TO.C,D53*%
X317920585Y-300852380D02*
X317920585Y-299852380D01*
X317682490Y-299852380D01*
X317539633Y-299900000D01*
X317444395Y-299995238D01*
X317396776Y-300090476D01*
X317349157Y-300280952D01*
X317349157Y-300423809D01*
X317396776Y-300614285D01*
X317444395Y-300709523D01*
X317539633Y-300804761D01*
X317682490Y-300852380D01*
X317920585Y-300852380D01*
X316444395Y-299852380D02*
X316920585Y-299852380D01*
X316968204Y-300328571D01*
X316920585Y-300280952D01*
X316825347Y-300233333D01*
X316587252Y-300233333D01*
X316492014Y-300280952D01*
X316444395Y-300328571D01*
X316396776Y-300423809D01*
X316396776Y-300661904D01*
X316444395Y-300757142D01*
X316492014Y-300804761D01*
X316587252Y-300852380D01*
X316825347Y-300852380D01*
X316920585Y-300804761D01*
X316968204Y-300757142D01*
X316063442Y-299852380D02*
X315444395Y-299852380D01*
X315777728Y-300233333D01*
X315634871Y-300233333D01*
X315539633Y-300280952D01*
X315492014Y-300328571D01*
X315444395Y-300423809D01*
X315444395Y-300661904D01*
X315492014Y-300757142D01*
X315539633Y-300804761D01*
X315634871Y-300852380D01*
X315920585Y-300852380D01*
X316015823Y-300804761D01*
X316063442Y-300757142D01*
%TO.C,D78*%
X381833680Y-336904464D02*
X380833680Y-336904464D01*
X380833680Y-337142559D01*
X380881300Y-337285416D01*
X380976538Y-337380654D01*
X381071776Y-337428273D01*
X381262252Y-337475892D01*
X381405109Y-337475892D01*
X381595585Y-337428273D01*
X381690823Y-337380654D01*
X381786061Y-337285416D01*
X381833680Y-337142559D01*
X381833680Y-336904464D01*
X380833680Y-337809226D02*
X380833680Y-338475892D01*
X381833680Y-338047321D01*
X381262252Y-338999702D02*
X381214633Y-338904464D01*
X381167014Y-338856845D01*
X381071776Y-338809226D01*
X381024157Y-338809226D01*
X380928919Y-338856845D01*
X380881300Y-338904464D01*
X380833680Y-338999702D01*
X380833680Y-339190178D01*
X380881300Y-339285416D01*
X380928919Y-339333035D01*
X381024157Y-339380654D01*
X381071776Y-339380654D01*
X381167014Y-339333035D01*
X381214633Y-339285416D01*
X381262252Y-339190178D01*
X381262252Y-338999702D01*
X381309871Y-338904464D01*
X381357490Y-338856845D01*
X381452728Y-338809226D01*
X381643204Y-338809226D01*
X381738442Y-338856845D01*
X381786061Y-338904464D01*
X381833680Y-338999702D01*
X381833680Y-339190178D01*
X381786061Y-339285416D01*
X381738442Y-339333035D01*
X381643204Y-339380654D01*
X381452728Y-339380654D01*
X381357490Y-339333035D01*
X381309871Y-339285416D01*
X381262252Y-339190178D01*
%TO.C,D71*%
X224671180Y-336904464D02*
X223671180Y-336904464D01*
X223671180Y-337142559D01*
X223718800Y-337285416D01*
X223814038Y-337380654D01*
X223909276Y-337428273D01*
X224099752Y-337475892D01*
X224242609Y-337475892D01*
X224433085Y-337428273D01*
X224528323Y-337380654D01*
X224623561Y-337285416D01*
X224671180Y-337142559D01*
X224671180Y-336904464D01*
X223671180Y-337809226D02*
X223671180Y-338475892D01*
X224671180Y-338047321D01*
X224671180Y-339380654D02*
X224671180Y-338809226D01*
X224671180Y-339094940D02*
X223671180Y-339094940D01*
X223814038Y-338999702D01*
X223909276Y-338904464D01*
X223956895Y-338809226D01*
%TO.C,D16*%
X98464880Y-317873214D02*
X97464880Y-317873214D01*
X97464880Y-318111309D01*
X97512500Y-318254166D01*
X97607738Y-318349404D01*
X97702976Y-318397023D01*
X97893452Y-318444642D01*
X98036309Y-318444642D01*
X98226785Y-318397023D01*
X98322023Y-318349404D01*
X98417261Y-318254166D01*
X98464880Y-318111309D01*
X98464880Y-317873214D01*
X98464880Y-319397023D02*
X98464880Y-318825595D01*
X98464880Y-319111309D02*
X97464880Y-319111309D01*
X97607738Y-319016071D01*
X97702976Y-318920833D01*
X97750595Y-318825595D01*
X97464880Y-320254166D02*
X97464880Y-320063690D01*
X97512500Y-319968452D01*
X97560119Y-319920833D01*
X97702976Y-319825595D01*
X97893452Y-319777976D01*
X98274404Y-319777976D01*
X98369642Y-319825595D01*
X98417261Y-319873214D01*
X98464880Y-319968452D01*
X98464880Y-320158928D01*
X98417261Y-320254166D01*
X98369642Y-320301785D01*
X98274404Y-320349404D01*
X98036309Y-320349404D01*
X97941071Y-320301785D01*
X97893452Y-320254166D01*
X97845833Y-320158928D01*
X97845833Y-319968452D01*
X97893452Y-319873214D01*
X97941071Y-319825595D01*
X98036309Y-319777976D01*
%TO.C,D4*%
X88939880Y-280249404D02*
X87939880Y-280249404D01*
X87939880Y-280487500D01*
X87987500Y-280630357D01*
X88082738Y-280725595D01*
X88177976Y-280773214D01*
X88368452Y-280820833D01*
X88511309Y-280820833D01*
X88701785Y-280773214D01*
X88797023Y-280725595D01*
X88892261Y-280630357D01*
X88939880Y-280487500D01*
X88939880Y-280249404D01*
X88273214Y-281677976D02*
X88939880Y-281677976D01*
X87892261Y-281439880D02*
X88606547Y-281201785D01*
X88606547Y-281820833D01*
%TO.C,D63*%
X277058680Y-317854464D02*
X276058680Y-317854464D01*
X276058680Y-318092559D01*
X276106300Y-318235416D01*
X276201538Y-318330654D01*
X276296776Y-318378273D01*
X276487252Y-318425892D01*
X276630109Y-318425892D01*
X276820585Y-318378273D01*
X276915823Y-318330654D01*
X277011061Y-318235416D01*
X277058680Y-318092559D01*
X277058680Y-317854464D01*
X276058680Y-319283035D02*
X276058680Y-319092559D01*
X276106300Y-318997321D01*
X276153919Y-318949702D01*
X276296776Y-318854464D01*
X276487252Y-318806845D01*
X276868204Y-318806845D01*
X276963442Y-318854464D01*
X277011061Y-318902083D01*
X277058680Y-318997321D01*
X277058680Y-319187797D01*
X277011061Y-319283035D01*
X276963442Y-319330654D01*
X276868204Y-319378273D01*
X276630109Y-319378273D01*
X276534871Y-319330654D01*
X276487252Y-319283035D01*
X276439633Y-319187797D01*
X276439633Y-318997321D01*
X276487252Y-318902083D01*
X276534871Y-318854464D01*
X276630109Y-318806845D01*
X276058680Y-319711607D02*
X276058680Y-320330654D01*
X276439633Y-319997321D01*
X276439633Y-320140178D01*
X276487252Y-320235416D01*
X276534871Y-320283035D01*
X276630109Y-320330654D01*
X276868204Y-320330654D01*
X276963442Y-320283035D01*
X277011061Y-320235416D01*
X277058680Y-320140178D01*
X277058680Y-319854464D01*
X277011061Y-319759226D01*
X276963442Y-319711607D01*
%TO.C,D76*%
X343733680Y-336904464D02*
X342733680Y-336904464D01*
X342733680Y-337142559D01*
X342781300Y-337285416D01*
X342876538Y-337380654D01*
X342971776Y-337428273D01*
X343162252Y-337475892D01*
X343305109Y-337475892D01*
X343495585Y-337428273D01*
X343590823Y-337380654D01*
X343686061Y-337285416D01*
X343733680Y-337142559D01*
X343733680Y-336904464D01*
X342733680Y-337809226D02*
X342733680Y-338475892D01*
X343733680Y-338047321D01*
X342733680Y-339285416D02*
X342733680Y-339094940D01*
X342781300Y-338999702D01*
X342828919Y-338952083D01*
X342971776Y-338856845D01*
X343162252Y-338809226D01*
X343543204Y-338809226D01*
X343638442Y-338856845D01*
X343686061Y-338904464D01*
X343733680Y-338999702D01*
X343733680Y-339190178D01*
X343686061Y-339285416D01*
X343638442Y-339333035D01*
X343543204Y-339380654D01*
X343305109Y-339380654D01*
X343209871Y-339333035D01*
X343162252Y-339285416D01*
X343114633Y-339190178D01*
X343114633Y-338999702D01*
X343162252Y-338904464D01*
X343209871Y-338856845D01*
X343305109Y-338809226D01*
%TO.C,D97*%
X381833680Y-375004464D02*
X380833680Y-375004464D01*
X380833680Y-375242559D01*
X380881300Y-375385416D01*
X380976538Y-375480654D01*
X381071776Y-375528273D01*
X381262252Y-375575892D01*
X381405109Y-375575892D01*
X381595585Y-375528273D01*
X381690823Y-375480654D01*
X381786061Y-375385416D01*
X381833680Y-375242559D01*
X381833680Y-375004464D01*
X381833680Y-376052083D02*
X381833680Y-376242559D01*
X381786061Y-376337797D01*
X381738442Y-376385416D01*
X381595585Y-376480654D01*
X381405109Y-376528273D01*
X381024157Y-376528273D01*
X380928919Y-376480654D01*
X380881300Y-376433035D01*
X380833680Y-376337797D01*
X380833680Y-376147321D01*
X380881300Y-376052083D01*
X380928919Y-376004464D01*
X381024157Y-375956845D01*
X381262252Y-375956845D01*
X381357490Y-376004464D01*
X381405109Y-376052083D01*
X381452728Y-376147321D01*
X381452728Y-376337797D01*
X381405109Y-376433035D01*
X381357490Y-376480654D01*
X381262252Y-376528273D01*
X380833680Y-376861607D02*
X380833680Y-377528273D01*
X381833680Y-377099702D01*
%TO.C,D47*%
X191333680Y-298804464D02*
X190333680Y-298804464D01*
X190333680Y-299042559D01*
X190381300Y-299185416D01*
X190476538Y-299280654D01*
X190571776Y-299328273D01*
X190762252Y-299375892D01*
X190905109Y-299375892D01*
X191095585Y-299328273D01*
X191190823Y-299280654D01*
X191286061Y-299185416D01*
X191333680Y-299042559D01*
X191333680Y-298804464D01*
X190667014Y-300233035D02*
X191333680Y-300233035D01*
X190286061Y-299994940D02*
X191000347Y-299756845D01*
X191000347Y-300375892D01*
X190333680Y-300661607D02*
X190333680Y-301328273D01*
X191333680Y-300899702D01*
%TO.C,D73*%
X262771180Y-336904464D02*
X261771180Y-336904464D01*
X261771180Y-337142559D01*
X261818800Y-337285416D01*
X261914038Y-337380654D01*
X262009276Y-337428273D01*
X262199752Y-337475892D01*
X262342609Y-337475892D01*
X262533085Y-337428273D01*
X262628323Y-337380654D01*
X262723561Y-337285416D01*
X262771180Y-337142559D01*
X262771180Y-336904464D01*
X261771180Y-337809226D02*
X261771180Y-338475892D01*
X262771180Y-338047321D01*
X261771180Y-338761607D02*
X261771180Y-339380654D01*
X262152133Y-339047321D01*
X262152133Y-339190178D01*
X262199752Y-339285416D01*
X262247371Y-339333035D01*
X262342609Y-339380654D01*
X262580704Y-339380654D01*
X262675942Y-339333035D01*
X262723561Y-339285416D01*
X262771180Y-339190178D01*
X262771180Y-338904464D01*
X262723561Y-338809226D01*
X262675942Y-338761607D01*
%TO.C,D56*%
X381833680Y-298804464D02*
X380833680Y-298804464D01*
X380833680Y-299042559D01*
X380881300Y-299185416D01*
X380976538Y-299280654D01*
X381071776Y-299328273D01*
X381262252Y-299375892D01*
X381405109Y-299375892D01*
X381595585Y-299328273D01*
X381690823Y-299280654D01*
X381786061Y-299185416D01*
X381833680Y-299042559D01*
X381833680Y-298804464D01*
X380833680Y-300280654D02*
X380833680Y-299804464D01*
X381309871Y-299756845D01*
X381262252Y-299804464D01*
X381214633Y-299899702D01*
X381214633Y-300137797D01*
X381262252Y-300233035D01*
X381309871Y-300280654D01*
X381405109Y-300328273D01*
X381643204Y-300328273D01*
X381738442Y-300280654D01*
X381786061Y-300233035D01*
X381833680Y-300137797D01*
X381833680Y-299899702D01*
X381786061Y-299804464D01*
X381738442Y-299756845D01*
X380833680Y-301185416D02*
X380833680Y-300994940D01*
X380881300Y-300899702D01*
X380928919Y-300852083D01*
X381071776Y-300756845D01*
X381262252Y-300709226D01*
X381643204Y-300709226D01*
X381738442Y-300756845D01*
X381786061Y-300804464D01*
X381833680Y-300899702D01*
X381833680Y-301090178D01*
X381786061Y-301185416D01*
X381738442Y-301233035D01*
X381643204Y-301280654D01*
X381405109Y-301280654D01*
X381309871Y-301233035D01*
X381262252Y-301185416D01*
X381214633Y-301090178D01*
X381214633Y-300899702D01*
X381262252Y-300804464D01*
X381309871Y-300756845D01*
X381405109Y-300709226D01*
%TO.C,D20*%
X65127380Y-336923214D02*
X64127380Y-336923214D01*
X64127380Y-337161309D01*
X64175000Y-337304166D01*
X64270238Y-337399404D01*
X64365476Y-337447023D01*
X64555952Y-337494642D01*
X64698809Y-337494642D01*
X64889285Y-337447023D01*
X64984523Y-337399404D01*
X65079761Y-337304166D01*
X65127380Y-337161309D01*
X65127380Y-336923214D01*
X64222619Y-337875595D02*
X64175000Y-337923214D01*
X64127380Y-338018452D01*
X64127380Y-338256547D01*
X64175000Y-338351785D01*
X64222619Y-338399404D01*
X64317857Y-338447023D01*
X64413095Y-338447023D01*
X64555952Y-338399404D01*
X65127380Y-337827976D01*
X65127380Y-338447023D01*
X64127380Y-339066071D02*
X64127380Y-339161309D01*
X64175000Y-339256547D01*
X64222619Y-339304166D01*
X64317857Y-339351785D01*
X64508333Y-339399404D01*
X64746428Y-339399404D01*
X64936904Y-339351785D01*
X65032142Y-339304166D01*
X65079761Y-339256547D01*
X65127380Y-339161309D01*
X65127380Y-339066071D01*
X65079761Y-338970833D01*
X65032142Y-338923214D01*
X64936904Y-338875595D01*
X64746428Y-338827976D01*
X64508333Y-338827976D01*
X64317857Y-338875595D01*
X64222619Y-338923214D01*
X64175000Y-338970833D01*
X64127380Y-339066071D01*
%TO.C,D79*%
X396121180Y-334523214D02*
X395121180Y-334523214D01*
X395121180Y-334761309D01*
X395168800Y-334904166D01*
X395264038Y-334999404D01*
X395359276Y-335047023D01*
X395549752Y-335094642D01*
X395692609Y-335094642D01*
X395883085Y-335047023D01*
X395978323Y-334999404D01*
X396073561Y-334904166D01*
X396121180Y-334761309D01*
X396121180Y-334523214D01*
X395121180Y-335427976D02*
X395121180Y-336094642D01*
X396121180Y-335666071D01*
X396121180Y-336523214D02*
X396121180Y-336713690D01*
X396073561Y-336808928D01*
X396025942Y-336856547D01*
X395883085Y-336951785D01*
X395692609Y-336999404D01*
X395311657Y-336999404D01*
X395216419Y-336951785D01*
X395168800Y-336904166D01*
X395121180Y-336808928D01*
X395121180Y-336618452D01*
X395168800Y-336523214D01*
X395216419Y-336475595D01*
X395311657Y-336427976D01*
X395549752Y-336427976D01*
X395644990Y-336475595D01*
X395692609Y-336523214D01*
X395740228Y-336618452D01*
X395740228Y-336808928D01*
X395692609Y-336904166D01*
X395644990Y-336951785D01*
X395549752Y-336999404D01*
%TO.C,D59*%
X200858680Y-317854464D02*
X199858680Y-317854464D01*
X199858680Y-318092559D01*
X199906300Y-318235416D01*
X200001538Y-318330654D01*
X200096776Y-318378273D01*
X200287252Y-318425892D01*
X200430109Y-318425892D01*
X200620585Y-318378273D01*
X200715823Y-318330654D01*
X200811061Y-318235416D01*
X200858680Y-318092559D01*
X200858680Y-317854464D01*
X199858680Y-319330654D02*
X199858680Y-318854464D01*
X200334871Y-318806845D01*
X200287252Y-318854464D01*
X200239633Y-318949702D01*
X200239633Y-319187797D01*
X200287252Y-319283035D01*
X200334871Y-319330654D01*
X200430109Y-319378273D01*
X200668204Y-319378273D01*
X200763442Y-319330654D01*
X200811061Y-319283035D01*
X200858680Y-319187797D01*
X200858680Y-318949702D01*
X200811061Y-318854464D01*
X200763442Y-318806845D01*
X200858680Y-319854464D02*
X200858680Y-320044940D01*
X200811061Y-320140178D01*
X200763442Y-320187797D01*
X200620585Y-320283035D01*
X200430109Y-320330654D01*
X200049157Y-320330654D01*
X199953919Y-320283035D01*
X199906300Y-320235416D01*
X199858680Y-320140178D01*
X199858680Y-319949702D01*
X199906300Y-319854464D01*
X199953919Y-319806845D01*
X200049157Y-319759226D01*
X200287252Y-319759226D01*
X200382490Y-319806845D01*
X200430109Y-319854464D01*
X200477728Y-319949702D01*
X200477728Y-320140178D01*
X200430109Y-320235416D01*
X200382490Y-320283035D01*
X200287252Y-320330654D01*
%TO.C,D61*%
X238958680Y-317854464D02*
X237958680Y-317854464D01*
X237958680Y-318092559D01*
X238006300Y-318235416D01*
X238101538Y-318330654D01*
X238196776Y-318378273D01*
X238387252Y-318425892D01*
X238530109Y-318425892D01*
X238720585Y-318378273D01*
X238815823Y-318330654D01*
X238911061Y-318235416D01*
X238958680Y-318092559D01*
X238958680Y-317854464D01*
X237958680Y-319283035D02*
X237958680Y-319092559D01*
X238006300Y-318997321D01*
X238053919Y-318949702D01*
X238196776Y-318854464D01*
X238387252Y-318806845D01*
X238768204Y-318806845D01*
X238863442Y-318854464D01*
X238911061Y-318902083D01*
X238958680Y-318997321D01*
X238958680Y-319187797D01*
X238911061Y-319283035D01*
X238863442Y-319330654D01*
X238768204Y-319378273D01*
X238530109Y-319378273D01*
X238434871Y-319330654D01*
X238387252Y-319283035D01*
X238339633Y-319187797D01*
X238339633Y-318997321D01*
X238387252Y-318902083D01*
X238434871Y-318854464D01*
X238530109Y-318806845D01*
X238958680Y-320330654D02*
X238958680Y-319759226D01*
X238958680Y-320044940D02*
X237958680Y-320044940D01*
X238101538Y-319949702D01*
X238196776Y-319854464D01*
X238244395Y-319759226D01*
%TO.C,D90*%
X210764335Y-377052380D02*
X210764335Y-376052380D01*
X210526240Y-376052380D01*
X210383383Y-376100000D01*
X210288145Y-376195238D01*
X210240526Y-376290476D01*
X210192907Y-376480952D01*
X210192907Y-376623809D01*
X210240526Y-376814285D01*
X210288145Y-376909523D01*
X210383383Y-377004761D01*
X210526240Y-377052380D01*
X210764335Y-377052380D01*
X209716716Y-377052380D02*
X209526240Y-377052380D01*
X209431002Y-377004761D01*
X209383383Y-376957142D01*
X209288145Y-376814285D01*
X209240526Y-376623809D01*
X209240526Y-376242857D01*
X209288145Y-376147619D01*
X209335764Y-376100000D01*
X209431002Y-376052380D01*
X209621478Y-376052380D01*
X209716716Y-376100000D01*
X209764335Y-376147619D01*
X209811954Y-376242857D01*
X209811954Y-376480952D01*
X209764335Y-376576190D01*
X209716716Y-376623809D01*
X209621478Y-376671428D01*
X209431002Y-376671428D01*
X209335764Y-376623809D01*
X209288145Y-376576190D01*
X209240526Y-376480952D01*
X208621478Y-376052380D02*
X208526240Y-376052380D01*
X208431002Y-376100000D01*
X208383383Y-376147619D01*
X208335764Y-376242857D01*
X208288145Y-376433333D01*
X208288145Y-376671428D01*
X208335764Y-376861904D01*
X208383383Y-376957142D01*
X208431002Y-377004761D01*
X208526240Y-377052380D01*
X208621478Y-377052380D01*
X208716716Y-377004761D01*
X208764335Y-376957142D01*
X208811954Y-376861904D01*
X208859573Y-376671428D01*
X208859573Y-376433333D01*
X208811954Y-376242857D01*
X208764335Y-376147619D01*
X208716716Y-376100000D01*
X208621478Y-376052380D01*
%TO.C,D36*%
X191333680Y-279754464D02*
X190333680Y-279754464D01*
X190333680Y-279992559D01*
X190381300Y-280135416D01*
X190476538Y-280230654D01*
X190571776Y-280278273D01*
X190762252Y-280325892D01*
X190905109Y-280325892D01*
X191095585Y-280278273D01*
X191190823Y-280230654D01*
X191286061Y-280135416D01*
X191333680Y-279992559D01*
X191333680Y-279754464D01*
X190333680Y-280659226D02*
X190333680Y-281278273D01*
X190714633Y-280944940D01*
X190714633Y-281087797D01*
X190762252Y-281183035D01*
X190809871Y-281230654D01*
X190905109Y-281278273D01*
X191143204Y-281278273D01*
X191238442Y-281230654D01*
X191286061Y-281183035D01*
X191333680Y-281087797D01*
X191333680Y-280802083D01*
X191286061Y-280706845D01*
X191238442Y-280659226D01*
X190333680Y-282135416D02*
X190333680Y-281944940D01*
X190381300Y-281849702D01*
X190428919Y-281802083D01*
X190571776Y-281706845D01*
X190762252Y-281659226D01*
X191143204Y-281659226D01*
X191238442Y-281706845D01*
X191286061Y-281754464D01*
X191333680Y-281849702D01*
X191333680Y-282040178D01*
X191286061Y-282135416D01*
X191238442Y-282183035D01*
X191143204Y-282230654D01*
X190905109Y-282230654D01*
X190809871Y-282183035D01*
X190762252Y-282135416D01*
X190714633Y-282040178D01*
X190714633Y-281849702D01*
X190762252Y-281754464D01*
X190809871Y-281706845D01*
X190905109Y-281659226D01*
%TO.C,D74*%
X281821180Y-336904464D02*
X280821180Y-336904464D01*
X280821180Y-337142559D01*
X280868800Y-337285416D01*
X280964038Y-337380654D01*
X281059276Y-337428273D01*
X281249752Y-337475892D01*
X281392609Y-337475892D01*
X281583085Y-337428273D01*
X281678323Y-337380654D01*
X281773561Y-337285416D01*
X281821180Y-337142559D01*
X281821180Y-336904464D01*
X280821180Y-337809226D02*
X280821180Y-338475892D01*
X281821180Y-338047321D01*
X281154514Y-339285416D02*
X281821180Y-339285416D01*
X280773561Y-339047321D02*
X281487847Y-338809226D01*
X281487847Y-339428273D01*
%TO.C,D49*%
X229433680Y-298804464D02*
X228433680Y-298804464D01*
X228433680Y-299042559D01*
X228481300Y-299185416D01*
X228576538Y-299280654D01*
X228671776Y-299328273D01*
X228862252Y-299375892D01*
X229005109Y-299375892D01*
X229195585Y-299328273D01*
X229290823Y-299280654D01*
X229386061Y-299185416D01*
X229433680Y-299042559D01*
X229433680Y-298804464D01*
X228767014Y-300233035D02*
X229433680Y-300233035D01*
X228386061Y-299994940D02*
X229100347Y-299756845D01*
X229100347Y-300375892D01*
X229433680Y-300804464D02*
X229433680Y-300994940D01*
X229386061Y-301090178D01*
X229338442Y-301137797D01*
X229195585Y-301233035D01*
X229005109Y-301280654D01*
X228624157Y-301280654D01*
X228528919Y-301233035D01*
X228481300Y-301185416D01*
X228433680Y-301090178D01*
X228433680Y-300899702D01*
X228481300Y-300804464D01*
X228528919Y-300756845D01*
X228624157Y-300709226D01*
X228862252Y-300709226D01*
X228957490Y-300756845D01*
X229005109Y-300804464D01*
X229052728Y-300899702D01*
X229052728Y-301090178D01*
X229005109Y-301185416D01*
X228957490Y-301233035D01*
X228862252Y-301280654D01*
%TO.C,D14*%
X60364880Y-317873214D02*
X59364880Y-317873214D01*
X59364880Y-318111309D01*
X59412500Y-318254166D01*
X59507738Y-318349404D01*
X59602976Y-318397023D01*
X59793452Y-318444642D01*
X59936309Y-318444642D01*
X60126785Y-318397023D01*
X60222023Y-318349404D01*
X60317261Y-318254166D01*
X60364880Y-318111309D01*
X60364880Y-317873214D01*
X60364880Y-319397023D02*
X60364880Y-318825595D01*
X60364880Y-319111309D02*
X59364880Y-319111309D01*
X59507738Y-319016071D01*
X59602976Y-318920833D01*
X59650595Y-318825595D01*
X59698214Y-320254166D02*
X60364880Y-320254166D01*
X59317261Y-320016071D02*
X60031547Y-319777976D01*
X60031547Y-320397023D01*
%TO.C,D31*%
X34171130Y-375023214D02*
X33171130Y-375023214D01*
X33171130Y-375261309D01*
X33218750Y-375404166D01*
X33313988Y-375499404D01*
X33409226Y-375547023D01*
X33599702Y-375594642D01*
X33742559Y-375594642D01*
X33933035Y-375547023D01*
X34028273Y-375499404D01*
X34123511Y-375404166D01*
X34171130Y-375261309D01*
X34171130Y-375023214D01*
X33171130Y-375927976D02*
X33171130Y-376547023D01*
X33552083Y-376213690D01*
X33552083Y-376356547D01*
X33599702Y-376451785D01*
X33647321Y-376499404D01*
X33742559Y-376547023D01*
X33980654Y-376547023D01*
X34075892Y-376499404D01*
X34123511Y-376451785D01*
X34171130Y-376356547D01*
X34171130Y-376070833D01*
X34123511Y-375975595D01*
X34075892Y-375927976D01*
X34171130Y-377499404D02*
X34171130Y-376927976D01*
X34171130Y-377213690D02*
X33171130Y-377213690D01*
X33313988Y-377118452D01*
X33409226Y-377023214D01*
X33456845Y-376927976D01*
%TO.C,D98*%
X396121180Y-372623214D02*
X395121180Y-372623214D01*
X395121180Y-372861309D01*
X395168800Y-373004166D01*
X395264038Y-373099404D01*
X395359276Y-373147023D01*
X395549752Y-373194642D01*
X395692609Y-373194642D01*
X395883085Y-373147023D01*
X395978323Y-373099404D01*
X396073561Y-373004166D01*
X396121180Y-372861309D01*
X396121180Y-372623214D01*
X396121180Y-373670833D02*
X396121180Y-373861309D01*
X396073561Y-373956547D01*
X396025942Y-374004166D01*
X395883085Y-374099404D01*
X395692609Y-374147023D01*
X395311657Y-374147023D01*
X395216419Y-374099404D01*
X395168800Y-374051785D01*
X395121180Y-373956547D01*
X395121180Y-373766071D01*
X395168800Y-373670833D01*
X395216419Y-373623214D01*
X395311657Y-373575595D01*
X395549752Y-373575595D01*
X395644990Y-373623214D01*
X395692609Y-373670833D01*
X395740228Y-373766071D01*
X395740228Y-373956547D01*
X395692609Y-374051785D01*
X395644990Y-374099404D01*
X395549752Y-374147023D01*
X395549752Y-374718452D02*
X395502133Y-374623214D01*
X395454514Y-374575595D01*
X395359276Y-374527976D01*
X395311657Y-374527976D01*
X395216419Y-374575595D01*
X395168800Y-374623214D01*
X395121180Y-374718452D01*
X395121180Y-374908928D01*
X395168800Y-375004166D01*
X395216419Y-375051785D01*
X395311657Y-375099404D01*
X395359276Y-375099404D01*
X395454514Y-375051785D01*
X395502133Y-375004166D01*
X395549752Y-374908928D01*
X395549752Y-374718452D01*
X395597371Y-374623214D01*
X395644990Y-374575595D01*
X395740228Y-374527976D01*
X395930704Y-374527976D01*
X396025942Y-374575595D01*
X396073561Y-374623214D01*
X396121180Y-374718452D01*
X396121180Y-374908928D01*
X396073561Y-375004166D01*
X396025942Y-375051785D01*
X395930704Y-375099404D01*
X395740228Y-375099404D01*
X395644990Y-375051785D01*
X395597371Y-375004166D01*
X395549752Y-374908928D01*
%TO.C,U2*%
X431641300Y-277635000D02*
X436721300Y-277635000D01*
X436721300Y-275095000D02*
X444341300Y-275095000D01*
X444341300Y-275095000D02*
X444341300Y-277635000D01*
X449421300Y-277635000D02*
X449421300Y-308115000D01*
X436721300Y-277635000D02*
X436721300Y-275095000D01*
X449421300Y-308115000D02*
X431641300Y-308115000D01*
X431641300Y-308115000D02*
X431641300Y-277635000D01*
X444341300Y-277635000D02*
X449421300Y-277635000D01*
%TO.C,U1*%
X-13652500Y-308133750D02*
X-13652500Y-277653750D01*
X-8572500Y-275113750D02*
X-952500Y-275113750D01*
X-952500Y-275113750D02*
X-952500Y-277653750D01*
X-13652500Y-277653750D02*
X-8572500Y-277653750D01*
X4127500Y-277653750D02*
X4127500Y-308133750D01*
X-952500Y-277653750D02*
X4127500Y-277653750D01*
X-8572500Y-277653750D02*
X-8572500Y-275113750D01*
X4127500Y-308133750D02*
X-13652500Y-308133750D01*
D11*
%TO.C,D37*%
X210931300Y-278718750D02*
X212931300Y-278718750D01*
X210931300Y-278718750D02*
X210931300Y-282618750D01*
X212931300Y-278718750D02*
X212931300Y-282618750D01*
%TO.C,D15*%
X79962500Y-316837500D02*
X81962500Y-316837500D01*
X79962500Y-316837500D02*
X79962500Y-320737500D01*
X81962500Y-316837500D02*
X81962500Y-320737500D01*
%TO.C,D84*%
X272843800Y-354918750D02*
X272843800Y-358818750D01*
X274843800Y-354918750D02*
X274843800Y-358818750D01*
X272843800Y-354918750D02*
X274843800Y-354918750D01*
%TO.C,D81*%
X217693800Y-354918750D02*
X217693800Y-358818750D01*
X215693800Y-354918750D02*
X217693800Y-354918750D01*
X215693800Y-354918750D02*
X215693800Y-358818750D01*
%TO.C,D83*%
X253793800Y-354918750D02*
X253793800Y-358818750D01*
X253793800Y-354918750D02*
X255793800Y-354918750D01*
X255793800Y-354918750D02*
X255793800Y-358818750D01*
%TO.C,D44*%
X384381300Y-278718750D02*
X384381300Y-282618750D01*
X382381300Y-278718750D02*
X382381300Y-282618750D01*
X382381300Y-278718750D02*
X384381300Y-278718750D01*
%TO.C,D35*%
X172831300Y-278718750D02*
X172831300Y-282618750D01*
X174831300Y-278718750D02*
X174831300Y-282618750D01*
X172831300Y-278718750D02*
X174831300Y-278718750D01*
%TO.C,D95*%
X344281300Y-373968750D02*
X344281300Y-377868750D01*
X344281300Y-373968750D02*
X346281300Y-373968750D01*
X346281300Y-373968750D02*
X346281300Y-377868750D01*
%TO.C,D88*%
X363331300Y-354918750D02*
X363331300Y-358818750D01*
X365331300Y-354918750D02*
X365331300Y-358818750D01*
X363331300Y-354918750D02*
X365331300Y-354918750D01*
%TO.C,D28*%
X113300000Y-354937500D02*
X115300000Y-354937500D01*
X115300000Y-354937500D02*
X115300000Y-358837500D01*
X113300000Y-354937500D02*
X113300000Y-358837500D01*
%TO.C,D70*%
X208168800Y-335868750D02*
X208168800Y-339768750D01*
X206168800Y-335868750D02*
X206168800Y-339768750D01*
X206168800Y-335868750D02*
X208168800Y-335868750D01*
%TO.C,D41*%
X287131300Y-278718750D02*
X289131300Y-278718750D01*
X289131300Y-278718750D02*
X289131300Y-282618750D01*
X287131300Y-278718750D02*
X287131300Y-282618750D01*
%TO.C,D24*%
X143875000Y-335887500D02*
X143875000Y-339787500D01*
X141875000Y-335887500D02*
X143875000Y-335887500D01*
X141875000Y-335887500D02*
X141875000Y-339787500D01*
%TO.C,D34*%
X125206250Y-373987500D02*
X127206250Y-373987500D01*
X125206250Y-373987500D02*
X125206250Y-377887500D01*
X127206250Y-373987500D02*
X127206250Y-377887500D01*
%TO.C,D77*%
X363331300Y-335868750D02*
X365331300Y-335868750D01*
X365331300Y-335868750D02*
X365331300Y-339768750D01*
X363331300Y-335868750D02*
X363331300Y-339768750D01*
%TO.C,D86*%
X325231300Y-354918750D02*
X327231300Y-354918750D01*
X325231300Y-354918750D02*
X325231300Y-358818750D01*
X327231300Y-354918750D02*
X327231300Y-358818750D01*
%TO.C,D46*%
X174831300Y-297768750D02*
X174831300Y-301668750D01*
X172831300Y-297768750D02*
X172831300Y-301668750D01*
X172831300Y-297768750D02*
X174831300Y-297768750D01*
%TO.C,D21*%
X84725000Y-335887500D02*
X84725000Y-339787500D01*
X84725000Y-335887500D02*
X86725000Y-335887500D01*
X86725000Y-335887500D02*
X86725000Y-339787500D01*
%TO.C,D94*%
X325231300Y-373968750D02*
X325231300Y-377868750D01*
X325231300Y-373968750D02*
X327231300Y-373968750D01*
X327231300Y-373968750D02*
X327231300Y-377868750D01*
%TO.C,D87*%
X344281300Y-354918750D02*
X344281300Y-358818750D01*
X346281300Y-354918750D02*
X346281300Y-358818750D01*
X344281300Y-354918750D02*
X346281300Y-354918750D01*
%TO.C,D32*%
X58531250Y-373987500D02*
X60531250Y-373987500D01*
X60531250Y-373987500D02*
X60531250Y-377887500D01*
X58531250Y-373987500D02*
X58531250Y-377887500D01*
%TO.C,D12*%
X127587500Y-297787500D02*
X129587500Y-297787500D01*
X127587500Y-297787500D02*
X127587500Y-301687500D01*
X129587500Y-297787500D02*
X129587500Y-301687500D01*
%TO.C,D72*%
X244268800Y-335868750D02*
X244268800Y-339768750D01*
X246268800Y-335868750D02*
X246268800Y-339768750D01*
X244268800Y-335868750D02*
X246268800Y-335868750D01*
%TO.C,D6*%
X127587500Y-278737500D02*
X127587500Y-282637500D01*
X127587500Y-278737500D02*
X129587500Y-278737500D01*
X129587500Y-278737500D02*
X129587500Y-282637500D01*
%TO.C,D13*%
X39100000Y-316837500D02*
X39100000Y-320737500D01*
X37100000Y-316837500D02*
X37100000Y-320737500D01*
X37100000Y-316837500D02*
X39100000Y-316837500D01*
%TO.C,D80*%
X196643800Y-354918750D02*
X196643800Y-358818750D01*
X198643800Y-354918750D02*
X198643800Y-358818750D01*
X196643800Y-354918750D02*
X198643800Y-354918750D01*
%TO.C,D91*%
X253762550Y-373943750D02*
X255762550Y-373943750D01*
X253762550Y-373943750D02*
X253762550Y-377843750D01*
X255762550Y-373943750D02*
X255762550Y-377843750D01*
%TO.C,D25*%
X44243750Y-354937500D02*
X44243750Y-358837500D01*
X44243750Y-354937500D02*
X46243750Y-354937500D01*
X46243750Y-354937500D02*
X46243750Y-358837500D01*
%TO.C,D55*%
X365331300Y-297768750D02*
X365331300Y-301668750D01*
X363331300Y-297768750D02*
X365331300Y-297768750D01*
X363331300Y-297768750D02*
X363331300Y-301668750D01*
%TO.C,D39*%
X249031300Y-278718750D02*
X251031300Y-278718750D01*
X251031300Y-278718750D02*
X251031300Y-282618750D01*
X249031300Y-278718750D02*
X249031300Y-282618750D01*
%TO.C,D48*%
X212931300Y-297768750D02*
X212931300Y-301668750D01*
X210931300Y-297768750D02*
X210931300Y-301668750D01*
X210931300Y-297768750D02*
X212931300Y-297768750D01*
%TO.C,D42*%
X346281300Y-278718750D02*
X346281300Y-282618750D01*
X344281300Y-278718750D02*
X344281300Y-282618750D01*
X344281300Y-278718750D02*
X346281300Y-278718750D01*
%TO.C,D27*%
X96250000Y-354937500D02*
X96250000Y-358837500D01*
X94250000Y-354937500D02*
X96250000Y-354937500D01*
X94250000Y-354937500D02*
X94250000Y-358837500D01*
%TO.C,D9*%
X72437500Y-297787500D02*
X72437500Y-301687500D01*
X70437500Y-297787500D02*
X72437500Y-297787500D01*
X70437500Y-297787500D02*
X70437500Y-301687500D01*
%TO.C,D67*%
X363331300Y-316818750D02*
X363331300Y-320718750D01*
X363331300Y-316818750D02*
X365331300Y-316818750D01*
X365331300Y-316818750D02*
X365331300Y-320718750D01*
%TO.C,D89*%
X384381300Y-354918750D02*
X384381300Y-358818750D01*
X382381300Y-354918750D02*
X382381300Y-358818750D01*
X382381300Y-354918750D02*
X384381300Y-354918750D01*
%TO.C,D43*%
X363331300Y-278718750D02*
X365331300Y-278718750D01*
X363331300Y-278718750D02*
X363331300Y-282618750D01*
X365331300Y-278718750D02*
X365331300Y-282618750D01*
%TO.C,D85*%
X301037550Y-354918750D02*
X301037550Y-358818750D01*
X299037550Y-354918750D02*
X299037550Y-358818750D01*
X299037550Y-354918750D02*
X301037550Y-354918750D01*
%TO.C,D50*%
X249031300Y-297768750D02*
X249031300Y-301668750D01*
X251031300Y-297768750D02*
X251031300Y-301668750D01*
X249031300Y-297768750D02*
X251031300Y-297768750D01*
%TO.C,D40*%
X268081300Y-278718750D02*
X268081300Y-282618750D01*
X268081300Y-278718750D02*
X270081300Y-278718750D01*
X270081300Y-278718750D02*
X270081300Y-282618750D01*
%TO.C,D92*%
X282368800Y-373968750D02*
X282368800Y-377868750D01*
X282368800Y-373968750D02*
X284368800Y-373968750D01*
X284368800Y-373968750D02*
X284368800Y-377868750D01*
%TO.C,D66*%
X344281300Y-316818750D02*
X344281300Y-320718750D01*
X346281300Y-316818750D02*
X346281300Y-320718750D01*
X344281300Y-316818750D02*
X346281300Y-316818750D01*
%TO.C,D2*%
X51387500Y-278737500D02*
X51387500Y-282637500D01*
X53387500Y-278737500D02*
X53387500Y-282637500D01*
X51387500Y-278737500D02*
X53387500Y-278737500D01*
%TO.C,D3*%
X72437500Y-278737500D02*
X72437500Y-282637500D01*
X70437500Y-278737500D02*
X70437500Y-282637500D01*
X70437500Y-278737500D02*
X72437500Y-278737500D01*
%TO.C,D45*%
X401431300Y-278718750D02*
X403431300Y-278718750D01*
X401431300Y-278718750D02*
X401431300Y-282618750D01*
X403431300Y-278718750D02*
X403431300Y-282618750D01*
%TO.C,D57*%
X403431300Y-297768750D02*
X403431300Y-301668750D01*
X401431300Y-297768750D02*
X401431300Y-301668750D01*
X401431300Y-297768750D02*
X403431300Y-297768750D01*
%TO.C,D38*%
X229981300Y-278718750D02*
X231981300Y-278718750D01*
X229981300Y-278718750D02*
X229981300Y-282618750D01*
X231981300Y-278718750D02*
X231981300Y-282618750D01*
%TO.C,D18*%
X137112500Y-316837500D02*
X139112500Y-316837500D01*
X137112500Y-316837500D02*
X137112500Y-320737500D01*
X139112500Y-316837500D02*
X139112500Y-320737500D01*
%TO.C,D96*%
X363331300Y-373968750D02*
X365331300Y-373968750D01*
X365331300Y-373968750D02*
X365331300Y-377868750D01*
X363331300Y-373968750D02*
X363331300Y-377868750D01*
%TO.C,D68*%
X382381300Y-316818750D02*
X384381300Y-316818750D01*
X384381300Y-316818750D02*
X384381300Y-320718750D01*
X382381300Y-316818750D02*
X382381300Y-320718750D01*
%TO.C,D22*%
X105775000Y-335887500D02*
X105775000Y-339787500D01*
X103775000Y-335887500D02*
X105775000Y-335887500D01*
X103775000Y-335887500D02*
X103775000Y-339787500D01*
%TO.C,D60*%
X220456300Y-316818750D02*
X220456300Y-320718750D01*
X220456300Y-316818750D02*
X222456300Y-316818750D01*
X222456300Y-316818750D02*
X222456300Y-320718750D01*
%TO.C,D51*%
X270081300Y-297768750D02*
X270081300Y-301668750D01*
X268081300Y-297768750D02*
X268081300Y-301668750D01*
X268081300Y-297768750D02*
X270081300Y-297768750D01*
%TO.C,D52*%
X287131300Y-297768750D02*
X289131300Y-297768750D01*
X289131300Y-297768750D02*
X289131300Y-301668750D01*
X287131300Y-297768750D02*
X287131300Y-301668750D01*
%TO.C,D8*%
X53387500Y-297787500D02*
X53387500Y-301687500D01*
X51387500Y-297787500D02*
X53387500Y-297787500D01*
X51387500Y-297787500D02*
X51387500Y-301687500D01*
%TO.C,D62*%
X258556300Y-316818750D02*
X258556300Y-320718750D01*
X260556300Y-316818750D02*
X260556300Y-320718750D01*
X258556300Y-316818750D02*
X260556300Y-316818750D01*
%TO.C,D23*%
X122825000Y-335887500D02*
X122825000Y-339787500D01*
X122825000Y-335887500D02*
X124825000Y-335887500D01*
X124825000Y-335887500D02*
X124825000Y-339787500D01*
%TO.C,D69*%
X187118800Y-335868750D02*
X189118800Y-335868750D01*
X189118800Y-335868750D02*
X189118800Y-339768750D01*
X187118800Y-335868750D02*
X187118800Y-339768750D01*
%TO.C,D11*%
X110537500Y-297787500D02*
X110537500Y-301687500D01*
X108537500Y-297787500D02*
X108537500Y-301687500D01*
X108537500Y-297787500D02*
X110537500Y-297787500D01*
%TO.C,D75*%
X316575050Y-339500000D02*
X312675050Y-339500000D01*
X316575050Y-339500000D02*
X316575050Y-341500000D01*
X316575050Y-341500000D02*
X312675050Y-341500000D01*
%TO.C,D93*%
X308181300Y-373968750D02*
X308181300Y-377868750D01*
X306181300Y-373968750D02*
X308181300Y-373968750D01*
X306181300Y-373968750D02*
X306181300Y-377868750D01*
%TO.C,D82*%
X234743800Y-354918750D02*
X234743800Y-358818750D01*
X234743800Y-354918750D02*
X236743800Y-354918750D01*
X236743800Y-354918750D02*
X236743800Y-358818750D01*
%TO.C,D58*%
X184356300Y-316818750D02*
X184356300Y-320718750D01*
X182356300Y-316818750D02*
X184356300Y-316818750D01*
X182356300Y-316818750D02*
X182356300Y-320718750D01*
%TO.C,D1*%
X32337500Y-278737500D02*
X34337500Y-278737500D01*
X32337500Y-278737500D02*
X32337500Y-282637500D01*
X34337500Y-278737500D02*
X34337500Y-282637500D01*
%TO.C,D30*%
X151400000Y-354937500D02*
X153400000Y-354937500D01*
X151400000Y-354937500D02*
X151400000Y-358837500D01*
X153400000Y-354937500D02*
X153400000Y-358837500D01*
%TO.C,D33*%
X84343750Y-373987500D02*
X84343750Y-377887500D01*
X82343750Y-373987500D02*
X82343750Y-377887500D01*
X82343750Y-373987500D02*
X84343750Y-373987500D01*
%TO.C,D54*%
X346281300Y-297768750D02*
X346281300Y-301668750D01*
X344281300Y-297768750D02*
X344281300Y-301668750D01*
X344281300Y-297768750D02*
X346281300Y-297768750D01*
%TO.C,D19*%
X39481250Y-335887500D02*
X41481250Y-335887500D01*
X41481250Y-335887500D02*
X41481250Y-339787500D01*
X39481250Y-335887500D02*
X39481250Y-339787500D01*
%TO.C,D65*%
X320468800Y-316818750D02*
X320468800Y-320718750D01*
X320468800Y-316818750D02*
X322468800Y-316818750D01*
X322468800Y-316818750D02*
X322468800Y-320718750D01*
%TO.C,D5*%
X108537500Y-278737500D02*
X108537500Y-282637500D01*
X108537500Y-278737500D02*
X110537500Y-278737500D01*
X110537500Y-278737500D02*
X110537500Y-282637500D01*
%TO.C,D64*%
X296656300Y-316818750D02*
X298656300Y-316818750D01*
X298656300Y-316818750D02*
X298656300Y-320718750D01*
X296656300Y-316818750D02*
X296656300Y-320718750D01*
%TO.C,D26*%
X75200000Y-354937500D02*
X77200000Y-354937500D01*
X75200000Y-354937500D02*
X75200000Y-358837500D01*
X77200000Y-354937500D02*
X77200000Y-358837500D01*
%TO.C,D29*%
X132350000Y-354937500D02*
X134350000Y-354937500D01*
X132350000Y-354937500D02*
X132350000Y-358837500D01*
X134350000Y-354937500D02*
X134350000Y-358837500D01*
%TO.C,D17*%
X118062500Y-316837500D02*
X118062500Y-320737500D01*
X118062500Y-316837500D02*
X120062500Y-316837500D01*
X120062500Y-316837500D02*
X120062500Y-320737500D01*
%TO.C,D10*%
X89487500Y-297787500D02*
X91487500Y-297787500D01*
X91487500Y-297787500D02*
X91487500Y-301687500D01*
X89487500Y-297787500D02*
X89487500Y-301687500D01*
%TO.C,D7*%
X34337500Y-297787500D02*
X34337500Y-301687500D01*
X32337500Y-297787500D02*
X34337500Y-297787500D01*
X32337500Y-297787500D02*
X32337500Y-301687500D01*
%TO.C,D53*%
X318956300Y-301400000D02*
X315056300Y-301400000D01*
X318956300Y-303400000D02*
X315056300Y-303400000D01*
X318956300Y-301400000D02*
X318956300Y-303400000D01*
%TO.C,D78*%
X382381300Y-335868750D02*
X384381300Y-335868750D01*
X384381300Y-335868750D02*
X384381300Y-339768750D01*
X382381300Y-335868750D02*
X382381300Y-339768750D01*
%TO.C,D71*%
X225218800Y-335868750D02*
X227218800Y-335868750D01*
X225218800Y-335868750D02*
X225218800Y-339768750D01*
X227218800Y-335868750D02*
X227218800Y-339768750D01*
%TO.C,D16*%
X99012500Y-316837500D02*
X99012500Y-320737500D01*
X99012500Y-316837500D02*
X101012500Y-316837500D01*
X101012500Y-316837500D02*
X101012500Y-320737500D01*
%TO.C,D4*%
X89487500Y-278737500D02*
X89487500Y-282637500D01*
X91487500Y-278737500D02*
X91487500Y-282637500D01*
X89487500Y-278737500D02*
X91487500Y-278737500D01*
%TO.C,D63*%
X277606300Y-316818750D02*
X279606300Y-316818750D01*
X277606300Y-316818750D02*
X277606300Y-320718750D01*
X279606300Y-316818750D02*
X279606300Y-320718750D01*
%TO.C,D76*%
X346281300Y-335868750D02*
X346281300Y-339768750D01*
X344281300Y-335868750D02*
X346281300Y-335868750D01*
X344281300Y-335868750D02*
X344281300Y-339768750D01*
%TO.C,D97*%
X384381300Y-373968750D02*
X384381300Y-377868750D01*
X382381300Y-373968750D02*
X384381300Y-373968750D01*
X382381300Y-373968750D02*
X382381300Y-377868750D01*
%TO.C,D47*%
X191881300Y-297768750D02*
X191881300Y-301668750D01*
X193881300Y-297768750D02*
X193881300Y-301668750D01*
X191881300Y-297768750D02*
X193881300Y-297768750D01*
%TO.C,D73*%
X263318800Y-335868750D02*
X265318800Y-335868750D01*
X263318800Y-335868750D02*
X263318800Y-339768750D01*
X265318800Y-335868750D02*
X265318800Y-339768750D01*
%TO.C,D56*%
X382381300Y-297768750D02*
X382381300Y-301668750D01*
X384381300Y-297768750D02*
X384381300Y-301668750D01*
X382381300Y-297768750D02*
X384381300Y-297768750D01*
%TO.C,D20*%
X67675000Y-335887500D02*
X67675000Y-339787500D01*
X65675000Y-335887500D02*
X67675000Y-335887500D01*
X65675000Y-335887500D02*
X65675000Y-339787500D01*
%TO.C,D79*%
X396668800Y-333487500D02*
X398668800Y-333487500D01*
X396668800Y-333487500D02*
X396668800Y-337387500D01*
X398668800Y-333487500D02*
X398668800Y-337387500D01*
%TO.C,D59*%
X201406300Y-316818750D02*
X203406300Y-316818750D01*
X203406300Y-316818750D02*
X203406300Y-320718750D01*
X201406300Y-316818750D02*
X201406300Y-320718750D01*
%TO.C,D61*%
X239506300Y-316818750D02*
X239506300Y-320718750D01*
X239506300Y-316818750D02*
X241506300Y-316818750D01*
X241506300Y-316818750D02*
X241506300Y-320718750D01*
%TO.C,D90*%
X211800050Y-379600000D02*
X207900050Y-379600000D01*
X211800050Y-377600000D02*
X207900050Y-377600000D01*
X211800050Y-377600000D02*
X211800050Y-379600000D01*
%TO.C,D36*%
X191881300Y-278718750D02*
X193881300Y-278718750D01*
X191881300Y-278718750D02*
X191881300Y-282618750D01*
X193881300Y-278718750D02*
X193881300Y-282618750D01*
%TO.C,D74*%
X284368800Y-335868750D02*
X284368800Y-339768750D01*
X282368800Y-335868750D02*
X282368800Y-339768750D01*
X282368800Y-335868750D02*
X284368800Y-335868750D01*
%TO.C,D49*%
X231981300Y-297768750D02*
X231981300Y-301668750D01*
X229981300Y-297768750D02*
X229981300Y-301668750D01*
X229981300Y-297768750D02*
X231981300Y-297768750D01*
%TO.C,D14*%
X60912500Y-316837500D02*
X62912500Y-316837500D01*
X60912500Y-316837500D02*
X60912500Y-320737500D01*
X62912500Y-316837500D02*
X62912500Y-320737500D01*
%TO.C,D31*%
X36718750Y-373987500D02*
X36718750Y-377887500D01*
X34718750Y-373987500D02*
X36718750Y-373987500D01*
X34718750Y-373987500D02*
X34718750Y-377887500D01*
%TO.C,D98*%
X398668800Y-371587500D02*
X398668800Y-375487500D01*
X396668800Y-371587500D02*
X396668800Y-375487500D01*
X396668800Y-371587500D02*
X398668800Y-371587500D01*
%TD*%
M02*
