%TF.GenerationSoftware,KiCad,Pcbnew,6.0.11-2627ca5db0~126~ubuntu22.04.1*%
%TF.CreationDate,2023-11-06T21:31:54+01:00*%
%TF.ProjectId,pcb,7063622e-6b69-4636-9164-5f7063625858,rev?*%
%TF.SameCoordinates,Original*%
%TF.FileFunction,Legend,Top*%
%TF.FilePolarity,Positive*%
%FSLAX46Y46*%
G04 Gerber Fmt 4.6, Leading zero omitted, Abs format (unit mm)*
G04 Created by KiCad (PCBNEW 6.0.11-2627ca5db0~126~ubuntu22.04.1) date 2023-11-06 21:31:54*
%MOMM*%
%LPD*%
G01*
G04 APERTURE LIST*
G04 Aperture macros list*
%AMHorizOval*
0 Thick line with rounded ends*
0 $1 width*
0 $2 $3 position (X,Y) of the first rounded end (center of the circle)*
0 $4 $5 position (X,Y) of the second rounded end (center of the circle)*
0 Add line between two ends*
20,1,$1,$2,$3,$4,$5,0*
0 Add two circle primitives to create the rounded ends*
1,1,$1,$2,$3*
1,1,$1,$4,$5*%
G04 Aperture macros list end*
%ADD10C,0.150000*%
%ADD11C,0.100000*%
%ADD12C,0.400000*%
%ADD13C,0.381000*%
%ADD14C,0.120000*%
%ADD15C,0.160000*%
%ADD16C,0.010000*%
%ADD17HorizOval,2.500000X0.604462X0.948815X-0.604462X-0.948815X0*%
%ADD18HorizOval,2.500000X0.019724X0.289328X-0.019724X-0.289328X0*%
%ADD19HorizOval,2.500000X-0.948815X0.604462X0.948815X-0.604462X0*%
%ADD20HorizOval,2.500000X-0.289328X0.019724X0.289328X-0.019724X0*%
%ADD21R,1.600000X1.600000*%
%ADD22C,1.600000*%
G04 APERTURE END LIST*
D10*
X180975050Y-373837500D02*
X180975050Y-395268750D01*
X152400000Y-352425000D02*
X152400000Y-335756250D01*
X188118800Y-354787500D02*
X178593800Y-352406250D01*
X152400000Y-335756250D02*
X147637500Y-333375000D01*
X188118800Y-371456250D02*
X180975050Y-373837500D01*
X178593800Y-335737500D02*
X173831300Y-333356250D01*
X173831300Y-316687500D02*
X173831300Y-333356250D01*
X164306250Y-276225000D02*
X164306300Y-314306250D01*
X152400000Y-352425000D02*
X161925000Y-354806250D01*
D11*
X154781250Y-395287500D02*
X154781250Y-373856250D01*
D10*
X188118800Y-371456250D02*
X188118800Y-354787500D01*
X147637500Y-316706250D02*
X138112500Y-314325000D01*
X138112500Y-276225000D02*
X138112500Y-314325000D01*
X154781250Y-373856250D02*
X161925000Y-371475000D01*
X161925000Y-371475000D02*
X161925000Y-354806250D01*
X173831300Y-316687500D02*
X164306300Y-314306250D01*
X178593800Y-335737500D02*
X178593800Y-352406250D01*
X147637500Y-333375000D02*
X147637500Y-316706250D01*
D12*
X307642857Y-290298214D02*
X308071428Y-290441071D01*
X308214285Y-290583928D01*
X308357142Y-290869642D01*
X308357142Y-291298214D01*
X308214285Y-291583928D01*
X308071428Y-291726785D01*
X307785714Y-291869642D01*
X306642857Y-291869642D01*
X306642857Y-288869642D01*
X307642857Y-288869642D01*
X307928571Y-289012500D01*
X308071428Y-289155357D01*
X308214285Y-289441071D01*
X308214285Y-289726785D01*
X308071428Y-290012500D01*
X307928571Y-290155357D01*
X307642857Y-290298214D01*
X306642857Y-290298214D01*
X309642857Y-291869642D02*
X309642857Y-289869642D01*
X309642857Y-288869642D02*
X309500000Y-289012500D01*
X309642857Y-289155357D01*
X309785714Y-289012500D01*
X309642857Y-288869642D01*
X309642857Y-289155357D01*
X311500000Y-291869642D02*
X311214285Y-291726785D01*
X311071428Y-291583928D01*
X310928571Y-291298214D01*
X310928571Y-290441071D01*
X311071428Y-290155357D01*
X311214285Y-290012500D01*
X311500000Y-289869642D01*
X311928571Y-289869642D01*
X312214285Y-290012500D01*
X312357142Y-290155357D01*
X312500000Y-290441071D01*
X312500000Y-291298214D01*
X312357142Y-291583928D01*
X312214285Y-291726785D01*
X311928571Y-291869642D01*
X311500000Y-291869642D01*
X313785714Y-291869642D02*
X313785714Y-289869642D01*
X313785714Y-290155357D02*
X313928571Y-290012500D01*
X314214285Y-289869642D01*
X314642857Y-289869642D01*
X314928571Y-290012500D01*
X315071428Y-290298214D01*
X315071428Y-291869642D01*
X315071428Y-290298214D02*
X315214285Y-290012500D01*
X315500000Y-289869642D01*
X315928571Y-289869642D01*
X316214285Y-290012500D01*
X316357142Y-290298214D01*
X316357142Y-291869642D01*
X318928571Y-291726785D02*
X318642857Y-291869642D01*
X318071428Y-291869642D01*
X317785714Y-291726785D01*
X317642857Y-291441071D01*
X317642857Y-290298214D01*
X317785714Y-290012500D01*
X318071428Y-289869642D01*
X318642857Y-289869642D01*
X318928571Y-290012500D01*
X319071428Y-290298214D01*
X319071428Y-290583928D01*
X317642857Y-290869642D01*
X319928571Y-289869642D02*
X321071428Y-289869642D01*
X320357142Y-288869642D02*
X320357142Y-291441071D01*
X320500000Y-291726785D01*
X320785714Y-291869642D01*
X321071428Y-291869642D01*
X323357142Y-291869642D02*
X323357142Y-290298214D01*
X323214285Y-290012500D01*
X322928571Y-289869642D01*
X322357142Y-289869642D01*
X322071428Y-290012500D01*
X323357142Y-291726785D02*
X323071428Y-291869642D01*
X322357142Y-291869642D01*
X322071428Y-291726785D01*
X321928571Y-291441071D01*
X321928571Y-291155357D01*
X322071428Y-290869642D01*
X322357142Y-290726785D01*
X323071428Y-290726785D01*
X323357142Y-290583928D01*
D10*
%TO.C,J1*%
X102054166Y-265814880D02*
X102054166Y-266529166D01*
X102006547Y-266672023D01*
X101911309Y-266767261D01*
X101768452Y-266814880D01*
X101673214Y-266814880D01*
X103054166Y-266814880D02*
X102482738Y-266814880D01*
X102768452Y-266814880D02*
X102768452Y-265814880D01*
X102673214Y-265957738D01*
X102577976Y-266052976D01*
X102482738Y-266100595D01*
%TO.C,FS1*%
X1571726Y-314016071D02*
X1238392Y-314016071D01*
X1238392Y-314539880D02*
X1238392Y-313539880D01*
X1714583Y-313539880D01*
X2047916Y-314492261D02*
X2190773Y-314539880D01*
X2428869Y-314539880D01*
X2524107Y-314492261D01*
X2571726Y-314444642D01*
X2619345Y-314349404D01*
X2619345Y-314254166D01*
X2571726Y-314158928D01*
X2524107Y-314111309D01*
X2428869Y-314063690D01*
X2238392Y-314016071D01*
X2143154Y-313968452D01*
X2095535Y-313920833D01*
X2047916Y-313825595D01*
X2047916Y-313730357D01*
X2095535Y-313635119D01*
X2143154Y-313587500D01*
X2238392Y-313539880D01*
X2476488Y-313539880D01*
X2619345Y-313587500D01*
X3571726Y-314539880D02*
X3000297Y-314539880D01*
X3286011Y-314539880D02*
X3286011Y-313539880D01*
X3190773Y-313682738D01*
X3095535Y-313777976D01*
X3000297Y-313825595D01*
%TO.C,J2*%
X199554216Y-265696130D02*
X199554216Y-266410416D01*
X199506597Y-266553273D01*
X199411359Y-266648511D01*
X199268502Y-266696130D01*
X199173264Y-266696130D01*
X199982788Y-265791369D02*
X200030407Y-265743750D01*
X200125645Y-265696130D01*
X200363740Y-265696130D01*
X200458978Y-265743750D01*
X200506597Y-265791369D01*
X200554216Y-265886607D01*
X200554216Y-265981845D01*
X200506597Y-266124702D01*
X199935169Y-266696130D01*
X200554216Y-266696130D01*
D13*
%TO.C,K80*%
X203993800Y-357187800D02*
X203993800Y-358965800D01*
X193071800Y-369887800D02*
X191293800Y-369887800D01*
X191293800Y-369887800D02*
X191293800Y-368109800D01*
X202215800Y-357187800D02*
X203993800Y-357187800D01*
X203993800Y-368109800D02*
X203993800Y-369887800D01*
X203993800Y-369887800D02*
X202215800Y-369887800D01*
X191293800Y-357187800D02*
X193071800Y-357187800D01*
X191293800Y-358965800D02*
X191293800Y-357187800D01*
%TO.C,G\u002A\u002A\u002A*%
G36*
X326241523Y-279135673D02*
G01*
X326408196Y-279146017D01*
X326555065Y-279161951D01*
X326593970Y-279167816D01*
X326887708Y-279224904D01*
X327162876Y-279298477D01*
X327429137Y-279391604D01*
X327696157Y-279507352D01*
X327758462Y-279537381D01*
X328034133Y-279684847D01*
X328287882Y-279847115D01*
X328527413Y-280029589D01*
X328760428Y-280237671D01*
X328769712Y-280246593D01*
X328982014Y-280465053D01*
X329169668Y-280688874D01*
X329337759Y-280924992D01*
X329491375Y-281180345D01*
X329585489Y-281359158D01*
X329724204Y-281666599D01*
X329833668Y-281977679D01*
X329914758Y-282295883D01*
X329968352Y-282624696D01*
X329995325Y-282967604D01*
X329996237Y-282992185D01*
X329993139Y-283345200D01*
X329959412Y-283692350D01*
X329895233Y-284033083D01*
X329800780Y-284366848D01*
X329676230Y-284693096D01*
X329521759Y-285011274D01*
X329337547Y-285320832D01*
X329169217Y-285561453D01*
X329102277Y-285644750D01*
X329016504Y-285742080D01*
X328917439Y-285847900D01*
X328810624Y-285956670D01*
X328701600Y-286062848D01*
X328595909Y-286160892D01*
X328499092Y-286245262D01*
X328430585Y-286300071D01*
X328350278Y-286358937D01*
X328259025Y-286422926D01*
X328170134Y-286482826D01*
X328118972Y-286515803D01*
X328015897Y-286577814D01*
X327905941Y-286639200D01*
X327793670Y-286697836D01*
X327683650Y-286751598D01*
X327580449Y-286798362D01*
X327488634Y-286836004D01*
X327412772Y-286862399D01*
X327357430Y-286875424D01*
X327343586Y-286876431D01*
X327270458Y-286862626D01*
X327200384Y-286825533D01*
X327149535Y-286776539D01*
X327139851Y-286755116D01*
X327121840Y-286706548D01*
X327096368Y-286633569D01*
X327064303Y-286538911D01*
X327026511Y-286425309D01*
X326983860Y-286295496D01*
X326937216Y-286152206D01*
X326887446Y-285998173D01*
X326835418Y-285836130D01*
X326781998Y-285668811D01*
X326728052Y-285498949D01*
X326674449Y-285329278D01*
X326622055Y-285162533D01*
X326571737Y-285001445D01*
X326524362Y-284848750D01*
X326480797Y-284707180D01*
X326441909Y-284579469D01*
X326408564Y-284468352D01*
X326381630Y-284376561D01*
X326361974Y-284306830D01*
X326350462Y-284261893D01*
X326347952Y-284249009D01*
X326351732Y-284173104D01*
X326384635Y-284101390D01*
X326447446Y-284032591D01*
X326510739Y-283984739D01*
X326632429Y-283891950D01*
X326740332Y-283787255D01*
X326827242Y-283677959D01*
X326852079Y-283638763D01*
X326928051Y-283481066D01*
X326974837Y-283319289D01*
X326993659Y-283156418D01*
X326985736Y-282995442D01*
X326952291Y-282839349D01*
X326894543Y-282691126D01*
X326813715Y-282553762D01*
X326711027Y-282430244D01*
X326587699Y-282323561D01*
X326444954Y-282236699D01*
X326284012Y-282172648D01*
X326248843Y-282162595D01*
X326148674Y-282144341D01*
X326032029Y-282136429D01*
X325911932Y-282138859D01*
X325801408Y-282151631D01*
X325751158Y-282162595D01*
X325586632Y-282221596D01*
X325440053Y-282304020D01*
X325312641Y-282406879D01*
X325205618Y-282527186D01*
X325120203Y-282661952D01*
X325057620Y-282808190D01*
X325019087Y-282962911D01*
X325005827Y-283123129D01*
X325019060Y-283285854D01*
X325060008Y-283448100D01*
X325129891Y-283606878D01*
X325147922Y-283638763D01*
X325225477Y-283747926D01*
X325326629Y-283855125D01*
X325444171Y-283953057D01*
X325489262Y-283984739D01*
X325573946Y-284052399D01*
X325628096Y-284122119D01*
X325652426Y-284195058D01*
X325652112Y-284248534D01*
X325645306Y-284279082D01*
X325629893Y-284335886D01*
X325606740Y-284416212D01*
X325576715Y-284517327D01*
X325540684Y-284636497D01*
X325499513Y-284770990D01*
X325454069Y-284918073D01*
X325405219Y-285075012D01*
X325353830Y-285239074D01*
X325300768Y-285407526D01*
X325246900Y-285577635D01*
X325193093Y-285746667D01*
X325140214Y-285911890D01*
X325089129Y-286070571D01*
X325040704Y-286219976D01*
X324995807Y-286357372D01*
X324955305Y-286480026D01*
X324920064Y-286585204D01*
X324890950Y-286670175D01*
X324868831Y-286732204D01*
X324854573Y-286768558D01*
X324850456Y-286776539D01*
X324792916Y-286830319D01*
X324720487Y-286865352D01*
X324653392Y-286875835D01*
X324617360Y-286869469D01*
X324561533Y-286852755D01*
X324494489Y-286828474D01*
X324444739Y-286808150D01*
X324154372Y-286671476D01*
X323886962Y-286519560D01*
X323636447Y-286348296D01*
X323396766Y-286153577D01*
X323185461Y-285955039D01*
X322969180Y-285724119D01*
X322779485Y-285488962D01*
X322611773Y-285243189D01*
X322461440Y-284980422D01*
X322412202Y-284883508D01*
X322269223Y-284558841D01*
X322156422Y-284226630D01*
X322073930Y-283887966D01*
X322021878Y-283543942D01*
X322000400Y-283195651D01*
X322009627Y-282844186D01*
X322049692Y-282490637D01*
X322093993Y-282252489D01*
X322168185Y-281970810D01*
X322269262Y-281685147D01*
X322394400Y-281401254D01*
X322540779Y-281124889D01*
X322705577Y-280861807D01*
X322885972Y-280617764D01*
X322909515Y-280588839D01*
X323079640Y-280397586D01*
X323272891Y-280207469D01*
X323481631Y-280025200D01*
X323698227Y-279857492D01*
X323889847Y-279726916D01*
X323969573Y-279679587D01*
X324070663Y-279624621D01*
X324185376Y-279565797D01*
X324305975Y-279506895D01*
X324424718Y-279451694D01*
X324533868Y-279403972D01*
X324625684Y-279367510D01*
X324626292Y-279367288D01*
X324775938Y-279317218D01*
X324945726Y-279268498D01*
X325124568Y-279223964D01*
X325301382Y-279186452D01*
X325406031Y-279167816D01*
X325545323Y-279150206D01*
X325706944Y-279138187D01*
X325882470Y-279131758D01*
X326063471Y-279130920D01*
X326241523Y-279135673D01*
G37*
%TO.C,K4*%
X96837500Y-281006550D02*
X96837500Y-282784550D01*
X96837500Y-291928550D02*
X96837500Y-293706550D01*
X84137500Y-293706550D02*
X84137500Y-291928550D01*
X96837500Y-293706550D02*
X95059500Y-293706550D01*
X84137500Y-282784550D02*
X84137500Y-281006550D01*
X84137500Y-281006550D02*
X85915500Y-281006550D01*
X95059500Y-281006550D02*
X96837500Y-281006550D01*
X85915500Y-293706550D02*
X84137500Y-293706550D01*
D14*
%TO.C,LED32*%
X58431250Y-378250000D02*
X60631250Y-378250000D01*
X58431250Y-375750000D02*
X60631250Y-375750000D01*
X59181250Y-376000000D02*
X59471250Y-376000000D01*
X59471250Y-376000000D02*
X59471250Y-378000000D01*
X59471250Y-378000000D02*
X59181250Y-378000000D01*
X59181250Y-378000000D02*
X59181250Y-376000000D01*
G36*
X59181250Y-376000000D02*
G01*
X59471250Y-376000000D01*
X59471250Y-378000000D01*
X59181250Y-378000000D01*
X59181250Y-376000000D01*
G37*
D15*
X58091250Y-375750000D02*
G75*
G03*
X58091250Y-375750000I-80000J0D01*
G01*
D13*
%TO.C,K75*%
X320675050Y-338221500D02*
X320675050Y-339999500D01*
X320675050Y-350921500D02*
X318897050Y-350921500D01*
X307975050Y-339999500D02*
X307975050Y-338221500D01*
X318897050Y-338221500D02*
X320675050Y-338221500D01*
X320675050Y-349143500D02*
X320675050Y-350921500D01*
X307975050Y-350921500D02*
X307975050Y-349143500D01*
X309753050Y-350921500D02*
X307975050Y-350921500D01*
X307975050Y-338221500D02*
X309753050Y-338221500D01*
%TO.C,K17*%
X125412500Y-319106550D02*
X125412500Y-320884550D01*
X112712500Y-331806550D02*
X112712500Y-330028550D01*
X123634500Y-319106550D02*
X125412500Y-319106550D01*
X112712500Y-320884550D02*
X112712500Y-319106550D01*
X114490500Y-331806550D02*
X112712500Y-331806550D01*
X112712500Y-319106550D02*
X114490500Y-319106550D01*
X125412500Y-331806550D02*
X123634500Y-331806550D01*
X125412500Y-330028550D02*
X125412500Y-331806550D01*
%TO.C,K96*%
X370681300Y-388937800D02*
X368903300Y-388937800D01*
X370681300Y-387159800D02*
X370681300Y-388937800D01*
X368903300Y-376237800D02*
X370681300Y-376237800D01*
X357981300Y-378015800D02*
X357981300Y-376237800D01*
X370681300Y-376237800D02*
X370681300Y-378015800D01*
X357981300Y-376237800D02*
X359759300Y-376237800D01*
X359759300Y-388937800D02*
X357981300Y-388937800D01*
X357981300Y-388937800D02*
X357981300Y-387159800D01*
%TO.C,K76*%
X349853300Y-338137800D02*
X351631300Y-338137800D01*
X338931300Y-350837800D02*
X338931300Y-349059800D01*
X340709300Y-350837800D02*
X338931300Y-350837800D01*
X338931300Y-338137800D02*
X340709300Y-338137800D01*
X351631300Y-349059800D02*
X351631300Y-350837800D01*
X351631300Y-338137800D02*
X351631300Y-339915800D01*
X351631300Y-350837800D02*
X349853300Y-350837800D01*
X338931300Y-339915800D02*
X338931300Y-338137800D01*
%TO.C,K8*%
X46037500Y-301834550D02*
X46037500Y-300056550D01*
X46037500Y-300056550D02*
X47815500Y-300056550D01*
X58737500Y-312756550D02*
X56959500Y-312756550D01*
X58737500Y-300056550D02*
X58737500Y-301834550D01*
X47815500Y-312756550D02*
X46037500Y-312756550D01*
X46037500Y-312756550D02*
X46037500Y-310978550D01*
X58737500Y-310978550D02*
X58737500Y-312756550D01*
X56959500Y-300056550D02*
X58737500Y-300056550D01*
D14*
%TO.C,LED43*%
X365431300Y-283250000D02*
X363231300Y-283250000D01*
X365431300Y-280750000D02*
X363231300Y-280750000D01*
X364681300Y-283000000D02*
X364391300Y-283000000D01*
X364391300Y-283000000D02*
X364391300Y-281000000D01*
X364391300Y-281000000D02*
X364681300Y-281000000D01*
X364681300Y-281000000D02*
X364681300Y-283000000D01*
G36*
X364681300Y-283000000D02*
G01*
X364391300Y-283000000D01*
X364391300Y-281000000D01*
X364681300Y-281000000D01*
X364681300Y-283000000D01*
G37*
D15*
X365931300Y-283250000D02*
G75*
G03*
X365931300Y-283250000I-80000J0D01*
G01*
D14*
%TO.C,LED62*%
X260656300Y-321250000D02*
X258456300Y-321250000D01*
X260656300Y-318750000D02*
X258456300Y-318750000D01*
X259906300Y-321000000D02*
X259616300Y-321000000D01*
X259616300Y-321000000D02*
X259616300Y-319000000D01*
X259616300Y-319000000D02*
X259906300Y-319000000D01*
X259906300Y-319000000D02*
X259906300Y-321000000D01*
G36*
X259906300Y-321000000D02*
G01*
X259616300Y-321000000D01*
X259616300Y-319000000D01*
X259906300Y-319000000D01*
X259906300Y-321000000D01*
G37*
D15*
X261156300Y-321250000D02*
G75*
G03*
X261156300Y-321250000I-80000J0D01*
G01*
D14*
%TO.C,LED14*%
X60812500Y-318750000D02*
X63012500Y-318750000D01*
X60812500Y-321250000D02*
X63012500Y-321250000D01*
X61562500Y-319000000D02*
X61852500Y-319000000D01*
X61852500Y-319000000D02*
X61852500Y-321000000D01*
X61852500Y-321000000D02*
X61562500Y-321000000D01*
X61562500Y-321000000D02*
X61562500Y-319000000D01*
G36*
X61562500Y-319000000D02*
G01*
X61852500Y-319000000D01*
X61852500Y-321000000D01*
X61562500Y-321000000D01*
X61562500Y-319000000D01*
G37*
D15*
X60472500Y-318750000D02*
G75*
G03*
X60472500Y-318750000I-80000J0D01*
G01*
D13*
%TO.C,K70*%
X200818800Y-339915800D02*
X200818800Y-338137800D01*
X200818800Y-338137800D02*
X202596800Y-338137800D01*
X213518800Y-349059800D02*
X213518800Y-350837800D01*
X213518800Y-338137800D02*
X213518800Y-339915800D01*
X202596800Y-350837800D02*
X200818800Y-350837800D01*
X211740800Y-338137800D02*
X213518800Y-338137800D01*
X213518800Y-350837800D02*
X211740800Y-350837800D01*
X200818800Y-350837800D02*
X200818800Y-349059800D01*
%TO.C,K93*%
X302609300Y-388937800D02*
X300831300Y-388937800D01*
X300831300Y-378015800D02*
X300831300Y-376237800D01*
X313531300Y-376237800D02*
X313531300Y-378015800D01*
X300831300Y-376237800D02*
X302609300Y-376237800D01*
X313531300Y-387159800D02*
X313531300Y-388937800D01*
X300831300Y-388937800D02*
X300831300Y-387159800D01*
X313531300Y-388937800D02*
X311753300Y-388937800D01*
X311753300Y-376237800D02*
X313531300Y-376237800D01*
%TO.C,K78*%
X387953300Y-338137800D02*
X389731300Y-338137800D01*
X389731300Y-350837800D02*
X387953300Y-350837800D01*
X377031300Y-339915800D02*
X377031300Y-338137800D01*
X389731300Y-338137800D02*
X389731300Y-339915800D01*
X377031300Y-350837800D02*
X377031300Y-349059800D01*
X389731300Y-349059800D02*
X389731300Y-350837800D01*
X377031300Y-338137800D02*
X378809300Y-338137800D01*
X378809300Y-350837800D02*
X377031300Y-350837800D01*
D14*
%TO.C,LED79*%
X395902900Y-336058773D02*
X395902900Y-333858773D01*
X398402900Y-336058773D02*
X398402900Y-333858773D01*
X396152900Y-335308773D02*
X398152900Y-335308773D01*
X398152900Y-335308773D02*
X398152900Y-335018773D01*
X398152900Y-335018773D02*
X396152900Y-335018773D01*
X396152900Y-335018773D02*
X396152900Y-335308773D01*
G36*
X396152900Y-335308773D02*
G01*
X398152900Y-335308773D01*
X398152900Y-335018773D01*
X396152900Y-335018773D01*
X396152900Y-335308773D01*
G37*
D15*
X395982900Y-336478773D02*
G75*
G03*
X395982900Y-336478773I-80000J0D01*
G01*
D13*
%TO.C,K92*%
X289718800Y-376237800D02*
X289718800Y-378015800D01*
X277018800Y-378015800D02*
X277018800Y-376237800D01*
X277018800Y-388937800D02*
X277018800Y-387159800D01*
X289718800Y-388937800D02*
X287940800Y-388937800D01*
X289718800Y-387159800D02*
X289718800Y-388937800D01*
X278796800Y-388937800D02*
X277018800Y-388937800D01*
X287940800Y-376237800D02*
X289718800Y-376237800D01*
X277018800Y-376237800D02*
X278796800Y-376237800D01*
%TO.C,K35*%
X169259300Y-293687800D02*
X167481300Y-293687800D01*
X180181300Y-280987800D02*
X180181300Y-282765800D01*
X167481300Y-280987800D02*
X169259300Y-280987800D01*
X180181300Y-293687800D02*
X178403300Y-293687800D01*
X178403300Y-280987800D02*
X180181300Y-280987800D01*
X167481300Y-282765800D02*
X167481300Y-280987800D01*
X180181300Y-291909800D02*
X180181300Y-293687800D01*
X167481300Y-293687800D02*
X167481300Y-291909800D01*
D14*
%TO.C,LED23*%
X122725000Y-337750000D02*
X124925000Y-337750000D01*
X122725000Y-340250000D02*
X124925000Y-340250000D01*
X123475000Y-338000000D02*
X123765000Y-338000000D01*
X123765000Y-338000000D02*
X123765000Y-340000000D01*
X123765000Y-340000000D02*
X123475000Y-340000000D01*
X123475000Y-340000000D02*
X123475000Y-338000000D01*
G36*
X123475000Y-338000000D02*
G01*
X123765000Y-338000000D01*
X123765000Y-340000000D01*
X123475000Y-340000000D01*
X123475000Y-338000000D01*
G37*
D15*
X122385000Y-337750000D02*
G75*
G03*
X122385000Y-337750000I-80000J0D01*
G01*
D13*
%TO.C,K98*%
X409168650Y-377634800D02*
X409168650Y-379412800D01*
X396468650Y-366712800D02*
X398246650Y-366712800D01*
X398246650Y-379412800D02*
X396468650Y-379412800D01*
X396468650Y-368490800D02*
X396468650Y-366712800D01*
X409168650Y-366712800D02*
X409168650Y-368490800D01*
X409168650Y-379412800D02*
X407390650Y-379412800D01*
X396468650Y-379412800D02*
X396468650Y-377634800D01*
X407390650Y-366712800D02*
X409168650Y-366712800D01*
%TO.C,K88*%
X359759300Y-369887800D02*
X357981300Y-369887800D01*
X357981300Y-358965800D02*
X357981300Y-357187800D01*
X368903300Y-357187800D02*
X370681300Y-357187800D01*
X370681300Y-357187800D02*
X370681300Y-358965800D01*
X370681300Y-368109800D02*
X370681300Y-369887800D01*
X357981300Y-357187800D02*
X359759300Y-357187800D01*
X357981300Y-369887800D02*
X357981300Y-368109800D01*
X370681300Y-369887800D02*
X368903300Y-369887800D01*
D14*
%TO.C,LED51*%
X267981300Y-299750000D02*
X270181300Y-299750000D01*
X267981300Y-302250000D02*
X270181300Y-302250000D01*
X268731300Y-300000000D02*
X269021300Y-300000000D01*
X269021300Y-300000000D02*
X269021300Y-302000000D01*
X269021300Y-302000000D02*
X268731300Y-302000000D01*
X268731300Y-302000000D02*
X268731300Y-300000000D01*
G36*
X268731300Y-300000000D02*
G01*
X269021300Y-300000000D01*
X269021300Y-302000000D01*
X268731300Y-302000000D01*
X268731300Y-300000000D01*
G37*
D15*
X267641300Y-299750000D02*
G75*
G03*
X267641300Y-299750000I-80000J0D01*
G01*
D14*
%TO.C,LED54*%
X344181300Y-302250000D02*
X346381300Y-302250000D01*
X344181300Y-299750000D02*
X346381300Y-299750000D01*
X344931300Y-300000000D02*
X345221300Y-300000000D01*
X345221300Y-300000000D02*
X345221300Y-302000000D01*
X345221300Y-302000000D02*
X344931300Y-302000000D01*
X344931300Y-302000000D02*
X344931300Y-300000000D01*
G36*
X344931300Y-300000000D02*
G01*
X345221300Y-300000000D01*
X345221300Y-302000000D01*
X344931300Y-302000000D01*
X344931300Y-300000000D01*
G37*
D15*
X343841300Y-299750000D02*
G75*
G03*
X343841300Y-299750000I-80000J0D01*
G01*
D13*
%TO.C,K94*%
X319881300Y-376237800D02*
X321659300Y-376237800D01*
X321659300Y-388937800D02*
X319881300Y-388937800D01*
X332581300Y-388937800D02*
X330803300Y-388937800D01*
X319881300Y-378015800D02*
X319881300Y-376237800D01*
X330803300Y-376237800D02*
X332581300Y-376237800D01*
X332581300Y-376237800D02*
X332581300Y-378015800D01*
X319881300Y-388937800D02*
X319881300Y-387159800D01*
X332581300Y-387159800D02*
X332581300Y-388937800D01*
%TO.C,K54*%
X338931300Y-300037800D02*
X340709300Y-300037800D01*
X340709300Y-312737800D02*
X338931300Y-312737800D01*
X349853300Y-300037800D02*
X351631300Y-300037800D01*
X351631300Y-310959800D02*
X351631300Y-312737800D01*
X338931300Y-301815800D02*
X338931300Y-300037800D01*
X351631300Y-312737800D02*
X349853300Y-312737800D01*
X338931300Y-312737800D02*
X338931300Y-310959800D01*
X351631300Y-300037800D02*
X351631300Y-301815800D01*
D14*
%TO.C,LED26*%
X75100000Y-356750000D02*
X77300000Y-356750000D01*
X75100000Y-359250000D02*
X77300000Y-359250000D01*
X75850000Y-357000000D02*
X76140000Y-357000000D01*
X76140000Y-357000000D02*
X76140000Y-359000000D01*
X76140000Y-359000000D02*
X75850000Y-359000000D01*
X75850000Y-359000000D02*
X75850000Y-357000000D01*
G36*
X75850000Y-357000000D02*
G01*
X76140000Y-357000000D01*
X76140000Y-359000000D01*
X75850000Y-359000000D01*
X75850000Y-357000000D01*
G37*
D15*
X74760000Y-356750000D02*
G75*
G03*
X74760000Y-356750000I-80000J0D01*
G01*
D14*
%TO.C,LED40*%
X270181300Y-280750000D02*
X267981300Y-280750000D01*
X270181300Y-283250000D02*
X267981300Y-283250000D01*
X269431300Y-283000000D02*
X269141300Y-283000000D01*
X269141300Y-283000000D02*
X269141300Y-281000000D01*
X269141300Y-281000000D02*
X269431300Y-281000000D01*
X269431300Y-281000000D02*
X269431300Y-283000000D01*
G36*
X269431300Y-283000000D02*
G01*
X269141300Y-283000000D01*
X269141300Y-281000000D01*
X269431300Y-281000000D01*
X269431300Y-283000000D01*
G37*
D15*
X270681300Y-283250000D02*
G75*
G03*
X270681300Y-283250000I-80000J0D01*
G01*
D14*
%TO.C,LED45*%
X403531300Y-283250000D02*
X401331300Y-283250000D01*
X403531300Y-280750000D02*
X401331300Y-280750000D01*
X402781300Y-283000000D02*
X402491300Y-283000000D01*
X402491300Y-283000000D02*
X402491300Y-281000000D01*
X402491300Y-281000000D02*
X402781300Y-281000000D01*
X402781300Y-281000000D02*
X402781300Y-283000000D01*
G36*
X402781300Y-283000000D02*
G01*
X402491300Y-283000000D01*
X402491300Y-281000000D01*
X402781300Y-281000000D01*
X402781300Y-283000000D01*
G37*
D15*
X404031300Y-283250000D02*
G75*
G03*
X404031300Y-283250000I-80000J0D01*
G01*
D13*
%TO.C,K16*%
X106362500Y-319106550D02*
X106362500Y-320884550D01*
X93662500Y-331806550D02*
X93662500Y-330028550D01*
X93662500Y-320884550D02*
X93662500Y-319106550D01*
X93662500Y-319106550D02*
X95440500Y-319106550D01*
X95440500Y-331806550D02*
X93662500Y-331806550D01*
X104584500Y-319106550D02*
X106362500Y-319106550D01*
X106362500Y-330028550D02*
X106362500Y-331806550D01*
X106362500Y-331806550D02*
X104584500Y-331806550D01*
D14*
%TO.C,LED65*%
X322568800Y-321250000D02*
X320368800Y-321250000D01*
X322568800Y-318750000D02*
X320368800Y-318750000D01*
X321818800Y-321000000D02*
X321528800Y-321000000D01*
X321528800Y-321000000D02*
X321528800Y-319000000D01*
X321528800Y-319000000D02*
X321818800Y-319000000D01*
X321818800Y-319000000D02*
X321818800Y-321000000D01*
G36*
X321818800Y-321000000D02*
G01*
X321528800Y-321000000D01*
X321528800Y-319000000D01*
X321818800Y-319000000D01*
X321818800Y-321000000D01*
G37*
D15*
X323068800Y-321250000D02*
G75*
G03*
X323068800Y-321250000I-80000J0D01*
G01*
D13*
%TO.C,K10*%
X96837500Y-310978550D02*
X96837500Y-312756550D01*
X84137500Y-301834550D02*
X84137500Y-300056550D01*
X84137500Y-300056550D02*
X85915500Y-300056550D01*
X85915500Y-312756550D02*
X84137500Y-312756550D01*
X96837500Y-312756550D02*
X95059500Y-312756550D01*
X84137500Y-312756550D02*
X84137500Y-310978550D01*
X95059500Y-300056550D02*
X96837500Y-300056550D01*
X96837500Y-300056550D02*
X96837500Y-301834550D01*
%TO.C,K12*%
X134937500Y-310978550D02*
X134937500Y-312756550D01*
X122237500Y-300056550D02*
X124015500Y-300056550D01*
X122237500Y-312756550D02*
X122237500Y-310978550D01*
X124015500Y-312756550D02*
X122237500Y-312756550D01*
X122237500Y-301834550D02*
X122237500Y-300056550D01*
X133159500Y-300056550D02*
X134937500Y-300056550D01*
X134937500Y-312756550D02*
X133159500Y-312756550D01*
X134937500Y-300056550D02*
X134937500Y-301834550D01*
%TO.C,K37*%
X207359300Y-293687800D02*
X205581300Y-293687800D01*
X216503300Y-280987800D02*
X218281300Y-280987800D01*
X205581300Y-280987800D02*
X207359300Y-280987800D01*
X218281300Y-291909800D02*
X218281300Y-293687800D01*
X218281300Y-280987800D02*
X218281300Y-282765800D01*
X218281300Y-293687800D02*
X216503300Y-293687800D01*
X205581300Y-293687800D02*
X205581300Y-291909800D01*
X205581300Y-282765800D02*
X205581300Y-280987800D01*
D14*
%TO.C,LED15*%
X79862500Y-318750000D02*
X82062500Y-318750000D01*
X79862500Y-321250000D02*
X82062500Y-321250000D01*
X80612500Y-319000000D02*
X80902500Y-319000000D01*
X80902500Y-319000000D02*
X80902500Y-321000000D01*
X80902500Y-321000000D02*
X80612500Y-321000000D01*
X80612500Y-321000000D02*
X80612500Y-319000000D01*
G36*
X80612500Y-319000000D02*
G01*
X80902500Y-319000000D01*
X80902500Y-321000000D01*
X80612500Y-321000000D01*
X80612500Y-319000000D01*
G37*
D15*
X79522500Y-318750000D02*
G75*
G03*
X79522500Y-318750000I-80000J0D01*
G01*
D13*
%TO.C,K9*%
X77787500Y-310978550D02*
X77787500Y-312756550D01*
X77787500Y-300056550D02*
X77787500Y-301834550D01*
X65087500Y-312756550D02*
X65087500Y-310978550D01*
X76009500Y-300056550D02*
X77787500Y-300056550D01*
X65087500Y-301834550D02*
X65087500Y-300056550D01*
X66865500Y-312756550D02*
X65087500Y-312756550D01*
X77787500Y-312756550D02*
X76009500Y-312756550D01*
X65087500Y-300056550D02*
X66865500Y-300056550D01*
D14*
%TO.C,LED67*%
X365431300Y-321250000D02*
X363231300Y-321250000D01*
X365431300Y-318750000D02*
X363231300Y-318750000D01*
X364681300Y-321000000D02*
X364391300Y-321000000D01*
X364391300Y-321000000D02*
X364391300Y-319000000D01*
X364391300Y-319000000D02*
X364681300Y-319000000D01*
X364681300Y-319000000D02*
X364681300Y-321000000D01*
G36*
X364681300Y-321000000D02*
G01*
X364391300Y-321000000D01*
X364391300Y-319000000D01*
X364681300Y-319000000D01*
X364681300Y-321000000D01*
G37*
D15*
X365931300Y-321250000D02*
G75*
G03*
X365931300Y-321250000I-80000J0D01*
G01*
D13*
%TO.C,K19*%
X46831250Y-349078550D02*
X46831250Y-350856550D01*
X34131250Y-339934550D02*
X34131250Y-338156550D01*
X46831250Y-338156550D02*
X46831250Y-339934550D01*
X34131250Y-350856550D02*
X34131250Y-349078550D01*
X34131250Y-338156550D02*
X35909250Y-338156550D01*
X45053250Y-338156550D02*
X46831250Y-338156550D01*
X35909250Y-350856550D02*
X34131250Y-350856550D01*
X46831250Y-350856550D02*
X45053250Y-350856550D01*
%TO.C,K85*%
X306387550Y-369887800D02*
X304609550Y-369887800D01*
X293687550Y-358965800D02*
X293687550Y-357187800D01*
X295465550Y-369887800D02*
X293687550Y-369887800D01*
X306387550Y-357187800D02*
X306387550Y-358965800D01*
X306387550Y-368109800D02*
X306387550Y-369887800D01*
X304609550Y-357187800D02*
X306387550Y-357187800D01*
X293687550Y-369887800D02*
X293687550Y-368109800D01*
X293687550Y-357187800D02*
X295465550Y-357187800D01*
D14*
%TO.C,LED33*%
X82243750Y-375750000D02*
X84443750Y-375750000D01*
X82243750Y-378250000D02*
X84443750Y-378250000D01*
X82993750Y-376000000D02*
X83283750Y-376000000D01*
X83283750Y-376000000D02*
X83283750Y-378000000D01*
X83283750Y-378000000D02*
X82993750Y-378000000D01*
X82993750Y-378000000D02*
X82993750Y-376000000D01*
G36*
X82993750Y-376000000D02*
G01*
X83283750Y-376000000D01*
X83283750Y-378000000D01*
X82993750Y-378000000D01*
X82993750Y-376000000D01*
G37*
D15*
X81903750Y-375750000D02*
G75*
G03*
X81903750Y-375750000I-80000J0D01*
G01*
D13*
%TO.C,K33*%
X89693750Y-387178550D02*
X89693750Y-388956550D01*
X89693750Y-388956550D02*
X87915750Y-388956550D01*
X78771750Y-388956550D02*
X76993750Y-388956550D01*
X87915750Y-376256550D02*
X89693750Y-376256550D01*
X76993750Y-376256550D02*
X78771750Y-376256550D01*
X76993750Y-378034550D02*
X76993750Y-376256550D01*
X89693750Y-376256550D02*
X89693750Y-378034550D01*
X76993750Y-388956550D02*
X76993750Y-387178550D01*
%TO.C,K86*%
X319881300Y-369887800D02*
X319881300Y-368109800D01*
X319881300Y-358965800D02*
X319881300Y-357187800D01*
X332581300Y-357187800D02*
X332581300Y-358965800D01*
X330803300Y-357187800D02*
X332581300Y-357187800D01*
X332581300Y-369887800D02*
X330803300Y-369887800D01*
X319881300Y-357187800D02*
X321659300Y-357187800D01*
X332581300Y-368109800D02*
X332581300Y-369887800D01*
X321659300Y-369887800D02*
X319881300Y-369887800D01*
%TO.C,K95*%
X340709300Y-388937800D02*
X338931300Y-388937800D01*
X349853300Y-376237800D02*
X351631300Y-376237800D01*
X338931300Y-378015800D02*
X338931300Y-376237800D01*
X338931300Y-376237800D02*
X340709300Y-376237800D01*
X351631300Y-376237800D02*
X351631300Y-378015800D01*
X338931300Y-388937800D02*
X338931300Y-387159800D01*
X351631300Y-387159800D02*
X351631300Y-388937800D01*
X351631300Y-388937800D02*
X349853300Y-388937800D01*
%TO.C,K42*%
X338931300Y-282765800D02*
X338931300Y-280987800D01*
X338931300Y-293687800D02*
X338931300Y-291909800D01*
X351631300Y-291909800D02*
X351631300Y-293687800D01*
X351631300Y-280987800D02*
X351631300Y-282765800D01*
X349853300Y-280987800D02*
X351631300Y-280987800D01*
X351631300Y-293687800D02*
X349853300Y-293687800D01*
X340709300Y-293687800D02*
X338931300Y-293687800D01*
X338931300Y-280987800D02*
X340709300Y-280987800D01*
D14*
%TO.C,LED12*%
X127487500Y-299750000D02*
X129687500Y-299750000D01*
X127487500Y-302250000D02*
X129687500Y-302250000D01*
X128237500Y-300000000D02*
X128527500Y-300000000D01*
X128527500Y-300000000D02*
X128527500Y-302000000D01*
X128527500Y-302000000D02*
X128237500Y-302000000D01*
X128237500Y-302000000D02*
X128237500Y-300000000D01*
G36*
X128237500Y-300000000D02*
G01*
X128527500Y-300000000D01*
X128527500Y-302000000D01*
X128237500Y-302000000D01*
X128237500Y-300000000D01*
G37*
D15*
X127147500Y-299750000D02*
G75*
G03*
X127147500Y-299750000I-80000J0D01*
G01*
D14*
%TO.C,LED53*%
X315606300Y-302250000D02*
X317806300Y-302250000D01*
X315606300Y-299750000D02*
X317806300Y-299750000D01*
X316356300Y-300000000D02*
X316646300Y-300000000D01*
X316646300Y-300000000D02*
X316646300Y-302000000D01*
X316646300Y-302000000D02*
X316356300Y-302000000D01*
X316356300Y-302000000D02*
X316356300Y-300000000D01*
G36*
X316356300Y-300000000D02*
G01*
X316646300Y-300000000D01*
X316646300Y-302000000D01*
X316356300Y-302000000D01*
X316356300Y-300000000D01*
G37*
D15*
X315266300Y-299750000D02*
G75*
G03*
X315266300Y-299750000I-80000J0D01*
G01*
D14*
%TO.C,LED96*%
X363231300Y-378250000D02*
X365431300Y-378250000D01*
X363231300Y-375750000D02*
X365431300Y-375750000D01*
X363981300Y-376000000D02*
X364271300Y-376000000D01*
X364271300Y-376000000D02*
X364271300Y-378000000D01*
X364271300Y-378000000D02*
X363981300Y-378000000D01*
X363981300Y-378000000D02*
X363981300Y-376000000D01*
G36*
X363981300Y-376000000D02*
G01*
X364271300Y-376000000D01*
X364271300Y-378000000D01*
X363981300Y-378000000D01*
X363981300Y-376000000D01*
G37*
D15*
X362891300Y-375750000D02*
G75*
G03*
X362891300Y-375750000I-80000J0D01*
G01*
D14*
%TO.C,LED46*%
X172731300Y-302250000D02*
X174931300Y-302250000D01*
X172731300Y-299750000D02*
X174931300Y-299750000D01*
X173481300Y-300000000D02*
X173771300Y-300000000D01*
X173771300Y-300000000D02*
X173771300Y-302000000D01*
X173771300Y-302000000D02*
X173481300Y-302000000D01*
X173481300Y-302000000D02*
X173481300Y-300000000D01*
G36*
X173481300Y-300000000D02*
G01*
X173771300Y-300000000D01*
X173771300Y-302000000D01*
X173481300Y-302000000D01*
X173481300Y-300000000D01*
G37*
D15*
X172391300Y-299750000D02*
G75*
G03*
X172391300Y-299750000I-80000J0D01*
G01*
D13*
%TO.C,K30*%
X146050000Y-369906550D02*
X146050000Y-368128550D01*
X158750000Y-369906550D02*
X156972000Y-369906550D01*
X146050000Y-357206550D02*
X147828000Y-357206550D01*
X158750000Y-368128550D02*
X158750000Y-369906550D01*
X158750000Y-357206550D02*
X158750000Y-358984550D01*
X146050000Y-358984550D02*
X146050000Y-357206550D01*
X156972000Y-357206550D02*
X158750000Y-357206550D01*
X147828000Y-369906550D02*
X146050000Y-369906550D01*
D14*
%TO.C,LED69*%
X187018800Y-340250000D02*
X189218800Y-340250000D01*
X187018800Y-337750000D02*
X189218800Y-337750000D01*
X187768800Y-338000000D02*
X188058800Y-338000000D01*
X188058800Y-338000000D02*
X188058800Y-340000000D01*
X188058800Y-340000000D02*
X187768800Y-340000000D01*
X187768800Y-340000000D02*
X187768800Y-338000000D01*
G36*
X187768800Y-338000000D02*
G01*
X188058800Y-338000000D01*
X188058800Y-340000000D01*
X187768800Y-340000000D01*
X187768800Y-338000000D01*
G37*
D15*
X186678800Y-337750000D02*
G75*
G03*
X186678800Y-337750000I-80000J0D01*
G01*
D14*
%TO.C,LED1*%
X32237500Y-283250000D02*
X34437500Y-283250000D01*
X32237500Y-280750000D02*
X34437500Y-280750000D01*
X32987500Y-281000000D02*
X33277500Y-281000000D01*
X33277500Y-281000000D02*
X33277500Y-283000000D01*
X33277500Y-283000000D02*
X32987500Y-283000000D01*
X32987500Y-283000000D02*
X32987500Y-281000000D01*
G36*
X32987500Y-281000000D02*
G01*
X33277500Y-281000000D01*
X33277500Y-283000000D01*
X32987500Y-283000000D01*
X32987500Y-281000000D01*
G37*
D15*
X31897500Y-280750000D02*
G75*
G03*
X31897500Y-280750000I-80000J0D01*
G01*
D14*
%TO.C,LED3*%
X70337500Y-283250000D02*
X72537500Y-283250000D01*
X70337500Y-280750000D02*
X72537500Y-280750000D01*
X71087500Y-281000000D02*
X71377500Y-281000000D01*
X71377500Y-281000000D02*
X71377500Y-283000000D01*
X71377500Y-283000000D02*
X71087500Y-283000000D01*
X71087500Y-283000000D02*
X71087500Y-281000000D01*
G36*
X71087500Y-281000000D02*
G01*
X71377500Y-281000000D01*
X71377500Y-283000000D01*
X71087500Y-283000000D01*
X71087500Y-281000000D01*
G37*
D15*
X69997500Y-280750000D02*
G75*
G03*
X69997500Y-280750000I-80000J0D01*
G01*
D14*
%TO.C,LED20*%
X65575000Y-340250000D02*
X67775000Y-340250000D01*
X65575000Y-337750000D02*
X67775000Y-337750000D01*
X66325000Y-338000000D02*
X66615000Y-338000000D01*
X66615000Y-338000000D02*
X66615000Y-340000000D01*
X66615000Y-340000000D02*
X66325000Y-340000000D01*
X66325000Y-340000000D02*
X66325000Y-338000000D01*
G36*
X66325000Y-338000000D02*
G01*
X66615000Y-338000000D01*
X66615000Y-340000000D01*
X66325000Y-340000000D01*
X66325000Y-338000000D01*
G37*
D15*
X65235000Y-337750000D02*
G75*
G03*
X65235000Y-337750000I-80000J0D01*
G01*
D13*
%TO.C,K46*%
X169259300Y-312737800D02*
X167481300Y-312737800D01*
X167481300Y-301815800D02*
X167481300Y-300037800D01*
X167481300Y-300037800D02*
X169259300Y-300037800D01*
X180181300Y-312737800D02*
X178403300Y-312737800D01*
X180181300Y-310959800D02*
X180181300Y-312737800D01*
X180181300Y-300037800D02*
X180181300Y-301815800D01*
X167481300Y-312737800D02*
X167481300Y-310959800D01*
X178403300Y-300037800D02*
X180181300Y-300037800D01*
%TO.C,K5*%
X103187500Y-282784550D02*
X103187500Y-281006550D01*
X115887500Y-293706550D02*
X114109500Y-293706550D01*
X115887500Y-291928550D02*
X115887500Y-293706550D01*
X114109500Y-281006550D02*
X115887500Y-281006550D01*
X104965500Y-293706550D02*
X103187500Y-293706550D01*
X103187500Y-293706550D02*
X103187500Y-291928550D01*
X115887500Y-281006550D02*
X115887500Y-282784550D01*
X103187500Y-281006550D02*
X104965500Y-281006550D01*
D14*
%TO.C,LED80*%
X198743800Y-356750000D02*
X196543800Y-356750000D01*
X198743800Y-359250000D02*
X196543800Y-359250000D01*
X197993800Y-359000000D02*
X197703800Y-359000000D01*
X197703800Y-359000000D02*
X197703800Y-357000000D01*
X197703800Y-357000000D02*
X197993800Y-357000000D01*
X197993800Y-357000000D02*
X197993800Y-359000000D01*
G36*
X197993800Y-359000000D02*
G01*
X197703800Y-359000000D01*
X197703800Y-357000000D01*
X197993800Y-357000000D01*
X197993800Y-359000000D01*
G37*
D15*
X199243800Y-359250000D02*
G75*
G03*
X199243800Y-359250000I-80000J0D01*
G01*
D13*
%TO.C,K21*%
X79375000Y-338156550D02*
X81153000Y-338156550D01*
X79375000Y-339934550D02*
X79375000Y-338156550D01*
X81153000Y-350856550D02*
X79375000Y-350856550D01*
X92075000Y-338156550D02*
X92075000Y-339934550D01*
X90297000Y-338156550D02*
X92075000Y-338156550D01*
X92075000Y-350856550D02*
X90297000Y-350856550D01*
X79375000Y-350856550D02*
X79375000Y-349078550D01*
X92075000Y-349078550D02*
X92075000Y-350856550D01*
%TO.C,K28*%
X107950000Y-358984550D02*
X107950000Y-357206550D01*
X109728000Y-369906550D02*
X107950000Y-369906550D01*
X107950000Y-369906550D02*
X107950000Y-368128550D01*
X120650000Y-357206550D02*
X120650000Y-358984550D01*
X107950000Y-357206550D02*
X109728000Y-357206550D01*
X118872000Y-357206550D02*
X120650000Y-357206550D01*
X120650000Y-369906550D02*
X118872000Y-369906550D01*
X120650000Y-368128550D02*
X120650000Y-369906550D01*
%TO.C,K51*%
X264509300Y-312737800D02*
X262731300Y-312737800D01*
X275431300Y-300037800D02*
X275431300Y-301815800D01*
X275431300Y-310959800D02*
X275431300Y-312737800D01*
X273653300Y-300037800D02*
X275431300Y-300037800D01*
X262731300Y-301815800D02*
X262731300Y-300037800D01*
X262731300Y-312737800D02*
X262731300Y-310959800D01*
X275431300Y-312737800D02*
X273653300Y-312737800D01*
X262731300Y-300037800D02*
X264509300Y-300037800D01*
D14*
%TO.C,J1*%
X102387500Y-253552500D02*
X91077500Y-253552500D01*
X103887500Y-254162500D02*
X103387500Y-254162500D01*
X112277500Y-265272500D02*
X112277500Y-260772500D01*
X113697500Y-265272500D02*
X112277500Y-265272500D01*
X113697500Y-253552500D02*
X113697500Y-265272500D01*
X105887500Y-254162500D02*
X105887500Y-259662500D01*
X91077500Y-265272500D02*
X92497500Y-265272500D01*
X105887500Y-259662500D02*
X106387500Y-259662500D01*
X91077500Y-253552500D02*
X91077500Y-265272500D01*
X98387500Y-259662500D02*
X98887500Y-259662500D01*
X95887500Y-254162500D02*
X95887500Y-259662500D01*
X111387500Y-259662500D02*
X111387500Y-254162500D01*
X96387500Y-259662500D02*
X96387500Y-254162500D01*
X102387500Y-253552500D02*
X113697500Y-253552500D01*
X96387500Y-254162500D02*
X95887500Y-254162500D01*
X101387500Y-254162500D02*
X100887500Y-254162500D01*
X111137500Y-262762500D02*
X111437500Y-263362500D01*
X108887500Y-254162500D02*
X108387500Y-254162500D01*
X111387500Y-254162500D02*
X110887500Y-254162500D01*
X110887500Y-254162500D02*
X110887500Y-259662500D01*
X95887500Y-259662500D02*
X96387500Y-259662500D01*
X98887500Y-254162500D02*
X98387500Y-254162500D01*
X103387500Y-259662500D02*
X103887500Y-259662500D01*
X108387500Y-259662500D02*
X108887500Y-259662500D01*
X108387500Y-254162500D02*
X108387500Y-259662500D01*
X106387500Y-259662500D02*
X106387500Y-254162500D01*
X103387500Y-254162500D02*
X103387500Y-259662500D01*
X93887500Y-259662500D02*
X93887500Y-254162500D01*
X98387500Y-254162500D02*
X98387500Y-259662500D01*
X111437500Y-263362500D02*
X110837500Y-263362500D01*
X106387500Y-254162500D02*
X105887500Y-254162500D01*
X93387500Y-254162500D02*
X93387500Y-259662500D01*
X108887500Y-259662500D02*
X108887500Y-254162500D01*
X93387500Y-259662500D02*
X93887500Y-259662500D01*
X103887500Y-259662500D02*
X103887500Y-254162500D01*
X92497500Y-265272500D02*
X92497500Y-260772500D01*
X110887500Y-259662500D02*
X111387500Y-259662500D01*
X93887500Y-254162500D02*
X93387500Y-254162500D01*
X100887500Y-254162500D02*
X100887500Y-259662500D01*
X110837500Y-263362500D02*
X111137500Y-262762500D01*
X100887500Y-259662500D02*
X101387500Y-259662500D01*
X101387500Y-259662500D02*
X101387500Y-254162500D01*
X98887500Y-259662500D02*
X98887500Y-254162500D01*
%TO.C,LED11*%
X108437500Y-299750000D02*
X110637500Y-299750000D01*
X108437500Y-302250000D02*
X110637500Y-302250000D01*
X109187500Y-300000000D02*
X109477500Y-300000000D01*
X109477500Y-300000000D02*
X109477500Y-302000000D01*
X109477500Y-302000000D02*
X109187500Y-302000000D01*
X109187500Y-302000000D02*
X109187500Y-300000000D01*
G36*
X109187500Y-300000000D02*
G01*
X109477500Y-300000000D01*
X109477500Y-302000000D01*
X109187500Y-302000000D01*
X109187500Y-300000000D01*
G37*
D15*
X108097500Y-299750000D02*
G75*
G03*
X108097500Y-299750000I-80000J0D01*
G01*
D14*
%TO.C,LED49*%
X229881300Y-299750000D02*
X232081300Y-299750000D01*
X229881300Y-302250000D02*
X232081300Y-302250000D01*
X230631300Y-300000000D02*
X230921300Y-300000000D01*
X230921300Y-300000000D02*
X230921300Y-302000000D01*
X230921300Y-302000000D02*
X230631300Y-302000000D01*
X230631300Y-302000000D02*
X230631300Y-300000000D01*
G36*
X230631300Y-300000000D02*
G01*
X230921300Y-300000000D01*
X230921300Y-302000000D01*
X230631300Y-302000000D01*
X230631300Y-300000000D01*
G37*
D15*
X229541300Y-299750000D02*
G75*
G03*
X229541300Y-299750000I-80000J0D01*
G01*
D13*
%TO.C,K62*%
X253206300Y-331787800D02*
X253206300Y-330009800D01*
X265906300Y-331787800D02*
X264128300Y-331787800D01*
X264128300Y-319087800D02*
X265906300Y-319087800D01*
X253206300Y-319087800D02*
X254984300Y-319087800D01*
X265906300Y-330009800D02*
X265906300Y-331787800D01*
X253206300Y-320865800D02*
X253206300Y-319087800D01*
X254984300Y-331787800D02*
X253206300Y-331787800D01*
X265906300Y-319087800D02*
X265906300Y-320865800D01*
%TO.C,K72*%
X238918800Y-339915800D02*
X238918800Y-338137800D01*
X251618800Y-349059800D02*
X251618800Y-350837800D01*
X238918800Y-338137800D02*
X240696800Y-338137800D01*
X249840800Y-338137800D02*
X251618800Y-338137800D01*
X251618800Y-350837800D02*
X249840800Y-350837800D01*
X238918800Y-350837800D02*
X238918800Y-349059800D01*
X251618800Y-338137800D02*
X251618800Y-339915800D01*
X240696800Y-350837800D02*
X238918800Y-350837800D01*
%TO.C,K49*%
X224631300Y-312737800D02*
X224631300Y-310959800D01*
X224631300Y-300037800D02*
X226409300Y-300037800D01*
X237331300Y-312737800D02*
X235553300Y-312737800D01*
X235553300Y-300037800D02*
X237331300Y-300037800D01*
X226409300Y-312737800D02*
X224631300Y-312737800D01*
X237331300Y-300037800D02*
X237331300Y-301815800D01*
X237331300Y-310959800D02*
X237331300Y-312737800D01*
X224631300Y-301815800D02*
X224631300Y-300037800D01*
%TO.C,K60*%
X215106300Y-319087800D02*
X216884300Y-319087800D01*
X227806300Y-319087800D02*
X227806300Y-320865800D01*
X215106300Y-331787800D02*
X215106300Y-330009800D01*
X215106300Y-320865800D02*
X215106300Y-319087800D01*
X227806300Y-330009800D02*
X227806300Y-331787800D01*
X227806300Y-331787800D02*
X226028300Y-331787800D01*
X226028300Y-319087800D02*
X227806300Y-319087800D01*
X216884300Y-331787800D02*
X215106300Y-331787800D01*
D14*
%TO.C,LED25*%
X44143750Y-356750000D02*
X46343750Y-356750000D01*
X44143750Y-359250000D02*
X46343750Y-359250000D01*
X44893750Y-357000000D02*
X45183750Y-357000000D01*
X45183750Y-357000000D02*
X45183750Y-359000000D01*
X45183750Y-359000000D02*
X44893750Y-359000000D01*
X44893750Y-359000000D02*
X44893750Y-357000000D01*
G36*
X44893750Y-357000000D02*
G01*
X45183750Y-357000000D01*
X45183750Y-359000000D01*
X44893750Y-359000000D01*
X44893750Y-357000000D01*
G37*
D15*
X43803750Y-356750000D02*
G75*
G03*
X43803750Y-356750000I-80000J0D01*
G01*
D14*
%TO.C,LED29*%
X132250000Y-359250000D02*
X134450000Y-359250000D01*
X132250000Y-356750000D02*
X134450000Y-356750000D01*
X133000000Y-357000000D02*
X133290000Y-357000000D01*
X133290000Y-357000000D02*
X133290000Y-359000000D01*
X133290000Y-359000000D02*
X133000000Y-359000000D01*
X133000000Y-359000000D02*
X133000000Y-357000000D01*
G36*
X133000000Y-357000000D02*
G01*
X133290000Y-357000000D01*
X133290000Y-359000000D01*
X133000000Y-359000000D01*
X133000000Y-357000000D01*
G37*
D15*
X131910000Y-356750000D02*
G75*
G03*
X131910000Y-356750000I-80000J0D01*
G01*
D14*
%TO.C,LED98*%
X395750000Y-374100000D02*
X395750000Y-371900000D01*
X398250000Y-374100000D02*
X398250000Y-371900000D01*
X396000000Y-373350000D02*
X398000000Y-373350000D01*
X398000000Y-373350000D02*
X398000000Y-373060000D01*
X398000000Y-373060000D02*
X396000000Y-373060000D01*
X396000000Y-373060000D02*
X396000000Y-373350000D01*
G36*
X396000000Y-373350000D02*
G01*
X398000000Y-373350000D01*
X398000000Y-373060000D01*
X396000000Y-373060000D01*
X396000000Y-373350000D01*
G37*
D15*
X395830000Y-374520000D02*
G75*
G03*
X395830000Y-374520000I-80000J0D01*
G01*
D14*
%TO.C,LED47*%
X191781300Y-302250000D02*
X193981300Y-302250000D01*
X191781300Y-299750000D02*
X193981300Y-299750000D01*
X192531300Y-300000000D02*
X192821300Y-300000000D01*
X192821300Y-300000000D02*
X192821300Y-302000000D01*
X192821300Y-302000000D02*
X192531300Y-302000000D01*
X192531300Y-302000000D02*
X192531300Y-300000000D01*
G36*
X192531300Y-300000000D02*
G01*
X192821300Y-300000000D01*
X192821300Y-302000000D01*
X192531300Y-302000000D01*
X192531300Y-300000000D01*
G37*
D15*
X191441300Y-299750000D02*
G75*
G03*
X191441300Y-299750000I-80000J0D01*
G01*
D13*
%TO.C,K71*%
X219868800Y-338137800D02*
X221646800Y-338137800D01*
X221646800Y-350837800D02*
X219868800Y-350837800D01*
X219868800Y-350837800D02*
X219868800Y-349059800D01*
X232568800Y-349059800D02*
X232568800Y-350837800D01*
X232568800Y-338137800D02*
X232568800Y-339915800D01*
X232568800Y-350837800D02*
X230790800Y-350837800D01*
X219868800Y-339915800D02*
X219868800Y-338137800D01*
X230790800Y-338137800D02*
X232568800Y-338137800D01*
%TO.C,K13*%
X33528000Y-331806550D02*
X31750000Y-331806550D01*
X44450000Y-330028550D02*
X44450000Y-331806550D01*
X44450000Y-331806550D02*
X42672000Y-331806550D01*
X44450000Y-319106550D02*
X44450000Y-320884550D01*
X42672000Y-319106550D02*
X44450000Y-319106550D01*
X31750000Y-319106550D02*
X33528000Y-319106550D01*
X31750000Y-331806550D02*
X31750000Y-330028550D01*
X31750000Y-320884550D02*
X31750000Y-319106550D01*
%TO.C,K50*%
X256381300Y-310959800D02*
X256381300Y-312737800D01*
X243681300Y-301815800D02*
X243681300Y-300037800D01*
X256381300Y-312737800D02*
X254603300Y-312737800D01*
X245459300Y-312737800D02*
X243681300Y-312737800D01*
X254603300Y-300037800D02*
X256381300Y-300037800D01*
X243681300Y-312737800D02*
X243681300Y-310959800D01*
X256381300Y-300037800D02*
X256381300Y-301815800D01*
X243681300Y-300037800D02*
X245459300Y-300037800D01*
%TO.C,K53*%
X310356300Y-301815800D02*
X310356300Y-300037800D01*
X310356300Y-312737800D02*
X310356300Y-310959800D01*
X321278300Y-300037800D02*
X323056300Y-300037800D01*
X323056300Y-310959800D02*
X323056300Y-312737800D01*
X323056300Y-300037800D02*
X323056300Y-301815800D01*
X312134300Y-312737800D02*
X310356300Y-312737800D01*
X323056300Y-312737800D02*
X321278300Y-312737800D01*
X310356300Y-300037800D02*
X312134300Y-300037800D01*
D10*
%TO.C,U2*%
X436721300Y-275095000D02*
X444341300Y-275095000D01*
X431641300Y-277635000D02*
X431641300Y-308115000D01*
X444341300Y-275095000D02*
X444341300Y-277635000D01*
X431641300Y-277635000D02*
X436721300Y-277635000D01*
X444341300Y-277635000D02*
X449421300Y-277635000D01*
X436721300Y-277635000D02*
X436721300Y-275095000D01*
X449421300Y-308115000D02*
X431641300Y-308115000D01*
X449421300Y-277635000D02*
X449421300Y-308115000D01*
D14*
%TO.C,LED8*%
X51287500Y-299750000D02*
X53487500Y-299750000D01*
X51287500Y-302250000D02*
X53487500Y-302250000D01*
X52037500Y-300000000D02*
X52327500Y-300000000D01*
X52327500Y-300000000D02*
X52327500Y-302000000D01*
X52327500Y-302000000D02*
X52037500Y-302000000D01*
X52037500Y-302000000D02*
X52037500Y-300000000D01*
G36*
X52037500Y-300000000D02*
G01*
X52327500Y-300000000D01*
X52327500Y-302000000D01*
X52037500Y-302000000D01*
X52037500Y-300000000D01*
G37*
D15*
X50947500Y-299750000D02*
G75*
G03*
X50947500Y-299750000I-80000J0D01*
G01*
D13*
%TO.C,K34*%
X132556250Y-376256550D02*
X132556250Y-378034550D01*
X132556250Y-387178550D02*
X132556250Y-388956550D01*
X132556250Y-388956550D02*
X130778250Y-388956550D01*
X119856250Y-378034550D02*
X119856250Y-376256550D01*
X121634250Y-388956550D02*
X119856250Y-388956550D01*
X119856250Y-388956550D02*
X119856250Y-387178550D01*
X119856250Y-376256550D02*
X121634250Y-376256550D01*
X130778250Y-376256550D02*
X132556250Y-376256550D01*
D14*
%TO.C,LED19*%
X39381250Y-337750000D02*
X41581250Y-337750000D01*
X39381250Y-340250000D02*
X41581250Y-340250000D01*
X40131250Y-338000000D02*
X40421250Y-338000000D01*
X40421250Y-338000000D02*
X40421250Y-340000000D01*
X40421250Y-340000000D02*
X40131250Y-340000000D01*
X40131250Y-340000000D02*
X40131250Y-338000000D01*
G36*
X40131250Y-338000000D02*
G01*
X40421250Y-338000000D01*
X40421250Y-340000000D01*
X40131250Y-340000000D01*
X40131250Y-338000000D01*
G37*
D15*
X39041250Y-337750000D02*
G75*
G03*
X39041250Y-337750000I-80000J0D01*
G01*
D10*
%TO.C,U1*%
X-13652500Y-277653750D02*
X-13652500Y-308133750D01*
X-952500Y-277653750D02*
X4127500Y-277653750D01*
X4127500Y-308133750D02*
X-13652500Y-308133750D01*
X-13652500Y-277653750D02*
X-8572500Y-277653750D01*
X-8572500Y-277653750D02*
X-8572500Y-275113750D01*
X-952500Y-275113750D02*
X-952500Y-277653750D01*
X4127500Y-277653750D02*
X4127500Y-308133750D01*
X-8572500Y-275113750D02*
X-952500Y-275113750D01*
D14*
%TO.C,LED93*%
X306081300Y-375750000D02*
X308281300Y-375750000D01*
X306081300Y-378250000D02*
X308281300Y-378250000D01*
X306831300Y-376000000D02*
X307121300Y-376000000D01*
X307121300Y-376000000D02*
X307121300Y-378000000D01*
X307121300Y-378000000D02*
X306831300Y-378000000D01*
X306831300Y-378000000D02*
X306831300Y-376000000D01*
G36*
X306831300Y-376000000D02*
G01*
X307121300Y-376000000D01*
X307121300Y-378000000D01*
X306831300Y-378000000D01*
X306831300Y-376000000D01*
G37*
D15*
X305741300Y-375750000D02*
G75*
G03*
X305741300Y-375750000I-80000J0D01*
G01*
D13*
%TO.C,K22*%
X111125000Y-350856550D02*
X109347000Y-350856550D01*
X98425000Y-339934550D02*
X98425000Y-338156550D01*
X100203000Y-350856550D02*
X98425000Y-350856550D01*
X111125000Y-349078550D02*
X111125000Y-350856550D01*
X111125000Y-338156550D02*
X111125000Y-339934550D01*
X98425000Y-338156550D02*
X100203000Y-338156550D01*
X109347000Y-338156550D02*
X111125000Y-338156550D01*
X98425000Y-350856550D02*
X98425000Y-349078550D01*
D14*
%TO.C,LED7*%
X32237500Y-299750000D02*
X34437500Y-299750000D01*
X32237500Y-302250000D02*
X34437500Y-302250000D01*
X32987500Y-300000000D02*
X33277500Y-300000000D01*
X33277500Y-300000000D02*
X33277500Y-302000000D01*
X33277500Y-302000000D02*
X32987500Y-302000000D01*
X32987500Y-302000000D02*
X32987500Y-300000000D01*
G36*
X32987500Y-300000000D02*
G01*
X33277500Y-300000000D01*
X33277500Y-302000000D01*
X32987500Y-302000000D01*
X32987500Y-300000000D01*
G37*
D15*
X31897500Y-299750000D02*
G75*
G03*
X31897500Y-299750000I-80000J0D01*
G01*
D13*
%TO.C,K57*%
X397859300Y-312737800D02*
X396081300Y-312737800D01*
X396081300Y-301815800D02*
X396081300Y-300037800D01*
X396081300Y-300037800D02*
X397859300Y-300037800D01*
X408781300Y-312737800D02*
X407003300Y-312737800D01*
X408781300Y-310959800D02*
X408781300Y-312737800D01*
X407003300Y-300037800D02*
X408781300Y-300037800D01*
X408781300Y-300037800D02*
X408781300Y-301815800D01*
X396081300Y-312737800D02*
X396081300Y-310959800D01*
D14*
%TO.C,LED41*%
X289231300Y-283250000D02*
X287031300Y-283250000D01*
X289231300Y-280750000D02*
X287031300Y-280750000D01*
X288481300Y-283000000D02*
X288191300Y-283000000D01*
X288191300Y-283000000D02*
X288191300Y-281000000D01*
X288191300Y-281000000D02*
X288481300Y-281000000D01*
X288481300Y-281000000D02*
X288481300Y-283000000D01*
G36*
X288481300Y-283000000D02*
G01*
X288191300Y-283000000D01*
X288191300Y-281000000D01*
X288481300Y-281000000D01*
X288481300Y-283000000D01*
G37*
D15*
X289731300Y-283250000D02*
G75*
G03*
X289731300Y-283250000I-80000J0D01*
G01*
D13*
%TO.C,K82*%
X242093800Y-357187800D02*
X242093800Y-358965800D01*
X229393800Y-369887800D02*
X229393800Y-368109800D01*
X231171800Y-369887800D02*
X229393800Y-369887800D01*
X229393800Y-358965800D02*
X229393800Y-357187800D01*
X242093800Y-369887800D02*
X240315800Y-369887800D01*
X240315800Y-357187800D02*
X242093800Y-357187800D01*
X242093800Y-368109800D02*
X242093800Y-369887800D01*
X229393800Y-357187800D02*
X231171800Y-357187800D01*
D14*
%TO.C,LED38*%
X232081300Y-283250000D02*
X229881300Y-283250000D01*
X232081300Y-280750000D02*
X229881300Y-280750000D01*
X231331300Y-283000000D02*
X231041300Y-283000000D01*
X231041300Y-283000000D02*
X231041300Y-281000000D01*
X231041300Y-281000000D02*
X231331300Y-281000000D01*
X231331300Y-281000000D02*
X231331300Y-283000000D01*
G36*
X231331300Y-283000000D02*
G01*
X231041300Y-283000000D01*
X231041300Y-281000000D01*
X231331300Y-281000000D01*
X231331300Y-283000000D01*
G37*
D15*
X232581300Y-283250000D02*
G75*
G03*
X232581300Y-283250000I-80000J0D01*
G01*
D14*
%TO.C,LED60*%
X222556300Y-321250000D02*
X220356300Y-321250000D01*
X222556300Y-318750000D02*
X220356300Y-318750000D01*
X221806300Y-321000000D02*
X221516300Y-321000000D01*
X221516300Y-321000000D02*
X221516300Y-319000000D01*
X221516300Y-319000000D02*
X221806300Y-319000000D01*
X221806300Y-319000000D02*
X221806300Y-321000000D01*
G36*
X221806300Y-321000000D02*
G01*
X221516300Y-321000000D01*
X221516300Y-319000000D01*
X221806300Y-319000000D01*
X221806300Y-321000000D01*
G37*
D15*
X223056300Y-321250000D02*
G75*
G03*
X223056300Y-321250000I-80000J0D01*
G01*
D14*
%TO.C,LED9*%
X70337500Y-302250000D02*
X72537500Y-302250000D01*
X70337500Y-299750000D02*
X72537500Y-299750000D01*
X71087500Y-300000000D02*
X71377500Y-300000000D01*
X71377500Y-300000000D02*
X71377500Y-302000000D01*
X71377500Y-302000000D02*
X71087500Y-302000000D01*
X71087500Y-302000000D02*
X71087500Y-300000000D01*
G36*
X71087500Y-300000000D02*
G01*
X71377500Y-300000000D01*
X71377500Y-302000000D01*
X71087500Y-302000000D01*
X71087500Y-300000000D01*
G37*
D15*
X69997500Y-299750000D02*
G75*
G03*
X69997500Y-299750000I-80000J0D01*
G01*
D14*
%TO.C,LED87*%
X346381300Y-356750000D02*
X344181300Y-356750000D01*
X346381300Y-359250000D02*
X344181300Y-359250000D01*
X345631300Y-359000000D02*
X345341300Y-359000000D01*
X345341300Y-359000000D02*
X345341300Y-357000000D01*
X345341300Y-357000000D02*
X345631300Y-357000000D01*
X345631300Y-357000000D02*
X345631300Y-359000000D01*
G36*
X345631300Y-359000000D02*
G01*
X345341300Y-359000000D01*
X345341300Y-357000000D01*
X345631300Y-357000000D01*
X345631300Y-359000000D01*
G37*
D15*
X346881300Y-359250000D02*
G75*
G03*
X346881300Y-359250000I-80000J0D01*
G01*
D13*
%TO.C,K23*%
X117475000Y-339934550D02*
X117475000Y-338156550D01*
X130175000Y-350856550D02*
X128397000Y-350856550D01*
X130175000Y-349078550D02*
X130175000Y-350856550D01*
X128397000Y-338156550D02*
X130175000Y-338156550D01*
X117475000Y-350856550D02*
X117475000Y-349078550D01*
X130175000Y-338156550D02*
X130175000Y-339934550D01*
X117475000Y-338156550D02*
X119253000Y-338156550D01*
X119253000Y-350856550D02*
X117475000Y-350856550D01*
%TO.C,K56*%
X377031300Y-312737800D02*
X377031300Y-310959800D01*
X389731300Y-300037800D02*
X389731300Y-301815800D01*
X377031300Y-300037800D02*
X378809300Y-300037800D01*
X387953300Y-300037800D02*
X389731300Y-300037800D01*
X378809300Y-312737800D02*
X377031300Y-312737800D01*
X389731300Y-310959800D02*
X389731300Y-312737800D01*
X389731300Y-312737800D02*
X387953300Y-312737800D01*
X377031300Y-301815800D02*
X377031300Y-300037800D01*
%TO.C,K65*%
X315118800Y-320865800D02*
X315118800Y-319087800D01*
X326040800Y-319087800D02*
X327818800Y-319087800D01*
X327818800Y-331787800D02*
X326040800Y-331787800D01*
X327818800Y-330009800D02*
X327818800Y-331787800D01*
X327818800Y-319087800D02*
X327818800Y-320865800D01*
X315118800Y-331787800D02*
X315118800Y-330009800D01*
X316896800Y-331787800D02*
X315118800Y-331787800D01*
X315118800Y-319087800D02*
X316896800Y-319087800D01*
D14*
%TO.C,LED27*%
X94150000Y-359250000D02*
X96350000Y-359250000D01*
X94150000Y-356750000D02*
X96350000Y-356750000D01*
X94900000Y-357000000D02*
X95190000Y-357000000D01*
X95190000Y-357000000D02*
X95190000Y-359000000D01*
X95190000Y-359000000D02*
X94900000Y-359000000D01*
X94900000Y-359000000D02*
X94900000Y-357000000D01*
G36*
X94900000Y-357000000D02*
G01*
X95190000Y-357000000D01*
X95190000Y-359000000D01*
X94900000Y-359000000D01*
X94900000Y-357000000D01*
G37*
D15*
X93810000Y-356750000D02*
G75*
G03*
X93810000Y-356750000I-80000J0D01*
G01*
D13*
%TO.C,K44*%
X389731300Y-293687800D02*
X387953300Y-293687800D01*
X377031300Y-293687800D02*
X377031300Y-291909800D01*
X377031300Y-282765800D02*
X377031300Y-280987800D01*
X377031300Y-280987800D02*
X378809300Y-280987800D01*
X387953300Y-280987800D02*
X389731300Y-280987800D01*
X378809300Y-293687800D02*
X377031300Y-293687800D01*
X389731300Y-291909800D02*
X389731300Y-293687800D01*
X389731300Y-280987800D02*
X389731300Y-282765800D01*
D14*
%TO.C,LED4*%
X89387500Y-283250000D02*
X91587500Y-283250000D01*
X89387500Y-280750000D02*
X91587500Y-280750000D01*
X90137500Y-281000000D02*
X90427500Y-281000000D01*
X90427500Y-281000000D02*
X90427500Y-283000000D01*
X90427500Y-283000000D02*
X90137500Y-283000000D01*
X90137500Y-283000000D02*
X90137500Y-281000000D01*
G36*
X90137500Y-281000000D02*
G01*
X90427500Y-281000000D01*
X90427500Y-283000000D01*
X90137500Y-283000000D01*
X90137500Y-281000000D01*
G37*
D15*
X89047500Y-280750000D02*
G75*
G03*
X89047500Y-280750000I-80000J0D01*
G01*
D14*
%TO.C,LED85*%
X301137550Y-356750000D02*
X298937550Y-356750000D01*
X301137550Y-359250000D02*
X298937550Y-359250000D01*
X300387550Y-359000000D02*
X300097550Y-359000000D01*
X300097550Y-359000000D02*
X300097550Y-357000000D01*
X300097550Y-357000000D02*
X300387550Y-357000000D01*
X300387550Y-357000000D02*
X300387550Y-359000000D01*
G36*
X300387550Y-359000000D02*
G01*
X300097550Y-359000000D01*
X300097550Y-357000000D01*
X300387550Y-357000000D01*
X300387550Y-359000000D01*
G37*
D15*
X301637550Y-359250000D02*
G75*
G03*
X301637550Y-359250000I-80000J0D01*
G01*
%TO.C,REF\u002A\u002A*%
G36*
X304746536Y-279600427D02*
G01*
X304859118Y-280197618D01*
X305274531Y-280368865D01*
X305689945Y-280540112D01*
X306188302Y-280201233D01*
X306327869Y-280106877D01*
X306454029Y-280022630D01*
X306560896Y-279952338D01*
X306642583Y-279899847D01*
X306693202Y-279869004D01*
X306706987Y-279862353D01*
X306731821Y-279879458D01*
X306784889Y-279926744D01*
X306860241Y-279998172D01*
X306951930Y-280087700D01*
X307054008Y-280189289D01*
X307160527Y-280296898D01*
X307265537Y-280404487D01*
X307363092Y-280506015D01*
X307447243Y-280595441D01*
X307512041Y-280666726D01*
X307551538Y-280713828D01*
X307560981Y-280729592D01*
X307547392Y-280758653D01*
X307509294Y-280822321D01*
X307450694Y-280914367D01*
X307375598Y-281028564D01*
X307288009Y-281158684D01*
X307237255Y-281232901D01*
X307144746Y-281368422D01*
X307062541Y-281490716D01*
X306994631Y-281593695D01*
X306945001Y-281671273D01*
X306917641Y-281717361D01*
X306913530Y-281727047D01*
X306922850Y-281754574D01*
X306948255Y-281818728D01*
X306985912Y-281910490D01*
X307031987Y-282020839D01*
X307082647Y-282140755D01*
X307134060Y-282261219D01*
X307182390Y-282373209D01*
X307223807Y-282467707D01*
X307254475Y-282535692D01*
X307270562Y-282568143D01*
X307271512Y-282569420D01*
X307296773Y-282575617D01*
X307364046Y-282589440D01*
X307466361Y-282609532D01*
X307596742Y-282634534D01*
X307748217Y-282663086D01*
X307836594Y-282679551D01*
X307998453Y-282710369D01*
X308144650Y-282739694D01*
X308267788Y-282765921D01*
X308360470Y-282787446D01*
X308415302Y-282802665D01*
X308426324Y-282807493D01*
X308437119Y-282840174D01*
X308445830Y-282913985D01*
X308452461Y-283020292D01*
X308457019Y-283150467D01*
X308459510Y-283295876D01*
X308459939Y-283447890D01*
X308458312Y-283597877D01*
X308454636Y-283737206D01*
X308448916Y-283857245D01*
X308441158Y-283949365D01*
X308431369Y-284004932D01*
X308425497Y-284016500D01*
X308390400Y-284030365D01*
X308316029Y-284050188D01*
X308212224Y-284073639D01*
X308088820Y-284098391D01*
X308045742Y-284106398D01*
X307838048Y-284144441D01*
X307673985Y-284175079D01*
X307548131Y-284199529D01*
X307455066Y-284219009D01*
X307389368Y-284234736D01*
X307345618Y-284247928D01*
X307318393Y-284259804D01*
X307302273Y-284271580D01*
X307300018Y-284273908D01*
X307277504Y-284311400D01*
X307243159Y-284384365D01*
X307200412Y-284483867D01*
X307152693Y-284600973D01*
X307103431Y-284726748D01*
X307056056Y-284852257D01*
X307013996Y-284968565D01*
X306980681Y-285066739D01*
X306959542Y-285137843D01*
X306954006Y-285172942D01*
X306954467Y-285174172D01*
X306973224Y-285202861D01*
X307015777Y-285265985D01*
X307077654Y-285356973D01*
X307154383Y-285469255D01*
X307241492Y-285596260D01*
X307266299Y-285632353D01*
X307354753Y-285763203D01*
X307432589Y-285882591D01*
X307495567Y-285983662D01*
X307539446Y-286059559D01*
X307559986Y-286103427D01*
X307560981Y-286108817D01*
X307543723Y-286137144D01*
X307496036Y-286193261D01*
X307424051Y-286271137D01*
X307333898Y-286364740D01*
X307231706Y-286468041D01*
X307123606Y-286575006D01*
X307015729Y-286679606D01*
X306914205Y-286775809D01*
X306825163Y-286857584D01*
X306754734Y-286918900D01*
X306709048Y-286953726D01*
X306696410Y-286959412D01*
X306666992Y-286946020D01*
X306606762Y-286909899D01*
X306525530Y-286857136D01*
X306463031Y-286814667D01*
X306349786Y-286736740D01*
X306215675Y-286644984D01*
X306081156Y-286553375D01*
X306008834Y-286504346D01*
X305764039Y-286338770D01*
X305558551Y-286449875D01*
X305464937Y-286498548D01*
X305385331Y-286536381D01*
X305331468Y-286557958D01*
X305317758Y-286560961D01*
X305301271Y-286538793D01*
X305268746Y-286476149D01*
X305222609Y-286378809D01*
X305165291Y-286252549D01*
X305099217Y-286103150D01*
X305026816Y-285936388D01*
X304950517Y-285758042D01*
X304872747Y-285573891D01*
X304795935Y-285389712D01*
X304722507Y-285211285D01*
X304654893Y-285044387D01*
X304595521Y-284894797D01*
X304546817Y-284768293D01*
X304511211Y-284670654D01*
X304491131Y-284607657D01*
X304487901Y-284586021D01*
X304513497Y-284558424D01*
X304569539Y-284513625D01*
X304644312Y-284460934D01*
X304650588Y-284456765D01*
X304843846Y-284302069D01*
X304999675Y-284121591D01*
X305116725Y-283921102D01*
X305193646Y-283706374D01*
X305229087Y-283483177D01*
X305221698Y-283257281D01*
X305170128Y-283034459D01*
X305073027Y-282820479D01*
X305044459Y-282773664D01*
X304895869Y-282584618D01*
X304720328Y-282432812D01*
X304523911Y-282319034D01*
X304312694Y-282244075D01*
X304092754Y-282208722D01*
X303870164Y-282213767D01*
X303651002Y-282259999D01*
X303441343Y-282348206D01*
X303247262Y-282479179D01*
X303187227Y-282532337D01*
X303034436Y-282698739D01*
X302923098Y-282873912D01*
X302846724Y-283070266D01*
X302804188Y-283264717D01*
X302793687Y-283483342D01*
X302828701Y-283703052D01*
X302905674Y-283916420D01*
X303021048Y-284116022D01*
X303171266Y-284294429D01*
X303352774Y-284444217D01*
X303376628Y-284460006D01*
X303452202Y-284511712D01*
X303509652Y-284556512D01*
X303537118Y-284585117D01*
X303537518Y-284586021D01*
X303531621Y-284616964D01*
X303508246Y-284687191D01*
X303469822Y-284790925D01*
X303418778Y-284922390D01*
X303357543Y-285075807D01*
X303288545Y-285245401D01*
X303214214Y-285425393D01*
X303136979Y-285610008D01*
X303059269Y-285793468D01*
X302983512Y-285969996D01*
X302912138Y-286133814D01*
X302847575Y-286279147D01*
X302792253Y-286400217D01*
X302748601Y-286491247D01*
X302719047Y-286546460D01*
X302707145Y-286560961D01*
X302670778Y-286549669D01*
X302602731Y-286519385D01*
X302514737Y-286475520D01*
X302466351Y-286449875D01*
X302260864Y-286338770D01*
X302016069Y-286504346D01*
X301891107Y-286589170D01*
X301754296Y-286682516D01*
X301626089Y-286770408D01*
X301561872Y-286814667D01*
X301471552Y-286875318D01*
X301395072Y-286923381D01*
X301342408Y-286952770D01*
X301325303Y-286958982D01*
X301300406Y-286942223D01*
X301245306Y-286895436D01*
X301165344Y-286823480D01*
X301065861Y-286731212D01*
X300952201Y-286623490D01*
X300880316Y-286554326D01*
X300754552Y-286430757D01*
X300645864Y-286320234D01*
X300558646Y-286227485D01*
X300497290Y-286157237D01*
X300466192Y-286114220D01*
X300463209Y-286105490D01*
X300477054Y-286072284D01*
X300515313Y-286005142D01*
X300573742Y-285910863D01*
X300648098Y-285796245D01*
X300734136Y-285668083D01*
X300758603Y-285632353D01*
X300847755Y-285502489D01*
X300927739Y-285385569D01*
X300994081Y-285288162D01*
X301042312Y-285216839D01*
X301067958Y-285178170D01*
X301070436Y-285174172D01*
X301066730Y-285143355D01*
X301047062Y-285075599D01*
X301014861Y-284979839D01*
X300973556Y-284865009D01*
X300926576Y-284740044D01*
X300877350Y-284613879D01*
X300829309Y-284495448D01*
X300785882Y-284393685D01*
X300750497Y-284317526D01*
X300726585Y-284275904D01*
X300724885Y-284273908D01*
X300710263Y-284262013D01*
X300685566Y-284250250D01*
X300645373Y-284237401D01*
X300584264Y-284222249D01*
X300496818Y-284203576D01*
X300377613Y-284180165D01*
X300221228Y-284150797D01*
X300022244Y-284114255D01*
X299979161Y-284106398D01*
X299851471Y-284081727D01*
X299740154Y-284057593D01*
X299655046Y-284036324D01*
X299605984Y-284020248D01*
X299599406Y-284016500D01*
X299588565Y-283983273D01*
X299579754Y-283909021D01*
X299572977Y-283802376D01*
X299568241Y-283671967D01*
X299565551Y-283526427D01*
X299564914Y-283374386D01*
X299566335Y-283224476D01*
X299569821Y-283085328D01*
X299575377Y-282965572D01*
X299583009Y-282873841D01*
X299592723Y-282818766D01*
X299598579Y-282807493D01*
X299631181Y-282796123D01*
X299705419Y-282777624D01*
X299813897Y-282753602D01*
X299949218Y-282725662D01*
X300103986Y-282695408D01*
X300188308Y-282679551D01*
X300348297Y-282649644D01*
X300490968Y-282622550D01*
X300609349Y-282599631D01*
X300696466Y-282582243D01*
X300745346Y-282571747D01*
X300753391Y-282569420D01*
X300766988Y-282543186D01*
X300795730Y-282479995D01*
X300835786Y-282388877D01*
X300883325Y-282278857D01*
X300934516Y-282158965D01*
X300985527Y-282038227D01*
X301032527Y-281925671D01*
X301071685Y-281830326D01*
X301099170Y-281761217D01*
X301111150Y-281727374D01*
X301111373Y-281725895D01*
X301097792Y-281699197D01*
X301059716Y-281637760D01*
X301001148Y-281547689D01*
X300926089Y-281435090D01*
X300838541Y-281306070D01*
X300787648Y-281231961D01*
X300694910Y-281096077D01*
X300612542Y-280972709D01*
X300544562Y-280868097D01*
X300494989Y-280788483D01*
X300467843Y-280740107D01*
X300463922Y-280729262D01*
X300480776Y-280704020D01*
X300527369Y-280650124D01*
X300597749Y-280573613D01*
X300685966Y-280480523D01*
X300786066Y-280376895D01*
X300892099Y-280268764D01*
X300998112Y-280162170D01*
X301098153Y-280063150D01*
X301186271Y-279977742D01*
X301256514Y-279911985D01*
X301302929Y-279871916D01*
X301318457Y-279862353D01*
X301343740Y-279875800D01*
X301404212Y-279913575D01*
X301493993Y-279971835D01*
X301607204Y-280046734D01*
X301737964Y-280134425D01*
X301836600Y-280201233D01*
X302334958Y-280540112D01*
X302750371Y-280368865D01*
X303165785Y-280197618D01*
X303278367Y-279600427D01*
X303390950Y-279003235D01*
X304633953Y-279003235D01*
X304746536Y-279600427D01*
G37*
D16*
X304746536Y-279600427D02*
X304859118Y-280197618D01*
X305274531Y-280368865D01*
X305689945Y-280540112D01*
X306188302Y-280201233D01*
X306327869Y-280106877D01*
X306454029Y-280022630D01*
X306560896Y-279952338D01*
X306642583Y-279899847D01*
X306693202Y-279869004D01*
X306706987Y-279862353D01*
X306731821Y-279879458D01*
X306784889Y-279926744D01*
X306860241Y-279998172D01*
X306951930Y-280087700D01*
X307054008Y-280189289D01*
X307160527Y-280296898D01*
X307265537Y-280404487D01*
X307363092Y-280506015D01*
X307447243Y-280595441D01*
X307512041Y-280666726D01*
X307551538Y-280713828D01*
X307560981Y-280729592D01*
X307547392Y-280758653D01*
X307509294Y-280822321D01*
X307450694Y-280914367D01*
X307375598Y-281028564D01*
X307288009Y-281158684D01*
X307237255Y-281232901D01*
X307144746Y-281368422D01*
X307062541Y-281490716D01*
X306994631Y-281593695D01*
X306945001Y-281671273D01*
X306917641Y-281717361D01*
X306913530Y-281727047D01*
X306922850Y-281754574D01*
X306948255Y-281818728D01*
X306985912Y-281910490D01*
X307031987Y-282020839D01*
X307082647Y-282140755D01*
X307134060Y-282261219D01*
X307182390Y-282373209D01*
X307223807Y-282467707D01*
X307254475Y-282535692D01*
X307270562Y-282568143D01*
X307271512Y-282569420D01*
X307296773Y-282575617D01*
X307364046Y-282589440D01*
X307466361Y-282609532D01*
X307596742Y-282634534D01*
X307748217Y-282663086D01*
X307836594Y-282679551D01*
X307998453Y-282710369D01*
X308144650Y-282739694D01*
X308267788Y-282765921D01*
X308360470Y-282787446D01*
X308415302Y-282802665D01*
X308426324Y-282807493D01*
X308437119Y-282840174D01*
X308445830Y-282913985D01*
X308452461Y-283020292D01*
X308457019Y-283150467D01*
X308459510Y-283295876D01*
X308459939Y-283447890D01*
X308458312Y-283597877D01*
X308454636Y-283737206D01*
X308448916Y-283857245D01*
X308441158Y-283949365D01*
X308431369Y-284004932D01*
X308425497Y-284016500D01*
X308390400Y-284030365D01*
X308316029Y-284050188D01*
X308212224Y-284073639D01*
X308088820Y-284098391D01*
X308045742Y-284106398D01*
X307838048Y-284144441D01*
X307673985Y-284175079D01*
X307548131Y-284199529D01*
X307455066Y-284219009D01*
X307389368Y-284234736D01*
X307345618Y-284247928D01*
X307318393Y-284259804D01*
X307302273Y-284271580D01*
X307300018Y-284273908D01*
X307277504Y-284311400D01*
X307243159Y-284384365D01*
X307200412Y-284483867D01*
X307152693Y-284600973D01*
X307103431Y-284726748D01*
X307056056Y-284852257D01*
X307013996Y-284968565D01*
X306980681Y-285066739D01*
X306959542Y-285137843D01*
X306954006Y-285172942D01*
X306954467Y-285174172D01*
X306973224Y-285202861D01*
X307015777Y-285265985D01*
X307077654Y-285356973D01*
X307154383Y-285469255D01*
X307241492Y-285596260D01*
X307266299Y-285632353D01*
X307354753Y-285763203D01*
X307432589Y-285882591D01*
X307495567Y-285983662D01*
X307539446Y-286059559D01*
X307559986Y-286103427D01*
X307560981Y-286108817D01*
X307543723Y-286137144D01*
X307496036Y-286193261D01*
X307424051Y-286271137D01*
X307333898Y-286364740D01*
X307231706Y-286468041D01*
X307123606Y-286575006D01*
X307015729Y-286679606D01*
X306914205Y-286775809D01*
X306825163Y-286857584D01*
X306754734Y-286918900D01*
X306709048Y-286953726D01*
X306696410Y-286959412D01*
X306666992Y-286946020D01*
X306606762Y-286909899D01*
X306525530Y-286857136D01*
X306463031Y-286814667D01*
X306349786Y-286736740D01*
X306215675Y-286644984D01*
X306081156Y-286553375D01*
X306008834Y-286504346D01*
X305764039Y-286338770D01*
X305558551Y-286449875D01*
X305464937Y-286498548D01*
X305385331Y-286536381D01*
X305331468Y-286557958D01*
X305317758Y-286560961D01*
X305301271Y-286538793D01*
X305268746Y-286476149D01*
X305222609Y-286378809D01*
X305165291Y-286252549D01*
X305099217Y-286103150D01*
X305026816Y-285936388D01*
X304950517Y-285758042D01*
X304872747Y-285573891D01*
X304795935Y-285389712D01*
X304722507Y-285211285D01*
X304654893Y-285044387D01*
X304595521Y-284894797D01*
X304546817Y-284768293D01*
X304511211Y-284670654D01*
X304491131Y-284607657D01*
X304487901Y-284586021D01*
X304513497Y-284558424D01*
X304569539Y-284513625D01*
X304644312Y-284460934D01*
X304650588Y-284456765D01*
X304843846Y-284302069D01*
X304999675Y-284121591D01*
X305116725Y-283921102D01*
X305193646Y-283706374D01*
X305229087Y-283483177D01*
X305221698Y-283257281D01*
X305170128Y-283034459D01*
X305073027Y-282820479D01*
X305044459Y-282773664D01*
X304895869Y-282584618D01*
X304720328Y-282432812D01*
X304523911Y-282319034D01*
X304312694Y-282244075D01*
X304092754Y-282208722D01*
X303870164Y-282213767D01*
X303651002Y-282259999D01*
X303441343Y-282348206D01*
X303247262Y-282479179D01*
X303187227Y-282532337D01*
X303034436Y-282698739D01*
X302923098Y-282873912D01*
X302846724Y-283070266D01*
X302804188Y-283264717D01*
X302793687Y-283483342D01*
X302828701Y-283703052D01*
X302905674Y-283916420D01*
X303021048Y-284116022D01*
X303171266Y-284294429D01*
X303352774Y-284444217D01*
X303376628Y-284460006D01*
X303452202Y-284511712D01*
X303509652Y-284556512D01*
X303537118Y-284585117D01*
X303537518Y-284586021D01*
X303531621Y-284616964D01*
X303508246Y-284687191D01*
X303469822Y-284790925D01*
X303418778Y-284922390D01*
X303357543Y-285075807D01*
X303288545Y-285245401D01*
X303214214Y-285425393D01*
X303136979Y-285610008D01*
X303059269Y-285793468D01*
X302983512Y-285969996D01*
X302912138Y-286133814D01*
X302847575Y-286279147D01*
X302792253Y-286400217D01*
X302748601Y-286491247D01*
X302719047Y-286546460D01*
X302707145Y-286560961D01*
X302670778Y-286549669D01*
X302602731Y-286519385D01*
X302514737Y-286475520D01*
X302466351Y-286449875D01*
X302260864Y-286338770D01*
X302016069Y-286504346D01*
X301891107Y-286589170D01*
X301754296Y-286682516D01*
X301626089Y-286770408D01*
X301561872Y-286814667D01*
X301471552Y-286875318D01*
X301395072Y-286923381D01*
X301342408Y-286952770D01*
X301325303Y-286958982D01*
X301300406Y-286942223D01*
X301245306Y-286895436D01*
X301165344Y-286823480D01*
X301065861Y-286731212D01*
X300952201Y-286623490D01*
X300880316Y-286554326D01*
X300754552Y-286430757D01*
X300645864Y-286320234D01*
X300558646Y-286227485D01*
X300497290Y-286157237D01*
X300466192Y-286114220D01*
X300463209Y-286105490D01*
X300477054Y-286072284D01*
X300515313Y-286005142D01*
X300573742Y-285910863D01*
X300648098Y-285796245D01*
X300734136Y-285668083D01*
X300758603Y-285632353D01*
X300847755Y-285502489D01*
X300927739Y-285385569D01*
X300994081Y-285288162D01*
X301042312Y-285216839D01*
X301067958Y-285178170D01*
X301070436Y-285174172D01*
X301066730Y-285143355D01*
X301047062Y-285075599D01*
X301014861Y-284979839D01*
X300973556Y-284865009D01*
X300926576Y-284740044D01*
X300877350Y-284613879D01*
X300829309Y-284495448D01*
X300785882Y-284393685D01*
X300750497Y-284317526D01*
X300726585Y-284275904D01*
X300724885Y-284273908D01*
X300710263Y-284262013D01*
X300685566Y-284250250D01*
X300645373Y-284237401D01*
X300584264Y-284222249D01*
X300496818Y-284203576D01*
X300377613Y-284180165D01*
X300221228Y-284150797D01*
X300022244Y-284114255D01*
X299979161Y-284106398D01*
X299851471Y-284081727D01*
X299740154Y-284057593D01*
X299655046Y-284036324D01*
X299605984Y-284020248D01*
X299599406Y-284016500D01*
X299588565Y-283983273D01*
X299579754Y-283909021D01*
X299572977Y-283802376D01*
X299568241Y-283671967D01*
X299565551Y-283526427D01*
X299564914Y-283374386D01*
X299566335Y-283224476D01*
X299569821Y-283085328D01*
X299575377Y-282965572D01*
X299583009Y-282873841D01*
X299592723Y-282818766D01*
X299598579Y-282807493D01*
X299631181Y-282796123D01*
X299705419Y-282777624D01*
X299813897Y-282753602D01*
X299949218Y-282725662D01*
X300103986Y-282695408D01*
X300188308Y-282679551D01*
X300348297Y-282649644D01*
X300490968Y-282622550D01*
X300609349Y-282599631D01*
X300696466Y-282582243D01*
X300745346Y-282571747D01*
X300753391Y-282569420D01*
X300766988Y-282543186D01*
X300795730Y-282479995D01*
X300835786Y-282388877D01*
X300883325Y-282278857D01*
X300934516Y-282158965D01*
X300985527Y-282038227D01*
X301032527Y-281925671D01*
X301071685Y-281830326D01*
X301099170Y-281761217D01*
X301111150Y-281727374D01*
X301111373Y-281725895D01*
X301097792Y-281699197D01*
X301059716Y-281637760D01*
X301001148Y-281547689D01*
X300926089Y-281435090D01*
X300838541Y-281306070D01*
X300787648Y-281231961D01*
X300694910Y-281096077D01*
X300612542Y-280972709D01*
X300544562Y-280868097D01*
X300494989Y-280788483D01*
X300467843Y-280740107D01*
X300463922Y-280729262D01*
X300480776Y-280704020D01*
X300527369Y-280650124D01*
X300597749Y-280573613D01*
X300685966Y-280480523D01*
X300786066Y-280376895D01*
X300892099Y-280268764D01*
X300998112Y-280162170D01*
X301098153Y-280063150D01*
X301186271Y-279977742D01*
X301256514Y-279911985D01*
X301302929Y-279871916D01*
X301318457Y-279862353D01*
X301343740Y-279875800D01*
X301404212Y-279913575D01*
X301493993Y-279971835D01*
X301607204Y-280046734D01*
X301737964Y-280134425D01*
X301836600Y-280201233D01*
X302334958Y-280540112D01*
X302750371Y-280368865D01*
X303165785Y-280197618D01*
X303278367Y-279600427D01*
X303390950Y-279003235D01*
X304633953Y-279003235D01*
X304746536Y-279600427D01*
D13*
%TO.C,K81*%
X223043800Y-368109800D02*
X223043800Y-369887800D01*
X210343800Y-358965800D02*
X210343800Y-357187800D01*
X210343800Y-369887800D02*
X210343800Y-368109800D01*
X210343800Y-357187800D02*
X212121800Y-357187800D01*
X223043800Y-369887800D02*
X221265800Y-369887800D01*
X212121800Y-369887800D02*
X210343800Y-369887800D01*
X223043800Y-357187800D02*
X223043800Y-358965800D01*
X221265800Y-357187800D02*
X223043800Y-357187800D01*
D14*
%TO.C,LED42*%
X346381300Y-280750000D02*
X344181300Y-280750000D01*
X346381300Y-283250000D02*
X344181300Y-283250000D01*
X345631300Y-283000000D02*
X345341300Y-283000000D01*
X345341300Y-283000000D02*
X345341300Y-281000000D01*
X345341300Y-281000000D02*
X345631300Y-281000000D01*
X345631300Y-281000000D02*
X345631300Y-283000000D01*
G36*
X345631300Y-283000000D02*
G01*
X345341300Y-283000000D01*
X345341300Y-281000000D01*
X345631300Y-281000000D01*
X345631300Y-283000000D01*
G37*
D15*
X346881300Y-283250000D02*
G75*
G03*
X346881300Y-283250000I-80000J0D01*
G01*
D13*
%TO.C,K39*%
X256381300Y-291909800D02*
X256381300Y-293687800D01*
X256381300Y-293687800D02*
X254603300Y-293687800D01*
X243681300Y-282765800D02*
X243681300Y-280987800D01*
X256381300Y-280987800D02*
X256381300Y-282765800D01*
X254603300Y-280987800D02*
X256381300Y-280987800D01*
X243681300Y-280987800D02*
X245459300Y-280987800D01*
X243681300Y-293687800D02*
X243681300Y-291909800D01*
X245459300Y-293687800D02*
X243681300Y-293687800D01*
D14*
%TO.C,LED88*%
X365431300Y-359250000D02*
X363231300Y-359250000D01*
X365431300Y-356750000D02*
X363231300Y-356750000D01*
X364681300Y-359000000D02*
X364391300Y-359000000D01*
X364391300Y-359000000D02*
X364391300Y-357000000D01*
X364391300Y-357000000D02*
X364681300Y-357000000D01*
X364681300Y-357000000D02*
X364681300Y-359000000D01*
G36*
X364681300Y-359000000D02*
G01*
X364391300Y-359000000D01*
X364391300Y-357000000D01*
X364681300Y-357000000D01*
X364681300Y-359000000D01*
G37*
D15*
X365931300Y-359250000D02*
G75*
G03*
X365931300Y-359250000I-80000J0D01*
G01*
D14*
%TO.C,LED81*%
X217793800Y-356750000D02*
X215593800Y-356750000D01*
X217793800Y-359250000D02*
X215593800Y-359250000D01*
X217043800Y-359000000D02*
X216753800Y-359000000D01*
X216753800Y-359000000D02*
X216753800Y-357000000D01*
X216753800Y-357000000D02*
X217043800Y-357000000D01*
X217043800Y-357000000D02*
X217043800Y-359000000D01*
G36*
X217043800Y-359000000D02*
G01*
X216753800Y-359000000D01*
X216753800Y-357000000D01*
X217043800Y-357000000D01*
X217043800Y-359000000D01*
G37*
D15*
X218293800Y-359250000D02*
G75*
G03*
X218293800Y-359250000I-80000J0D01*
G01*
D13*
%TO.C,K24*%
X147447000Y-338156550D02*
X149225000Y-338156550D01*
X149225000Y-338156550D02*
X149225000Y-339934550D01*
X138303000Y-350856550D02*
X136525000Y-350856550D01*
X136525000Y-339934550D02*
X136525000Y-338156550D01*
X149225000Y-349078550D02*
X149225000Y-350856550D01*
X136525000Y-338156550D02*
X138303000Y-338156550D01*
X149225000Y-350856550D02*
X147447000Y-350856550D01*
X136525000Y-350856550D02*
X136525000Y-349078550D01*
D14*
%TO.C,LED83*%
X255893800Y-356750000D02*
X253693800Y-356750000D01*
X255893800Y-359250000D02*
X253693800Y-359250000D01*
X255143800Y-359000000D02*
X254853800Y-359000000D01*
X254853800Y-359000000D02*
X254853800Y-357000000D01*
X254853800Y-357000000D02*
X255143800Y-357000000D01*
X255143800Y-357000000D02*
X255143800Y-359000000D01*
G36*
X255143800Y-359000000D02*
G01*
X254853800Y-359000000D01*
X254853800Y-357000000D01*
X255143800Y-357000000D01*
X255143800Y-359000000D01*
G37*
D15*
X256393800Y-359250000D02*
G75*
G03*
X256393800Y-359250000I-80000J0D01*
G01*
D13*
%TO.C,K3*%
X66865500Y-293706550D02*
X65087500Y-293706550D01*
X76009500Y-281006550D02*
X77787500Y-281006550D01*
X77787500Y-281006550D02*
X77787500Y-282784550D01*
X65087500Y-282784550D02*
X65087500Y-281006550D01*
X65087500Y-293706550D02*
X65087500Y-291928550D01*
X77787500Y-293706550D02*
X76009500Y-293706550D01*
X77787500Y-291928550D02*
X77787500Y-293706550D01*
X65087500Y-281006550D02*
X66865500Y-281006550D01*
%TO.C,K55*%
X357981300Y-300037800D02*
X359759300Y-300037800D01*
X370681300Y-300037800D02*
X370681300Y-301815800D01*
X357981300Y-301815800D02*
X357981300Y-300037800D01*
X359759300Y-312737800D02*
X357981300Y-312737800D01*
X370681300Y-310959800D02*
X370681300Y-312737800D01*
X368903300Y-300037800D02*
X370681300Y-300037800D01*
X357981300Y-312737800D02*
X357981300Y-310959800D01*
X370681300Y-312737800D02*
X368903300Y-312737800D01*
%TO.C,K2*%
X46037500Y-282784550D02*
X46037500Y-281006550D01*
X58737500Y-293706550D02*
X56959500Y-293706550D01*
X56959500Y-281006550D02*
X58737500Y-281006550D01*
X58737500Y-281006550D02*
X58737500Y-282784550D01*
X47815500Y-293706550D02*
X46037500Y-293706550D01*
X46037500Y-281006550D02*
X47815500Y-281006550D01*
X46037500Y-293706550D02*
X46037500Y-291928550D01*
X58737500Y-291928550D02*
X58737500Y-293706550D01*
D14*
%TO.C,LED74*%
X282268800Y-337750000D02*
X284468800Y-337750000D01*
X282268800Y-340250000D02*
X284468800Y-340250000D01*
X283018800Y-338000000D02*
X283308800Y-338000000D01*
X283308800Y-338000000D02*
X283308800Y-340000000D01*
X283308800Y-340000000D02*
X283018800Y-340000000D01*
X283018800Y-340000000D02*
X283018800Y-338000000D01*
G36*
X283018800Y-338000000D02*
G01*
X283308800Y-338000000D01*
X283308800Y-340000000D01*
X283018800Y-340000000D01*
X283018800Y-338000000D01*
G37*
D15*
X281928800Y-337750000D02*
G75*
G03*
X281928800Y-337750000I-80000J0D01*
G01*
D13*
%TO.C,K6*%
X134937500Y-291928550D02*
X134937500Y-293706550D01*
X133159500Y-281006550D02*
X134937500Y-281006550D01*
X122237500Y-282784550D02*
X122237500Y-281006550D01*
X134937500Y-281006550D02*
X134937500Y-282784550D01*
X122237500Y-293706550D02*
X122237500Y-291928550D01*
X122237500Y-281006550D02*
X124015500Y-281006550D01*
X134937500Y-293706550D02*
X133159500Y-293706550D01*
X124015500Y-293706550D02*
X122237500Y-293706550D01*
D14*
%TO.C,LED31*%
X34618750Y-378250000D02*
X36818750Y-378250000D01*
X34618750Y-375750000D02*
X36818750Y-375750000D01*
X35368750Y-376000000D02*
X35658750Y-376000000D01*
X35658750Y-376000000D02*
X35658750Y-378000000D01*
X35658750Y-378000000D02*
X35368750Y-378000000D01*
X35368750Y-378000000D02*
X35368750Y-376000000D01*
G36*
X35368750Y-376000000D02*
G01*
X35658750Y-376000000D01*
X35658750Y-378000000D01*
X35368750Y-378000000D01*
X35368750Y-376000000D01*
G37*
D15*
X34278750Y-375750000D02*
G75*
G03*
X34278750Y-375750000I-80000J0D01*
G01*
D13*
%TO.C,K36*%
X199231300Y-293687800D02*
X197453300Y-293687800D01*
X186531300Y-293687800D02*
X186531300Y-291909800D01*
X188309300Y-293687800D02*
X186531300Y-293687800D01*
X199231300Y-291909800D02*
X199231300Y-293687800D01*
X186531300Y-282765800D02*
X186531300Y-280987800D01*
X197453300Y-280987800D02*
X199231300Y-280987800D01*
X186531300Y-280987800D02*
X188309300Y-280987800D01*
X199231300Y-280987800D02*
X199231300Y-282765800D01*
%TO.C,K84*%
X280193800Y-357187800D02*
X280193800Y-358965800D01*
X280193800Y-369887800D02*
X278415800Y-369887800D01*
X280193800Y-368109800D02*
X280193800Y-369887800D01*
X267493800Y-357187800D02*
X269271800Y-357187800D01*
X267493800Y-358965800D02*
X267493800Y-357187800D01*
X278415800Y-357187800D02*
X280193800Y-357187800D01*
X267493800Y-369887800D02*
X267493800Y-368109800D01*
X269271800Y-369887800D02*
X267493800Y-369887800D01*
D14*
%TO.C,LED71*%
X225118800Y-340250000D02*
X227318800Y-340250000D01*
X225118800Y-337750000D02*
X227318800Y-337750000D01*
X225868800Y-338000000D02*
X226158800Y-338000000D01*
X226158800Y-338000000D02*
X226158800Y-340000000D01*
X226158800Y-340000000D02*
X225868800Y-340000000D01*
X225868800Y-340000000D02*
X225868800Y-338000000D01*
G36*
X225868800Y-338000000D02*
G01*
X226158800Y-338000000D01*
X226158800Y-340000000D01*
X225868800Y-340000000D01*
X225868800Y-338000000D01*
G37*
D15*
X224778800Y-337750000D02*
G75*
G03*
X224778800Y-337750000I-80000J0D01*
G01*
D13*
%TO.C,K25*%
X51593750Y-368128550D02*
X51593750Y-369906550D01*
X38893750Y-369906550D02*
X38893750Y-368128550D01*
X40671750Y-369906550D02*
X38893750Y-369906550D01*
X38893750Y-357206550D02*
X40671750Y-357206550D01*
X51593750Y-369906550D02*
X49815750Y-369906550D01*
X51593750Y-357206550D02*
X51593750Y-358984550D01*
X38893750Y-358984550D02*
X38893750Y-357206550D01*
X49815750Y-357206550D02*
X51593750Y-357206550D01*
%TO.C,K7*%
X39687500Y-310978550D02*
X39687500Y-312756550D01*
X39687500Y-312756550D02*
X37909500Y-312756550D01*
X37909500Y-300056550D02*
X39687500Y-300056550D01*
X26987500Y-312756550D02*
X26987500Y-310978550D01*
X26987500Y-301834550D02*
X26987500Y-300056550D01*
X39687500Y-300056550D02*
X39687500Y-301834550D01*
X26987500Y-300056550D02*
X28765500Y-300056550D01*
X28765500Y-312756550D02*
X26987500Y-312756550D01*
D14*
%TO.C,LED63*%
X279706300Y-321250000D02*
X277506300Y-321250000D01*
X279706300Y-318750000D02*
X277506300Y-318750000D01*
X278956300Y-321000000D02*
X278666300Y-321000000D01*
X278666300Y-321000000D02*
X278666300Y-319000000D01*
X278666300Y-319000000D02*
X278956300Y-319000000D01*
X278956300Y-319000000D02*
X278956300Y-321000000D01*
G36*
X278956300Y-321000000D02*
G01*
X278666300Y-321000000D01*
X278666300Y-319000000D01*
X278956300Y-319000000D01*
X278956300Y-321000000D01*
G37*
D15*
X280206300Y-321250000D02*
G75*
G03*
X280206300Y-321250000I-80000J0D01*
G01*
D14*
%TO.C,LED82*%
X236843800Y-359250000D02*
X234643800Y-359250000D01*
X236843800Y-356750000D02*
X234643800Y-356750000D01*
X236093800Y-359000000D02*
X235803800Y-359000000D01*
X235803800Y-359000000D02*
X235803800Y-357000000D01*
X235803800Y-357000000D02*
X236093800Y-357000000D01*
X236093800Y-357000000D02*
X236093800Y-359000000D01*
G36*
X236093800Y-359000000D02*
G01*
X235803800Y-359000000D01*
X235803800Y-357000000D01*
X236093800Y-357000000D01*
X236093800Y-359000000D01*
G37*
D15*
X237343800Y-359250000D02*
G75*
G03*
X237343800Y-359250000I-80000J0D01*
G01*
D14*
%TO.C,LED35*%
X174931300Y-283250000D02*
X172731300Y-283250000D01*
X174931300Y-280750000D02*
X172731300Y-280750000D01*
X174181300Y-283000000D02*
X173891300Y-283000000D01*
X173891300Y-283000000D02*
X173891300Y-281000000D01*
X173891300Y-281000000D02*
X174181300Y-281000000D01*
X174181300Y-281000000D02*
X174181300Y-283000000D01*
G36*
X174181300Y-283000000D02*
G01*
X173891300Y-283000000D01*
X173891300Y-281000000D01*
X174181300Y-281000000D01*
X174181300Y-283000000D01*
G37*
D15*
X175431300Y-283250000D02*
G75*
G03*
X175431300Y-283250000I-80000J0D01*
G01*
D14*
%TO.C,LED66*%
X346381300Y-318750000D02*
X344181300Y-318750000D01*
X346381300Y-321250000D02*
X344181300Y-321250000D01*
X345631300Y-321000000D02*
X345341300Y-321000000D01*
X345341300Y-321000000D02*
X345341300Y-319000000D01*
X345341300Y-319000000D02*
X345631300Y-319000000D01*
X345631300Y-319000000D02*
X345631300Y-321000000D01*
G36*
X345631300Y-321000000D02*
G01*
X345341300Y-321000000D01*
X345341300Y-319000000D01*
X345631300Y-319000000D01*
X345631300Y-321000000D01*
G37*
D15*
X346881300Y-321250000D02*
G75*
G03*
X346881300Y-321250000I-80000J0D01*
G01*
D13*
%TO.C,K27*%
X101600000Y-369906550D02*
X99822000Y-369906550D01*
X101600000Y-368128550D02*
X101600000Y-369906550D01*
X88900000Y-357206550D02*
X90678000Y-357206550D01*
X90678000Y-369906550D02*
X88900000Y-369906550D01*
X88900000Y-369906550D02*
X88900000Y-368128550D01*
X99822000Y-357206550D02*
X101600000Y-357206550D01*
X101600000Y-357206550D02*
X101600000Y-358984550D01*
X88900000Y-358984550D02*
X88900000Y-357206550D01*
D14*
%TO.C,LED77*%
X363231300Y-337750000D02*
X365431300Y-337750000D01*
X363231300Y-340250000D02*
X365431300Y-340250000D01*
X363981300Y-338000000D02*
X364271300Y-338000000D01*
X364271300Y-338000000D02*
X364271300Y-340000000D01*
X364271300Y-340000000D02*
X363981300Y-340000000D01*
X363981300Y-340000000D02*
X363981300Y-338000000D01*
G36*
X363981300Y-338000000D02*
G01*
X364271300Y-338000000D01*
X364271300Y-340000000D01*
X363981300Y-340000000D01*
X363981300Y-338000000D01*
G37*
D15*
X362891300Y-337750000D02*
G75*
G03*
X362891300Y-337750000I-80000J0D01*
G01*
D14*
%TO.C,LED34*%
X125106250Y-375750000D02*
X127306250Y-375750000D01*
X125106250Y-378250000D02*
X127306250Y-378250000D01*
X125856250Y-376000000D02*
X126146250Y-376000000D01*
X126146250Y-376000000D02*
X126146250Y-378000000D01*
X126146250Y-378000000D02*
X125856250Y-378000000D01*
X125856250Y-378000000D02*
X125856250Y-376000000D01*
G36*
X125856250Y-376000000D02*
G01*
X126146250Y-376000000D01*
X126146250Y-378000000D01*
X125856250Y-378000000D01*
X125856250Y-376000000D01*
G37*
D15*
X124766250Y-375750000D02*
G75*
G03*
X124766250Y-375750000I-80000J0D01*
G01*
D13*
%TO.C,K61*%
X234156300Y-319087800D02*
X235934300Y-319087800D01*
X245078300Y-319087800D02*
X246856300Y-319087800D01*
X246856300Y-319087800D02*
X246856300Y-320865800D01*
X234156300Y-320865800D02*
X234156300Y-319087800D01*
X246856300Y-331787800D02*
X245078300Y-331787800D01*
X234156300Y-331787800D02*
X234156300Y-330009800D01*
X235934300Y-331787800D02*
X234156300Y-331787800D01*
X246856300Y-330009800D02*
X246856300Y-331787800D01*
D14*
%TO.C,LED50*%
X248900000Y-299750000D02*
X251100000Y-299750000D01*
X248900000Y-302250000D02*
X251100000Y-302250000D01*
X249650000Y-300000000D02*
X249940000Y-300000000D01*
X249940000Y-300000000D02*
X249940000Y-302000000D01*
X249940000Y-302000000D02*
X249650000Y-302000000D01*
X249650000Y-302000000D02*
X249650000Y-300000000D01*
G36*
X249650000Y-300000000D02*
G01*
X249940000Y-300000000D01*
X249940000Y-302000000D01*
X249650000Y-302000000D01*
X249650000Y-300000000D01*
G37*
D15*
X248560000Y-299750000D02*
G75*
G03*
X248560000Y-299750000I-80000J0D01*
G01*
D13*
%TO.C,K69*%
X194468800Y-350837800D02*
X192690800Y-350837800D01*
X181768800Y-350837800D02*
X181768800Y-349059800D01*
X192690800Y-338137800D02*
X194468800Y-338137800D01*
X183546800Y-350837800D02*
X181768800Y-350837800D01*
X181768800Y-339915800D02*
X181768800Y-338137800D01*
X194468800Y-338137800D02*
X194468800Y-339915800D01*
X194468800Y-349059800D02*
X194468800Y-350837800D01*
X181768800Y-338137800D02*
X183546800Y-338137800D01*
%TO.C,K67*%
X357981300Y-320865800D02*
X357981300Y-319087800D01*
X370681300Y-319087800D02*
X370681300Y-320865800D01*
X370681300Y-330009800D02*
X370681300Y-331787800D01*
X368903300Y-319087800D02*
X370681300Y-319087800D01*
X359759300Y-331787800D02*
X357981300Y-331787800D01*
X357981300Y-319087800D02*
X359759300Y-319087800D01*
X357981300Y-331787800D02*
X357981300Y-330009800D01*
X370681300Y-331787800D02*
X368903300Y-331787800D01*
D14*
%TO.C,LED55*%
X363231300Y-299750000D02*
X365431300Y-299750000D01*
X363231300Y-302250000D02*
X365431300Y-302250000D01*
X363981300Y-300000000D02*
X364271300Y-300000000D01*
X364271300Y-300000000D02*
X364271300Y-302000000D01*
X364271300Y-302000000D02*
X363981300Y-302000000D01*
X363981300Y-302000000D02*
X363981300Y-300000000D01*
G36*
X363981300Y-300000000D02*
G01*
X364271300Y-300000000D01*
X364271300Y-302000000D01*
X363981300Y-302000000D01*
X363981300Y-300000000D01*
G37*
D15*
X362891300Y-299750000D02*
G75*
G03*
X362891300Y-299750000I-80000J0D01*
G01*
D14*
%TO.C,LED91*%
X253693800Y-375750000D02*
X255893800Y-375750000D01*
X253693800Y-378250000D02*
X255893800Y-378250000D01*
X254443800Y-376000000D02*
X254733800Y-376000000D01*
X254733800Y-376000000D02*
X254733800Y-378000000D01*
X254733800Y-378000000D02*
X254443800Y-378000000D01*
X254443800Y-378000000D02*
X254443800Y-376000000D01*
G36*
X254443800Y-376000000D02*
G01*
X254733800Y-376000000D01*
X254733800Y-378000000D01*
X254443800Y-378000000D01*
X254443800Y-376000000D01*
G37*
D15*
X253353800Y-375750000D02*
G75*
G03*
X253353800Y-375750000I-80000J0D01*
G01*
D13*
%TO.C,K26*%
X71628000Y-369906550D02*
X69850000Y-369906550D01*
X82550000Y-357206550D02*
X82550000Y-358984550D01*
X69850000Y-369906550D02*
X69850000Y-368128550D01*
X69850000Y-358984550D02*
X69850000Y-357206550D01*
X82550000Y-368128550D02*
X82550000Y-369906550D01*
X82550000Y-369906550D02*
X80772000Y-369906550D01*
X69850000Y-357206550D02*
X71628000Y-357206550D01*
X80772000Y-357206550D02*
X82550000Y-357206550D01*
%TO.C,K63*%
X272256300Y-320865800D02*
X272256300Y-319087800D01*
X274034300Y-331787800D02*
X272256300Y-331787800D01*
X284956300Y-330009800D02*
X284956300Y-331787800D01*
X284956300Y-319087800D02*
X284956300Y-320865800D01*
X272256300Y-331787800D02*
X272256300Y-330009800D01*
X284956300Y-331787800D02*
X283178300Y-331787800D01*
X283178300Y-319087800D02*
X284956300Y-319087800D01*
X272256300Y-319087800D02*
X274034300Y-319087800D01*
D14*
%TO.C,LED57*%
X401331300Y-302250000D02*
X403531300Y-302250000D01*
X401331300Y-299750000D02*
X403531300Y-299750000D01*
X402081300Y-300000000D02*
X402371300Y-300000000D01*
X402371300Y-300000000D02*
X402371300Y-302000000D01*
X402371300Y-302000000D02*
X402081300Y-302000000D01*
X402081300Y-302000000D02*
X402081300Y-300000000D01*
G36*
X402081300Y-300000000D02*
G01*
X402371300Y-300000000D01*
X402371300Y-302000000D01*
X402081300Y-302000000D01*
X402081300Y-300000000D01*
G37*
D15*
X400991300Y-299750000D02*
G75*
G03*
X400991300Y-299750000I-80000J0D01*
G01*
D14*
%TO.C,LED28*%
X113200000Y-356750000D02*
X115400000Y-356750000D01*
X113200000Y-359250000D02*
X115400000Y-359250000D01*
X113950000Y-357000000D02*
X114240000Y-357000000D01*
X114240000Y-357000000D02*
X114240000Y-359000000D01*
X114240000Y-359000000D02*
X113950000Y-359000000D01*
X113950000Y-359000000D02*
X113950000Y-357000000D01*
G36*
X113950000Y-357000000D02*
G01*
X114240000Y-357000000D01*
X114240000Y-359000000D01*
X113950000Y-359000000D01*
X113950000Y-357000000D01*
G37*
D15*
X112860000Y-356750000D02*
G75*
G03*
X112860000Y-356750000I-80000J0D01*
G01*
D13*
%TO.C,K83*%
X248443800Y-357187800D02*
X250221800Y-357187800D01*
X261143800Y-368109800D02*
X261143800Y-369887800D01*
X259365800Y-357187800D02*
X261143800Y-357187800D01*
X261143800Y-357187800D02*
X261143800Y-358965800D01*
X248443800Y-369887800D02*
X248443800Y-368109800D01*
X261143800Y-369887800D02*
X259365800Y-369887800D01*
X250221800Y-369887800D02*
X248443800Y-369887800D01*
X248443800Y-358965800D02*
X248443800Y-357187800D01*
D14*
%TO.C,LED61*%
X241606300Y-318750000D02*
X239406300Y-318750000D01*
X241606300Y-321250000D02*
X239406300Y-321250000D01*
X240856300Y-321000000D02*
X240566300Y-321000000D01*
X240566300Y-321000000D02*
X240566300Y-319000000D01*
X240566300Y-319000000D02*
X240856300Y-319000000D01*
X240856300Y-319000000D02*
X240856300Y-321000000D01*
G36*
X240856300Y-321000000D02*
G01*
X240566300Y-321000000D01*
X240566300Y-319000000D01*
X240856300Y-319000000D01*
X240856300Y-321000000D01*
G37*
D15*
X242106300Y-321250000D02*
G75*
G03*
X242106300Y-321250000I-80000J0D01*
G01*
D14*
%TO.C,LED84*%
X274943800Y-359250000D02*
X272743800Y-359250000D01*
X274943800Y-356750000D02*
X272743800Y-356750000D01*
X274193800Y-359000000D02*
X273903800Y-359000000D01*
X273903800Y-359000000D02*
X273903800Y-357000000D01*
X273903800Y-357000000D02*
X274193800Y-357000000D01*
X274193800Y-357000000D02*
X274193800Y-359000000D01*
G36*
X274193800Y-359000000D02*
G01*
X273903800Y-359000000D01*
X273903800Y-357000000D01*
X274193800Y-357000000D01*
X274193800Y-359000000D01*
G37*
D15*
X275443800Y-359250000D02*
G75*
G03*
X275443800Y-359250000I-80000J0D01*
G01*
D13*
%TO.C,K32*%
X64103250Y-376256550D02*
X65881250Y-376256550D01*
X54959250Y-388956550D02*
X53181250Y-388956550D01*
X65881250Y-387178550D02*
X65881250Y-388956550D01*
X53181250Y-378034550D02*
X53181250Y-376256550D01*
X65881250Y-376256550D02*
X65881250Y-378034550D01*
X53181250Y-388956550D02*
X53181250Y-387178550D01*
X65881250Y-388956550D02*
X64103250Y-388956550D01*
X53181250Y-376256550D02*
X54959250Y-376256550D01*
%TO.C,K90*%
X204978050Y-388937800D02*
X203200050Y-388937800D01*
X215900050Y-376237800D02*
X215900050Y-378015800D01*
X215900050Y-388937800D02*
X214122050Y-388937800D01*
X215900050Y-387159800D02*
X215900050Y-388937800D01*
X203200050Y-378015800D02*
X203200050Y-376237800D01*
X203200050Y-388937800D02*
X203200050Y-387159800D01*
X203200050Y-376237800D02*
X204978050Y-376237800D01*
X214122050Y-376237800D02*
X215900050Y-376237800D01*
D14*
%TO.C,LED75*%
X313225050Y-340250000D02*
X315425050Y-340250000D01*
X313225050Y-337750000D02*
X315425050Y-337750000D01*
X313975050Y-338000000D02*
X314265050Y-338000000D01*
X314265050Y-338000000D02*
X314265050Y-340000000D01*
X314265050Y-340000000D02*
X313975050Y-340000000D01*
X313975050Y-340000000D02*
X313975050Y-338000000D01*
G36*
X313975050Y-338000000D02*
G01*
X314265050Y-338000000D01*
X314265050Y-340000000D01*
X313975050Y-340000000D01*
X313975050Y-338000000D01*
G37*
D15*
X312885050Y-337750000D02*
G75*
G03*
X312885050Y-337750000I-80000J0D01*
G01*
D14*
%TO.C,LED21*%
X84625000Y-340250000D02*
X86825000Y-340250000D01*
X84625000Y-337750000D02*
X86825000Y-337750000D01*
X85375000Y-338000000D02*
X85665000Y-338000000D01*
X85665000Y-338000000D02*
X85665000Y-340000000D01*
X85665000Y-340000000D02*
X85375000Y-340000000D01*
X85375000Y-340000000D02*
X85375000Y-338000000D01*
G36*
X85375000Y-338000000D02*
G01*
X85665000Y-338000000D01*
X85665000Y-340000000D01*
X85375000Y-340000000D01*
X85375000Y-338000000D01*
G37*
D15*
X84285000Y-337750000D02*
G75*
G03*
X84285000Y-337750000I-80000J0D01*
G01*
D14*
%TO.C,LED68*%
X384481300Y-321250000D02*
X382281300Y-321250000D01*
X384481300Y-318750000D02*
X382281300Y-318750000D01*
X383731300Y-321000000D02*
X383441300Y-321000000D01*
X383441300Y-321000000D02*
X383441300Y-319000000D01*
X383441300Y-319000000D02*
X383731300Y-319000000D01*
X383731300Y-319000000D02*
X383731300Y-321000000D01*
G36*
X383731300Y-321000000D02*
G01*
X383441300Y-321000000D01*
X383441300Y-319000000D01*
X383731300Y-319000000D01*
X383731300Y-321000000D01*
G37*
D15*
X384981300Y-321250000D02*
G75*
G03*
X384981300Y-321250000I-80000J0D01*
G01*
D14*
%TO.C,LED2*%
X51287500Y-280750000D02*
X53487500Y-280750000D01*
X51287500Y-283250000D02*
X53487500Y-283250000D01*
X52037500Y-281000000D02*
X52327500Y-281000000D01*
X52327500Y-281000000D02*
X52327500Y-283000000D01*
X52327500Y-283000000D02*
X52037500Y-283000000D01*
X52037500Y-283000000D02*
X52037500Y-281000000D01*
G36*
X52037500Y-281000000D02*
G01*
X52327500Y-281000000D01*
X52327500Y-283000000D01*
X52037500Y-283000000D01*
X52037500Y-281000000D01*
G37*
D15*
X50947500Y-280750000D02*
G75*
G03*
X50947500Y-280750000I-80000J0D01*
G01*
D14*
%TO.C,LED78*%
X382281300Y-337750000D02*
X384481300Y-337750000D01*
X382281300Y-340250000D02*
X384481300Y-340250000D01*
X383031300Y-338000000D02*
X383321300Y-338000000D01*
X383321300Y-338000000D02*
X383321300Y-340000000D01*
X383321300Y-340000000D02*
X383031300Y-340000000D01*
X383031300Y-340000000D02*
X383031300Y-338000000D01*
G36*
X383031300Y-338000000D02*
G01*
X383321300Y-338000000D01*
X383321300Y-340000000D01*
X383031300Y-340000000D01*
X383031300Y-338000000D01*
G37*
D15*
X381941300Y-337750000D02*
G75*
G03*
X381941300Y-337750000I-80000J0D01*
G01*
D13*
%TO.C,K48*%
X218281300Y-310959800D02*
X218281300Y-312737800D01*
X205581300Y-300037800D02*
X207359300Y-300037800D01*
X205581300Y-312737800D02*
X205581300Y-310959800D01*
X207359300Y-312737800D02*
X205581300Y-312737800D01*
X218281300Y-312737800D02*
X216503300Y-312737800D01*
X218281300Y-300037800D02*
X218281300Y-301815800D01*
X216503300Y-300037800D02*
X218281300Y-300037800D01*
X205581300Y-301815800D02*
X205581300Y-300037800D01*
D14*
%TO.C,LED56*%
X382281300Y-299750000D02*
X384481300Y-299750000D01*
X382281300Y-302250000D02*
X384481300Y-302250000D01*
X383031300Y-300000000D02*
X383321300Y-300000000D01*
X383321300Y-300000000D02*
X383321300Y-302000000D01*
X383321300Y-302000000D02*
X383031300Y-302000000D01*
X383031300Y-302000000D02*
X383031300Y-300000000D01*
G36*
X383031300Y-300000000D02*
G01*
X383321300Y-300000000D01*
X383321300Y-302000000D01*
X383031300Y-302000000D01*
X383031300Y-300000000D01*
G37*
D15*
X381941300Y-299750000D02*
G75*
G03*
X381941300Y-299750000I-80000J0D01*
G01*
D13*
%TO.C,K52*%
X294481300Y-300037800D02*
X294481300Y-301815800D01*
X281781300Y-301815800D02*
X281781300Y-300037800D01*
X281781300Y-300037800D02*
X283559300Y-300037800D01*
X292703300Y-300037800D02*
X294481300Y-300037800D01*
X281781300Y-312737800D02*
X281781300Y-310959800D01*
X294481300Y-310959800D02*
X294481300Y-312737800D01*
X294481300Y-312737800D02*
X292703300Y-312737800D01*
X283559300Y-312737800D02*
X281781300Y-312737800D01*
%TO.C,K97*%
X389731300Y-388937800D02*
X387953300Y-388937800D01*
X377031300Y-388937800D02*
X377031300Y-387159800D01*
X389731300Y-387159800D02*
X389731300Y-388937800D01*
X377031300Y-376237800D02*
X378809300Y-376237800D01*
X378809300Y-388937800D02*
X377031300Y-388937800D01*
X377031300Y-378015800D02*
X377031300Y-376237800D01*
X389731300Y-376237800D02*
X389731300Y-378015800D01*
X387953300Y-376237800D02*
X389731300Y-376237800D01*
%TO.C,K89*%
X389731300Y-369887800D02*
X387953300Y-369887800D01*
X389731300Y-368109800D02*
X389731300Y-369887800D01*
X378809300Y-369887800D02*
X377031300Y-369887800D01*
X377031300Y-357187800D02*
X378809300Y-357187800D01*
X389731300Y-357187800D02*
X389731300Y-358965800D01*
X377031300Y-369887800D02*
X377031300Y-368109800D01*
X387953300Y-357187800D02*
X389731300Y-357187800D01*
X377031300Y-358965800D02*
X377031300Y-357187800D01*
%TO.C,K68*%
X377031300Y-319087800D02*
X378809300Y-319087800D01*
X377031300Y-331787800D02*
X377031300Y-330009800D01*
X389731300Y-330009800D02*
X389731300Y-331787800D01*
X389731300Y-331787800D02*
X387953300Y-331787800D01*
X389731300Y-319087800D02*
X389731300Y-320865800D01*
X377031300Y-320865800D02*
X377031300Y-319087800D01*
X387953300Y-319087800D02*
X389731300Y-319087800D01*
X378809300Y-331787800D02*
X377031300Y-331787800D01*
D14*
%TO.C,LED39*%
X251100000Y-283250000D02*
X248900000Y-283250000D01*
X251100000Y-280750000D02*
X248900000Y-280750000D01*
X250350000Y-283000000D02*
X250060000Y-283000000D01*
X250060000Y-283000000D02*
X250060000Y-281000000D01*
X250060000Y-281000000D02*
X250350000Y-281000000D01*
X250350000Y-281000000D02*
X250350000Y-283000000D01*
G36*
X250350000Y-283000000D02*
G01*
X250060000Y-283000000D01*
X250060000Y-281000000D01*
X250350000Y-281000000D01*
X250350000Y-283000000D01*
G37*
D15*
X251600000Y-283250000D02*
G75*
G03*
X251600000Y-283250000I-80000J0D01*
G01*
D14*
%TO.C,LED48*%
X210831300Y-302250000D02*
X213031300Y-302250000D01*
X210831300Y-299750000D02*
X213031300Y-299750000D01*
X211581300Y-300000000D02*
X211871300Y-300000000D01*
X211871300Y-300000000D02*
X211871300Y-302000000D01*
X211871300Y-302000000D02*
X211581300Y-302000000D01*
X211581300Y-302000000D02*
X211581300Y-300000000D01*
G36*
X211581300Y-300000000D02*
G01*
X211871300Y-300000000D01*
X211871300Y-302000000D01*
X211581300Y-302000000D01*
X211581300Y-300000000D01*
G37*
D15*
X210491300Y-299750000D02*
G75*
G03*
X210491300Y-299750000I-80000J0D01*
G01*
D14*
%TO.C,LED17*%
X117900000Y-321250000D02*
X120100000Y-321250000D01*
X117900000Y-318750000D02*
X120100000Y-318750000D01*
X118650000Y-319000000D02*
X118940000Y-319000000D01*
X118940000Y-319000000D02*
X118940000Y-321000000D01*
X118940000Y-321000000D02*
X118650000Y-321000000D01*
X118650000Y-321000000D02*
X118650000Y-319000000D01*
G36*
X118650000Y-319000000D02*
G01*
X118940000Y-319000000D01*
X118940000Y-321000000D01*
X118650000Y-321000000D01*
X118650000Y-319000000D01*
G37*
D15*
X117560000Y-318750000D02*
G75*
G03*
X117560000Y-318750000I-80000J0D01*
G01*
D13*
%TO.C,K91*%
X261143800Y-388937800D02*
X259365800Y-388937800D01*
X248443800Y-378015800D02*
X248443800Y-376237800D01*
X248443800Y-376237800D02*
X250221800Y-376237800D01*
X261143800Y-376237800D02*
X261143800Y-378015800D01*
X248443800Y-388937800D02*
X248443800Y-387159800D01*
X261143800Y-387159800D02*
X261143800Y-388937800D01*
X250221800Y-388937800D02*
X248443800Y-388937800D01*
X259365800Y-376237800D02*
X261143800Y-376237800D01*
%TO.C,K11*%
X103187500Y-312756550D02*
X103187500Y-310978550D01*
X115887500Y-310978550D02*
X115887500Y-312756550D01*
X115887500Y-312756550D02*
X114109500Y-312756550D01*
X103187500Y-301834550D02*
X103187500Y-300056550D01*
X114109500Y-300056550D02*
X115887500Y-300056550D01*
X103187500Y-300056550D02*
X104965500Y-300056550D01*
X104965500Y-312756550D02*
X103187500Y-312756550D01*
X115887500Y-300056550D02*
X115887500Y-301834550D01*
%TO.C,K31*%
X42068750Y-376256550D02*
X42068750Y-378034550D01*
X29368750Y-388956550D02*
X29368750Y-387178550D01*
X29368750Y-378034550D02*
X29368750Y-376256550D01*
X31146750Y-388956550D02*
X29368750Y-388956550D01*
X42068750Y-388956550D02*
X40290750Y-388956550D01*
X40290750Y-376256550D02*
X42068750Y-376256550D01*
X29368750Y-376256550D02*
X31146750Y-376256550D01*
X42068750Y-387178550D02*
X42068750Y-388956550D01*
D14*
%TO.C,LED59*%
X203506300Y-318750000D02*
X201306300Y-318750000D01*
X203506300Y-321250000D02*
X201306300Y-321250000D01*
X202756300Y-321000000D02*
X202466300Y-321000000D01*
X202466300Y-321000000D02*
X202466300Y-319000000D01*
X202466300Y-319000000D02*
X202756300Y-319000000D01*
X202756300Y-319000000D02*
X202756300Y-321000000D01*
G36*
X202756300Y-321000000D02*
G01*
X202466300Y-321000000D01*
X202466300Y-319000000D01*
X202756300Y-319000000D01*
X202756300Y-321000000D01*
G37*
D15*
X204006300Y-321250000D02*
G75*
G03*
X204006300Y-321250000I-80000J0D01*
G01*
D14*
%TO.C,LED30*%
X151300000Y-356750000D02*
X153500000Y-356750000D01*
X151300000Y-359250000D02*
X153500000Y-359250000D01*
X152050000Y-357000000D02*
X152340000Y-357000000D01*
X152340000Y-357000000D02*
X152340000Y-359000000D01*
X152340000Y-359000000D02*
X152050000Y-359000000D01*
X152050000Y-359000000D02*
X152050000Y-357000000D01*
G36*
X152050000Y-357000000D02*
G01*
X152340000Y-357000000D01*
X152340000Y-359000000D01*
X152050000Y-359000000D01*
X152050000Y-357000000D01*
G37*
D15*
X150960000Y-356750000D02*
G75*
G03*
X150960000Y-356750000I-80000J0D01*
G01*
D14*
%TO.C,LED89*%
X384481300Y-356750000D02*
X382281300Y-356750000D01*
X384481300Y-359250000D02*
X382281300Y-359250000D01*
X383731300Y-359000000D02*
X383441300Y-359000000D01*
X383441300Y-359000000D02*
X383441300Y-357000000D01*
X383441300Y-357000000D02*
X383731300Y-357000000D01*
X383731300Y-357000000D02*
X383731300Y-359000000D01*
G36*
X383731300Y-359000000D02*
G01*
X383441300Y-359000000D01*
X383441300Y-357000000D01*
X383731300Y-357000000D01*
X383731300Y-359000000D01*
G37*
D15*
X384981300Y-359250000D02*
G75*
G03*
X384981300Y-359250000I-80000J0D01*
G01*
D14*
%TO.C,LED18*%
X137012500Y-318750000D02*
X139212500Y-318750000D01*
X137012500Y-321250000D02*
X139212500Y-321250000D01*
X137762500Y-319000000D02*
X138052500Y-319000000D01*
X138052500Y-319000000D02*
X138052500Y-321000000D01*
X138052500Y-321000000D02*
X137762500Y-321000000D01*
X137762500Y-321000000D02*
X137762500Y-319000000D01*
G36*
X137762500Y-319000000D02*
G01*
X138052500Y-319000000D01*
X138052500Y-321000000D01*
X137762500Y-321000000D01*
X137762500Y-319000000D01*
G37*
D15*
X136672500Y-318750000D02*
G75*
G03*
X136672500Y-318750000I-80000J0D01*
G01*
D14*
%TO.C,LED95*%
X344181300Y-375750000D02*
X346381300Y-375750000D01*
X344181300Y-378250000D02*
X346381300Y-378250000D01*
X344931300Y-376000000D02*
X345221300Y-376000000D01*
X345221300Y-376000000D02*
X345221300Y-378000000D01*
X345221300Y-378000000D02*
X344931300Y-378000000D01*
X344931300Y-378000000D02*
X344931300Y-376000000D01*
G36*
X344931300Y-376000000D02*
G01*
X345221300Y-376000000D01*
X345221300Y-378000000D01*
X344931300Y-378000000D01*
X344931300Y-376000000D01*
G37*
D15*
X343841300Y-375750000D02*
G75*
G03*
X343841300Y-375750000I-80000J0D01*
G01*
D14*
%TO.C,LED5*%
X108437500Y-283250000D02*
X110637500Y-283250000D01*
X108437500Y-280750000D02*
X110637500Y-280750000D01*
X109187500Y-281000000D02*
X109477500Y-281000000D01*
X109477500Y-281000000D02*
X109477500Y-283000000D01*
X109477500Y-283000000D02*
X109187500Y-283000000D01*
X109187500Y-283000000D02*
X109187500Y-281000000D01*
G36*
X109187500Y-281000000D02*
G01*
X109477500Y-281000000D01*
X109477500Y-283000000D01*
X109187500Y-283000000D01*
X109187500Y-281000000D01*
G37*
D15*
X108097500Y-280750000D02*
G75*
G03*
X108097500Y-280750000I-80000J0D01*
G01*
%TO.C,G\u002A\u002A\u002A*%
G36*
X309181997Y-285630063D02*
G01*
X309208204Y-285478012D01*
X309237192Y-285310404D01*
X309268794Y-285128204D01*
X309302842Y-284932378D01*
X309339169Y-284723891D01*
X309377608Y-284503706D01*
X309417991Y-284272791D01*
X309460151Y-284032108D01*
X309503920Y-283782625D01*
X309549131Y-283525305D01*
X309595617Y-283261113D01*
X309643210Y-282991015D01*
X309650534Y-282949481D01*
X309711391Y-282604603D01*
X309768306Y-282282452D01*
X309821380Y-281982462D01*
X309870717Y-281704070D01*
X309916417Y-281446710D01*
X309958585Y-281209820D01*
X309997321Y-280992835D01*
X310032729Y-280795189D01*
X310064910Y-280616320D01*
X310093968Y-280455663D01*
X310120003Y-280312654D01*
X310143120Y-280186727D01*
X310163419Y-280077320D01*
X310181003Y-279983868D01*
X310195975Y-279905806D01*
X310208437Y-279842570D01*
X310218491Y-279793596D01*
X310226239Y-279758320D01*
X310231785Y-279736177D01*
X310234821Y-279727304D01*
X310285085Y-279652235D01*
X310349333Y-279593975D01*
X310424504Y-279554479D01*
X310507533Y-279535704D01*
X310536782Y-279534388D01*
X310562210Y-279536427D01*
X310608406Y-279542282D01*
X310672875Y-279551559D01*
X310753125Y-279563865D01*
X310846661Y-279578807D01*
X310950989Y-279595990D01*
X311063616Y-279615022D01*
X311182048Y-279635509D01*
X311220835Y-279642320D01*
X311337953Y-279662859D01*
X311447901Y-279681940D01*
X311548511Y-279699202D01*
X311637612Y-279714281D01*
X311713035Y-279726816D01*
X311772611Y-279736442D01*
X311814168Y-279742798D01*
X311835539Y-279745520D01*
X311837975Y-279745491D01*
X311840787Y-279733504D01*
X311847798Y-279699738D01*
X311858724Y-279645625D01*
X311873286Y-279572597D01*
X311891201Y-279482086D01*
X311912189Y-279375523D01*
X311935969Y-279254342D01*
X311962259Y-279119973D01*
X311990779Y-278973849D01*
X312021247Y-278817401D01*
X312053382Y-278652062D01*
X312086903Y-278479263D01*
X312109671Y-278361713D01*
X312144537Y-278182134D01*
X312178675Y-278007347D01*
X312211764Y-277838950D01*
X312243481Y-277678538D01*
X312273505Y-277527708D01*
X312301512Y-277388057D01*
X312327180Y-277261180D01*
X312350187Y-277148676D01*
X312370211Y-277052139D01*
X312386930Y-276973167D01*
X312400021Y-276913356D01*
X312409162Y-276874302D01*
X312412344Y-276862399D01*
X312494638Y-276625379D01*
X312596571Y-276400186D01*
X312716972Y-276187664D01*
X312854675Y-275988658D01*
X313008512Y-275804012D01*
X313177314Y-275634571D01*
X313359913Y-275481177D01*
X313555142Y-275344677D01*
X313761831Y-275225913D01*
X313978814Y-275125731D01*
X314204922Y-275044975D01*
X314438986Y-274984488D01*
X314679840Y-274945116D01*
X314926315Y-274927701D01*
X315087874Y-274928519D01*
X315317955Y-274944635D01*
X315534797Y-274977204D01*
X315743209Y-275027409D01*
X315947996Y-275096430D01*
X316153966Y-275185450D01*
X316176035Y-275196092D01*
X316397418Y-275316795D01*
X316604849Y-275456119D01*
X316797380Y-275612947D01*
X316974064Y-275786159D01*
X317133952Y-275974638D01*
X317276097Y-276177264D01*
X317399552Y-276392919D01*
X317503368Y-276620484D01*
X317586597Y-276858840D01*
X317587540Y-276862007D01*
X317594427Y-276889229D01*
X317605438Y-276938071D01*
X317620250Y-277006936D01*
X317638542Y-277094227D01*
X317659990Y-277198346D01*
X317684273Y-277317697D01*
X317711067Y-277450682D01*
X317740050Y-277595705D01*
X317770901Y-277751167D01*
X317803295Y-277915474D01*
X317836912Y-278087026D01*
X317871428Y-278264227D01*
X317890329Y-278361713D01*
X317924613Y-278538658D01*
X317957699Y-278709092D01*
X317989307Y-278871582D01*
X318019154Y-279024697D01*
X318046959Y-279167005D01*
X318072442Y-279297072D01*
X318095320Y-279413467D01*
X318115313Y-279514758D01*
X318132139Y-279599513D01*
X318145516Y-279666299D01*
X318155164Y-279713684D01*
X318160801Y-279740237D01*
X318162188Y-279745654D01*
X318174426Y-279744602D01*
X318207767Y-279739760D01*
X318260040Y-279731491D01*
X318329078Y-279720155D01*
X318412710Y-279706116D01*
X318508767Y-279689736D01*
X318615081Y-279671376D01*
X318729482Y-279651400D01*
X318780167Y-279642483D01*
X318899962Y-279621596D01*
X319014722Y-279602038D01*
X319121960Y-279584202D01*
X319219188Y-279568481D01*
X319303919Y-279555268D01*
X319373664Y-279544956D01*
X319425936Y-279537939D01*
X319458247Y-279534611D01*
X319464058Y-279534388D01*
X319548490Y-279545747D01*
X319626364Y-279578473D01*
X319694514Y-279630537D01*
X319749775Y-279699911D01*
X319765179Y-279727304D01*
X319768949Y-279738826D01*
X319774836Y-279763007D01*
X319782942Y-279800411D01*
X319793370Y-279851601D01*
X319806222Y-279917142D01*
X319821600Y-279997599D01*
X319839606Y-280093536D01*
X319860344Y-280205517D01*
X319883915Y-280334105D01*
X319910421Y-280479867D01*
X319939965Y-280643365D01*
X319972650Y-280825164D01*
X320008577Y-281025828D01*
X320047849Y-281245922D01*
X320090568Y-281486010D01*
X320136836Y-281746656D01*
X320186757Y-282028425D01*
X320240431Y-282331879D01*
X320297962Y-282657585D01*
X320349466Y-282949481D01*
X320397212Y-283220392D01*
X320443877Y-283485544D01*
X320489293Y-283743972D01*
X320533292Y-283994709D01*
X320575707Y-284236793D01*
X320616371Y-284469256D01*
X320655117Y-284691134D01*
X320691776Y-284901463D01*
X320726182Y-285099277D01*
X320758166Y-285283611D01*
X320787563Y-285453500D01*
X320814204Y-285607979D01*
X320837921Y-285746084D01*
X320858548Y-285866848D01*
X320875917Y-285969307D01*
X320889860Y-286052496D01*
X320900211Y-286115450D01*
X320906801Y-286157204D01*
X320909464Y-286176792D01*
X320909514Y-286177769D01*
X320900092Y-286257475D01*
X320870213Y-286330300D01*
X320818442Y-286399464D01*
X320804109Y-286414371D01*
X320751119Y-286461259D01*
X320701958Y-286490717D01*
X320679129Y-286499490D01*
X320659424Y-286504149D01*
X320618204Y-286512505D01*
X320557121Y-286524269D01*
X320477828Y-286539149D01*
X320381978Y-286556856D01*
X320271223Y-286577097D01*
X320147216Y-286599583D01*
X320011608Y-286624022D01*
X319866053Y-286650124D01*
X319712204Y-286677597D01*
X319551712Y-286706152D01*
X319386231Y-286735496D01*
X319217413Y-286765340D01*
X319046910Y-286795393D01*
X318876375Y-286825363D01*
X318707461Y-286854961D01*
X318541819Y-286883894D01*
X318381104Y-286911873D01*
X318226966Y-286938607D01*
X318081059Y-286963804D01*
X317945036Y-286987174D01*
X317820548Y-287008426D01*
X317709249Y-287027269D01*
X317612790Y-287043413D01*
X317532825Y-287056567D01*
X317471006Y-287066439D01*
X317428986Y-287072740D01*
X317408416Y-287075178D01*
X317407615Y-287075198D01*
X317363396Y-287071052D01*
X317315060Y-287060687D01*
X317301057Y-287056381D01*
X317249989Y-287030977D01*
X317195869Y-286991249D01*
X317146422Y-286943916D01*
X317109368Y-286895697D01*
X317102723Y-286883854D01*
X317096709Y-286866124D01*
X317087895Y-286830777D01*
X317076169Y-286777222D01*
X317061419Y-286704869D01*
X317043533Y-286613128D01*
X317022399Y-286501409D01*
X316997904Y-286369121D01*
X316969937Y-286215674D01*
X316938384Y-286040479D01*
X316903135Y-285842943D01*
X316877885Y-285700579D01*
X316843135Y-285504145D01*
X316812338Y-285329572D01*
X316785318Y-285175447D01*
X316761900Y-285040356D01*
X316741910Y-284922882D01*
X316725173Y-284821614D01*
X316711514Y-284735136D01*
X316700758Y-284662033D01*
X316692730Y-284600893D01*
X316687255Y-284550300D01*
X316684159Y-284508840D01*
X316683267Y-284475099D01*
X316684403Y-284447663D01*
X316687393Y-284425117D01*
X316692063Y-284406048D01*
X316698236Y-284389041D01*
X316705739Y-284372681D01*
X316712129Y-284359993D01*
X316755415Y-284293195D01*
X316811373Y-284240170D01*
X316883196Y-284198635D01*
X316974076Y-284166307D01*
X316988477Y-284162392D01*
X317097002Y-284121884D01*
X317195574Y-284061123D01*
X317281912Y-283982214D01*
X317353739Y-283887262D01*
X317408777Y-283778373D01*
X317411411Y-283771662D01*
X317429125Y-283706124D01*
X317439035Y-283626862D01*
X317440980Y-283542521D01*
X317434801Y-283461745D01*
X317420339Y-283393179D01*
X317418499Y-283387529D01*
X317368885Y-283275260D01*
X317301411Y-283176966D01*
X317217671Y-283094551D01*
X317119262Y-283029923D01*
X317119038Y-283029806D01*
X317063198Y-283002285D01*
X317013714Y-282982809D01*
X316964391Y-282970137D01*
X316909029Y-282963028D01*
X316841432Y-282960242D01*
X316772003Y-282960317D01*
X316707107Y-282960868D01*
X316660390Y-282960222D01*
X316626399Y-282957573D01*
X316599677Y-282952113D01*
X316574769Y-282943037D01*
X316546219Y-282929538D01*
X316538799Y-282925839D01*
X316466206Y-282878999D01*
X316408106Y-282819812D01*
X316368731Y-282752707D01*
X316365543Y-282744545D01*
X316360730Y-282725422D01*
X316352296Y-282684983D01*
X316340592Y-282625214D01*
X316325967Y-282548101D01*
X316308769Y-282455631D01*
X316289350Y-282349790D01*
X316268057Y-282232566D01*
X316245240Y-282105943D01*
X316221249Y-281971910D01*
X316196434Y-281832452D01*
X316171143Y-281689556D01*
X316145726Y-281545208D01*
X316120532Y-281401396D01*
X316095911Y-281260105D01*
X316072213Y-281123323D01*
X316049786Y-280993034D01*
X316028980Y-280871227D01*
X316010145Y-280759888D01*
X316003683Y-280721201D01*
X316717810Y-280721201D01*
X316719504Y-280732600D01*
X316724883Y-280764899D01*
X316733533Y-280815714D01*
X316745035Y-280882665D01*
X316758976Y-280963371D01*
X316774938Y-281055449D01*
X316792505Y-281156518D01*
X316811261Y-281264196D01*
X316830790Y-281376103D01*
X316850677Y-281489856D01*
X316870504Y-281603074D01*
X316889857Y-281713376D01*
X316908318Y-281818379D01*
X316925472Y-281915703D01*
X316940902Y-282002966D01*
X316954194Y-282077786D01*
X316964929Y-282137781D01*
X316972693Y-282180571D01*
X316974331Y-282189430D01*
X316987824Y-282261922D01*
X317045995Y-282269639D01*
X317124710Y-282284885D01*
X317214790Y-282310159D01*
X317307724Y-282342701D01*
X317394995Y-282379750D01*
X317414282Y-282389070D01*
X317566864Y-282477758D01*
X317704385Y-282584193D01*
X317825815Y-282707099D01*
X317930122Y-282845196D01*
X318016277Y-282997209D01*
X318083250Y-283161860D01*
X318110036Y-283251606D01*
X318120280Y-283292969D01*
X318127678Y-283330815D01*
X318132659Y-283370259D01*
X318135651Y-283416414D01*
X318137085Y-283474396D01*
X318137389Y-283549318D01*
X318137321Y-283576641D01*
X318136650Y-283659512D01*
X318135004Y-283723607D01*
X318131975Y-283773779D01*
X318127157Y-283814884D01*
X318120143Y-283851775D01*
X318111368Y-283886287D01*
X318060617Y-284041843D01*
X317997912Y-284182268D01*
X317921293Y-284310072D01*
X317828798Y-284427766D01*
X317718464Y-284537858D01*
X317588330Y-284642861D01*
X317443507Y-284740856D01*
X317440068Y-284745069D01*
X317438002Y-284753722D01*
X317437556Y-284768456D01*
X317438975Y-284790911D01*
X317442504Y-284822728D01*
X317448389Y-284865548D01*
X317456876Y-284921012D01*
X317468211Y-284990761D01*
X317482638Y-285076434D01*
X317500403Y-285179674D01*
X317521752Y-285302120D01*
X317546931Y-285445414D01*
X317560247Y-285520940D01*
X317583553Y-285652818D01*
X317605740Y-285777975D01*
X317626455Y-285894446D01*
X317645346Y-286000263D01*
X317662058Y-286093459D01*
X317676239Y-286172066D01*
X317687535Y-286234117D01*
X317695594Y-286277645D01*
X317700062Y-286300683D01*
X317700782Y-286303773D01*
X317715374Y-286312980D01*
X317744618Y-286310502D01*
X317761486Y-286307390D01*
X317800019Y-286300464D01*
X317858603Y-286290009D01*
X317935622Y-286276312D01*
X318029462Y-286259658D01*
X318138506Y-286240334D01*
X318261141Y-286218626D01*
X318395751Y-286194820D01*
X318540720Y-286169202D01*
X318694435Y-286142058D01*
X318855279Y-286113674D01*
X318965426Y-286094247D01*
X319157782Y-286060305D01*
X319328171Y-286030172D01*
X319477911Y-286003591D01*
X319608321Y-285980301D01*
X319720718Y-285960046D01*
X319816423Y-285942566D01*
X319896752Y-285927603D01*
X319963026Y-285914898D01*
X320016562Y-285904194D01*
X320058679Y-285895231D01*
X320090696Y-285887751D01*
X320113931Y-285881496D01*
X320129703Y-285876207D01*
X320139331Y-285871626D01*
X320144133Y-285867494D01*
X320145427Y-285863553D01*
X320145399Y-285862949D01*
X320143203Y-285849381D01*
X320137134Y-285813854D01*
X320127409Y-285757601D01*
X320114244Y-285681852D01*
X320097857Y-285587836D01*
X320078462Y-285476787D01*
X320056277Y-285349933D01*
X320031519Y-285208506D01*
X320004403Y-285053737D01*
X319975147Y-284886856D01*
X319943967Y-284709094D01*
X319911078Y-284521682D01*
X319876699Y-284325852D01*
X319841045Y-284122832D01*
X319804332Y-283913855D01*
X319766778Y-283700152D01*
X319728598Y-283482952D01*
X319690010Y-283263487D01*
X319651229Y-283042987D01*
X319612472Y-282822684D01*
X319573956Y-282603807D01*
X319535897Y-282387589D01*
X319498512Y-282175259D01*
X319462017Y-281968049D01*
X319426629Y-281767189D01*
X319392564Y-281573910D01*
X319360038Y-281389443D01*
X319329268Y-281215019D01*
X319300471Y-281051868D01*
X319273863Y-280901221D01*
X319249661Y-280764309D01*
X319228080Y-280642363D01*
X319209339Y-280536613D01*
X319193652Y-280448291D01*
X319181236Y-280378627D01*
X319172309Y-280328851D01*
X319167086Y-280300196D01*
X319165728Y-280293301D01*
X319153998Y-280294637D01*
X319121163Y-280299753D01*
X319069392Y-280308278D01*
X319000850Y-280319845D01*
X318917707Y-280334081D01*
X318822129Y-280350619D01*
X318716285Y-280369088D01*
X318602340Y-280389118D01*
X318556182Y-280397272D01*
X318433149Y-280419029D01*
X318312095Y-280440423D01*
X318196001Y-280460929D01*
X318087848Y-280480020D01*
X317990618Y-280497170D01*
X317907293Y-280511854D01*
X317840853Y-280523545D01*
X317794280Y-280531717D01*
X317789390Y-280532572D01*
X317669008Y-280553625D01*
X317546877Y-280575011D01*
X317425222Y-280596337D01*
X317306267Y-280617212D01*
X317192236Y-280637245D01*
X317085351Y-280656044D01*
X316987839Y-280673219D01*
X316901921Y-280688376D01*
X316829822Y-280701125D01*
X316773765Y-280711075D01*
X316735976Y-280717834D01*
X316718676Y-280721011D01*
X316717810Y-280721201D01*
X316003683Y-280721201D01*
X315993629Y-280661003D01*
X315979783Y-280576559D01*
X315968956Y-280508541D01*
X315961496Y-280458938D01*
X315957755Y-280429735D01*
X315957375Y-280423974D01*
X315968460Y-280347828D01*
X315999430Y-280273144D01*
X316046857Y-280205297D01*
X316107312Y-280149661D01*
X316148446Y-280124361D01*
X316168539Y-280116734D01*
X316203237Y-280107148D01*
X316253749Y-280095361D01*
X316321278Y-280081129D01*
X316407031Y-280064210D01*
X316512213Y-280044361D01*
X316638031Y-280021337D01*
X316785691Y-279994897D01*
X316825597Y-279987824D01*
X316944222Y-279966806D01*
X317055754Y-279946987D01*
X317158039Y-279928753D01*
X317248925Y-279912491D01*
X317326257Y-279898588D01*
X317387883Y-279887430D01*
X317431650Y-279879404D01*
X317455404Y-279874896D01*
X317459128Y-279874073D01*
X317458059Y-279862260D01*
X317452715Y-279828983D01*
X317443431Y-279775961D01*
X317430542Y-279704914D01*
X317414382Y-279617564D01*
X317395286Y-279515628D01*
X317373590Y-279400829D01*
X317349627Y-279274886D01*
X317323734Y-279139519D01*
X317296244Y-278996449D01*
X317267492Y-278847396D01*
X317237814Y-278694079D01*
X317207544Y-278538219D01*
X317177017Y-278381536D01*
X317146567Y-278225751D01*
X317116530Y-278072583D01*
X317087241Y-277923753D01*
X317059033Y-277780981D01*
X317032242Y-277645987D01*
X317007204Y-277520491D01*
X316984252Y-277406214D01*
X316963721Y-277304875D01*
X316945947Y-277218195D01*
X316931263Y-277147893D01*
X316920006Y-277095691D01*
X316912509Y-277063308D01*
X316910738Y-277056635D01*
X316841648Y-276858534D01*
X316752005Y-276670413D01*
X316643257Y-276493601D01*
X316516850Y-276329427D01*
X316374231Y-276179222D01*
X316216848Y-276044316D01*
X316046147Y-275926039D01*
X315863576Y-275825721D01*
X315670582Y-275744691D01*
X315468612Y-275684281D01*
X315401323Y-275669318D01*
X315204927Y-275640109D01*
X315001819Y-275630248D01*
X314798724Y-275639734D01*
X314602370Y-275668569D01*
X314599259Y-275669200D01*
X314394631Y-275722645D01*
X314198516Y-275797153D01*
X314012357Y-275891390D01*
X313837592Y-276004025D01*
X313675663Y-276133725D01*
X313528009Y-276279157D01*
X313396070Y-276438988D01*
X313281288Y-276611887D01*
X313185103Y-276796521D01*
X313108955Y-276991557D01*
X313085033Y-277070033D01*
X313079280Y-277093990D01*
X313069636Y-277138447D01*
X313056435Y-277201681D01*
X313040011Y-277281966D01*
X313020699Y-277377578D01*
X312998833Y-277486794D01*
X312974750Y-277607889D01*
X312948782Y-277739138D01*
X312921265Y-277878818D01*
X312892533Y-278025204D01*
X312862922Y-278176572D01*
X312832765Y-278331198D01*
X312802398Y-278487357D01*
X312772154Y-278643326D01*
X312742369Y-278797379D01*
X312713378Y-278947793D01*
X312685515Y-279092844D01*
X312659114Y-279230807D01*
X312634511Y-279359957D01*
X312612040Y-279478572D01*
X312592036Y-279584926D01*
X312574832Y-279677294D01*
X312560765Y-279753954D01*
X312550169Y-279813181D01*
X312543378Y-279853250D01*
X312540727Y-279872437D01*
X312540826Y-279873896D01*
X312553406Y-279876384D01*
X312587095Y-279882551D01*
X312639718Y-279892012D01*
X312709099Y-279904379D01*
X312793059Y-279919266D01*
X312889424Y-279936287D01*
X312996016Y-279955055D01*
X313110659Y-279975184D01*
X313162075Y-279984194D01*
X313316606Y-280011494D01*
X313448906Y-280035389D01*
X313560102Y-280056105D01*
X313651321Y-280073867D01*
X313723691Y-280088900D01*
X313778339Y-280101430D01*
X313816392Y-280111681D01*
X313837621Y-280119253D01*
X313907449Y-280162276D01*
X313966079Y-280221193D01*
X314010209Y-280291103D01*
X314036540Y-280367102D01*
X314042624Y-280423765D01*
X314040574Y-280443714D01*
X314034654Y-280484910D01*
X314025215Y-280545368D01*
X314012607Y-280623100D01*
X313997178Y-280716120D01*
X313979279Y-280822441D01*
X313959259Y-280940077D01*
X313937468Y-281067041D01*
X313914255Y-281201346D01*
X313889970Y-281341005D01*
X313864961Y-281484033D01*
X313839580Y-281628441D01*
X313814175Y-281772245D01*
X313789096Y-281913456D01*
X313764692Y-282050089D01*
X313741314Y-282180156D01*
X313719310Y-282301672D01*
X313699030Y-282412649D01*
X313680824Y-282511101D01*
X313665041Y-282595041D01*
X313652031Y-282662483D01*
X313642143Y-282711439D01*
X313635727Y-282739924D01*
X313634137Y-282745346D01*
X313602439Y-282804529D01*
X313554682Y-282861578D01*
X313497810Y-282908918D01*
X313467925Y-282926682D01*
X313443003Y-282938451D01*
X313418757Y-282946721D01*
X313390180Y-282952198D01*
X313352262Y-282955587D01*
X313299997Y-282957592D01*
X313240118Y-282958741D01*
X313140311Y-282962158D01*
X313063033Y-282969032D01*
X313007419Y-282979442D01*
X313003729Y-282980473D01*
X312890711Y-283024914D01*
X312790645Y-283088529D01*
X312705176Y-283169732D01*
X312635947Y-283266936D01*
X312584606Y-283378556D01*
X312581500Y-283387529D01*
X312566230Y-283454461D01*
X312559259Y-283534436D01*
X312560428Y-283618809D01*
X312569576Y-283698938D01*
X312586545Y-283766176D01*
X312588589Y-283771662D01*
X312640221Y-283878598D01*
X312707878Y-283970872D01*
X312759866Y-284023461D01*
X312830802Y-284080684D01*
X312904772Y-284123413D01*
X312990493Y-284156368D01*
X313023231Y-284166009D01*
X313070442Y-284180358D01*
X313113761Y-284195670D01*
X313142286Y-284207916D01*
X313192683Y-284242930D01*
X313241632Y-284292284D01*
X313281123Y-284347608D01*
X313287870Y-284359993D01*
X313296255Y-284376795D01*
X313303441Y-284393184D01*
X313309255Y-284410575D01*
X313313520Y-284430382D01*
X313316062Y-284454020D01*
X313316707Y-284482902D01*
X313315279Y-284518443D01*
X313311604Y-284562058D01*
X313305506Y-284615160D01*
X313296812Y-284679163D01*
X313285345Y-284755483D01*
X313270931Y-284845532D01*
X313253396Y-284950726D01*
X313232564Y-285072479D01*
X313208260Y-285212205D01*
X313180310Y-285371318D01*
X313148539Y-285551233D01*
X313122115Y-285700579D01*
X313084373Y-285913126D01*
X313050402Y-286102947D01*
X313020090Y-286270630D01*
X312993324Y-286416765D01*
X312969992Y-286541945D01*
X312949983Y-286646757D01*
X312933183Y-286731794D01*
X312919481Y-286797644D01*
X312908765Y-286844899D01*
X312900922Y-286874148D01*
X312897277Y-286883854D01*
X312864707Y-286931205D01*
X312817736Y-286979414D01*
X312764088Y-287021763D01*
X312711484Y-287051534D01*
X312698943Y-287056381D01*
X312653229Y-287067279D01*
X312600661Y-287073339D01*
X312577862Y-287073824D01*
X312558395Y-287071613D01*
X312517071Y-287065479D01*
X312455305Y-287055665D01*
X312374508Y-287042411D01*
X312276095Y-287025959D01*
X312161476Y-287006553D01*
X312032067Y-286984433D01*
X311889279Y-286959843D01*
X311734526Y-286933022D01*
X311569221Y-286904215D01*
X311394776Y-286873662D01*
X311212605Y-286841606D01*
X311024120Y-286808289D01*
X310934109Y-286792326D01*
X310743500Y-286758433D01*
X310558792Y-286725483D01*
X310381376Y-286693729D01*
X310212645Y-286663426D01*
X310053990Y-286634827D01*
X309906805Y-286608184D01*
X309772481Y-286583753D01*
X309652411Y-286561786D01*
X309547986Y-286542537D01*
X309460599Y-286526259D01*
X309391641Y-286513206D01*
X309342506Y-286503632D01*
X309314586Y-286497790D01*
X309309110Y-286496380D01*
X309273136Y-286477788D01*
X309230006Y-286445640D01*
X309195949Y-286414430D01*
X309139211Y-286345657D01*
X309104668Y-286273956D01*
X309090878Y-286196093D01*
X309090486Y-286177769D01*
X309092537Y-286161636D01*
X309098540Y-286123191D01*
X309108330Y-286063399D01*
X309121738Y-285983225D01*
X309138596Y-285883634D01*
X309142247Y-285862239D01*
X309854601Y-285862239D01*
X309855685Y-285866059D01*
X309860472Y-285870131D01*
X309870259Y-285874707D01*
X309886342Y-285880044D01*
X309910016Y-285886396D01*
X309942577Y-285894017D01*
X309985322Y-285903163D01*
X310039545Y-285914088D01*
X310106543Y-285927047D01*
X310187611Y-285942294D01*
X310284047Y-285960085D01*
X310397144Y-285980674D01*
X310528199Y-286004317D01*
X310678509Y-286031267D01*
X310849368Y-286061779D01*
X311042073Y-286096109D01*
X311064123Y-286100034D01*
X311230171Y-286129545D01*
X311389719Y-286157819D01*
X311541219Y-286184585D01*
X311683124Y-286209575D01*
X311813889Y-286232518D01*
X311931967Y-286253145D01*
X312035812Y-286271187D01*
X312123877Y-286286374D01*
X312194615Y-286298436D01*
X312246480Y-286307104D01*
X312277927Y-286312108D01*
X312287436Y-286313282D01*
X312291451Y-286301544D01*
X312299145Y-286268429D01*
X312310153Y-286215852D01*
X312324107Y-286145726D01*
X312340641Y-286059966D01*
X312359387Y-285960484D01*
X312379981Y-285849194D01*
X312402054Y-285728012D01*
X312425241Y-285598849D01*
X312437151Y-285531792D01*
X312464601Y-285376383D01*
X312488077Y-285242625D01*
X312507825Y-285128907D01*
X312524089Y-285033620D01*
X312537111Y-284955154D01*
X312547137Y-284891901D01*
X312554410Y-284842249D01*
X312559174Y-284804589D01*
X312561673Y-284777312D01*
X312562151Y-284758809D01*
X312560852Y-284747469D01*
X312558019Y-284741682D01*
X312557013Y-284740856D01*
X312539847Y-284729620D01*
X312508047Y-284708815D01*
X312466761Y-284681809D01*
X312436846Y-284662244D01*
X312303773Y-284561348D01*
X312184648Y-284442827D01*
X312081113Y-284309237D01*
X311994809Y-284163138D01*
X311927377Y-284007085D01*
X311880459Y-283843637D01*
X311867570Y-283775311D01*
X311860070Y-283702939D01*
X311857298Y-283615285D01*
X311858939Y-283519823D01*
X311864676Y-283424023D01*
X311874190Y-283335359D01*
X311887165Y-283261302D01*
X311889867Y-283250007D01*
X311942862Y-283087126D01*
X312016443Y-282933592D01*
X312108833Y-282791186D01*
X312218254Y-282661691D01*
X312342929Y-282546889D01*
X312481079Y-282448560D01*
X312630927Y-282368487D01*
X312790694Y-282308451D01*
X312844142Y-282293631D01*
X312896050Y-282281162D01*
X312941973Y-282271387D01*
X312975361Y-282265642D01*
X312986299Y-282264682D01*
X313007804Y-282262941D01*
X313014332Y-282259852D01*
X313016315Y-282247431D01*
X313021986Y-282214105D01*
X313030929Y-282162247D01*
X313042727Y-282094234D01*
X313056964Y-282012438D01*
X313073222Y-281919234D01*
X313091087Y-281816997D01*
X313110141Y-281708100D01*
X313129967Y-281594920D01*
X313150150Y-281479829D01*
X313170273Y-281365202D01*
X313189919Y-281253414D01*
X313208671Y-281146839D01*
X313226114Y-281047852D01*
X313241831Y-280958826D01*
X313255405Y-280882137D01*
X313266420Y-280820158D01*
X313274459Y-280775265D01*
X313279106Y-280749831D01*
X313280009Y-280745233D01*
X313281022Y-280740919D01*
X313281065Y-280736976D01*
X313278745Y-280733126D01*
X313272667Y-280729091D01*
X313261436Y-280724592D01*
X313243658Y-280719352D01*
X313217939Y-280713092D01*
X313182884Y-280705534D01*
X313137099Y-280696400D01*
X313079190Y-280685412D01*
X313007763Y-280672292D01*
X312921422Y-280656762D01*
X312818775Y-280638543D01*
X312698425Y-280617358D01*
X312558980Y-280592928D01*
X312399044Y-280564975D01*
X312217223Y-280533221D01*
X312216519Y-280533098D01*
X312158105Y-280522869D01*
X312079930Y-280509141D01*
X311985515Y-280492532D01*
X311878376Y-280473662D01*
X311762031Y-280453152D01*
X311639998Y-280431621D01*
X311515794Y-280409689D01*
X311414371Y-280391765D01*
X311300808Y-280371766D01*
X311194548Y-280353202D01*
X311097813Y-280336453D01*
X311012827Y-280321895D01*
X310941814Y-280309906D01*
X310886998Y-280300865D01*
X310850601Y-280295149D01*
X310834847Y-280293137D01*
X310834374Y-280293199D01*
X310832106Y-280305017D01*
X310825969Y-280338888D01*
X310816179Y-280393580D01*
X310802953Y-280467863D01*
X310786507Y-280560506D01*
X310767057Y-280670278D01*
X310744821Y-280795948D01*
X310720014Y-280936286D01*
X310692854Y-281090060D01*
X310663557Y-281256041D01*
X310632339Y-281432997D01*
X310599417Y-281619697D01*
X310565007Y-281814910D01*
X310529326Y-282017406D01*
X310492591Y-282225955D01*
X310455018Y-282439324D01*
X310416823Y-282656284D01*
X310378224Y-282875604D01*
X310339436Y-283096052D01*
X310300676Y-283316398D01*
X310262161Y-283535412D01*
X310224108Y-283751862D01*
X310186732Y-283964517D01*
X310150250Y-284172147D01*
X310114880Y-284373522D01*
X310080837Y-284567409D01*
X310048337Y-284752580D01*
X310017599Y-284927801D01*
X309988837Y-285091844D01*
X309962269Y-285243476D01*
X309938111Y-285381468D01*
X309916579Y-285504589D01*
X309897891Y-285611607D01*
X309882262Y-285701292D01*
X309869910Y-285772413D01*
X309861050Y-285823739D01*
X309855900Y-285854040D01*
X309854601Y-285862239D01*
X309142247Y-285862239D01*
X309158738Y-285765592D01*
X309181997Y-285630063D01*
G37*
D13*
%TO.C,K59*%
X196056300Y-320865800D02*
X196056300Y-319087800D01*
X196056300Y-331787800D02*
X196056300Y-330009800D01*
X208756300Y-331787800D02*
X206978300Y-331787800D01*
X208756300Y-330009800D02*
X208756300Y-331787800D01*
X208756300Y-319087800D02*
X208756300Y-320865800D01*
X206978300Y-319087800D02*
X208756300Y-319087800D01*
X196056300Y-319087800D02*
X197834300Y-319087800D01*
X197834300Y-331787800D02*
X196056300Y-331787800D01*
%TO.C,K47*%
X186531300Y-301815800D02*
X186531300Y-300037800D01*
X186531300Y-300037800D02*
X188309300Y-300037800D01*
X186531300Y-312737800D02*
X186531300Y-310959800D01*
X199231300Y-300037800D02*
X199231300Y-301815800D01*
X188309300Y-312737800D02*
X186531300Y-312737800D01*
X197453300Y-300037800D02*
X199231300Y-300037800D01*
X199231300Y-310959800D02*
X199231300Y-312737800D01*
X199231300Y-312737800D02*
X197453300Y-312737800D01*
D14*
%TO.C,LED86*%
X327331300Y-359250000D02*
X325131300Y-359250000D01*
X327331300Y-356750000D02*
X325131300Y-356750000D01*
X326581300Y-359000000D02*
X326291300Y-359000000D01*
X326291300Y-359000000D02*
X326291300Y-357000000D01*
X326291300Y-357000000D02*
X326581300Y-357000000D01*
X326581300Y-357000000D02*
X326581300Y-359000000D01*
G36*
X326581300Y-359000000D02*
G01*
X326291300Y-359000000D01*
X326291300Y-357000000D01*
X326581300Y-357000000D01*
X326581300Y-359000000D01*
G37*
D15*
X327831300Y-359250000D02*
G75*
G03*
X327831300Y-359250000I-80000J0D01*
G01*
D14*
%TO.C,LED22*%
X103675000Y-337750000D02*
X105875000Y-337750000D01*
X103675000Y-340250000D02*
X105875000Y-340250000D01*
X104425000Y-338000000D02*
X104715000Y-338000000D01*
X104715000Y-338000000D02*
X104715000Y-340000000D01*
X104715000Y-340000000D02*
X104425000Y-340000000D01*
X104425000Y-340000000D02*
X104425000Y-338000000D01*
G36*
X104425000Y-338000000D02*
G01*
X104715000Y-338000000D01*
X104715000Y-340000000D01*
X104425000Y-340000000D01*
X104425000Y-338000000D01*
G37*
D15*
X103335000Y-337750000D02*
G75*
G03*
X103335000Y-337750000I-80000J0D01*
G01*
D13*
%TO.C,K64*%
X302228300Y-319087800D02*
X304006300Y-319087800D01*
X291306300Y-319087800D02*
X293084300Y-319087800D01*
X304006300Y-319087800D02*
X304006300Y-320865800D01*
X304006300Y-330009800D02*
X304006300Y-331787800D01*
X304006300Y-331787800D02*
X302228300Y-331787800D01*
X293084300Y-331787800D02*
X291306300Y-331787800D01*
X291306300Y-331787800D02*
X291306300Y-330009800D01*
X291306300Y-320865800D02*
X291306300Y-319087800D01*
D14*
%TO.C,LED64*%
X298756300Y-318750000D02*
X296556300Y-318750000D01*
X298756300Y-321250000D02*
X296556300Y-321250000D01*
X298006300Y-321000000D02*
X297716300Y-321000000D01*
X297716300Y-321000000D02*
X297716300Y-319000000D01*
X297716300Y-319000000D02*
X298006300Y-319000000D01*
X298006300Y-319000000D02*
X298006300Y-321000000D01*
G36*
X298006300Y-321000000D02*
G01*
X297716300Y-321000000D01*
X297716300Y-319000000D01*
X298006300Y-319000000D01*
X298006300Y-321000000D01*
G37*
D15*
X299256300Y-321250000D02*
G75*
G03*
X299256300Y-321250000I-80000J0D01*
G01*
D14*
%TO.C,LED94*%
X325131300Y-378250000D02*
X327331300Y-378250000D01*
X325131300Y-375750000D02*
X327331300Y-375750000D01*
X325881300Y-376000000D02*
X326171300Y-376000000D01*
X326171300Y-376000000D02*
X326171300Y-378000000D01*
X326171300Y-378000000D02*
X325881300Y-378000000D01*
X325881300Y-378000000D02*
X325881300Y-376000000D01*
G36*
X325881300Y-376000000D02*
G01*
X326171300Y-376000000D01*
X326171300Y-378000000D01*
X325881300Y-378000000D01*
X325881300Y-376000000D01*
G37*
D15*
X324791300Y-375750000D02*
G75*
G03*
X324791300Y-375750000I-80000J0D01*
G01*
D14*
%TO.C,LED16*%
X98900000Y-318750000D02*
X101100000Y-318750000D01*
X98900000Y-321250000D02*
X101100000Y-321250000D01*
X99650000Y-319000000D02*
X99940000Y-319000000D01*
X99940000Y-319000000D02*
X99940000Y-321000000D01*
X99940000Y-321000000D02*
X99650000Y-321000000D01*
X99650000Y-321000000D02*
X99650000Y-319000000D01*
G36*
X99650000Y-319000000D02*
G01*
X99940000Y-319000000D01*
X99940000Y-321000000D01*
X99650000Y-321000000D01*
X99650000Y-319000000D01*
G37*
D15*
X98560000Y-318750000D02*
G75*
G03*
X98560000Y-318750000I-80000J0D01*
G01*
D13*
%TO.C,K20*%
X73025000Y-349078550D02*
X73025000Y-350856550D01*
X71247000Y-338156550D02*
X73025000Y-338156550D01*
X60325000Y-338156550D02*
X62103000Y-338156550D01*
X60325000Y-350856550D02*
X60325000Y-349078550D01*
X73025000Y-338156550D02*
X73025000Y-339934550D01*
X62103000Y-350856550D02*
X60325000Y-350856550D01*
X60325000Y-339934550D02*
X60325000Y-338156550D01*
X73025000Y-350856550D02*
X71247000Y-350856550D01*
%TO.C,K73*%
X270668800Y-338137800D02*
X270668800Y-339915800D01*
X257968800Y-338137800D02*
X259746800Y-338137800D01*
X257968800Y-350837800D02*
X257968800Y-349059800D01*
X270668800Y-350837800D02*
X268890800Y-350837800D01*
X270668800Y-349059800D02*
X270668800Y-350837800D01*
X268890800Y-338137800D02*
X270668800Y-338137800D01*
X257968800Y-339915800D02*
X257968800Y-338137800D01*
X259746800Y-350837800D02*
X257968800Y-350837800D01*
D14*
%TO.C,LED44*%
X384481300Y-283250000D02*
X382281300Y-283250000D01*
X384481300Y-280750000D02*
X382281300Y-280750000D01*
X383731300Y-283000000D02*
X383441300Y-283000000D01*
X383441300Y-283000000D02*
X383441300Y-281000000D01*
X383441300Y-281000000D02*
X383731300Y-281000000D01*
X383731300Y-281000000D02*
X383731300Y-283000000D01*
G36*
X383731300Y-283000000D02*
G01*
X383441300Y-283000000D01*
X383441300Y-281000000D01*
X383731300Y-281000000D01*
X383731300Y-283000000D01*
G37*
D15*
X384981300Y-283250000D02*
G75*
G03*
X384981300Y-283250000I-80000J0D01*
G01*
D14*
%TO.C,LED97*%
X382281300Y-375750000D02*
X384481300Y-375750000D01*
X382281300Y-378250000D02*
X384481300Y-378250000D01*
X383031300Y-376000000D02*
X383321300Y-376000000D01*
X383321300Y-376000000D02*
X383321300Y-378000000D01*
X383321300Y-378000000D02*
X383031300Y-378000000D01*
X383031300Y-378000000D02*
X383031300Y-376000000D01*
G36*
X383031300Y-376000000D02*
G01*
X383321300Y-376000000D01*
X383321300Y-378000000D01*
X383031300Y-378000000D01*
X383031300Y-376000000D01*
G37*
D15*
X381941300Y-375750000D02*
G75*
G03*
X381941300Y-375750000I-80000J0D01*
G01*
D13*
%TO.C,K41*%
X281781300Y-293687800D02*
X281781300Y-291909800D01*
X294481300Y-291909800D02*
X294481300Y-293687800D01*
X294481300Y-293687800D02*
X292703300Y-293687800D01*
X283559300Y-293687800D02*
X281781300Y-293687800D01*
X294481300Y-280987800D02*
X294481300Y-282765800D01*
X281781300Y-282765800D02*
X281781300Y-280987800D01*
X281781300Y-280987800D02*
X283559300Y-280987800D01*
X292703300Y-280987800D02*
X294481300Y-280987800D01*
%TO.C,K38*%
X224631300Y-293687800D02*
X224631300Y-291909800D01*
X226409300Y-293687800D02*
X224631300Y-293687800D01*
X237331300Y-293687800D02*
X235553300Y-293687800D01*
X224631300Y-280987800D02*
X226409300Y-280987800D01*
X224631300Y-282765800D02*
X224631300Y-280987800D01*
X237331300Y-280987800D02*
X237331300Y-282765800D01*
X235553300Y-280987800D02*
X237331300Y-280987800D01*
X237331300Y-291909800D02*
X237331300Y-293687800D01*
D14*
%TO.C,LED72*%
X244168800Y-340250000D02*
X246368800Y-340250000D01*
X244168800Y-337750000D02*
X246368800Y-337750000D01*
X244918800Y-338000000D02*
X245208800Y-338000000D01*
X245208800Y-338000000D02*
X245208800Y-340000000D01*
X245208800Y-340000000D02*
X244918800Y-340000000D01*
X244918800Y-340000000D02*
X244918800Y-338000000D01*
G36*
X244918800Y-338000000D02*
G01*
X245208800Y-338000000D01*
X245208800Y-340000000D01*
X244918800Y-340000000D01*
X244918800Y-338000000D01*
G37*
D15*
X243828800Y-337750000D02*
G75*
G03*
X243828800Y-337750000I-80000J0D01*
G01*
D14*
%TO.C,LED58*%
X184456300Y-318750000D02*
X182256300Y-318750000D01*
X184456300Y-321250000D02*
X182256300Y-321250000D01*
X183706300Y-321000000D02*
X183416300Y-321000000D01*
X183416300Y-321000000D02*
X183416300Y-319000000D01*
X183416300Y-319000000D02*
X183706300Y-319000000D01*
X183706300Y-319000000D02*
X183706300Y-321000000D01*
G36*
X183706300Y-321000000D02*
G01*
X183416300Y-321000000D01*
X183416300Y-319000000D01*
X183706300Y-319000000D01*
X183706300Y-321000000D01*
G37*
D15*
X184956300Y-321250000D02*
G75*
G03*
X184956300Y-321250000I-80000J0D01*
G01*
D13*
%TO.C,K58*%
X189706300Y-331787800D02*
X187928300Y-331787800D01*
X177006300Y-319087800D02*
X178784300Y-319087800D01*
X189706300Y-330009800D02*
X189706300Y-331787800D01*
X177006300Y-320865800D02*
X177006300Y-319087800D01*
X189706300Y-319087800D02*
X189706300Y-320865800D01*
X187928300Y-319087800D02*
X189706300Y-319087800D01*
X177006300Y-331787800D02*
X177006300Y-330009800D01*
X178784300Y-331787800D02*
X177006300Y-331787800D01*
%TO.C,K66*%
X340709300Y-331787800D02*
X338931300Y-331787800D01*
X338931300Y-319087800D02*
X340709300Y-319087800D01*
X338931300Y-320865800D02*
X338931300Y-319087800D01*
X351631300Y-331787800D02*
X349853300Y-331787800D01*
X351631300Y-319087800D02*
X351631300Y-320865800D01*
X351631300Y-330009800D02*
X351631300Y-331787800D01*
X338931300Y-331787800D02*
X338931300Y-330009800D01*
X349853300Y-319087800D02*
X351631300Y-319087800D01*
%TO.C,K15*%
X87312500Y-331806550D02*
X85534500Y-331806550D01*
X74612500Y-320884550D02*
X74612500Y-319106550D01*
X87312500Y-330028550D02*
X87312500Y-331806550D01*
X85534500Y-319106550D02*
X87312500Y-319106550D01*
X87312500Y-319106550D02*
X87312500Y-320884550D01*
X76390500Y-331806550D02*
X74612500Y-331806550D01*
X74612500Y-331806550D02*
X74612500Y-330028550D01*
X74612500Y-319106550D02*
X76390500Y-319106550D01*
D14*
%TO.C,LED24*%
X141775000Y-340250000D02*
X143975000Y-340250000D01*
X141775000Y-337750000D02*
X143975000Y-337750000D01*
X142525000Y-338000000D02*
X142815000Y-338000000D01*
X142815000Y-338000000D02*
X142815000Y-340000000D01*
X142815000Y-340000000D02*
X142525000Y-340000000D01*
X142525000Y-340000000D02*
X142525000Y-338000000D01*
G36*
X142525000Y-338000000D02*
G01*
X142815000Y-338000000D01*
X142815000Y-340000000D01*
X142525000Y-340000000D01*
X142525000Y-338000000D01*
G37*
D15*
X141435000Y-337750000D02*
G75*
G03*
X141435000Y-337750000I-80000J0D01*
G01*
D14*
%TO.C,LED73*%
X263218800Y-337750000D02*
X265418800Y-337750000D01*
X263218800Y-340250000D02*
X265418800Y-340250000D01*
X263968800Y-338000000D02*
X264258800Y-338000000D01*
X264258800Y-338000000D02*
X264258800Y-340000000D01*
X264258800Y-340000000D02*
X263968800Y-340000000D01*
X263968800Y-340000000D02*
X263968800Y-338000000D01*
G36*
X263968800Y-338000000D02*
G01*
X264258800Y-338000000D01*
X264258800Y-340000000D01*
X263968800Y-340000000D01*
X263968800Y-338000000D01*
G37*
D15*
X262878800Y-337750000D02*
G75*
G03*
X262878800Y-337750000I-80000J0D01*
G01*
D13*
%TO.C,K1*%
X39687500Y-293706550D02*
X37909500Y-293706550D01*
X26987500Y-281006550D02*
X28765500Y-281006550D01*
X39687500Y-281006550D02*
X39687500Y-282784550D01*
X37909500Y-281006550D02*
X39687500Y-281006550D01*
X28765500Y-293706550D02*
X26987500Y-293706550D01*
X26987500Y-293706550D02*
X26987500Y-291928550D01*
X39687500Y-291928550D02*
X39687500Y-293706550D01*
X26987500Y-282784550D02*
X26987500Y-281006550D01*
%TO.C,K40*%
X262731300Y-280987800D02*
X264509300Y-280987800D01*
X273653300Y-280987800D02*
X275431300Y-280987800D01*
X264509300Y-293687800D02*
X262731300Y-293687800D01*
X275431300Y-291909800D02*
X275431300Y-293687800D01*
X262731300Y-282765800D02*
X262731300Y-280987800D01*
X262731300Y-293687800D02*
X262731300Y-291909800D01*
X275431300Y-280987800D02*
X275431300Y-282765800D01*
X275431300Y-293687800D02*
X273653300Y-293687800D01*
D14*
%TO.C,LED13*%
X37000000Y-321250000D02*
X39200000Y-321250000D01*
X37000000Y-318750000D02*
X39200000Y-318750000D01*
X37750000Y-319000000D02*
X38040000Y-319000000D01*
X38040000Y-319000000D02*
X38040000Y-321000000D01*
X38040000Y-321000000D02*
X37750000Y-321000000D01*
X37750000Y-321000000D02*
X37750000Y-319000000D01*
G36*
X37750000Y-319000000D02*
G01*
X38040000Y-319000000D01*
X38040000Y-321000000D01*
X37750000Y-321000000D01*
X37750000Y-319000000D01*
G37*
D15*
X36660000Y-318750000D02*
G75*
G03*
X36660000Y-318750000I-80000J0D01*
G01*
D14*
%TO.C,LED92*%
X282268800Y-375750000D02*
X284468800Y-375750000D01*
X282268800Y-378250000D02*
X284468800Y-378250000D01*
X283018800Y-376000000D02*
X283308800Y-376000000D01*
X283308800Y-376000000D02*
X283308800Y-378000000D01*
X283308800Y-378000000D02*
X283018800Y-378000000D01*
X283018800Y-378000000D02*
X283018800Y-376000000D01*
G36*
X283018800Y-376000000D02*
G01*
X283308800Y-376000000D01*
X283308800Y-378000000D01*
X283018800Y-378000000D01*
X283018800Y-376000000D01*
G37*
D15*
X281928800Y-375750000D02*
G75*
G03*
X281928800Y-375750000I-80000J0D01*
G01*
D14*
%TO.C,LED70*%
X206068800Y-340250000D02*
X208268800Y-340250000D01*
X206068800Y-337750000D02*
X208268800Y-337750000D01*
X206818800Y-338000000D02*
X207108800Y-338000000D01*
X207108800Y-338000000D02*
X207108800Y-340000000D01*
X207108800Y-340000000D02*
X206818800Y-340000000D01*
X206818800Y-340000000D02*
X206818800Y-338000000D01*
G36*
X206818800Y-338000000D02*
G01*
X207108800Y-338000000D01*
X207108800Y-340000000D01*
X206818800Y-340000000D01*
X206818800Y-338000000D01*
G37*
D15*
X205728800Y-337750000D02*
G75*
G03*
X205728800Y-337750000I-80000J0D01*
G01*
D14*
%TO.C,J2*%
X208387550Y-254043750D02*
X208387550Y-259543750D01*
X188577550Y-253433750D02*
X188577550Y-265153750D01*
X201387550Y-254043750D02*
X200887550Y-254043750D01*
X208887550Y-259543750D02*
X208887550Y-254043750D01*
X198887550Y-259543750D02*
X198887550Y-254043750D01*
X203387550Y-259543750D02*
X203887550Y-259543750D01*
X209777550Y-265153750D02*
X209777550Y-260653750D01*
X199887550Y-253433750D02*
X188577550Y-253433750D01*
X208637550Y-262643750D02*
X208937550Y-263243750D01*
X203887550Y-259543750D02*
X203887550Y-254043750D01*
X198387550Y-254043750D02*
X198387550Y-259543750D01*
X203887550Y-254043750D02*
X203387550Y-254043750D01*
X193887550Y-254043750D02*
X193387550Y-254043750D01*
X200887550Y-254043750D02*
X200887550Y-259543750D01*
X199887550Y-253433750D02*
X211197550Y-253433750D01*
X206387550Y-254043750D02*
X205887550Y-254043750D01*
X198887550Y-254043750D02*
X198387550Y-254043750D01*
X203387550Y-254043750D02*
X203387550Y-259543750D01*
X208937550Y-263243750D02*
X208337550Y-263243750D01*
X195887550Y-254043750D02*
X195887550Y-259543750D01*
X205887550Y-259543750D02*
X206387550Y-259543750D01*
X193387550Y-259543750D02*
X193887550Y-259543750D01*
X201387550Y-259543750D02*
X201387550Y-254043750D01*
X189997550Y-265153750D02*
X189997550Y-260653750D01*
X208887550Y-254043750D02*
X208387550Y-254043750D01*
X200887550Y-259543750D02*
X201387550Y-259543750D01*
X188577550Y-265153750D02*
X189997550Y-265153750D01*
X211197550Y-265153750D02*
X209777550Y-265153750D01*
X208337550Y-263243750D02*
X208637550Y-262643750D01*
X208387550Y-259543750D02*
X208887550Y-259543750D01*
X191387550Y-259543750D02*
X191387550Y-254043750D01*
X198387550Y-259543750D02*
X198887550Y-259543750D01*
X196387550Y-254043750D02*
X195887550Y-254043750D01*
X196387550Y-259543750D02*
X196387550Y-254043750D01*
X205887550Y-254043750D02*
X205887550Y-259543750D01*
X211197550Y-253433750D02*
X211197550Y-265153750D01*
X193387550Y-254043750D02*
X193387550Y-259543750D01*
X195887550Y-259543750D02*
X196387550Y-259543750D01*
X190887550Y-254043750D02*
X190887550Y-259543750D01*
X206387550Y-259543750D02*
X206387550Y-254043750D01*
X190887550Y-259543750D02*
X191387550Y-259543750D01*
X193887550Y-259543750D02*
X193887550Y-254043750D01*
X191387550Y-254043750D02*
X190887550Y-254043750D01*
%TO.C,LED6*%
X127487500Y-280750000D02*
X129687500Y-280750000D01*
X127487500Y-283250000D02*
X129687500Y-283250000D01*
X128237500Y-281000000D02*
X128527500Y-281000000D01*
X128527500Y-281000000D02*
X128527500Y-283000000D01*
X128527500Y-283000000D02*
X128237500Y-283000000D01*
X128237500Y-283000000D02*
X128237500Y-281000000D01*
G36*
X128237500Y-281000000D02*
G01*
X128527500Y-281000000D01*
X128527500Y-283000000D01*
X128237500Y-283000000D01*
X128237500Y-281000000D01*
G37*
D15*
X127147500Y-280750000D02*
G75*
G03*
X127147500Y-280750000I-80000J0D01*
G01*
D13*
%TO.C,K74*%
X277018800Y-350837800D02*
X277018800Y-349059800D01*
X277018800Y-339915800D02*
X277018800Y-338137800D01*
X287940800Y-338137800D02*
X289718800Y-338137800D01*
X289718800Y-349059800D02*
X289718800Y-350837800D01*
X289718800Y-338137800D02*
X289718800Y-339915800D01*
X289718800Y-350837800D02*
X287940800Y-350837800D01*
X277018800Y-338137800D02*
X278796800Y-338137800D01*
X278796800Y-350837800D02*
X277018800Y-350837800D01*
%TO.C,K29*%
X127000000Y-369906550D02*
X127000000Y-368128550D01*
X137922000Y-357206550D02*
X139700000Y-357206550D01*
X139700000Y-357206550D02*
X139700000Y-358984550D01*
X139700000Y-368128550D02*
X139700000Y-369906550D01*
X127000000Y-358984550D02*
X127000000Y-357206550D01*
X127000000Y-357206550D02*
X128778000Y-357206550D01*
X139700000Y-369906550D02*
X137922000Y-369906550D01*
X128778000Y-369906550D02*
X127000000Y-369906550D01*
%TO.C,K14*%
X68262500Y-319106550D02*
X68262500Y-320884550D01*
X55562500Y-320884550D02*
X55562500Y-319106550D01*
X55562500Y-319106550D02*
X57340500Y-319106550D01*
X68262500Y-331806550D02*
X66484500Y-331806550D01*
X57340500Y-331806550D02*
X55562500Y-331806550D01*
X68262500Y-330028550D02*
X68262500Y-331806550D01*
X66484500Y-319106550D02*
X68262500Y-319106550D01*
X55562500Y-331806550D02*
X55562500Y-330028550D01*
D14*
%TO.C,LED10*%
X89387500Y-299750000D02*
X91587500Y-299750000D01*
X89387500Y-302250000D02*
X91587500Y-302250000D01*
X90137500Y-300000000D02*
X90427500Y-300000000D01*
X90427500Y-300000000D02*
X90427500Y-302000000D01*
X90427500Y-302000000D02*
X90137500Y-302000000D01*
X90137500Y-302000000D02*
X90137500Y-300000000D01*
G36*
X90137500Y-300000000D02*
G01*
X90427500Y-300000000D01*
X90427500Y-302000000D01*
X90137500Y-302000000D01*
X90137500Y-300000000D01*
G37*
D15*
X89047500Y-299750000D02*
G75*
G03*
X89047500Y-299750000I-80000J0D01*
G01*
D13*
%TO.C,K43*%
X370681300Y-291909800D02*
X370681300Y-293687800D01*
X357981300Y-280987800D02*
X359759300Y-280987800D01*
X368903300Y-280987800D02*
X370681300Y-280987800D01*
X370681300Y-280987800D02*
X370681300Y-282765800D01*
X359759300Y-293687800D02*
X357981300Y-293687800D01*
X370681300Y-293687800D02*
X368903300Y-293687800D01*
X357981300Y-282765800D02*
X357981300Y-280987800D01*
X357981300Y-293687800D02*
X357981300Y-291909800D01*
D14*
%TO.C,LED52*%
X287031300Y-299750000D02*
X289231300Y-299750000D01*
X287031300Y-302250000D02*
X289231300Y-302250000D01*
X287781300Y-300000000D02*
X288071300Y-300000000D01*
X288071300Y-300000000D02*
X288071300Y-302000000D01*
X288071300Y-302000000D02*
X287781300Y-302000000D01*
X287781300Y-302000000D02*
X287781300Y-300000000D01*
G36*
X287781300Y-300000000D02*
G01*
X288071300Y-300000000D01*
X288071300Y-302000000D01*
X287781300Y-302000000D01*
X287781300Y-300000000D01*
G37*
D15*
X286691300Y-299750000D02*
G75*
G03*
X286691300Y-299750000I-80000J0D01*
G01*
D13*
%TO.C,K79*%
X398246650Y-341312800D02*
X396468650Y-341312800D01*
X407390650Y-328612800D02*
X409168650Y-328612800D01*
X409168650Y-339534800D02*
X409168650Y-341312800D01*
X396468650Y-330390800D02*
X396468650Y-328612800D01*
X409168650Y-341312800D02*
X407390650Y-341312800D01*
X409168650Y-328612800D02*
X409168650Y-330390800D01*
X396468650Y-328612800D02*
X398246650Y-328612800D01*
X396468650Y-341312800D02*
X396468650Y-339534800D01*
D14*
%TO.C,LED76*%
X344181300Y-340250000D02*
X346381300Y-340250000D01*
X344181300Y-337750000D02*
X346381300Y-337750000D01*
X344931300Y-338000000D02*
X345221300Y-338000000D01*
X345221300Y-338000000D02*
X345221300Y-340000000D01*
X345221300Y-340000000D02*
X344931300Y-340000000D01*
X344931300Y-340000000D02*
X344931300Y-338000000D01*
G36*
X344931300Y-338000000D02*
G01*
X345221300Y-338000000D01*
X345221300Y-340000000D01*
X344931300Y-340000000D01*
X344931300Y-338000000D01*
G37*
D15*
X343841300Y-337750000D02*
G75*
G03*
X343841300Y-337750000I-80000J0D01*
G01*
D13*
%TO.C,K77*%
X370681300Y-349059800D02*
X370681300Y-350837800D01*
X359759300Y-350837800D02*
X357981300Y-350837800D01*
X357981300Y-338137800D02*
X359759300Y-338137800D01*
X357981300Y-339915800D02*
X357981300Y-338137800D01*
X368903300Y-338137800D02*
X370681300Y-338137800D01*
X370681300Y-350837800D02*
X368903300Y-350837800D01*
X357981300Y-350837800D02*
X357981300Y-349059800D01*
X370681300Y-338137800D02*
X370681300Y-339915800D01*
%TO.C,K45*%
X407003300Y-280987800D02*
X408781300Y-280987800D01*
X408781300Y-291909800D02*
X408781300Y-293687800D01*
X396081300Y-282765800D02*
X396081300Y-280987800D01*
X396081300Y-293687800D02*
X396081300Y-291909800D01*
X408781300Y-293687800D02*
X407003300Y-293687800D01*
X408781300Y-280987800D02*
X408781300Y-282765800D01*
X397859300Y-293687800D02*
X396081300Y-293687800D01*
X396081300Y-280987800D02*
X397859300Y-280987800D01*
D14*
%TO.C,LED36*%
X193981300Y-283250000D02*
X191781300Y-283250000D01*
X193981300Y-280750000D02*
X191781300Y-280750000D01*
X193231300Y-283000000D02*
X192941300Y-283000000D01*
X192941300Y-283000000D02*
X192941300Y-281000000D01*
X192941300Y-281000000D02*
X193231300Y-281000000D01*
X193231300Y-281000000D02*
X193231300Y-283000000D01*
G36*
X193231300Y-283000000D02*
G01*
X192941300Y-283000000D01*
X192941300Y-281000000D01*
X193231300Y-281000000D01*
X193231300Y-283000000D01*
G37*
D15*
X194481300Y-283250000D02*
G75*
G03*
X194481300Y-283250000I-80000J0D01*
G01*
D14*
%TO.C,LED37*%
X213031300Y-283250000D02*
X210831300Y-283250000D01*
X213031300Y-280750000D02*
X210831300Y-280750000D01*
X212281300Y-283000000D02*
X211991300Y-283000000D01*
X211991300Y-283000000D02*
X211991300Y-281000000D01*
X211991300Y-281000000D02*
X212281300Y-281000000D01*
X212281300Y-281000000D02*
X212281300Y-283000000D01*
G36*
X212281300Y-283000000D02*
G01*
X211991300Y-283000000D01*
X211991300Y-281000000D01*
X212281300Y-281000000D01*
X212281300Y-283000000D01*
G37*
D15*
X213531300Y-283250000D02*
G75*
G03*
X213531300Y-283250000I-80000J0D01*
G01*
D13*
%TO.C,K87*%
X349853300Y-357187800D02*
X351631300Y-357187800D01*
X338931300Y-369887800D02*
X338931300Y-368109800D01*
X351631300Y-357187800D02*
X351631300Y-358965800D01*
X340709300Y-369887800D02*
X338931300Y-369887800D01*
X351631300Y-368109800D02*
X351631300Y-369887800D01*
X351631300Y-369887800D02*
X349853300Y-369887800D01*
X338931300Y-358965800D02*
X338931300Y-357187800D01*
X338931300Y-357187800D02*
X340709300Y-357187800D01*
D14*
%TO.C,LED90*%
X208450050Y-375750000D02*
X210650050Y-375750000D01*
X208450050Y-378250000D02*
X210650050Y-378250000D01*
X209200050Y-376000000D02*
X209490050Y-376000000D01*
X209490050Y-376000000D02*
X209490050Y-378000000D01*
X209490050Y-378000000D02*
X209200050Y-378000000D01*
X209200050Y-378000000D02*
X209200050Y-376000000D01*
G36*
X209200050Y-376000000D02*
G01*
X209490050Y-376000000D01*
X209490050Y-378000000D01*
X209200050Y-378000000D01*
X209200050Y-376000000D01*
G37*
D15*
X208110050Y-375750000D02*
G75*
G03*
X208110050Y-375750000I-80000J0D01*
G01*
D13*
%TO.C,K18*%
X131762500Y-320884550D02*
X131762500Y-319106550D01*
X131762500Y-319106550D02*
X133540500Y-319106550D01*
X144462500Y-319106550D02*
X144462500Y-320884550D01*
X144462500Y-331806550D02*
X142684500Y-331806550D01*
X133540500Y-331806550D02*
X131762500Y-331806550D01*
X131762500Y-331806550D02*
X131762500Y-330028550D01*
X142684500Y-319106550D02*
X144462500Y-319106550D01*
X144462500Y-330028550D02*
X144462500Y-331806550D01*
%TD*%
D17*
%TO.C,K80*%
X200898800Y-367057800D03*
D18*
X195123800Y-368327800D03*
%TD*%
D17*
%TO.C,K4*%
X93742500Y-290876550D03*
D18*
X87967500Y-292146550D03*
%TD*%
D17*
%TO.C,K75*%
X317580050Y-348091500D03*
D18*
X311805050Y-349361500D03*
%TD*%
D17*
%TO.C,K17*%
X122317500Y-328976550D03*
D18*
X116542500Y-330246550D03*
%TD*%
D17*
%TO.C,K96*%
X367586300Y-386107800D03*
D18*
X361811300Y-387377800D03*
%TD*%
D17*
%TO.C,K76*%
X348536300Y-348007800D03*
D18*
X342761300Y-349277800D03*
%TD*%
D17*
%TO.C,K8*%
X55642500Y-309926550D03*
D18*
X49867500Y-311196550D03*
%TD*%
D17*
%TO.C,K70*%
X210423800Y-348007800D03*
D18*
X204648800Y-349277800D03*
%TD*%
D17*
%TO.C,K93*%
X310436300Y-386107800D03*
D18*
X304661300Y-387377800D03*
%TD*%
D17*
%TO.C,K78*%
X386636300Y-348007800D03*
D18*
X380861300Y-349277800D03*
%TD*%
D17*
%TO.C,K92*%
X286623800Y-386107800D03*
D18*
X280848800Y-387377800D03*
%TD*%
D17*
%TO.C,K35*%
X177086300Y-290857800D03*
D18*
X171311300Y-292127800D03*
%TD*%
D19*
%TO.C,K98*%
X406338650Y-369807800D03*
D20*
X407608650Y-375582800D03*
%TD*%
D17*
%TO.C,K88*%
X367586300Y-367057800D03*
D18*
X361811300Y-368327800D03*
%TD*%
D17*
%TO.C,K94*%
X329486300Y-386107800D03*
D18*
X323711300Y-387377800D03*
%TD*%
D17*
%TO.C,K54*%
X348536300Y-309907800D03*
D18*
X342761300Y-311177800D03*
%TD*%
D17*
%TO.C,K16*%
X103267500Y-328976550D03*
D18*
X97492500Y-330246550D03*
%TD*%
D17*
%TO.C,K10*%
X93742500Y-309926550D03*
D18*
X87967500Y-311196550D03*
%TD*%
D17*
%TO.C,K12*%
X131842500Y-309926550D03*
D18*
X126067500Y-311196550D03*
%TD*%
D17*
%TO.C,K37*%
X215186300Y-290857800D03*
D18*
X209411300Y-292127800D03*
%TD*%
D17*
%TO.C,K9*%
X74692500Y-309926550D03*
D18*
X68917500Y-311196550D03*
%TD*%
D17*
%TO.C,K19*%
X43736250Y-348026550D03*
D18*
X37961250Y-349296550D03*
%TD*%
D17*
%TO.C,K85*%
X303292550Y-367057800D03*
D18*
X297517550Y-368327800D03*
%TD*%
D17*
%TO.C,K33*%
X86598750Y-386126550D03*
D18*
X80823750Y-387396550D03*
%TD*%
D17*
%TO.C,K86*%
X329486300Y-367057800D03*
D18*
X323711300Y-368327800D03*
%TD*%
D17*
%TO.C,K95*%
X348536300Y-386107800D03*
D18*
X342761300Y-387377800D03*
%TD*%
D17*
%TO.C,K42*%
X348536300Y-290857800D03*
D18*
X342761300Y-292127800D03*
%TD*%
D17*
%TO.C,K30*%
X155655000Y-367076550D03*
D18*
X149880000Y-368346550D03*
%TD*%
D17*
%TO.C,K46*%
X177086300Y-309907800D03*
D18*
X171311300Y-311177800D03*
%TD*%
D17*
%TO.C,K5*%
X112792500Y-290876550D03*
D18*
X107017500Y-292146550D03*
%TD*%
D17*
%TO.C,K21*%
X88980000Y-348026550D03*
D18*
X83205000Y-349296550D03*
%TD*%
D17*
%TO.C,K28*%
X117555000Y-367076550D03*
D18*
X111780000Y-368346550D03*
%TD*%
D17*
%TO.C,K51*%
X272336300Y-309907800D03*
D18*
X266561300Y-311177800D03*
%TD*%
D17*
%TO.C,K62*%
X262811300Y-328957800D03*
D18*
X257036300Y-330227800D03*
%TD*%
D17*
%TO.C,K72*%
X248523800Y-348007800D03*
D18*
X242748800Y-349277800D03*
%TD*%
D17*
%TO.C,K49*%
X234236300Y-309907800D03*
D18*
X228461300Y-311177800D03*
%TD*%
D17*
%TO.C,K60*%
X224711300Y-328957800D03*
D18*
X218936300Y-330227800D03*
%TD*%
D17*
%TO.C,K71*%
X229473800Y-348007800D03*
D18*
X223698800Y-349277800D03*
%TD*%
D17*
%TO.C,K13*%
X41355000Y-328976550D03*
D18*
X35580000Y-330246550D03*
%TD*%
D17*
%TO.C,K50*%
X253286300Y-309907800D03*
D18*
X247511300Y-311177800D03*
%TD*%
D17*
%TO.C,K53*%
X319961300Y-309907800D03*
D18*
X314186300Y-311177800D03*
%TD*%
D21*
%TO.C,U2*%
X432911300Y-278905000D03*
D22*
X432911300Y-281445000D03*
X432911300Y-283985000D03*
X432911300Y-286525000D03*
X432911300Y-289065000D03*
X432911300Y-291605000D03*
X432911300Y-294145000D03*
X432911300Y-296685000D03*
X432911300Y-299225000D03*
X432911300Y-301765000D03*
X432911300Y-304305000D03*
X432911300Y-306845000D03*
X448151300Y-306845000D03*
X448151300Y-304305000D03*
X448151300Y-301765000D03*
X448151300Y-299225000D03*
X448151300Y-296685000D03*
X448151300Y-294145000D03*
X448151300Y-291605000D03*
X448151300Y-289065000D03*
X448151300Y-286525000D03*
X448151300Y-283985000D03*
X448151300Y-281445000D03*
X448151300Y-278905000D03*
%TD*%
D17*
%TO.C,K34*%
X129461250Y-386126550D03*
D18*
X123686250Y-387396550D03*
%TD*%
D21*
%TO.C,U1*%
X-12382500Y-278923750D03*
D22*
X-12382500Y-281463750D03*
X-12382500Y-284003750D03*
X-12382500Y-286543750D03*
X-12382500Y-289083750D03*
X-12382500Y-291623750D03*
X-12382500Y-294163750D03*
X-12382500Y-296703750D03*
X-12382500Y-299243750D03*
X-12382500Y-301783750D03*
X-12382500Y-304323750D03*
X-12382500Y-306863750D03*
X2857500Y-306863750D03*
X2857500Y-304323750D03*
X2857500Y-301783750D03*
X2857500Y-299243750D03*
X2857500Y-296703750D03*
X2857500Y-294163750D03*
X2857500Y-291623750D03*
X2857500Y-289083750D03*
X2857500Y-286543750D03*
X2857500Y-284003750D03*
X2857500Y-281463750D03*
X2857500Y-278923750D03*
%TD*%
D17*
%TO.C,K22*%
X108030000Y-348026550D03*
D18*
X102255000Y-349296550D03*
%TD*%
D17*
%TO.C,K57*%
X405686300Y-309907800D03*
D18*
X399911300Y-311177800D03*
%TD*%
D17*
%TO.C,K82*%
X238998800Y-367057800D03*
D18*
X233223800Y-368327800D03*
%TD*%
D17*
%TO.C,K23*%
X127080000Y-348026550D03*
D18*
X121305000Y-349296550D03*
%TD*%
D17*
%TO.C,K56*%
X386636300Y-309907800D03*
D18*
X380861300Y-311177800D03*
%TD*%
D17*
%TO.C,K65*%
X324723800Y-328957800D03*
D18*
X318948800Y-330227800D03*
%TD*%
D17*
%TO.C,K44*%
X386636300Y-290857800D03*
D18*
X380861300Y-292127800D03*
%TD*%
D17*
%TO.C,K81*%
X219948800Y-367057800D03*
D18*
X214173800Y-368327800D03*
%TD*%
D17*
%TO.C,K39*%
X253286300Y-290857800D03*
D18*
X247511300Y-292127800D03*
%TD*%
D17*
%TO.C,K24*%
X146130000Y-348026550D03*
D18*
X140355000Y-349296550D03*
%TD*%
D17*
%TO.C,K3*%
X74692500Y-290876550D03*
D18*
X68917500Y-292146550D03*
%TD*%
D17*
%TO.C,K55*%
X367586300Y-309907800D03*
D18*
X361811300Y-311177800D03*
%TD*%
D17*
%TO.C,K2*%
X55642500Y-290876550D03*
D18*
X49867500Y-292146550D03*
%TD*%
D17*
%TO.C,K6*%
X131842500Y-290876550D03*
D18*
X126067500Y-292146550D03*
%TD*%
D17*
%TO.C,K36*%
X196136300Y-290857800D03*
D18*
X190361300Y-292127800D03*
%TD*%
D17*
%TO.C,K84*%
X277098800Y-367057800D03*
D18*
X271323800Y-368327800D03*
%TD*%
D17*
%TO.C,K25*%
X48498750Y-367076550D03*
D18*
X42723750Y-368346550D03*
%TD*%
D17*
%TO.C,K7*%
X36592500Y-309926550D03*
D18*
X30817500Y-311196550D03*
%TD*%
D17*
%TO.C,K27*%
X98505000Y-367076550D03*
D18*
X92730000Y-368346550D03*
%TD*%
D17*
%TO.C,K61*%
X243761300Y-328957800D03*
D18*
X237986300Y-330227800D03*
%TD*%
D17*
%TO.C,K69*%
X191373800Y-348007800D03*
D18*
X185598800Y-349277800D03*
%TD*%
D17*
%TO.C,K67*%
X367586300Y-328957800D03*
D18*
X361811300Y-330227800D03*
%TD*%
D17*
%TO.C,K26*%
X79455000Y-367076550D03*
D18*
X73680000Y-368346550D03*
%TD*%
D17*
%TO.C,K63*%
X281861300Y-328957800D03*
D18*
X276086300Y-330227800D03*
%TD*%
D17*
%TO.C,K83*%
X258048800Y-367057800D03*
D18*
X252273800Y-368327800D03*
%TD*%
D17*
%TO.C,K32*%
X62786250Y-386126550D03*
D18*
X57011250Y-387396550D03*
%TD*%
D17*
%TO.C,K90*%
X212805050Y-386107800D03*
D18*
X207030050Y-387377800D03*
%TD*%
D17*
%TO.C,K48*%
X215186300Y-309907800D03*
D18*
X209411300Y-311177800D03*
%TD*%
D17*
%TO.C,K52*%
X291386300Y-309907800D03*
D18*
X285611300Y-311177800D03*
%TD*%
D17*
%TO.C,K97*%
X386636300Y-386107800D03*
D18*
X380861300Y-387377800D03*
%TD*%
D17*
%TO.C,K89*%
X386636300Y-367057800D03*
D18*
X380861300Y-368327800D03*
%TD*%
D17*
%TO.C,K68*%
X386636300Y-328957800D03*
D18*
X380861300Y-330227800D03*
%TD*%
D17*
%TO.C,K91*%
X258048800Y-386107800D03*
D18*
X252273800Y-387377800D03*
%TD*%
D17*
%TO.C,K11*%
X112792500Y-309926550D03*
D18*
X107017500Y-311196550D03*
%TD*%
D17*
%TO.C,K31*%
X38973750Y-386126550D03*
D18*
X33198750Y-387396550D03*
%TD*%
D17*
%TO.C,K59*%
X205661300Y-328957800D03*
D18*
X199886300Y-330227800D03*
%TD*%
D17*
%TO.C,K47*%
X196136300Y-309907800D03*
D18*
X190361300Y-311177800D03*
%TD*%
D17*
%TO.C,K64*%
X300911300Y-328957800D03*
D18*
X295136300Y-330227800D03*
%TD*%
D17*
%TO.C,K20*%
X69930000Y-348026550D03*
D18*
X64155000Y-349296550D03*
%TD*%
D17*
%TO.C,K73*%
X267573800Y-348007800D03*
D18*
X261798800Y-349277800D03*
%TD*%
D17*
%TO.C,K41*%
X291386300Y-290857800D03*
D18*
X285611300Y-292127800D03*
%TD*%
D17*
%TO.C,K38*%
X234236300Y-290857800D03*
D18*
X228461300Y-292127800D03*
%TD*%
D17*
%TO.C,K58*%
X186611300Y-328957800D03*
D18*
X180836300Y-330227800D03*
%TD*%
D17*
%TO.C,K66*%
X348536300Y-328957800D03*
D18*
X342761300Y-330227800D03*
%TD*%
D17*
%TO.C,K15*%
X84217500Y-328976550D03*
D18*
X78442500Y-330246550D03*
%TD*%
D17*
%TO.C,K1*%
X36592500Y-290876550D03*
D18*
X30817500Y-292146550D03*
%TD*%
D17*
%TO.C,K40*%
X272336300Y-290857800D03*
D18*
X266561300Y-292127800D03*
%TD*%
D17*
%TO.C,K74*%
X286623800Y-348007800D03*
D18*
X280848800Y-349277800D03*
%TD*%
D17*
%TO.C,K29*%
X136605000Y-367076550D03*
D18*
X130830000Y-368346550D03*
%TD*%
D17*
%TO.C,K14*%
X65167500Y-328976550D03*
D18*
X59392500Y-330246550D03*
%TD*%
D17*
%TO.C,K43*%
X367586300Y-290857800D03*
D18*
X361811300Y-292127800D03*
%TD*%
D19*
%TO.C,K79*%
X406338650Y-331707800D03*
D20*
X407608650Y-337482800D03*
%TD*%
D17*
%TO.C,K77*%
X367586300Y-348007800D03*
D18*
X361811300Y-349277800D03*
%TD*%
D17*
%TO.C,K45*%
X405686300Y-290857800D03*
D18*
X399911300Y-292127800D03*
%TD*%
D17*
%TO.C,K87*%
X348536300Y-367057800D03*
D18*
X342761300Y-368327800D03*
%TD*%
D17*
%TO.C,K18*%
X141367500Y-328976550D03*
D18*
X135592500Y-330246550D03*
%TD*%
M02*
