%TF.GenerationSoftware,KiCad,Pcbnew,6.0.11-2627ca5db0~126~ubuntu22.04.1*%
%TF.CreationDate,2023-11-06T21:31:54+01:00*%
%TF.ProjectId,pcb,7063622e-6b69-4636-9164-5f7063625858,rev?*%
%TF.SameCoordinates,Original*%
%TF.FileFunction,Profile,NP*%
%FSLAX46Y46*%
G04 Gerber Fmt 4.6, Leading zero omitted, Abs format (unit mm)*
G04 Created by KiCad (PCBNEW 6.0.11-2627ca5db0~126~ubuntu22.04.1) date 2023-11-06 21:31:54*
%MOMM*%
%LPD*%
G01*
G04 APERTURE LIST*
%TA.AperFunction,Profile*%
%ADD10C,0.100000*%
%TD*%
%TA.AperFunction,Profile*%
%ADD11C,0.150000*%
%TD*%
G04 APERTURE END LIST*
D10*
X452068800Y-271593750D02*
G75*
G03*
X452068800Y-271593750I-1600000J0D01*
G01*
X270818800Y-384843750D02*
G75*
G03*
X270818800Y-384843750I-1600000J0D01*
G01*
X-21431250Y-266700000D02*
X-21431250Y-397668750D01*
X97568750Y-389362500D02*
G75*
G03*
X97568750Y-389362500I-1600000J0D01*
G01*
X183568800Y-268843750D02*
G75*
G03*
X183568800Y-268843750I-1600000J0D01*
G01*
X122318750Y-268862500D02*
G75*
G03*
X122318750Y-268862500I-1600000J0D01*
G01*
D11*
X73818750Y-266700000D02*
X-21431250Y-266700000D01*
D10*
X441568800Y-376593750D02*
G75*
G03*
X441568800Y-376593750I-1600000J0D01*
G01*
X-9431250Y-341862500D02*
G75*
G03*
X-9431250Y-341862500I-1600000J0D01*
G01*
D11*
X88106250Y-252412500D02*
X73818750Y-266700000D01*
D10*
X-8681250Y-362622500D02*
G75*
G03*
X-8681250Y-362622500I-1600000J0D01*
G01*
X228600050Y-266681250D02*
X214312500Y-252393750D01*
X164306250Y-273843750D02*
X138112500Y-273843750D01*
X457200050Y-397668750D02*
X457200050Y-266681250D01*
X-21431250Y-397668750D02*
X457200000Y-397668750D01*
X214312550Y-252393750D02*
X185737550Y-252393750D01*
X19318750Y-360862500D02*
G75*
G03*
X19318750Y-360862500I-1600000J0D01*
G01*
D11*
X88106250Y-252412500D02*
X116681250Y-252412500D01*
D10*
X185737550Y-252393750D02*
X164306300Y-273843750D01*
D11*
X116681250Y-252412500D02*
X138112500Y-273843750D01*
D10*
X457200050Y-266681250D02*
X228600050Y-266681250D01*
M02*
