%TF.GenerationSoftware,KiCad,Pcbnew,6.0.11-2627ca5db0~126~ubuntu22.04.1*%
%TF.CreationDate,2023-11-06T21:31:54+01:00*%
%TF.ProjectId,pcb,7063622e-6b69-4636-9164-5f7063625858,rev?*%
%TF.SameCoordinates,Original*%
%TF.FileFunction,Paste,Top*%
%TF.FilePolarity,Positive*%
%FSLAX46Y46*%
G04 Gerber Fmt 4.6, Leading zero omitted, Abs format (unit mm)*
G04 Created by KiCad (PCBNEW 6.0.11-2627ca5db0~126~ubuntu22.04.1) date 2023-11-06 21:31:54*
%MOMM*%
%LPD*%
G01*
G04 APERTURE LIST*
G04 Aperture macros list*
%AMRoundRect*
0 Rectangle with rounded corners*
0 $1 Rounding radius*
0 $2 $3 $4 $5 $6 $7 $8 $9 X,Y pos of 4 corners*
0 Add a 4 corners polygon primitive as box body*
4,1,4,$2,$3,$4,$5,$6,$7,$8,$9,$2,$3,0*
0 Add four circle primitives for the rounded corners*
1,1,$1+$1,$2,$3*
1,1,$1+$1,$4,$5*
1,1,$1+$1,$6,$7*
1,1,$1+$1,$8,$9*
0 Add four rect primitives between the rounded corners*
20,1,$1+$1,$2,$3,$4,$5,0*
20,1,$1+$1,$4,$5,$6,$7,0*
20,1,$1+$1,$6,$7,$8,$9,0*
20,1,$1+$1,$8,$9,$2,$3,0*%
G04 Aperture macros list end*
%ADD10R,0.700000X0.700000*%
%ADD11RoundRect,0.500000X-0.500000X-1.000000X0.500000X-1.000000X0.500000X1.000000X-0.500000X1.000000X0*%
G04 APERTURE END LIST*
D10*
%TO.C,LED32*%
X58616250Y-377550000D03*
X60446250Y-377550000D03*
X60446250Y-376450000D03*
X58616250Y-376450000D03*
%TD*%
%TO.C,LED43*%
X365246300Y-281450000D03*
X363416300Y-281450000D03*
X363416300Y-282550000D03*
X365246300Y-282550000D03*
%TD*%
%TO.C,LED62*%
X260471300Y-319450000D03*
X258641300Y-319450000D03*
X258641300Y-320550000D03*
X260471300Y-320550000D03*
%TD*%
%TO.C,LED14*%
X60997500Y-320550000D03*
X62827500Y-320550000D03*
X62827500Y-319450000D03*
X60997500Y-319450000D03*
%TD*%
%TO.C,LED79*%
X397702900Y-335873773D03*
X397702900Y-334043773D03*
X396602900Y-334043773D03*
X396602900Y-335873773D03*
%TD*%
%TO.C,LED23*%
X122910000Y-339550000D03*
X124740000Y-339550000D03*
X124740000Y-338450000D03*
X122910000Y-338450000D03*
%TD*%
%TO.C,LED51*%
X268166300Y-301550000D03*
X269996300Y-301550000D03*
X269996300Y-300450000D03*
X268166300Y-300450000D03*
%TD*%
%TO.C,LED54*%
X344366300Y-301550000D03*
X346196300Y-301550000D03*
X346196300Y-300450000D03*
X344366300Y-300450000D03*
%TD*%
%TO.C,LED26*%
X75285000Y-358550000D03*
X77115000Y-358550000D03*
X77115000Y-357450000D03*
X75285000Y-357450000D03*
%TD*%
%TO.C,LED40*%
X269996300Y-281450000D03*
X268166300Y-281450000D03*
X268166300Y-282550000D03*
X269996300Y-282550000D03*
%TD*%
%TO.C,LED45*%
X403346300Y-281450000D03*
X401516300Y-281450000D03*
X401516300Y-282550000D03*
X403346300Y-282550000D03*
%TD*%
%TO.C,LED65*%
X322383800Y-319450000D03*
X320553800Y-319450000D03*
X320553800Y-320550000D03*
X322383800Y-320550000D03*
%TD*%
%TO.C,LED15*%
X80047500Y-320550000D03*
X81877500Y-320550000D03*
X81877500Y-319450000D03*
X80047500Y-319450000D03*
%TD*%
%TO.C,LED67*%
X365246300Y-319450000D03*
X363416300Y-319450000D03*
X363416300Y-320550000D03*
X365246300Y-320550000D03*
%TD*%
%TO.C,LED33*%
X82428750Y-377550000D03*
X84258750Y-377550000D03*
X84258750Y-376450000D03*
X82428750Y-376450000D03*
%TD*%
%TO.C,LED12*%
X127672500Y-301550000D03*
X129502500Y-301550000D03*
X129502500Y-300450000D03*
X127672500Y-300450000D03*
%TD*%
%TO.C,LED53*%
X315791300Y-301550000D03*
X317621300Y-301550000D03*
X317621300Y-300450000D03*
X315791300Y-300450000D03*
%TD*%
%TO.C,LED96*%
X363416300Y-377550000D03*
X365246300Y-377550000D03*
X365246300Y-376450000D03*
X363416300Y-376450000D03*
%TD*%
%TO.C,LED46*%
X172916300Y-301550000D03*
X174746300Y-301550000D03*
X174746300Y-300450000D03*
X172916300Y-300450000D03*
%TD*%
%TO.C,LED69*%
X187203800Y-339550000D03*
X189033800Y-339550000D03*
X189033800Y-338450000D03*
X187203800Y-338450000D03*
%TD*%
%TO.C,LED1*%
X32422500Y-282550000D03*
X34252500Y-282550000D03*
X34252500Y-281450000D03*
X32422500Y-281450000D03*
%TD*%
%TO.C,LED3*%
X70522500Y-282550000D03*
X72352500Y-282550000D03*
X72352500Y-281450000D03*
X70522500Y-281450000D03*
%TD*%
%TO.C,LED20*%
X65760000Y-339550000D03*
X67590000Y-339550000D03*
X67590000Y-338450000D03*
X65760000Y-338450000D03*
%TD*%
%TO.C,LED80*%
X198558800Y-357450000D03*
X196728800Y-357450000D03*
X196728800Y-358550000D03*
X198558800Y-358550000D03*
%TD*%
%TO.C,LED11*%
X108622500Y-301550000D03*
X110452500Y-301550000D03*
X110452500Y-300450000D03*
X108622500Y-300450000D03*
%TD*%
%TO.C,LED49*%
X230066300Y-301550000D03*
X231896300Y-301550000D03*
X231896300Y-300450000D03*
X230066300Y-300450000D03*
%TD*%
D11*
%TO.C,FS1*%
X-7618750Y-317087500D03*
X-3618750Y-317087500D03*
X381250Y-317087500D03*
X4381250Y-317087500D03*
X8381250Y-317087500D03*
X12381250Y-317087500D03*
%TD*%
D10*
%TO.C,LED25*%
X44328750Y-358550000D03*
X46158750Y-358550000D03*
X46158750Y-357450000D03*
X44328750Y-357450000D03*
%TD*%
%TO.C,LED29*%
X132435000Y-358550000D03*
X134265000Y-358550000D03*
X134265000Y-357450000D03*
X132435000Y-357450000D03*
%TD*%
%TO.C,LED98*%
X397550000Y-373915000D03*
X397550000Y-372085000D03*
X396450000Y-372085000D03*
X396450000Y-373915000D03*
%TD*%
%TO.C,LED47*%
X191966300Y-301550000D03*
X193796300Y-301550000D03*
X193796300Y-300450000D03*
X191966300Y-300450000D03*
%TD*%
%TO.C,LED8*%
X51472500Y-301550000D03*
X53302500Y-301550000D03*
X53302500Y-300450000D03*
X51472500Y-300450000D03*
%TD*%
%TO.C,LED19*%
X39566250Y-339550000D03*
X41396250Y-339550000D03*
X41396250Y-338450000D03*
X39566250Y-338450000D03*
%TD*%
%TO.C,LED93*%
X306266300Y-377550000D03*
X308096300Y-377550000D03*
X308096300Y-376450000D03*
X306266300Y-376450000D03*
%TD*%
%TO.C,LED7*%
X32422500Y-301550000D03*
X34252500Y-301550000D03*
X34252500Y-300450000D03*
X32422500Y-300450000D03*
%TD*%
%TO.C,LED41*%
X289046300Y-281450000D03*
X287216300Y-281450000D03*
X287216300Y-282550000D03*
X289046300Y-282550000D03*
%TD*%
%TO.C,LED38*%
X231896300Y-281450000D03*
X230066300Y-281450000D03*
X230066300Y-282550000D03*
X231896300Y-282550000D03*
%TD*%
%TO.C,LED60*%
X222371300Y-319450000D03*
X220541300Y-319450000D03*
X220541300Y-320550000D03*
X222371300Y-320550000D03*
%TD*%
%TO.C,LED9*%
X70522500Y-301550000D03*
X72352500Y-301550000D03*
X72352500Y-300450000D03*
X70522500Y-300450000D03*
%TD*%
%TO.C,LED87*%
X346196300Y-357450000D03*
X344366300Y-357450000D03*
X344366300Y-358550000D03*
X346196300Y-358550000D03*
%TD*%
%TO.C,LED27*%
X94335000Y-358550000D03*
X96165000Y-358550000D03*
X96165000Y-357450000D03*
X94335000Y-357450000D03*
%TD*%
%TO.C,LED4*%
X89572500Y-282550000D03*
X91402500Y-282550000D03*
X91402500Y-281450000D03*
X89572500Y-281450000D03*
%TD*%
%TO.C,LED85*%
X300952550Y-357450000D03*
X299122550Y-357450000D03*
X299122550Y-358550000D03*
X300952550Y-358550000D03*
%TD*%
%TO.C,LED42*%
X346196300Y-281450000D03*
X344366300Y-281450000D03*
X344366300Y-282550000D03*
X346196300Y-282550000D03*
%TD*%
%TO.C,LED88*%
X365246300Y-357450000D03*
X363416300Y-357450000D03*
X363416300Y-358550000D03*
X365246300Y-358550000D03*
%TD*%
%TO.C,LED81*%
X217608800Y-357450000D03*
X215778800Y-357450000D03*
X215778800Y-358550000D03*
X217608800Y-358550000D03*
%TD*%
%TO.C,LED83*%
X255708800Y-357450000D03*
X253878800Y-357450000D03*
X253878800Y-358550000D03*
X255708800Y-358550000D03*
%TD*%
%TO.C,LED74*%
X282453800Y-339550000D03*
X284283800Y-339550000D03*
X284283800Y-338450000D03*
X282453800Y-338450000D03*
%TD*%
%TO.C,LED31*%
X34803750Y-377550000D03*
X36633750Y-377550000D03*
X36633750Y-376450000D03*
X34803750Y-376450000D03*
%TD*%
%TO.C,LED71*%
X225303800Y-339550000D03*
X227133800Y-339550000D03*
X227133800Y-338450000D03*
X225303800Y-338450000D03*
%TD*%
%TO.C,LED63*%
X279521300Y-319450000D03*
X277691300Y-319450000D03*
X277691300Y-320550000D03*
X279521300Y-320550000D03*
%TD*%
%TO.C,LED82*%
X236658800Y-357450000D03*
X234828800Y-357450000D03*
X234828800Y-358550000D03*
X236658800Y-358550000D03*
%TD*%
%TO.C,LED35*%
X174746300Y-281450000D03*
X172916300Y-281450000D03*
X172916300Y-282550000D03*
X174746300Y-282550000D03*
%TD*%
%TO.C,LED66*%
X346196300Y-319450000D03*
X344366300Y-319450000D03*
X344366300Y-320550000D03*
X346196300Y-320550000D03*
%TD*%
%TO.C,LED77*%
X363416300Y-339550000D03*
X365246300Y-339550000D03*
X365246300Y-338450000D03*
X363416300Y-338450000D03*
%TD*%
%TO.C,LED34*%
X125291250Y-377550000D03*
X127121250Y-377550000D03*
X127121250Y-376450000D03*
X125291250Y-376450000D03*
%TD*%
%TO.C,LED50*%
X249085000Y-301550000D03*
X250915000Y-301550000D03*
X250915000Y-300450000D03*
X249085000Y-300450000D03*
%TD*%
%TO.C,LED55*%
X363416300Y-301550000D03*
X365246300Y-301550000D03*
X365246300Y-300450000D03*
X363416300Y-300450000D03*
%TD*%
%TO.C,LED91*%
X253878800Y-377550000D03*
X255708800Y-377550000D03*
X255708800Y-376450000D03*
X253878800Y-376450000D03*
%TD*%
%TO.C,LED57*%
X401516300Y-301550000D03*
X403346300Y-301550000D03*
X403346300Y-300450000D03*
X401516300Y-300450000D03*
%TD*%
%TO.C,LED28*%
X113385000Y-358550000D03*
X115215000Y-358550000D03*
X115215000Y-357450000D03*
X113385000Y-357450000D03*
%TD*%
%TO.C,LED61*%
X241421300Y-319450000D03*
X239591300Y-319450000D03*
X239591300Y-320550000D03*
X241421300Y-320550000D03*
%TD*%
%TO.C,LED84*%
X274758800Y-357450000D03*
X272928800Y-357450000D03*
X272928800Y-358550000D03*
X274758800Y-358550000D03*
%TD*%
%TO.C,LED75*%
X313410050Y-339550000D03*
X315240050Y-339550000D03*
X315240050Y-338450000D03*
X313410050Y-338450000D03*
%TD*%
%TO.C,LED21*%
X84810000Y-339550000D03*
X86640000Y-339550000D03*
X86640000Y-338450000D03*
X84810000Y-338450000D03*
%TD*%
%TO.C,LED68*%
X384296300Y-319450000D03*
X382466300Y-319450000D03*
X382466300Y-320550000D03*
X384296300Y-320550000D03*
%TD*%
%TO.C,LED2*%
X51472500Y-282550000D03*
X53302500Y-282550000D03*
X53302500Y-281450000D03*
X51472500Y-281450000D03*
%TD*%
%TO.C,LED78*%
X382466300Y-339550000D03*
X384296300Y-339550000D03*
X384296300Y-338450000D03*
X382466300Y-338450000D03*
%TD*%
%TO.C,LED56*%
X382466300Y-301550000D03*
X384296300Y-301550000D03*
X384296300Y-300450000D03*
X382466300Y-300450000D03*
%TD*%
%TO.C,LED39*%
X250915000Y-281450000D03*
X249085000Y-281450000D03*
X249085000Y-282550000D03*
X250915000Y-282550000D03*
%TD*%
%TO.C,LED48*%
X211016300Y-301550000D03*
X212846300Y-301550000D03*
X212846300Y-300450000D03*
X211016300Y-300450000D03*
%TD*%
%TO.C,LED17*%
X118085000Y-320550000D03*
X119915000Y-320550000D03*
X119915000Y-319450000D03*
X118085000Y-319450000D03*
%TD*%
%TO.C,LED59*%
X203321300Y-319450000D03*
X201491300Y-319450000D03*
X201491300Y-320550000D03*
X203321300Y-320550000D03*
%TD*%
%TO.C,LED30*%
X151485000Y-358550000D03*
X153315000Y-358550000D03*
X153315000Y-357450000D03*
X151485000Y-357450000D03*
%TD*%
%TO.C,LED89*%
X384296300Y-357450000D03*
X382466300Y-357450000D03*
X382466300Y-358550000D03*
X384296300Y-358550000D03*
%TD*%
%TO.C,LED18*%
X137197500Y-320550000D03*
X139027500Y-320550000D03*
X139027500Y-319450000D03*
X137197500Y-319450000D03*
%TD*%
%TO.C,LED95*%
X344366300Y-377550000D03*
X346196300Y-377550000D03*
X346196300Y-376450000D03*
X344366300Y-376450000D03*
%TD*%
%TO.C,LED5*%
X108622500Y-282550000D03*
X110452500Y-282550000D03*
X110452500Y-281450000D03*
X108622500Y-281450000D03*
%TD*%
%TO.C,LED86*%
X327146300Y-357450000D03*
X325316300Y-357450000D03*
X325316300Y-358550000D03*
X327146300Y-358550000D03*
%TD*%
%TO.C,LED22*%
X103860000Y-339550000D03*
X105690000Y-339550000D03*
X105690000Y-338450000D03*
X103860000Y-338450000D03*
%TD*%
%TO.C,LED64*%
X298571300Y-319450000D03*
X296741300Y-319450000D03*
X296741300Y-320550000D03*
X298571300Y-320550000D03*
%TD*%
%TO.C,LED94*%
X325316300Y-377550000D03*
X327146300Y-377550000D03*
X327146300Y-376450000D03*
X325316300Y-376450000D03*
%TD*%
%TO.C,LED16*%
X99085000Y-320550000D03*
X100915000Y-320550000D03*
X100915000Y-319450000D03*
X99085000Y-319450000D03*
%TD*%
%TO.C,LED44*%
X384296300Y-281450000D03*
X382466300Y-281450000D03*
X382466300Y-282550000D03*
X384296300Y-282550000D03*
%TD*%
%TO.C,LED97*%
X382466300Y-377550000D03*
X384296300Y-377550000D03*
X384296300Y-376450000D03*
X382466300Y-376450000D03*
%TD*%
%TO.C,LED72*%
X244353800Y-339550000D03*
X246183800Y-339550000D03*
X246183800Y-338450000D03*
X244353800Y-338450000D03*
%TD*%
%TO.C,LED58*%
X184271300Y-319450000D03*
X182441300Y-319450000D03*
X182441300Y-320550000D03*
X184271300Y-320550000D03*
%TD*%
%TO.C,LED24*%
X141960000Y-339550000D03*
X143790000Y-339550000D03*
X143790000Y-338450000D03*
X141960000Y-338450000D03*
%TD*%
%TO.C,LED73*%
X263403800Y-339550000D03*
X265233800Y-339550000D03*
X265233800Y-338450000D03*
X263403800Y-338450000D03*
%TD*%
%TO.C,LED13*%
X37185000Y-320550000D03*
X39015000Y-320550000D03*
X39015000Y-319450000D03*
X37185000Y-319450000D03*
%TD*%
%TO.C,LED92*%
X282453800Y-377550000D03*
X284283800Y-377550000D03*
X284283800Y-376450000D03*
X282453800Y-376450000D03*
%TD*%
%TO.C,LED70*%
X206253800Y-339550000D03*
X208083800Y-339550000D03*
X208083800Y-338450000D03*
X206253800Y-338450000D03*
%TD*%
%TO.C,LED6*%
X127672500Y-282550000D03*
X129502500Y-282550000D03*
X129502500Y-281450000D03*
X127672500Y-281450000D03*
%TD*%
%TO.C,LED10*%
X89572500Y-301550000D03*
X91402500Y-301550000D03*
X91402500Y-300450000D03*
X89572500Y-300450000D03*
%TD*%
%TO.C,LED52*%
X287216300Y-301550000D03*
X289046300Y-301550000D03*
X289046300Y-300450000D03*
X287216300Y-300450000D03*
%TD*%
%TO.C,LED76*%
X344366300Y-339550000D03*
X346196300Y-339550000D03*
X346196300Y-338450000D03*
X344366300Y-338450000D03*
%TD*%
%TO.C,LED36*%
X193796300Y-281450000D03*
X191966300Y-281450000D03*
X191966300Y-282550000D03*
X193796300Y-282550000D03*
%TD*%
%TO.C,LED37*%
X212846300Y-281450000D03*
X211016300Y-281450000D03*
X211016300Y-282550000D03*
X212846300Y-282550000D03*
%TD*%
%TO.C,LED90*%
X208635050Y-377550000D03*
X210465050Y-377550000D03*
X210465050Y-376450000D03*
X208635050Y-376450000D03*
%TD*%
M02*
