%TF.GenerationSoftware,KiCad,Pcbnew,6.0.11-2627ca5db0~126~ubuntu22.04.1*%
%TF.CreationDate,2023-11-06T21:31:54+01:00*%
%TF.ProjectId,pcb,7063622e-6b69-4636-9164-5f7063625858,rev?*%
%TF.SameCoordinates,Original*%
%TF.FileFunction,Soldermask,Top*%
%TF.FilePolarity,Negative*%
%FSLAX46Y46*%
G04 Gerber Fmt 4.6, Leading zero omitted, Abs format (unit mm)*
G04 Created by KiCad (PCBNEW 6.0.11-2627ca5db0~126~ubuntu22.04.1) date 2023-11-06 21:31:54*
%MOMM*%
%LPD*%
G01*
G04 APERTURE LIST*
G04 Aperture macros list*
%AMRoundRect*
0 Rectangle with rounded corners*
0 $1 Rounding radius*
0 $2 $3 $4 $5 $6 $7 $8 $9 X,Y pos of 4 corners*
0 Add a 4 corners polygon primitive as box body*
4,1,4,$2,$3,$4,$5,$6,$7,$8,$9,$2,$3,0*
0 Add four circle primitives for the rounded corners*
1,1,$1+$1,$2,$3*
1,1,$1+$1,$4,$5*
1,1,$1+$1,$6,$7*
1,1,$1+$1,$8,$9*
0 Add four rect primitives between the rounded corners*
20,1,$1+$1,$2,$3,$4,$5,0*
20,1,$1+$1,$4,$5,$6,$7,0*
20,1,$1+$1,$6,$7,$8,$9,0*
20,1,$1+$1,$8,$9,$2,$3,0*%
%AMHorizOval*
0 Thick line with rounded ends*
0 $1 width*
0 $2 $3 position (X,Y) of the first rounded end (center of the circle)*
0 $4 $5 position (X,Y) of the second rounded end (center of the circle)*
0 Add line between two ends*
20,1,$1,$2,$3,$4,$5,0*
0 Add two circle primitives to create the rounded ends*
1,1,$1,$2,$3*
1,1,$1,$4,$5*%
G04 Aperture macros list end*
%ADD10C,3.987800*%
%ADD11C,1.701800*%
%ADD12HorizOval,2.500000X0.604462X0.948815X-0.604462X-0.948815X0*%
%ADD13HorizOval,2.500000X0.019724X0.289328X-0.019724X-0.289328X0*%
%ADD14R,0.700000X0.700000*%
%ADD15C,3.048000*%
%ADD16HorizOval,2.500000X-0.948815X0.604462X0.948815X-0.604462X0*%
%ADD17HorizOval,2.500000X-0.289328X0.019724X0.289328X-0.019724X0*%
%ADD18RoundRect,0.250000X0.600000X0.725000X-0.600000X0.725000X-0.600000X-0.725000X0.600000X-0.725000X0*%
%ADD19O,1.700000X1.950000*%
%ADD20RoundRect,0.500000X-0.500000X-1.000000X0.500000X-1.000000X0.500000X1.000000X-0.500000X1.000000X0*%
%ADD21R,1.600000X1.600000*%
%ADD22C,1.600000*%
G04 APERTURE END LIST*
D10*
%TO.C,K80*%
X197643800Y-363537800D03*
D11*
X192563800Y-363537800D03*
X202723800Y-363537800D03*
D12*
X200898800Y-367057800D03*
D13*
X195123800Y-368327800D03*
%TD*%
D10*
%TO.C,K4*%
X90487500Y-287356550D03*
D11*
X85407500Y-287356550D03*
X95567500Y-287356550D03*
D12*
X93742500Y-290876550D03*
D13*
X87967500Y-292146550D03*
%TD*%
D14*
%TO.C,LED32*%
X58616250Y-377550000D03*
X60446250Y-377550000D03*
X60446250Y-376450000D03*
X58616250Y-376450000D03*
%TD*%
D15*
%TO.C,K75*%
X302387050Y-351556500D03*
D10*
X302387050Y-336316500D03*
D11*
X319405050Y-344571500D03*
D10*
X314325050Y-344571500D03*
D15*
X326263050Y-351556500D03*
D10*
X326263050Y-336316500D03*
D11*
X309245050Y-344571500D03*
D12*
X317580050Y-348091500D03*
D13*
X311805050Y-349361500D03*
%TD*%
D11*
%TO.C,K17*%
X113982500Y-325456550D03*
D10*
X119062500Y-325456550D03*
D11*
X124142500Y-325456550D03*
D12*
X122317500Y-328976550D03*
D13*
X116542500Y-330246550D03*
%TD*%
D11*
%TO.C,K96*%
X369411300Y-382587800D03*
X359251300Y-382587800D03*
D10*
X364331300Y-382587800D03*
D12*
X367586300Y-386107800D03*
D13*
X361811300Y-387377800D03*
%TD*%
D10*
%TO.C,K76*%
X345281300Y-344487800D03*
D11*
X350361300Y-344487800D03*
X340201300Y-344487800D03*
D12*
X348536300Y-348007800D03*
D13*
X342761300Y-349277800D03*
%TD*%
D11*
%TO.C,K8*%
X57467500Y-306406550D03*
X47307500Y-306406550D03*
D10*
X52387500Y-306406550D03*
D12*
X55642500Y-309926550D03*
D13*
X49867500Y-311196550D03*
%TD*%
D14*
%TO.C,LED43*%
X365246300Y-281450000D03*
X363416300Y-281450000D03*
X363416300Y-282550000D03*
X365246300Y-282550000D03*
%TD*%
%TO.C,LED62*%
X260471300Y-319450000D03*
X258641300Y-319450000D03*
X258641300Y-320550000D03*
X260471300Y-320550000D03*
%TD*%
%TO.C,LED14*%
X60997500Y-320550000D03*
X62827500Y-320550000D03*
X62827500Y-319450000D03*
X60997500Y-319450000D03*
%TD*%
D11*
%TO.C,K70*%
X212248800Y-344487800D03*
X202088800Y-344487800D03*
D10*
X207168800Y-344487800D03*
D12*
X210423800Y-348007800D03*
D13*
X204648800Y-349277800D03*
%TD*%
D11*
%TO.C,K93*%
X312261300Y-382587800D03*
D10*
X307181300Y-382587800D03*
D11*
X302101300Y-382587800D03*
D12*
X310436300Y-386107800D03*
D13*
X304661300Y-387377800D03*
%TD*%
D11*
%TO.C,K78*%
X388461300Y-344487800D03*
X378301300Y-344487800D03*
D10*
X383381300Y-344487800D03*
D12*
X386636300Y-348007800D03*
D13*
X380861300Y-349277800D03*
%TD*%
D14*
%TO.C,LED79*%
X397702900Y-335873773D03*
X397702900Y-334043773D03*
X396602900Y-334043773D03*
X396602900Y-335873773D03*
%TD*%
D11*
%TO.C,K92*%
X278288800Y-382587800D03*
D10*
X283368800Y-382587800D03*
D11*
X288448800Y-382587800D03*
D12*
X286623800Y-386107800D03*
D13*
X280848800Y-387377800D03*
%TD*%
D11*
%TO.C,K35*%
X178911300Y-287337800D03*
D10*
X173831300Y-287337800D03*
D11*
X168751300Y-287337800D03*
D12*
X177086300Y-290857800D03*
D13*
X171311300Y-292127800D03*
%TD*%
D14*
%TO.C,LED23*%
X122910000Y-339550000D03*
X124740000Y-339550000D03*
X124740000Y-338450000D03*
X122910000Y-338450000D03*
%TD*%
D11*
%TO.C,K98*%
X402818650Y-367982800D03*
D10*
X394563650Y-385000800D03*
X394563650Y-361124800D03*
D15*
X409803650Y-361124800D03*
X409803650Y-385000800D03*
D11*
X402818650Y-378142800D03*
D10*
X402818650Y-373062800D03*
D16*
X406338650Y-369807800D03*
D17*
X407608650Y-375582800D03*
%TD*%
D11*
%TO.C,K88*%
X359251300Y-363537800D03*
X369411300Y-363537800D03*
D10*
X364331300Y-363537800D03*
D12*
X367586300Y-367057800D03*
D13*
X361811300Y-368327800D03*
%TD*%
D14*
%TO.C,LED51*%
X268166300Y-301550000D03*
X269996300Y-301550000D03*
X269996300Y-300450000D03*
X268166300Y-300450000D03*
%TD*%
%TO.C,LED54*%
X344366300Y-301550000D03*
X346196300Y-301550000D03*
X346196300Y-300450000D03*
X344366300Y-300450000D03*
%TD*%
D11*
%TO.C,K94*%
X331311300Y-382587800D03*
D10*
X326231300Y-382587800D03*
D11*
X321151300Y-382587800D03*
D12*
X329486300Y-386107800D03*
D13*
X323711300Y-387377800D03*
%TD*%
D11*
%TO.C,K54*%
X340201300Y-306387800D03*
D10*
X345281300Y-306387800D03*
D11*
X350361300Y-306387800D03*
D12*
X348536300Y-309907800D03*
D13*
X342761300Y-311177800D03*
%TD*%
D14*
%TO.C,LED26*%
X75285000Y-358550000D03*
X77115000Y-358550000D03*
X77115000Y-357450000D03*
X75285000Y-357450000D03*
%TD*%
%TO.C,LED40*%
X269996300Y-281450000D03*
X268166300Y-281450000D03*
X268166300Y-282550000D03*
X269996300Y-282550000D03*
%TD*%
%TO.C,LED45*%
X403346300Y-281450000D03*
X401516300Y-281450000D03*
X401516300Y-282550000D03*
X403346300Y-282550000D03*
%TD*%
D10*
%TO.C,K16*%
X100012500Y-325456550D03*
D11*
X94932500Y-325456550D03*
X105092500Y-325456550D03*
D12*
X103267500Y-328976550D03*
D13*
X97492500Y-330246550D03*
%TD*%
D14*
%TO.C,LED65*%
X322383800Y-319450000D03*
X320553800Y-319450000D03*
X320553800Y-320550000D03*
X322383800Y-320550000D03*
%TD*%
D10*
%TO.C,K10*%
X90487500Y-306406550D03*
D11*
X85407500Y-306406550D03*
X95567500Y-306406550D03*
D12*
X93742500Y-309926550D03*
D13*
X87967500Y-311196550D03*
%TD*%
D11*
%TO.C,K12*%
X123507500Y-306406550D03*
D10*
X128587500Y-306406550D03*
D11*
X133667500Y-306406550D03*
D12*
X131842500Y-309926550D03*
D13*
X126067500Y-311196550D03*
%TD*%
D10*
%TO.C,K37*%
X211931300Y-287337800D03*
D11*
X217011300Y-287337800D03*
X206851300Y-287337800D03*
D12*
X215186300Y-290857800D03*
D13*
X209411300Y-292127800D03*
%TD*%
D14*
%TO.C,LED15*%
X80047500Y-320550000D03*
X81877500Y-320550000D03*
X81877500Y-319450000D03*
X80047500Y-319450000D03*
%TD*%
D11*
%TO.C,K9*%
X76517500Y-306406550D03*
D10*
X71437500Y-306406550D03*
D11*
X66357500Y-306406550D03*
D12*
X74692500Y-309926550D03*
D13*
X68917500Y-311196550D03*
%TD*%
D14*
%TO.C,LED67*%
X365246300Y-319450000D03*
X363416300Y-319450000D03*
X363416300Y-320550000D03*
X365246300Y-320550000D03*
%TD*%
D10*
%TO.C,K19*%
X40481250Y-344506550D03*
D11*
X35401250Y-344506550D03*
X45561250Y-344506550D03*
D12*
X43736250Y-348026550D03*
D13*
X37961250Y-349296550D03*
%TD*%
D11*
%TO.C,K85*%
X294957550Y-363537800D03*
X305117550Y-363537800D03*
D10*
X300037550Y-363537800D03*
D12*
X303292550Y-367057800D03*
D13*
X297517550Y-368327800D03*
%TD*%
D14*
%TO.C,LED33*%
X82428750Y-377550000D03*
X84258750Y-377550000D03*
X84258750Y-376450000D03*
X82428750Y-376450000D03*
%TD*%
D11*
%TO.C,K33*%
X88423750Y-382606550D03*
D10*
X83343750Y-382606550D03*
D11*
X78263750Y-382606550D03*
D12*
X86598750Y-386126550D03*
D13*
X80823750Y-387396550D03*
%TD*%
D10*
%TO.C,K86*%
X326231300Y-363537800D03*
D11*
X331311300Y-363537800D03*
X321151300Y-363537800D03*
D12*
X329486300Y-367057800D03*
D13*
X323711300Y-368327800D03*
%TD*%
D11*
%TO.C,K95*%
X340201300Y-382587800D03*
X350361300Y-382587800D03*
D10*
X345281300Y-382587800D03*
D12*
X348536300Y-386107800D03*
D13*
X342761300Y-387377800D03*
%TD*%
D11*
%TO.C,K42*%
X340201300Y-287337800D03*
X350361300Y-287337800D03*
D10*
X345281300Y-287337800D03*
D12*
X348536300Y-290857800D03*
D13*
X342761300Y-292127800D03*
%TD*%
D14*
%TO.C,LED12*%
X127672500Y-301550000D03*
X129502500Y-301550000D03*
X129502500Y-300450000D03*
X127672500Y-300450000D03*
%TD*%
%TO.C,LED53*%
X315791300Y-301550000D03*
X317621300Y-301550000D03*
X317621300Y-300450000D03*
X315791300Y-300450000D03*
%TD*%
%TO.C,LED96*%
X363416300Y-377550000D03*
X365246300Y-377550000D03*
X365246300Y-376450000D03*
X363416300Y-376450000D03*
%TD*%
%TO.C,LED46*%
X172916300Y-301550000D03*
X174746300Y-301550000D03*
X174746300Y-300450000D03*
X172916300Y-300450000D03*
%TD*%
D11*
%TO.C,K30*%
X157480000Y-363556550D03*
D10*
X152400000Y-363556550D03*
D11*
X147320000Y-363556550D03*
D12*
X155655000Y-367076550D03*
D13*
X149880000Y-368346550D03*
%TD*%
D14*
%TO.C,LED69*%
X187203800Y-339550000D03*
X189033800Y-339550000D03*
X189033800Y-338450000D03*
X187203800Y-338450000D03*
%TD*%
%TO.C,LED1*%
X32422500Y-282550000D03*
X34252500Y-282550000D03*
X34252500Y-281450000D03*
X32422500Y-281450000D03*
%TD*%
%TO.C,LED3*%
X70522500Y-282550000D03*
X72352500Y-282550000D03*
X72352500Y-281450000D03*
X70522500Y-281450000D03*
%TD*%
%TO.C,LED20*%
X65760000Y-339550000D03*
X67590000Y-339550000D03*
X67590000Y-338450000D03*
X65760000Y-338450000D03*
%TD*%
D11*
%TO.C,K46*%
X178911300Y-306387800D03*
D10*
X173831300Y-306387800D03*
D11*
X168751300Y-306387800D03*
D12*
X177086300Y-309907800D03*
D13*
X171311300Y-311177800D03*
%TD*%
D11*
%TO.C,K5*%
X114617500Y-287356550D03*
D10*
X109537500Y-287356550D03*
D11*
X104457500Y-287356550D03*
D12*
X112792500Y-290876550D03*
D13*
X107017500Y-292146550D03*
%TD*%
D14*
%TO.C,LED80*%
X198558800Y-357450000D03*
X196728800Y-357450000D03*
X196728800Y-358550000D03*
X198558800Y-358550000D03*
%TD*%
D10*
%TO.C,K21*%
X85725000Y-344506550D03*
D11*
X80645000Y-344506550D03*
X90805000Y-344506550D03*
D12*
X88980000Y-348026550D03*
D13*
X83205000Y-349296550D03*
%TD*%
D11*
%TO.C,K28*%
X119380000Y-363556550D03*
D10*
X114300000Y-363556550D03*
D11*
X109220000Y-363556550D03*
D12*
X117555000Y-367076550D03*
D13*
X111780000Y-368346550D03*
%TD*%
D10*
%TO.C,K51*%
X269081300Y-306387800D03*
D11*
X274161300Y-306387800D03*
X264001300Y-306387800D03*
D12*
X272336300Y-309907800D03*
D13*
X266561300Y-311177800D03*
%TD*%
D18*
%TO.C,J1*%
X111137500Y-261262500D03*
D19*
X108637500Y-261262500D03*
X106137500Y-261262500D03*
X103637500Y-261262500D03*
X101137500Y-261262500D03*
X98637500Y-261262500D03*
X96137500Y-261262500D03*
X93637500Y-261262500D03*
%TD*%
D14*
%TO.C,LED11*%
X108622500Y-301550000D03*
X110452500Y-301550000D03*
X110452500Y-300450000D03*
X108622500Y-300450000D03*
%TD*%
%TO.C,LED49*%
X230066300Y-301550000D03*
X231896300Y-301550000D03*
X231896300Y-300450000D03*
X230066300Y-300450000D03*
%TD*%
D11*
%TO.C,K62*%
X264636300Y-325437800D03*
D10*
X259556300Y-325437800D03*
D11*
X254476300Y-325437800D03*
D12*
X262811300Y-328957800D03*
D13*
X257036300Y-330227800D03*
%TD*%
D11*
%TO.C,K72*%
X250348800Y-344487800D03*
D10*
X245268800Y-344487800D03*
D11*
X240188800Y-344487800D03*
D12*
X248523800Y-348007800D03*
D13*
X242748800Y-349277800D03*
%TD*%
D20*
%TO.C,FS1*%
X-7618750Y-317087500D03*
X-3618750Y-317087500D03*
X381250Y-317087500D03*
X4381250Y-317087500D03*
X8381250Y-317087500D03*
X12381250Y-317087500D03*
%TD*%
D11*
%TO.C,K49*%
X236061300Y-306387800D03*
D10*
X230981300Y-306387800D03*
D11*
X225901300Y-306387800D03*
D12*
X234236300Y-309907800D03*
D13*
X228461300Y-311177800D03*
%TD*%
D10*
%TO.C,K60*%
X221456300Y-325437800D03*
D11*
X226536300Y-325437800D03*
X216376300Y-325437800D03*
D12*
X224711300Y-328957800D03*
D13*
X218936300Y-330227800D03*
%TD*%
D14*
%TO.C,LED25*%
X44328750Y-358550000D03*
X46158750Y-358550000D03*
X46158750Y-357450000D03*
X44328750Y-357450000D03*
%TD*%
%TO.C,LED29*%
X132435000Y-358550000D03*
X134265000Y-358550000D03*
X134265000Y-357450000D03*
X132435000Y-357450000D03*
%TD*%
%TO.C,LED98*%
X397550000Y-373915000D03*
X397550000Y-372085000D03*
X396450000Y-372085000D03*
X396450000Y-373915000D03*
%TD*%
%TO.C,LED47*%
X191966300Y-301550000D03*
X193796300Y-301550000D03*
X193796300Y-300450000D03*
X191966300Y-300450000D03*
%TD*%
D10*
%TO.C,K71*%
X226218800Y-344487800D03*
D11*
X221138800Y-344487800D03*
X231298800Y-344487800D03*
D12*
X229473800Y-348007800D03*
D13*
X223698800Y-349277800D03*
%TD*%
D10*
%TO.C,K13*%
X38100000Y-325456550D03*
D11*
X43180000Y-325456550D03*
X33020000Y-325456550D03*
D12*
X41355000Y-328976550D03*
D13*
X35580000Y-330246550D03*
%TD*%
D11*
%TO.C,K50*%
X255111300Y-306387800D03*
X244951300Y-306387800D03*
D10*
X250031300Y-306387800D03*
D12*
X253286300Y-309907800D03*
D13*
X247511300Y-311177800D03*
%TD*%
D10*
%TO.C,K53*%
X316706300Y-306387800D03*
X304768300Y-298132800D03*
D15*
X304768300Y-313372800D03*
D10*
X328644300Y-298132800D03*
D11*
X321786300Y-306387800D03*
D15*
X328644300Y-313372800D03*
D11*
X311626300Y-306387800D03*
D12*
X319961300Y-309907800D03*
D13*
X314186300Y-311177800D03*
%TD*%
D21*
%TO.C,U2*%
X432911300Y-278905000D03*
D22*
X432911300Y-281445000D03*
X432911300Y-283985000D03*
X432911300Y-286525000D03*
X432911300Y-289065000D03*
X432911300Y-291605000D03*
X432911300Y-294145000D03*
X432911300Y-296685000D03*
X432911300Y-299225000D03*
X432911300Y-301765000D03*
X432911300Y-304305000D03*
X432911300Y-306845000D03*
X448151300Y-306845000D03*
X448151300Y-304305000D03*
X448151300Y-301765000D03*
X448151300Y-299225000D03*
X448151300Y-296685000D03*
X448151300Y-294145000D03*
X448151300Y-291605000D03*
X448151300Y-289065000D03*
X448151300Y-286525000D03*
X448151300Y-283985000D03*
X448151300Y-281445000D03*
X448151300Y-278905000D03*
%TD*%
D14*
%TO.C,LED8*%
X51472500Y-301550000D03*
X53302500Y-301550000D03*
X53302500Y-300450000D03*
X51472500Y-300450000D03*
%TD*%
D11*
%TO.C,K34*%
X121126250Y-382606550D03*
D10*
X106206250Y-374351550D03*
D15*
X106206250Y-389591550D03*
D11*
X131286250Y-382606550D03*
D10*
X126206250Y-382606550D03*
X146492250Y-374351550D03*
D15*
X146492250Y-389591550D03*
D12*
X129461250Y-386126550D03*
D13*
X123686250Y-387396550D03*
%TD*%
D14*
%TO.C,LED19*%
X39566250Y-339550000D03*
X41396250Y-339550000D03*
X41396250Y-338450000D03*
X39566250Y-338450000D03*
%TD*%
D21*
%TO.C,U1*%
X-12382500Y-278923750D03*
D22*
X-12382500Y-281463750D03*
X-12382500Y-284003750D03*
X-12382500Y-286543750D03*
X-12382500Y-289083750D03*
X-12382500Y-291623750D03*
X-12382500Y-294163750D03*
X-12382500Y-296703750D03*
X-12382500Y-299243750D03*
X-12382500Y-301783750D03*
X-12382500Y-304323750D03*
X-12382500Y-306863750D03*
X2857500Y-306863750D03*
X2857500Y-304323750D03*
X2857500Y-301783750D03*
X2857500Y-299243750D03*
X2857500Y-296703750D03*
X2857500Y-294163750D03*
X2857500Y-291623750D03*
X2857500Y-289083750D03*
X2857500Y-286543750D03*
X2857500Y-284003750D03*
X2857500Y-281463750D03*
X2857500Y-278923750D03*
%TD*%
D14*
%TO.C,LED93*%
X306266300Y-377550000D03*
X308096300Y-377550000D03*
X308096300Y-376450000D03*
X306266300Y-376450000D03*
%TD*%
D10*
%TO.C,K22*%
X104775000Y-344506550D03*
D11*
X99695000Y-344506550D03*
X109855000Y-344506550D03*
D12*
X108030000Y-348026550D03*
D13*
X102255000Y-349296550D03*
%TD*%
D14*
%TO.C,LED7*%
X32422500Y-301550000D03*
X34252500Y-301550000D03*
X34252500Y-300450000D03*
X32422500Y-300450000D03*
%TD*%
D11*
%TO.C,K57*%
X407511300Y-306387800D03*
D10*
X402431300Y-306387800D03*
D11*
X397351300Y-306387800D03*
D12*
X405686300Y-309907800D03*
D13*
X399911300Y-311177800D03*
%TD*%
D14*
%TO.C,LED41*%
X289046300Y-281450000D03*
X287216300Y-281450000D03*
X287216300Y-282550000D03*
X289046300Y-282550000D03*
%TD*%
D11*
%TO.C,K82*%
X240823800Y-363537800D03*
X230663800Y-363537800D03*
D10*
X235743800Y-363537800D03*
D12*
X238998800Y-367057800D03*
D13*
X233223800Y-368327800D03*
%TD*%
D14*
%TO.C,LED38*%
X231896300Y-281450000D03*
X230066300Y-281450000D03*
X230066300Y-282550000D03*
X231896300Y-282550000D03*
%TD*%
%TO.C,LED60*%
X222371300Y-319450000D03*
X220541300Y-319450000D03*
X220541300Y-320550000D03*
X222371300Y-320550000D03*
%TD*%
%TO.C,LED9*%
X70522500Y-301550000D03*
X72352500Y-301550000D03*
X72352500Y-300450000D03*
X70522500Y-300450000D03*
%TD*%
%TO.C,LED87*%
X346196300Y-357450000D03*
X344366300Y-357450000D03*
X344366300Y-358550000D03*
X346196300Y-358550000D03*
%TD*%
D11*
%TO.C,K23*%
X128905000Y-344506550D03*
X118745000Y-344506550D03*
D10*
X123825000Y-344506550D03*
D12*
X127080000Y-348026550D03*
D13*
X121305000Y-349296550D03*
%TD*%
D11*
%TO.C,K56*%
X378301300Y-306387800D03*
D10*
X383381300Y-306387800D03*
D11*
X388461300Y-306387800D03*
D12*
X386636300Y-309907800D03*
D13*
X380861300Y-311177800D03*
%TD*%
D10*
%TO.C,K65*%
X321468800Y-325437800D03*
D11*
X326548800Y-325437800D03*
X316388800Y-325437800D03*
D12*
X324723800Y-328957800D03*
D13*
X318948800Y-330227800D03*
%TD*%
D14*
%TO.C,LED27*%
X94335000Y-358550000D03*
X96165000Y-358550000D03*
X96165000Y-357450000D03*
X94335000Y-357450000D03*
%TD*%
D11*
%TO.C,K44*%
X388461300Y-287337800D03*
X378301300Y-287337800D03*
D10*
X383381300Y-287337800D03*
D12*
X386636300Y-290857800D03*
D13*
X380861300Y-292127800D03*
%TD*%
D14*
%TO.C,LED4*%
X89572500Y-282550000D03*
X91402500Y-282550000D03*
X91402500Y-281450000D03*
X89572500Y-281450000D03*
%TD*%
%TO.C,LED85*%
X300952550Y-357450000D03*
X299122550Y-357450000D03*
X299122550Y-358550000D03*
X300952550Y-358550000D03*
%TD*%
D11*
%TO.C,K81*%
X211613800Y-363537800D03*
X221773800Y-363537800D03*
D10*
X216693800Y-363537800D03*
D12*
X219948800Y-367057800D03*
D13*
X214173800Y-368327800D03*
%TD*%
D14*
%TO.C,LED42*%
X346196300Y-281450000D03*
X344366300Y-281450000D03*
X344366300Y-282550000D03*
X346196300Y-282550000D03*
%TD*%
D10*
%TO.C,K39*%
X250031300Y-287337800D03*
D11*
X244951300Y-287337800D03*
X255111300Y-287337800D03*
D12*
X253286300Y-290857800D03*
D13*
X247511300Y-292127800D03*
%TD*%
D14*
%TO.C,LED88*%
X365246300Y-357450000D03*
X363416300Y-357450000D03*
X363416300Y-358550000D03*
X365246300Y-358550000D03*
%TD*%
%TO.C,LED81*%
X217608800Y-357450000D03*
X215778800Y-357450000D03*
X215778800Y-358550000D03*
X217608800Y-358550000D03*
%TD*%
D11*
%TO.C,K24*%
X147955000Y-344506550D03*
X137795000Y-344506550D03*
D10*
X142875000Y-344506550D03*
D12*
X146130000Y-348026550D03*
D13*
X140355000Y-349296550D03*
%TD*%
D14*
%TO.C,LED83*%
X255708800Y-357450000D03*
X253878800Y-357450000D03*
X253878800Y-358550000D03*
X255708800Y-358550000D03*
%TD*%
D10*
%TO.C,K3*%
X71437500Y-287356550D03*
D11*
X66357500Y-287356550D03*
X76517500Y-287356550D03*
D12*
X74692500Y-290876550D03*
D13*
X68917500Y-292146550D03*
%TD*%
D10*
%TO.C,K55*%
X364331300Y-306387800D03*
D11*
X369411300Y-306387800D03*
X359251300Y-306387800D03*
D12*
X367586300Y-309907800D03*
D13*
X361811300Y-311177800D03*
%TD*%
D11*
%TO.C,K2*%
X47307500Y-287356550D03*
D10*
X52387500Y-287356550D03*
D11*
X57467500Y-287356550D03*
D12*
X55642500Y-290876550D03*
D13*
X49867500Y-292146550D03*
%TD*%
D14*
%TO.C,LED74*%
X282453800Y-339550000D03*
X284283800Y-339550000D03*
X284283800Y-338450000D03*
X282453800Y-338450000D03*
%TD*%
D10*
%TO.C,K6*%
X128587500Y-287356550D03*
D11*
X133667500Y-287356550D03*
X123507500Y-287356550D03*
D12*
X131842500Y-290876550D03*
D13*
X126067500Y-292146550D03*
%TD*%
D14*
%TO.C,LED31*%
X34803750Y-377550000D03*
X36633750Y-377550000D03*
X36633750Y-376450000D03*
X34803750Y-376450000D03*
%TD*%
D10*
%TO.C,K36*%
X192881300Y-287337800D03*
D11*
X187801300Y-287337800D03*
X197961300Y-287337800D03*
D12*
X196136300Y-290857800D03*
D13*
X190361300Y-292127800D03*
%TD*%
D10*
%TO.C,K84*%
X273843800Y-363537800D03*
D11*
X278923800Y-363537800D03*
X268763800Y-363537800D03*
D12*
X277098800Y-367057800D03*
D13*
X271323800Y-368327800D03*
%TD*%
D14*
%TO.C,LED71*%
X225303800Y-339550000D03*
X227133800Y-339550000D03*
X227133800Y-338450000D03*
X225303800Y-338450000D03*
%TD*%
D11*
%TO.C,K25*%
X40163750Y-363556550D03*
D10*
X57181750Y-355301550D03*
D15*
X33305750Y-370541550D03*
D11*
X50323750Y-363556550D03*
D10*
X33305750Y-355301550D03*
X45243750Y-363556550D03*
D15*
X57181750Y-370541550D03*
D12*
X48498750Y-367076550D03*
D13*
X42723750Y-368346550D03*
%TD*%
D11*
%TO.C,K7*%
X38417500Y-306406550D03*
D10*
X33337500Y-306406550D03*
D11*
X28257500Y-306406550D03*
D12*
X36592500Y-309926550D03*
D13*
X30817500Y-311196550D03*
%TD*%
D14*
%TO.C,LED63*%
X279521300Y-319450000D03*
X277691300Y-319450000D03*
X277691300Y-320550000D03*
X279521300Y-320550000D03*
%TD*%
%TO.C,LED82*%
X236658800Y-357450000D03*
X234828800Y-357450000D03*
X234828800Y-358550000D03*
X236658800Y-358550000D03*
%TD*%
%TO.C,LED35*%
X174746300Y-281450000D03*
X172916300Y-281450000D03*
X172916300Y-282550000D03*
X174746300Y-282550000D03*
%TD*%
%TO.C,LED66*%
X346196300Y-319450000D03*
X344366300Y-319450000D03*
X344366300Y-320550000D03*
X346196300Y-320550000D03*
%TD*%
D11*
%TO.C,K27*%
X100330000Y-363556550D03*
D10*
X95250000Y-363556550D03*
D11*
X90170000Y-363556550D03*
D12*
X98505000Y-367076550D03*
D13*
X92730000Y-368346550D03*
%TD*%
D14*
%TO.C,LED77*%
X363416300Y-339550000D03*
X365246300Y-339550000D03*
X365246300Y-338450000D03*
X363416300Y-338450000D03*
%TD*%
%TO.C,LED34*%
X125291250Y-377550000D03*
X127121250Y-377550000D03*
X127121250Y-376450000D03*
X125291250Y-376450000D03*
%TD*%
D11*
%TO.C,K61*%
X235426300Y-325437800D03*
X245586300Y-325437800D03*
D10*
X240506300Y-325437800D03*
D12*
X243761300Y-328957800D03*
D13*
X237986300Y-330227800D03*
%TD*%
D14*
%TO.C,LED50*%
X249085000Y-301550000D03*
X250915000Y-301550000D03*
X250915000Y-300450000D03*
X249085000Y-300450000D03*
%TD*%
D11*
%TO.C,K69*%
X183038800Y-344487800D03*
D10*
X188118800Y-344487800D03*
D11*
X193198800Y-344487800D03*
D12*
X191373800Y-348007800D03*
D13*
X185598800Y-349277800D03*
%TD*%
D11*
%TO.C,K67*%
X359251300Y-325437800D03*
D10*
X364331300Y-325437800D03*
D11*
X369411300Y-325437800D03*
D12*
X367586300Y-328957800D03*
D13*
X361811300Y-330227800D03*
%TD*%
D14*
%TO.C,LED55*%
X363416300Y-301550000D03*
X365246300Y-301550000D03*
X365246300Y-300450000D03*
X363416300Y-300450000D03*
%TD*%
%TO.C,LED91*%
X253878800Y-377550000D03*
X255708800Y-377550000D03*
X255708800Y-376450000D03*
X253878800Y-376450000D03*
%TD*%
D11*
%TO.C,K26*%
X81280000Y-363556550D03*
D10*
X76200000Y-363556550D03*
D11*
X71120000Y-363556550D03*
D12*
X79455000Y-367076550D03*
D13*
X73680000Y-368346550D03*
%TD*%
D11*
%TO.C,K63*%
X283686300Y-325437800D03*
X273526300Y-325437800D03*
D10*
X278606300Y-325437800D03*
D12*
X281861300Y-328957800D03*
D13*
X276086300Y-330227800D03*
%TD*%
D14*
%TO.C,LED57*%
X401516300Y-301550000D03*
X403346300Y-301550000D03*
X403346300Y-300450000D03*
X401516300Y-300450000D03*
%TD*%
%TO.C,LED28*%
X113385000Y-358550000D03*
X115215000Y-358550000D03*
X115215000Y-357450000D03*
X113385000Y-357450000D03*
%TD*%
D11*
%TO.C,K83*%
X259873800Y-363537800D03*
D10*
X254793800Y-363537800D03*
D11*
X249713800Y-363537800D03*
D12*
X258048800Y-367057800D03*
D13*
X252273800Y-368327800D03*
%TD*%
D14*
%TO.C,LED61*%
X241421300Y-319450000D03*
X239591300Y-319450000D03*
X239591300Y-320550000D03*
X241421300Y-320550000D03*
%TD*%
%TO.C,LED84*%
X274758800Y-357450000D03*
X272928800Y-357450000D03*
X272928800Y-358550000D03*
X274758800Y-358550000D03*
%TD*%
D11*
%TO.C,K32*%
X54451250Y-382606550D03*
D10*
X59531250Y-382606550D03*
D11*
X64611250Y-382606550D03*
D12*
X62786250Y-386126550D03*
D13*
X57011250Y-387396550D03*
%TD*%
D11*
%TO.C,K90*%
X204470050Y-382587800D03*
D15*
X189550050Y-389572800D03*
D10*
X189550050Y-374332800D03*
D15*
X229836050Y-389572800D03*
D10*
X209550050Y-382587800D03*
X229836050Y-374332800D03*
D11*
X214630050Y-382587800D03*
D12*
X212805050Y-386107800D03*
D13*
X207030050Y-387377800D03*
%TD*%
D14*
%TO.C,LED75*%
X313410050Y-339550000D03*
X315240050Y-339550000D03*
X315240050Y-338450000D03*
X313410050Y-338450000D03*
%TD*%
%TO.C,LED21*%
X84810000Y-339550000D03*
X86640000Y-339550000D03*
X86640000Y-338450000D03*
X84810000Y-338450000D03*
%TD*%
%TO.C,LED68*%
X384296300Y-319450000D03*
X382466300Y-319450000D03*
X382466300Y-320550000D03*
X384296300Y-320550000D03*
%TD*%
%TO.C,LED2*%
X51472500Y-282550000D03*
X53302500Y-282550000D03*
X53302500Y-281450000D03*
X51472500Y-281450000D03*
%TD*%
%TO.C,LED78*%
X382466300Y-339550000D03*
X384296300Y-339550000D03*
X384296300Y-338450000D03*
X382466300Y-338450000D03*
%TD*%
D11*
%TO.C,K48*%
X206851300Y-306387800D03*
D10*
X211931300Y-306387800D03*
D11*
X217011300Y-306387800D03*
D12*
X215186300Y-309907800D03*
D13*
X209411300Y-311177800D03*
%TD*%
D14*
%TO.C,LED56*%
X382466300Y-301550000D03*
X384296300Y-301550000D03*
X384296300Y-300450000D03*
X382466300Y-300450000D03*
%TD*%
D10*
%TO.C,K52*%
X288131300Y-306387800D03*
D11*
X293211300Y-306387800D03*
X283051300Y-306387800D03*
D12*
X291386300Y-309907800D03*
D13*
X285611300Y-311177800D03*
%TD*%
D11*
%TO.C,K97*%
X378301300Y-382587800D03*
X388461300Y-382587800D03*
D10*
X383381300Y-382587800D03*
D12*
X386636300Y-386107800D03*
D13*
X380861300Y-387377800D03*
%TD*%
D11*
%TO.C,K89*%
X378301300Y-363537800D03*
X388461300Y-363537800D03*
D10*
X383381300Y-363537800D03*
D12*
X386636300Y-367057800D03*
D13*
X380861300Y-368327800D03*
%TD*%
D10*
%TO.C,K68*%
X383381300Y-325437800D03*
D11*
X388461300Y-325437800D03*
X378301300Y-325437800D03*
D12*
X386636300Y-328957800D03*
D13*
X380861300Y-330227800D03*
%TD*%
D14*
%TO.C,LED39*%
X250915000Y-281450000D03*
X249085000Y-281450000D03*
X249085000Y-282550000D03*
X250915000Y-282550000D03*
%TD*%
%TO.C,LED48*%
X211016300Y-301550000D03*
X212846300Y-301550000D03*
X212846300Y-300450000D03*
X211016300Y-300450000D03*
%TD*%
%TO.C,LED17*%
X118085000Y-320550000D03*
X119915000Y-320550000D03*
X119915000Y-319450000D03*
X118085000Y-319450000D03*
%TD*%
D11*
%TO.C,K91*%
X259873800Y-382587800D03*
D10*
X254793800Y-382587800D03*
D11*
X249713800Y-382587800D03*
D12*
X258048800Y-386107800D03*
D13*
X252273800Y-387377800D03*
%TD*%
D11*
%TO.C,K11*%
X104457500Y-306406550D03*
D10*
X109537500Y-306406550D03*
D11*
X114617500Y-306406550D03*
D12*
X112792500Y-309926550D03*
D13*
X107017500Y-311196550D03*
%TD*%
D11*
%TO.C,K31*%
X40798750Y-382606550D03*
X30638750Y-382606550D03*
D10*
X35718750Y-382606550D03*
D12*
X38973750Y-386126550D03*
D13*
X33198750Y-387396550D03*
%TD*%
D14*
%TO.C,LED59*%
X203321300Y-319450000D03*
X201491300Y-319450000D03*
X201491300Y-320550000D03*
X203321300Y-320550000D03*
%TD*%
%TO.C,LED30*%
X151485000Y-358550000D03*
X153315000Y-358550000D03*
X153315000Y-357450000D03*
X151485000Y-357450000D03*
%TD*%
%TO.C,LED89*%
X384296300Y-357450000D03*
X382466300Y-357450000D03*
X382466300Y-358550000D03*
X384296300Y-358550000D03*
%TD*%
%TO.C,LED18*%
X137197500Y-320550000D03*
X139027500Y-320550000D03*
X139027500Y-319450000D03*
X137197500Y-319450000D03*
%TD*%
%TO.C,LED95*%
X344366300Y-377550000D03*
X346196300Y-377550000D03*
X346196300Y-376450000D03*
X344366300Y-376450000D03*
%TD*%
%TO.C,LED5*%
X108622500Y-282550000D03*
X110452500Y-282550000D03*
X110452500Y-281450000D03*
X108622500Y-281450000D03*
%TD*%
D10*
%TO.C,K59*%
X202406300Y-325437800D03*
D11*
X207486300Y-325437800D03*
X197326300Y-325437800D03*
D12*
X205661300Y-328957800D03*
D13*
X199886300Y-330227800D03*
%TD*%
D11*
%TO.C,K47*%
X197961300Y-306387800D03*
D10*
X192881300Y-306387800D03*
D11*
X187801300Y-306387800D03*
D12*
X196136300Y-309907800D03*
D13*
X190361300Y-311177800D03*
%TD*%
D14*
%TO.C,LED86*%
X327146300Y-357450000D03*
X325316300Y-357450000D03*
X325316300Y-358550000D03*
X327146300Y-358550000D03*
%TD*%
%TO.C,LED22*%
X103860000Y-339550000D03*
X105690000Y-339550000D03*
X105690000Y-338450000D03*
X103860000Y-338450000D03*
%TD*%
D11*
%TO.C,K64*%
X292576300Y-325437800D03*
X302736300Y-325437800D03*
D10*
X297656300Y-325437800D03*
D12*
X300911300Y-328957800D03*
D13*
X295136300Y-330227800D03*
%TD*%
D14*
%TO.C,LED64*%
X298571300Y-319450000D03*
X296741300Y-319450000D03*
X296741300Y-320550000D03*
X298571300Y-320550000D03*
%TD*%
%TO.C,LED94*%
X325316300Y-377550000D03*
X327146300Y-377550000D03*
X327146300Y-376450000D03*
X325316300Y-376450000D03*
%TD*%
%TO.C,LED16*%
X99085000Y-320550000D03*
X100915000Y-320550000D03*
X100915000Y-319450000D03*
X99085000Y-319450000D03*
%TD*%
D11*
%TO.C,K20*%
X61595000Y-344506550D03*
D10*
X66675000Y-344506550D03*
D11*
X71755000Y-344506550D03*
D12*
X69930000Y-348026550D03*
D13*
X64155000Y-349296550D03*
%TD*%
D11*
%TO.C,K73*%
X269398800Y-344487800D03*
X259238800Y-344487800D03*
D10*
X264318800Y-344487800D03*
D12*
X267573800Y-348007800D03*
D13*
X261798800Y-349277800D03*
%TD*%
D14*
%TO.C,LED44*%
X384296300Y-281450000D03*
X382466300Y-281450000D03*
X382466300Y-282550000D03*
X384296300Y-282550000D03*
%TD*%
%TO.C,LED97*%
X382466300Y-377550000D03*
X384296300Y-377550000D03*
X384296300Y-376450000D03*
X382466300Y-376450000D03*
%TD*%
D11*
%TO.C,K41*%
X293211300Y-287337800D03*
D10*
X288131300Y-287337800D03*
D11*
X283051300Y-287337800D03*
D12*
X291386300Y-290857800D03*
D13*
X285611300Y-292127800D03*
%TD*%
D11*
%TO.C,K38*%
X225901300Y-287337800D03*
X236061300Y-287337800D03*
D10*
X230981300Y-287337800D03*
D12*
X234236300Y-290857800D03*
D13*
X228461300Y-292127800D03*
%TD*%
D14*
%TO.C,LED72*%
X244353800Y-339550000D03*
X246183800Y-339550000D03*
X246183800Y-338450000D03*
X244353800Y-338450000D03*
%TD*%
%TO.C,LED58*%
X184271300Y-319450000D03*
X182441300Y-319450000D03*
X182441300Y-320550000D03*
X184271300Y-320550000D03*
%TD*%
D10*
%TO.C,K58*%
X183356300Y-325437800D03*
D11*
X178276300Y-325437800D03*
X188436300Y-325437800D03*
D12*
X186611300Y-328957800D03*
D13*
X180836300Y-330227800D03*
%TD*%
D11*
%TO.C,K66*%
X350361300Y-325437800D03*
D10*
X345281300Y-325437800D03*
D11*
X340201300Y-325437800D03*
D12*
X348536300Y-328957800D03*
D13*
X342761300Y-330227800D03*
%TD*%
D10*
%TO.C,K15*%
X80962500Y-325456550D03*
D11*
X75882500Y-325456550D03*
X86042500Y-325456550D03*
D12*
X84217500Y-328976550D03*
D13*
X78442500Y-330246550D03*
%TD*%
D14*
%TO.C,LED24*%
X141960000Y-339550000D03*
X143790000Y-339550000D03*
X143790000Y-338450000D03*
X141960000Y-338450000D03*
%TD*%
%TO.C,LED73*%
X263403800Y-339550000D03*
X265233800Y-339550000D03*
X265233800Y-338450000D03*
X263403800Y-338450000D03*
%TD*%
D10*
%TO.C,K1*%
X33337500Y-287356550D03*
D11*
X38417500Y-287356550D03*
X28257500Y-287356550D03*
D12*
X36592500Y-290876550D03*
D13*
X30817500Y-292146550D03*
%TD*%
D10*
%TO.C,K40*%
X269081300Y-287337800D03*
D11*
X264001300Y-287337800D03*
X274161300Y-287337800D03*
D12*
X272336300Y-290857800D03*
D13*
X266561300Y-292127800D03*
%TD*%
D14*
%TO.C,LED13*%
X37185000Y-320550000D03*
X39015000Y-320550000D03*
X39015000Y-319450000D03*
X37185000Y-319450000D03*
%TD*%
%TO.C,LED92*%
X282453800Y-377550000D03*
X284283800Y-377550000D03*
X284283800Y-376450000D03*
X282453800Y-376450000D03*
%TD*%
%TO.C,LED70*%
X206253800Y-339550000D03*
X208083800Y-339550000D03*
X208083800Y-338450000D03*
X206253800Y-338450000D03*
%TD*%
D18*
%TO.C,J2*%
X208637550Y-261143750D03*
D19*
X206137550Y-261143750D03*
X203637550Y-261143750D03*
X201137550Y-261143750D03*
X198637550Y-261143750D03*
X196137550Y-261143750D03*
X193637550Y-261143750D03*
X191137550Y-261143750D03*
%TD*%
D14*
%TO.C,LED6*%
X127672500Y-282550000D03*
X129502500Y-282550000D03*
X129502500Y-281450000D03*
X127672500Y-281450000D03*
%TD*%
D11*
%TO.C,K74*%
X288448800Y-344487800D03*
X278288800Y-344487800D03*
D10*
X283368800Y-344487800D03*
D12*
X286623800Y-348007800D03*
D13*
X280848800Y-349277800D03*
%TD*%
D11*
%TO.C,K29*%
X128270000Y-363556550D03*
X138430000Y-363556550D03*
D10*
X133350000Y-363556550D03*
D12*
X136605000Y-367076550D03*
D13*
X130830000Y-368346550D03*
%TD*%
D11*
%TO.C,K14*%
X66992500Y-325456550D03*
X56832500Y-325456550D03*
D10*
X61912500Y-325456550D03*
D12*
X65167500Y-328976550D03*
D13*
X59392500Y-330246550D03*
%TD*%
D14*
%TO.C,LED10*%
X89572500Y-301550000D03*
X91402500Y-301550000D03*
X91402500Y-300450000D03*
X89572500Y-300450000D03*
%TD*%
D11*
%TO.C,K43*%
X359251300Y-287337800D03*
X369411300Y-287337800D03*
D10*
X364331300Y-287337800D03*
D12*
X367586300Y-290857800D03*
D13*
X361811300Y-292127800D03*
%TD*%
D14*
%TO.C,LED52*%
X287216300Y-301550000D03*
X289046300Y-301550000D03*
X289046300Y-300450000D03*
X287216300Y-300450000D03*
%TD*%
D11*
%TO.C,K79*%
X402818650Y-340042800D03*
D10*
X402818650Y-334962800D03*
D15*
X409803650Y-323024800D03*
D11*
X402818650Y-329882800D03*
D15*
X409803650Y-346900800D03*
D10*
X394563650Y-346900800D03*
X394563650Y-323024800D03*
D16*
X406338650Y-331707800D03*
D17*
X407608650Y-337482800D03*
%TD*%
D14*
%TO.C,LED76*%
X344366300Y-339550000D03*
X346196300Y-339550000D03*
X346196300Y-338450000D03*
X344366300Y-338450000D03*
%TD*%
D11*
%TO.C,K77*%
X369411300Y-344487800D03*
D10*
X364331300Y-344487800D03*
D11*
X359251300Y-344487800D03*
D12*
X367586300Y-348007800D03*
D13*
X361811300Y-349277800D03*
%TD*%
D11*
%TO.C,K45*%
X407511300Y-287337800D03*
X397351300Y-287337800D03*
D10*
X402431300Y-287337800D03*
D12*
X405686300Y-290857800D03*
D13*
X399911300Y-292127800D03*
%TD*%
D14*
%TO.C,LED36*%
X193796300Y-281450000D03*
X191966300Y-281450000D03*
X191966300Y-282550000D03*
X193796300Y-282550000D03*
%TD*%
%TO.C,LED37*%
X212846300Y-281450000D03*
X211016300Y-281450000D03*
X211016300Y-282550000D03*
X212846300Y-282550000D03*
%TD*%
D10*
%TO.C,K87*%
X345281300Y-363537800D03*
D11*
X350361300Y-363537800D03*
X340201300Y-363537800D03*
D12*
X348536300Y-367057800D03*
D13*
X342761300Y-368327800D03*
%TD*%
D14*
%TO.C,LED90*%
X208635050Y-377550000D03*
X210465050Y-377550000D03*
X210465050Y-376450000D03*
X208635050Y-376450000D03*
%TD*%
D10*
%TO.C,K18*%
X138112500Y-325456550D03*
D11*
X133032500Y-325456550D03*
X143192500Y-325456550D03*
D12*
X141367500Y-328976550D03*
D13*
X135592500Y-330246550D03*
%TD*%
M02*
