M48
; DRILL file {KiCad 6.0.11-2627ca5db0~126~ubuntu22.04.1} date lun. 06 nov. 2023 21:32:42
; FORMAT={-:-/ absolute / inch / decimal}
; #@! TF.CreationDate,2023-11-06T21:32:42+01:00
; #@! TF.GenerationSoftware,Kicad,Pcbnew,6.0.11-2627ca5db0~126~ubuntu22.04.1
; #@! TF.FileFunction,Plated,1,2,PTH
FMAT,2
INCH
; #@! TA.AperFunction,Plated,PTH,ViaDrill
T1C0.0157
; #@! TA.AperFunction,Plated,PTH,ComponentDrill
T2C0.0374
; #@! TA.AperFunction,Plated,PTH,ComponentDrill
T3C0.0433
; #@! TA.AperFunction,Plated,PTH,ComponentDrill
T4C0.0591
%
G90
G05
T1
X-0.7131Y-11.4139
X-0.2899Y-11.4336
X0.2515Y-12.8903
X0.3302Y-12.7131
X0.6681Y-11.8942
X0.7239Y-11.0595
X0.7928Y-11.4336
X0.9405Y-11.0891
X1.0192Y-12.045
X1.1275Y-11.1088
X1.1275Y-11.6599
X1.3145Y-12.408
X1.3834Y-13.1462
X1.4161Y-11.0576
X1.531Y-11.8962
X1.5785Y-11.22
X1.5802Y-14.9178
X1.5901Y-14.6619
X1.6491Y-12.6344
X1.7114Y-11.0674
X1.718Y-11.1973
X1.7279Y-11.8962
X1.8066Y-13.4218
X1.846Y-14.9178
X1.905Y-13.8745
X1.9247Y-14.2092
X1.9476Y-11.0576
X2.0133Y-12.6344
X2.0428Y-14.7997
X2.0428Y-14.9867
X2.1149Y-12.9473
X2.1216Y-13.4021
X2.2397Y-11.9158
X2.2527Y-14.3253
X2.3511Y-11.2249
X2.3971Y-12.3391
X2.4365Y-12.1225
X2.4397Y-11.0674
X2.5251Y-14.2092
X2.5349Y-11.8863
X2.594Y-12.6639
X2.6334Y-14.9277
X2.6629Y-15.0162
X2.8007Y-13.4119
X2.909Y-15.0162
X2.968Y-11.906
X2.9779Y-12.6639
X2.9877Y-14.9277
X3.0893Y-11.2151
X3.1452Y-12.3095
X3.155Y-13.4119
X3.1649Y-14.1796
X3.2042Y-11.9749
X3.2731Y-11.906
X3.3125Y-15.4198
X3.3716Y-12.654
X3.4208Y-14.1501
X3.5389Y-13.4119
X3.6208Y-13.8135
X3.657Y-12.654
X3.6767Y-15.0162
X3.6897Y-11.0674
X3.7357Y-11.906
X3.844Y-13.4119
X3.8735Y-11.2367
X3.9129Y-12.3489
X3.9129Y-14.1599
X3.9621Y-11.0694
X3.9916Y-12.1914
X3.9948Y-15.1718
X4.0244Y-11.4218
X4.031Y-11.906
X4.1097Y-12.6737
X4.1523Y-11.0674
X4.2082Y-14.1403
X4.2869Y-13.4119
X4.405Y-12.6737
X4.4345Y-15.0162
X4.5133Y-11.906
X4.592Y-13.4119
X4.6708Y-14.1698
X4.7889Y-11.906
X4.8479Y-12.6836
X4.966Y-14.1698
X5.0546Y-13.4119
X5.107Y-13.8233
X5.1334Y-14.9277
X5.1924Y-12.6836
X5.2416Y-11.9355
X5.3401Y-13.4119
X5.3597Y-11.2072
X5.409Y-14.1599
X5.4582Y-15.3017
X5.5664Y-14.78
X5.6058Y-12.6836
X5.7141Y-14.1599
X5.7141Y-14.3863
X5.7731Y-13.4316
X6.1668Y-14.1796
X7.0231Y-11.9151
X7.3479Y-12.673
X7.361Y-12.3856
X7.3676Y-11.8856
X7.5197Y-13.1496
X7.5546Y-13.3915
X7.5972Y-14.6494
X7.6378Y-12.8346
X7.7712Y-12.6435
X7.794Y-12.3954
X7.7953Y-15.1575
X7.8007Y-11.7773
X7.8415Y-14.8839
X7.8531Y-13.6848
X7.8925Y-14.0293
X7.9318Y-15.0037
X7.9483Y-14.169
X7.9614Y-11.1553
X7.9779Y-13.3029
X8.1353Y-11.8856
X8.1582Y-14.3049
X8.2205Y-14.4511
X8.3059Y-14.1966
X8.3223Y-13.4013
X8.3814Y-14.1198
X8.424Y-13.9013
X8.4732Y-11.6671
X8.4995Y-14.986
X8.5192Y-11.9151
X8.5881Y-13.2438
X8.6865Y-14.1789
X8.6964Y-13.3718
X8.7008Y-15.1575
X8.7402Y-12.2047
X8.7586Y-13.9013
X8.8637Y-12.6435
X8.8669Y-11.7163
X8.8735Y-11.8856
X9.0047Y-13.9013
X9.031Y-12.4663
X9.031Y-12.732
X9.0999Y-14.1395
X9.2475Y-11.9151
X9.2704Y-13.1533
X9.3Y-15.1809
X9.3098Y-13.8521
X9.3164Y-12.6435
X9.3755Y-11.7281
X9.4181Y-13.4584
X9.4641Y-12.3285
X9.4771Y-15.2399
X9.5034Y-13.2438
X9.5657Y-14.8068
X9.6216Y-14.1001
X9.6248Y-11.8738
X9.6511Y-12.6533
X9.6641Y-13.8718
X9.7133Y-14.925
X9.8031Y-13.1102
X9.8216Y-12.484
X9.8425Y-14.1732
X9.8971Y-13.2438
X9.9791Y-11.736
X10.0054Y-11.9151
X10.0153Y-12.6435
X10.0578Y-13.8718
X10.0972Y-12.4938
X10.1181Y-13.2677
X10.1924Y-13.3816
X10.1924Y-14.9171
X10.2448Y-11.736
X10.2645Y-14.669
X10.3794Y-11.8954
X10.4122Y-13.8521
X10.7862Y-14.6887
X10.7874Y-15.2756
X10.8059Y-13.6061
X10.8157Y-11.0765
X10.8716Y-14.8974
X10.8846Y-11.2537
X10.9338Y-10.9486
X10.9405Y-14.169
X10.9601Y-11.9053
X10.9633Y-12.0312
X10.9929Y-11.0568
X11.0236Y-13.1496
X11.1011Y-11.9722
X11.1275Y-12.6631
X11.1996Y-12.5824
X11.2259Y-11.8167
X11.3177Y-14.8954
X11.3342Y-13.4407
X11.3669Y-13.8915
X11.3767Y-12.5824
X11.4173Y-13.1496
X11.4358Y-14.9742
X11.4555Y-11.6572
X11.5212Y-11.925
X11.5507Y-12.6336
X11.5704Y-14.1494
X11.6535Y-15.2362
X11.6917Y-14.9938
X11.7114Y-13.8915
X11.7212Y-11.0962
X11.8755Y-12.6533
X11.8853Y-14.8974
X12.0263Y-13.5372
X12.0657Y-12.7301
X12.1346Y-11.421
X12.1511Y-13.3915
X12.1708Y-14.0509
X12.22Y-11.9053
X12.2594Y-12.5746
X12.2626Y-14.9151
X12.3511Y-13.0549
X12.3971Y-14.3856
X12.5743Y-14.7399
X12.5984Y-11.6535
X12.6235Y-13.8738
X12.6563Y-14.8954
X12.7842Y-12.5726
X12.8105Y-12.6533
X12.8499Y-13.4309
X12.9134Y-11.5354
X12.922Y-11.9919
X12.9975Y-14.169
X12.9975Y-14.9269
X13.0204Y-13.8915
X13.0303Y-12.2084
X13.0598Y-10.8305
X13.0598Y-10.9584
X13.0598Y-11.0962
X13.0893Y-14.984
X13.0992Y-13.5962
X13.1287Y-12.5726
X13.2074Y-11.0864
X13.2074Y-11.3226
X13.2566Y-15.0332
X13.3157Y-12.3757
X13.3255Y-13.6651
X13.3814Y-13.4112
X13.3814Y-14.1297
X13.4011Y-14.9269
X13.4208Y-12.6336
X13.67Y-12.4151
X13.6799Y-13.8816
X13.7357Y-11.9053
X13.7881Y-14.9348
X13.8834Y-12.6533
X13.8834Y-13.3915
X13.9259Y-11.0568
X13.937Y-12.9528
X14.0047Y-11.5096
X14.0342Y-15.4466
X14.0736Y-12.6612
X14.1393Y-11.8167
X14.1523Y-14.8856
X14.3885Y-13.8718
X14.487Y-12.4545
X14.5034Y-11.9151
X14.5034Y-13.421
X14.5066Y-14.8265
X14.5066Y-14.925
X14.5165Y-11.7557
X14.5428Y-13.923
X14.5625Y-12.5155
X14.7133Y-13.8127
X14.7298Y-12.6435
X14.7298Y-12.9486
X14.7626Y-12.5431
X14.7626Y-14.8265
X14.7724Y-11.7753
X14.7921Y-13.9899
X14.7987Y-13.2438
X14.8086Y-12.171
X14.9102Y-14.9053
X14.9168Y-11.8068
X14.9496Y-12.4545
X14.966Y-14.1198
X15.107Y-13.8816
X15.2515Y-11.9053
X15.2613Y-13.4309
X15.2645Y-14.925
X15.2744Y-13.921
X15.3302Y-14.7498
X15.3531Y-14.5411
X15.3826Y-10.9781
X15.4188Y-11.6506
X15.4779Y-14.4348
X15.4909Y-11.5096
X15.5204Y-14.7675
X15.5271Y-13.4899
X15.6649Y-11.8856
X15.7173Y-13.8029
X15.7468Y-12.612
X15.8059Y-12.4053
X15.8551Y-12.858
X15.9732Y-11.8344
X16.0519Y-11.923
X16.1602Y-12.858
X16.2783Y-13.7537
X16.3078Y-11.6375
X16.3078Y-15.1612
X16.4259Y-11.8836
X16.6622Y-10.8895
X16.6622Y-11.0962
X16.7015Y-14.7281
X17.2724Y-11.2635
X17.3905Y-11.3915
T2
X3.6865Y-10.2859
X3.7849Y-10.2859
X3.8834Y-10.2859
X3.9818Y-10.2859
X4.0802Y-10.2859
X4.1786Y-10.2859
X4.2771Y-10.2859
X4.3755Y-10.2859
X7.5251Y-10.2812
X7.6235Y-10.2812
X7.722Y-10.2812
X7.8204Y-10.2812
X7.9188Y-10.2812
X8.0172Y-10.2812
X8.1157Y-10.2812
X8.2141Y-10.2812
T3
X-0.4875Y-10.9812
X-0.4875Y-11.0812
X-0.4875Y-11.1813
X-0.4875Y-11.2812
X-0.4875Y-11.3812
X-0.4875Y-11.4812
X-0.4875Y-11.5812
X-0.4875Y-11.6813
X-0.4875Y-11.7812
X-0.4875Y-11.8812
X-0.4875Y-11.9812
X-0.4875Y-12.0812
X0.1125Y-10.9812
X0.1125Y-11.0812
X0.1125Y-11.1813
X0.1125Y-11.2812
X0.1125Y-11.3812
X0.1125Y-11.4812
X0.1125Y-11.5812
X0.1125Y-11.6813
X0.1125Y-11.7812
X0.1125Y-11.8812
X0.1125Y-11.9812
X0.1125Y-12.0812
X17.0438Y-10.9805
X17.0438Y-11.0805
X17.0438Y-11.1805
X17.0438Y-11.2805
X17.0438Y-11.3805
X17.0438Y-11.4805
X17.0438Y-11.5805
X17.0438Y-11.6805
X17.0438Y-11.7805
X17.0438Y-11.8805
X17.0438Y-11.9805
X17.0438Y-12.0805
X17.6438Y-10.9805
X17.6438Y-11.0805
X17.6438Y-11.1805
X17.6438Y-11.2805
X17.6438Y-11.3805
X17.6438Y-11.4805
X17.6438Y-11.5805
X17.6438Y-11.6805
X17.6438Y-11.7805
X17.6438Y-11.8805
X17.6438Y-11.9805
X17.6438Y-12.0805
T4
G00X1.2125Y-11.5132
M15
G01X1.2141Y-11.4904
M16
G05
G00X1.2125Y-12.2632
M15
G01X1.2141Y-12.2404
M16
G05
G00X1.3063Y-15.2632
M15
G01X1.3078Y-15.2404
M16
G05
G00X1.4Y-13.0132
M15
G01X1.4016Y-12.9904
M16
G05
G00X1.4169Y-11.4892
M15
G01X1.4644Y-11.4145
M16
G05
G00X1.4169Y-12.2392
M15
G01X1.4644Y-12.1645
M16
G05
G00X1.4938Y-13.7632
M15
G01X1.4953Y-13.7404
M16
G05
G00X1.5106Y-15.2392
M15
G01X1.5582Y-15.1645
M16
G05
G00X1.6044Y-12.9892
M15
G01X1.6519Y-12.9145
M16
G05
G00X1.6813Y-14.5132
M15
G01X1.6828Y-14.4904
M16
G05
G00X1.6981Y-13.7392
M15
G01X1.7457Y-13.6645
M16
G05
G00X1.8856Y-14.4892
M15
G01X1.9332Y-14.4145
M16
G05
G00X1.9625Y-11.5132
M15
G01X1.9641Y-11.4904
M16
G05
G00X1.9625Y-12.2632
M15
G01X1.9641Y-12.2404
M16
G05
G00X2.1669Y-11.4892
M15
G01X2.2144Y-11.4145
M16
G05
G00X2.1669Y-12.2392
M15
G01X2.2144Y-12.1645
M16
G05
G00X2.2438Y-15.2632
M15
G01X2.2453Y-15.2404
M16
G05
G00X2.3375Y-13.0132
M15
G01X2.3391Y-12.9904
M16
G05
G00X2.4481Y-15.2392
M15
G01X2.4957Y-15.1645
M16
G05
G00X2.525Y-13.7632
M15
G01X2.5266Y-13.7404
M16
G05
G00X2.5419Y-12.9892
M15
G01X2.5894Y-12.9145
M16
G05
G00X2.7125Y-11.5132
M15
G01X2.7141Y-11.4904
M16
G05
G00X2.7125Y-12.2632
M15
G01X2.7141Y-12.2404
M16
G05
G00X2.7294Y-13.7392
M15
G01X2.7769Y-13.6645
M16
G05
G00X2.9Y-14.5132
M15
G01X2.9016Y-14.4904
M16
G05
G00X2.9169Y-11.4892
M15
G01X2.9644Y-11.4145
M16
G05
G00X2.9169Y-12.2392
M15
G01X2.9644Y-12.1645
M16
G05
G00X3.0875Y-13.0132
M15
G01X3.0891Y-12.9904
M16
G05
G00X3.1044Y-14.4892
M15
G01X3.1519Y-14.4145
M16
G05
G00X3.1813Y-15.2632
M15
G01X3.1828Y-15.2404
M16
G05
G00X3.275Y-13.7632
M15
G01X3.2766Y-13.7404
M16
G05
G00X3.2919Y-12.9892
M15
G01X3.3394Y-12.9145
M16
G05
G00X3.3856Y-15.2392
M15
G01X3.4332Y-15.1645
M16
G05
G00X3.4625Y-11.5132
M15
G01X3.4641Y-11.4904
M16
G05
G00X3.4625Y-12.2632
M15
G01X3.4641Y-12.2404
M16
G05
G00X3.4794Y-13.7392
M15
G01X3.5269Y-13.6645
M16
G05
G00X3.65Y-14.5132
M15
G01X3.6516Y-14.4904
M16
G05
G00X3.6669Y-11.4892
M15
G01X3.7144Y-11.4145
M16
G05
G00X3.6669Y-12.2392
M15
G01X3.7144Y-12.1645
M16
G05
G00X3.8375Y-13.0132
M15
G01X3.8391Y-12.9904
M16
G05
G00X3.8544Y-14.4892
M15
G01X3.9019Y-14.4145
M16
G05
G00X4.025Y-13.7632
M15
G01X4.0266Y-13.7404
M16
G05
G00X4.0419Y-12.9892
M15
G01X4.0894Y-12.9145
M16
G05
G00X4.2125Y-11.5132
M15
G01X4.2141Y-11.4904
M16
G05
G00X4.2125Y-12.2632
M15
G01X4.2141Y-12.2404
M16
G05
G00X4.2294Y-13.7392
M15
G01X4.2769Y-13.6645
M16
G05
G00X4.4Y-14.5132
M15
G01X4.4016Y-14.4904
M16
G05
G00X4.4169Y-11.4892
M15
G01X4.4644Y-11.4145
M16
G05
G00X4.4169Y-12.2392
M15
G01X4.4644Y-12.1645
M16
G05
G00X4.5875Y-13.0132
M15
G01X4.5891Y-12.9904
M16
G05
G00X4.6044Y-14.4892
M15
G01X4.6519Y-14.4145
M16
G05
G00X4.775Y-13.7632
M15
G01X4.7766Y-13.7404
M16
G05
G00X4.7919Y-12.9892
M15
G01X4.8394Y-12.9145
M16
G05
G00X4.8688Y-15.2632
M15
G01X4.8703Y-15.2404
M16
G05
G00X4.9625Y-11.5132
M15
G01X4.9641Y-11.4904
M16
G05
G00X4.9625Y-12.2632
M15
G01X4.9641Y-12.2404
M16
G05
G00X4.9794Y-13.7392
M15
G01X5.0269Y-13.6645
M16
G05
G00X5.0731Y-15.2392
M15
G01X5.1207Y-15.1645
M16
G05
G00X5.15Y-14.5132
M15
G01X5.1516Y-14.4904
M16
G05
G00X5.1669Y-11.4892
M15
G01X5.2144Y-11.4145
M16
G05
G00X5.1669Y-12.2392
M15
G01X5.2144Y-12.1645
M16
G05
G00X5.3375Y-13.0132
M15
G01X5.3391Y-12.9904
M16
G05
G00X5.3544Y-14.4892
M15
G01X5.4019Y-14.4145
M16
G05
G00X5.525Y-13.7632
M15
G01X5.5266Y-13.7404
M16
G05
G00X5.5419Y-12.9892
M15
G01X5.5894Y-12.9145
M16
G05
G00X5.7294Y-13.7392
M15
G01X5.7769Y-13.6645
M16
G05
G00X5.9Y-14.5132
M15
G01X5.9016Y-14.4904
M16
G05
G00X6.1044Y-14.4892
M15
G01X6.1519Y-14.4145
M16
G05
G00X6.7438Y-11.5125
M15
G01X6.7453Y-11.4897
M16
G05
G00X6.7438Y-12.2625
M15
G01X6.7453Y-12.2397
M16
G05
G00X6.9481Y-11.4884
M15
G01X6.9957Y-11.4137
M16
G05
G00X6.9481Y-12.2384
M15
G01X6.9957Y-12.1637
M16
G05
G00X7.1188Y-13.0125
M15
G01X7.1203Y-12.9897
M16
G05
G00X7.3063Y-13.7625
M15
G01X7.3078Y-13.7397
M16
G05
G00X7.3231Y-12.9884
M15
G01X7.3707Y-12.9137
M16
G05
G00X7.4938Y-11.5125
M15
G01X7.4953Y-11.4897
M16
G05
G00X7.4938Y-12.2625
M15
G01X7.4953Y-12.2397
M16
G05
G00X7.5106Y-13.7384
M15
G01X7.5582Y-13.6637
M16
G05
G00X7.6813Y-14.5125
M15
G01X7.6828Y-14.4897
M16
G05
G00X7.6981Y-11.4884
M15
G01X7.7457Y-11.4137
M16
G05
G00X7.6981Y-12.2384
M15
G01X7.7457Y-12.1637
M16
G05
G00X7.8688Y-13.0125
M15
G01X7.8703Y-12.9897
M16
G05
G00X7.8856Y-14.4884
M15
G01X7.9332Y-14.4137
M16
G05
G00X8.0563Y-13.7625
M15
G01X8.0578Y-13.7397
M16
G05
G00X8.0731Y-12.9884
M15
G01X8.1207Y-12.9137
M16
G05
G00X8.15Y-15.2625
M15
G01X8.1516Y-15.2397
M16
G05
G00X8.2438Y-11.5125
M15
G01X8.2453Y-11.4897
M16
G05
G00X8.2438Y-12.2625
M15
G01X8.2453Y-12.2397
M16
G05
G00X8.2606Y-13.7384
M15
G01X8.3082Y-13.6637
M16
G05
G00X8.3544Y-15.2384
M15
G01X8.4019Y-15.1637
M16
G05
G00X8.4313Y-14.5125
M15
G01X8.4328Y-14.4897
M16
G05
G00X8.4481Y-11.4884
M15
G01X8.4957Y-11.4137
M16
G05
G00X8.4481Y-12.2384
M15
G01X8.4957Y-12.1637
M16
G05
G00X8.6188Y-13.0125
M15
G01X8.6203Y-12.9897
M16
G05
G00X8.6356Y-14.4884
M15
G01X8.6832Y-14.4137
M16
G05
G00X8.8063Y-13.7625
M15
G01X8.8078Y-13.7397
M16
G05
G00X8.8231Y-12.9884
M15
G01X8.8707Y-12.9137
M16
G05
G00X8.9938Y-11.5125
M15
G01X8.9953Y-11.4897
M16
G05
G00X8.9938Y-12.2625
M15
G01X8.9953Y-12.2397
M16
G05
G00X9.0106Y-13.7384
M15
G01X9.0582Y-13.6637
M16
G05
G00X9.1813Y-14.5125
M15
G01X9.1828Y-14.4897
M16
G05
G00X9.1981Y-11.4884
M15
G01X9.2457Y-11.4137
M16
G05
G00X9.1981Y-12.2384
M15
G01X9.2457Y-12.1637
M16
G05
G00X9.3688Y-13.0125
M15
G01X9.3703Y-12.9897
M16
G05
G00X9.3856Y-14.4884
M15
G01X9.4332Y-14.4137
M16
G05
G00X9.5563Y-13.7625
M15
G01X9.5578Y-13.7397
M16
G05
G00X9.5731Y-12.9884
M15
G01X9.6207Y-12.9137
M16
G05
G00X9.7438Y-11.5125
M15
G01X9.7453Y-11.4897
M16
G05
G00X9.7438Y-12.2625
M15
G01X9.7453Y-12.2397
M16
G05
G00X9.7606Y-13.7384
M15
G01X9.8082Y-13.6637
M16
G05
G00X9.9313Y-14.5125
M15
G01X9.9328Y-14.4897
M16
G05
G00X9.9313Y-15.2625
M15
G01X9.9328Y-15.2397
M16
G05
G00X9.9481Y-11.4884
M15
G01X9.9957Y-11.4137
M16
G05
G00X9.9481Y-12.2384
M15
G01X9.9957Y-12.1637
M16
G05
G00X10.1188Y-13.0125
M15
G01X10.1203Y-12.9897
M16
G05
G00X10.1356Y-14.4884
M15
G01X10.1832Y-14.4137
M16
G05
G00X10.1356Y-15.2384
M15
G01X10.1832Y-15.1637
M16
G05
G00X10.3063Y-13.7625
M15
G01X10.3078Y-13.7397
M16
G05
G00X10.3231Y-12.9884
M15
G01X10.3707Y-12.9137
M16
G05
G00X10.4938Y-11.5125
M15
G01X10.4953Y-11.4897
M16
G05
G00X10.4938Y-12.2625
M15
G01X10.4953Y-12.2397
M16
G05
G00X10.5106Y-13.7384
M15
G01X10.5582Y-13.6637
M16
G05
G00X10.6813Y-14.5125
M15
G01X10.6828Y-14.4897
M16
G05
G00X10.6981Y-11.4884
M15
G01X10.7457Y-11.4137
M16
G05
G00X10.6981Y-12.2384
M15
G01X10.7457Y-12.1637
M16
G05
G00X10.8688Y-13.0125
M15
G01X10.8703Y-12.9897
M16
G05
G00X10.8856Y-14.4884
M15
G01X10.9332Y-14.4137
M16
G05
G00X11.0563Y-13.7625
M15
G01X11.0578Y-13.7397
M16
G05
G00X11.0563Y-15.2625
M15
G01X11.0578Y-15.2397
M16
G05
G00X11.0731Y-12.9884
M15
G01X11.1207Y-12.9137
M16
G05
G00X11.2438Y-11.5125
M15
G01X11.2453Y-11.4897
M16
G05
G00X11.2438Y-12.2625
M15
G01X11.2453Y-12.2397
M16
G05
G00X11.2606Y-13.7384
M15
G01X11.3082Y-13.6637
M16
G05
G00X11.2606Y-15.2384
M15
G01X11.3082Y-15.1637
M16
G05
G00X11.4481Y-11.4884
M15
G01X11.4957Y-11.4137
M16
G05
G00X11.4481Y-12.2384
M15
G01X11.4957Y-12.1637
M16
G05
G00X11.6188Y-13.0125
M15
G01X11.6203Y-12.9897
M16
G05
G00X11.7125Y-14.5125
M15
G01X11.7141Y-14.4897
M16
G05
G00X11.8231Y-12.9884
M15
G01X11.8707Y-12.9137
M16
G05
G00X11.9169Y-14.4884
M15
G01X11.9644Y-14.4137
M16
G05
G00X11.9938Y-15.2625
M15
G01X11.9953Y-15.2397
M16
G05
G00X12.1981Y-15.2384
M15
G01X12.2457Y-15.1637
M16
G05
G00X12.275Y-13.7658
M15
G01X12.2766Y-13.743
M16
G05
G00X12.3688Y-12.2625
M15
G01X12.3703Y-12.2397
M16
G05
G00X12.4794Y-13.7417
M15
G01X12.5269Y-13.667
M16
G05
G00X12.5563Y-13.0125
M15
G01X12.5578Y-12.9897
M16
G05
G00X12.5731Y-12.2384
M15
G01X12.6207Y-12.1637
M16
G05
G00X12.7438Y-14.5125
M15
G01X12.7453Y-14.4897
M16
G05
G00X12.7438Y-15.2625
M15
G01X12.7453Y-15.2397
M16
G05
G00X12.7606Y-12.9884
M15
G01X12.8082Y-12.9137
M16
G05
G00X12.9481Y-14.4884
M15
G01X12.9957Y-14.4137
M16
G05
G00X12.9481Y-15.2384
M15
G01X12.9957Y-15.1637
M16
G05
G00X13.4938Y-11.5125
M15
G01X13.4953Y-11.4897
M16
G05
G00X13.4938Y-12.2625
M15
G01X13.4953Y-12.2397
M16
G05
G00X13.4938Y-13.0125
M15
G01X13.4953Y-12.9897
M16
G05
G00X13.4938Y-13.7625
M15
G01X13.4953Y-13.7397
M16
G05
G00X13.4938Y-14.5125
M15
G01X13.4953Y-14.4897
M16
G05
G00X13.4938Y-15.2625
M15
G01X13.4953Y-15.2397
M16
G05
G00X13.6981Y-11.4884
M15
G01X13.7457Y-11.4137
M16
G05
G00X13.6981Y-12.2384
M15
G01X13.7457Y-12.1637
M16
G05
G00X13.6981Y-12.9884
M15
G01X13.7457Y-12.9137
M16
G05
G00X13.6981Y-13.7384
M15
G01X13.7457Y-13.6637
M16
G05
G00X13.6981Y-14.4884
M15
G01X13.7457Y-14.4137
M16
G05
G00X13.6981Y-15.2384
M15
G01X13.7457Y-15.1637
M16
G05
G00X14.2438Y-11.5125
M15
G01X14.2453Y-11.4897
M16
G05
G00X14.2438Y-12.2625
M15
G01X14.2453Y-12.2397
M16
G05
G00X14.2438Y-13.0125
M15
G01X14.2453Y-12.9897
M16
G05
G00X14.2438Y-13.7625
M15
G01X14.2453Y-13.7397
M16
G05
G00X14.2438Y-14.5125
M15
G01X14.2453Y-14.4897
M16
G05
G00X14.2438Y-15.2625
M15
G01X14.2453Y-15.2397
M16
G05
G00X14.4481Y-11.4884
M15
G01X14.4957Y-11.4137
M16
G05
G00X14.4481Y-12.2384
M15
G01X14.4957Y-12.1637
M16
G05
G00X14.4481Y-12.9884
M15
G01X14.4957Y-12.9137
M16
G05
G00X14.4481Y-13.7384
M15
G01X14.4957Y-13.6637
M16
G05
G00X14.4481Y-14.4884
M15
G01X14.4957Y-14.4137
M16
G05
G00X14.4481Y-15.2384
M15
G01X14.4957Y-15.1637
M16
G05
G00X14.9938Y-11.5125
M15
G01X14.9953Y-11.4897
M16
G05
G00X14.9938Y-12.2625
M15
G01X14.9953Y-12.2397
M16
G05
G00X14.9938Y-13.0125
M15
G01X14.9953Y-12.9897
M16
G05
G00X14.9938Y-13.7625
M15
G01X14.9953Y-13.7397
M16
G05
G00X14.9938Y-14.5125
M15
G01X14.9953Y-14.4897
M16
G05
G00X14.9938Y-15.2625
M15
G01X14.9953Y-15.2397
M16
G05
G00X15.1981Y-11.4884
M15
G01X15.2457Y-11.4137
M16
G05
G00X15.1981Y-12.2384
M15
G01X15.2457Y-12.1637
M16
G05
G00X15.1981Y-12.9884
M15
G01X15.2457Y-12.9137
M16
G05
G00X15.1981Y-13.7384
M15
G01X15.2457Y-13.6637
M16
G05
G00X15.1981Y-14.4884
M15
G01X15.2457Y-14.4137
M16
G05
G00X15.1981Y-15.2384
M15
G01X15.2457Y-15.1637
M16
G05
G00X15.7438Y-11.5125
M15
G01X15.7453Y-11.4897
M16
G05
G00X15.7438Y-12.2625
M15
G01X15.7453Y-12.2397
M16
G05
G00X15.9481Y-11.4884
M15
G01X15.9957Y-11.4137
M16
G05
G00X15.9481Y-12.2384
M15
G01X15.9957Y-12.1637
M16
G05
G00X16.0349Y-13.0832
M15
G01X15.9602Y-13.0356
M16
G05
G00X16.0349Y-14.5832
M15
G01X15.9602Y-14.5356
M16
G05
G00X16.059Y-13.2875
M15
G01X16.0362Y-13.2859
M16
G05
G00X16.059Y-14.7875
M15
G01X16.0362Y-14.7859
M16
G05
T0
M30
